<?xml version="1.0" encoding="UTF-8"?>
<svg width="48px" height="48px" viewBox="0 0 48 48" version="1.1" xmlns="http://www.w3.org/2000/svg" xmlns:xlink="http://www.w3.org/1999/xlink">
    <title>Icon-Resource/Database/Res_Amazon-DynamoDB_Stream_48</title>
    <g id="Icon-Resource/Database/Res_Amazon-DynamoDB_Stream_48" stroke="none" stroke-width="1" fill="none" fill-rule="evenodd">
        <path d="M2,4 L46,4 L46,2 L2,2 L2,4 Z M2,46 L46,46 L46,44 L2,44 L2,46 Z M30.887,33.616 L38.611,35.696 L43.813,16.384 L36.088,14.304 L30.887,33.616 Z M39.317,37.922 C39.23,37.922 39.143,37.911 39.058,37.888 L29.401,35.287 C29.145,35.218 28.927,35.05 28.795,34.82 C28.662,34.59 28.627,34.317 28.695,34.061 L34.417,12.818 C34.486,12.562 34.654,12.344 34.884,12.211 C35.113,12.08 35.387,12.043 35.643,12.112 L45.298,14.713 C45.831,14.857 46.147,15.405 46.004,15.939 L40.283,37.182 C40.214,37.438 40.046,37.656 39.816,37.789 C39.663,37.876 39.491,37.922 39.317,37.922 L39.317,37.922 Z M17,34 L25,34 L25,14 L17,14 L17,34 Z M26,36 L16,36 C15.447,36 15,35.552 15,35 L15,13 C15,12.448 15.447,12 16,12 L26,12 C26.553,12 27,12.448 27,13 L27,35 C27,35.552 26.553,36 26,36 L26,36 Z M4,34 L12,34 L12,14 L4,14 L4,34 Z M13,36 L3,36 C2.447,36 2,35.552 2,35 L2,13 C2,12.448 2.447,12 3,12 L13,12 C13.553,12 14,12.448 14,13 L14,35 C14,35.552 13.553,36 13,36 L13,36 Z" id="Fill-1" fill="#C925D1"></path>
    </g>
</svg>