<?xml version="1.0" encoding="UTF-8"?>
<svg width="40px" height="40px" viewBox="0 0 40 40" version="1.1" xmlns="http://www.w3.org/2000/svg" xmlns:xlink="http://www.w3.org/1999/xlink">
    <title>Icon-Architecture/32/Arch_Amazon-Kinesis-Video-Streams_32</title>
    <g id="Icon-Architecture/32/Arch_Amazon-Kinesis-Video-Streams_32" stroke="none" stroke-width="1" fill="none" fill-rule="evenodd">
        <g id="Icon-Architecture-BG/32/Analytics" fill="#8C4FFF">
            <rect id="Rectangle" x="0" y="0" width="40" height="40"></rect>
        </g>
        <g id="Icon-Service/32/Amazon-Kinesis-Video-Streams" transform="translate(7.000000, 6.000000)" fill="#FFFFFF">
            <path d="M25.888,13.913 C4.234,13.913 1,17.801 1,20.119 L-1.77635684e-15,20.119 C-1.77635684e-15,16.587 4.767,14.346 14.172,13.413 C4.767,12.48 -1.77635684e-15,10.238 -1.77635684e-15,6.706 L1,6.706 C1,9.024 4.234,12.913 25.888,12.913 L25.888,13.913 Z M8.908,16.792 L8.908,17.854 C4.51,19.491 3.874,21.836 3.874,23.952 L2.874,23.952 C2.874,21.575 3.592,18.653 8.908,16.792 L8.908,16.792 Z M8.908,19.838 L8.908,21.078 C6.754,22.82 6.748,24.931 6.748,26.826 L5.748,26.826 C5.748,24.746 5.752,21.951 8.908,19.838 L8.908,19.838 Z M24.931,24.775 C24.931,25.379 24.44,25.871 23.835,25.871 L13.028,25.871 C12.423,25.871 11.931,25.379 11.931,24.775 L11.931,17.967 C11.931,17.363 12.423,16.871 13.028,16.871 L23.835,16.871 C24.44,16.871 24.931,17.363 24.931,17.967 L24.931,24.775 Z M23.835,15.871 L13.028,15.871 C11.871,15.871 10.931,16.811 10.931,17.967 L10.931,24.775 C10.931,25.931 11.871,26.871 13.028,26.871 L23.835,26.871 C24.991,26.871 25.931,25.931 25.931,24.775 L25.931,17.967 C25.931,16.811 24.991,15.871 23.835,15.871 L23.835,15.871 Z M2.874,2.874 L3.874,2.874 C3.874,6.891 6.49,10.997 25.888,10.997 L25.888,11.997 C5.609,11.997 2.874,7.386 2.874,2.874 L2.874,2.874 Z M5.748,1.77635684e-15 L6.748,1.77635684e-15 C6.748,3.617 6.748,9.081 25.888,9.081 L25.888,10.081 C7.303,10.081 5.748,5.101 5.748,1.77635684e-15 L5.748,1.77635684e-15 Z M17.405,22.588 L17.405,20.177 L19.797,21.382 L17.405,22.588 Z M21.133,20.935 L17.129,18.918 C16.976,18.84 16.791,18.848 16.642,18.939 C16.494,19.031 16.405,19.192 16.405,19.365 L16.405,23.4 C16.405,23.574 16.494,23.735 16.643,23.826 C16.723,23.875 16.814,23.9 16.905,23.9 C16.982,23.9 17.059,23.883 17.129,23.847 L21.133,21.828 C21.302,21.743 21.409,21.571 21.409,21.382 C21.409,21.193 21.302,21.02 21.133,20.935 L21.133,20.935 Z" id="Amazon-Kinesis-Video-Streams_32_Squid"></path>
        </g>
    </g>
</svg>