<?xml version="1.0" encoding="UTF-8"?>
<svg width="48px" height="48px" viewBox="0 0 48 48" version="1.1" xmlns="http://www.w3.org/2000/svg" xmlns:xlink="http://www.w3.org/1999/xlink">
    <title>Icon-Architecture-Category/32/Networking-Content-Delivery_32</title>
    <g id="Icon-Architecture-Category/32/Networking-Content-Delivery_32" stroke="none" stroke-width="1" fill="none" fill-rule="evenodd">
        <rect id="Rectangle" fill="#8C4FFF" x="4" y="4" width="40" height="40"></rect>
        <rect id="#879196-Border-Copy-19" stroke="#879196" stroke-width="2" x="1" y="1" width="46" height="46"></rect>
        <g id="Icon-Category/32/Networking-Content-Delivery_32" transform="translate(12.000000, 10.000000)" fill="#FFFFFF">
            <path d="M21.741,24.067 C20.362,24.067 19.241,22.945 19.241,21.567 C19.241,20.189 20.362,19.067 21.741,19.067 C23.12,19.067 24.241,20.189 24.241,21.567 C24.241,22.945 23.12,24.067 21.741,24.067 M15.241,24.567 C15.241,25.945 14.12,27.067 12.741,27.067 C11.362,27.067 10.241,25.945 10.241,24.567 C10.241,23.189 11.362,22.067 12.741,22.067 C14.12,22.067 15.241,23.189 15.241,24.567 M3.728,24.067 C2.349,24.067 1.228,22.945 1.228,21.567 C1.228,20.189 2.349,19.067 3.728,19.067 C5.107,19.067 6.228,20.189 6.228,21.567 C6.228,22.945 5.107,24.067 3.728,24.067 M1,10.422 C1.001,10.285 1.069,7.075 4.921,7.075 C5.197,7.075 5.421,6.851 5.421,6.575 C5.421,1.077 10.595,1.001 10.815,1 C13.562,1 15.248,2.006 15.825,3.991 C15.899,4.244 16.155,4.399 16.416,4.339 C17.525,4.087 18.553,4.324 19.167,4.973 C19.674,5.508 19.826,6.245 19.597,7.047 C19.554,7.198 19.585,7.36 19.678,7.485 C19.773,7.61 19.921,7.684 20.078,7.684 C22.97,7.684 24,9.173 24,10.567 C24,12.693 22.709,14.067 20.71,14.067 L13.228,14.067 L12.228,14.067 L4.921,14.067 C2.832,14.067 1,12.363 1,10.422 M21.741,18.067 C20.914,18.067 20.162,18.368 19.562,18.85 L14.155,15.067 L20.71,15.067 C23.276,15.067 25,13.258 25,10.567 C25,8.753 23.658,6.922 20.68,6.706 C20.779,5.791 20.506,4.933 19.893,4.286 C19.122,3.471 17.929,3.108 16.641,3.283 C16.036,1.696 14.52,0 10.816,0 C10.718,0.025 8.03,0.011 6.151,1.886 C5.099,2.937 4.522,4.35 4.433,6.09 C0.053,6.367 0,10.378 0,10.42 C0,12.939 2.254,15.067 4.921,15.067 L11.313,15.067 L5.907,18.85 C5.307,18.368 4.555,18.067 3.728,18.067 C1.799,18.067 0.228,19.637 0.228,21.567 C0.228,23.497 1.799,25.067 3.728,25.067 C5.658,25.067 7.228,23.497 7.228,21.567 C7.228,20.83 6.997,20.147 6.605,19.582 L12.241,15.648 L12.241,21.119 C10.555,21.369 9.241,22.813 9.241,24.567 C9.241,26.497 10.811,28.067 12.741,28.067 C14.671,28.067 16.241,26.497 16.241,24.567 C16.241,22.804 14.927,21.356 13.228,21.116 L13.228,15.639 L18.864,19.582 C18.472,20.147 18.241,20.83 18.241,21.567 C18.241,23.497 19.811,25.067 21.741,25.067 C23.671,25.067 25.241,23.497 25.241,21.567 C25.241,19.637 23.671,18.067 21.741,18.067" id="Networking-Content-Delivery_Category-Icon_32_Squid"></path>
        </g>
    </g>
</svg>