<?xml version="1.0" encoding="UTF-8"?>
<svg width="48px" height="48px" viewBox="0 0 48 48" version="1.1" xmlns="http://www.w3.org/2000/svg" xmlns:xlink="http://www.w3.org/1999/xlink">
    <title>Icon-Resource/Networking-and-Content-Delivery/Res_Amazon-Route-53_Resolver_48</title>
    <g id="Icon-Resource/Networking-and-Content-Delivery/Res_Amazon-Route-53_Resolver_48" stroke="none" stroke-width="1" fill="none" fill-rule="evenodd">
        <path d="M32.978,32.012 C31.324,32.012 29.978,30.666 29.978,29.012 C29.978,27.358 31.324,26.012 32.978,26.012 C34.632,26.012 35.978,27.358 35.978,29.012 C35.978,30.666 34.632,32.012 32.978,32.012 M20.978,17.012 C20.978,15.358 22.324,14.012 23.978,14.012 C25.632,14.012 26.978,15.358 26.978,17.012 C26.978,18.666 25.632,20.012 23.978,20.012 C22.324,20.012 20.978,18.666 20.978,17.012 M14.978,32.012 C13.324,32.012 11.978,30.666 11.978,29.012 C11.978,27.358 13.324,26.012 14.978,26.012 C16.632,26.012 17.978,27.358 17.978,29.012 C17.978,30.666 16.632,32.012 14.978,32.012 M32.978,24.012 C32.23,24.012 31.527,24.189 30.889,24.484 L27.717,20.297 C28.492,19.416 28.978,18.275 28.978,17.012 C28.978,14.255 26.735,12.012 23.978,12.012 C21.221,12.012 18.978,14.255 18.978,17.012 C18.978,18.204 19.415,19.286 20.115,20.147 L16.895,24.397 C16.304,24.151 15.657,24.012 14.978,24.012 C12.221,24.012 9.978,26.255 9.978,29.012 C9.978,31.769 12.221,34.012 14.978,34.012 C17.735,34.012 19.978,31.769 19.978,29.012 C19.978,27.655 19.43,26.426 18.549,25.524 L21.662,21.416 C22.358,21.784 23.138,22.012 23.978,22.012 C24.749,22.012 25.472,21.822 26.125,21.508 L29.282,25.675 C28.48,26.562 27.978,27.725 27.978,29.012 C27.978,31.769 30.221,34.012 32.978,34.012 C35.735,34.012 37.978,31.769 37.978,29.012 C37.978,26.255 35.735,24.012 32.978,24.012 M34.055,39.447 C29.392,40.284 25.46,42.741 23.993,43.752 C22.525,42.741 18.592,40.284 13.929,39.447 C11.6,39.028 4,37.17 4,30.821 C4,28.168 5.004,26.439 6.067,24.608 C7.065,22.889 8.096,21.112 8.096,18.68 C8.096,15.017 6.071,12.384 4.941,11.2 C6.095,9.797 8.634,6.699 10.027,4.917 C12.148,6.85 14.595,7.902 17.019,7.902 C19.719,7.902 21.96,6.837 23.993,4.569 C26.024,6.837 28.265,7.902 30.965,7.902 C33.389,7.902 35.836,6.85 37.957,4.917 C39.35,6.699 41.889,9.797 43.043,11.2 C41.914,12.384 39.888,15.017 39.888,18.68 C39.888,21.112 40.919,22.889 41.917,24.608 C42.98,26.439 43.984,28.168 43.984,30.821 C43.984,37.17 36.384,39.028 34.055,39.447 M43.647,23.604 C42.704,21.978 41.888,20.574 41.888,18.68 C41.888,14.682 45.007,12.085 45.037,12.061 C45.244,11.893 45.375,11.649 45.403,11.383 C45.429,11.117 45.349,10.852 45.179,10.646 C45.127,10.584 40.035,4.413 38.872,2.818 C38.697,2.577 38.422,2.428 38.124,2.409 C37.842,2.388 37.537,2.506 37.333,2.724 C35.416,4.774 33.155,5.902 30.965,5.902 C28.549,5.902 26.644,4.82 24.787,2.392 C24.597,2.145 24.304,2 23.993,2 C23.681,2 23.388,2.145 23.199,2.392 C21.34,4.82 19.434,5.902 17.019,5.902 C14.83,5.902 12.568,4.774 10.651,2.724 C10.448,2.506 10.14,2.387 9.86,2.409 C9.562,2.428 9.288,2.577 9.113,2.818 C7.95,4.413 2.857,10.584 2.805,10.646 C2.636,10.851 2.557,11.116 2.582,11.381 C2.609,11.646 2.74,11.89 2.946,12.059 C2.977,12.085 6.096,14.682 6.096,18.68 C6.096,20.574 5.281,21.978 4.337,23.604 C3.242,25.491 2,27.63 2,30.821 C2,36.153 6.328,40.113 13.576,41.415 C18.889,42.369 23.339,45.743 23.384,45.777 C23.563,45.914 23.778,45.983 23.993,45.983 C24.207,45.983 24.422,45.914 24.601,45.777 C24.646,45.743 29.096,42.369 34.409,41.415 C41.657,40.113 45.984,36.153 45.984,30.821 C45.984,27.63 44.743,25.491 43.647,23.604" id="Fill-1" fill="#8C4FFF"></path>
    </g>
</svg>