<?xml version="1.0" encoding="UTF-8"?>
<svg width="48px" height="48px" viewBox="0 0 48 48" version="1.1" xmlns="http://www.w3.org/2000/svg" xmlns:xlink="http://www.w3.org/1999/xlink">
    <title>Icon-Resource/Networking-and-Content-Delivery/Res_Amazon-Route-53_Readiness-Checks_48</title>
    <g id="Icon-Resource/Networking-and-Content-Delivery/Res_Amazon-Route-53_Readiness-Checks_48" stroke="none" stroke-width="1" fill="none" fill-rule="evenodd">
        <path d="M43.983,30.82 C43.983,28.168 42.979,26.438 41.917,24.607 C40.919,22.888 39.887,21.112 39.887,18.68 C39.887,15.016 41.913,12.383 43.043,11.199 C41.888,9.796 39.349,6.698 37.957,4.916 C35.836,6.849 33.388,7.902 30.964,7.902 C28.264,7.902 26.023,6.837 23.992,4.569 C21.96,6.837 19.718,7.902 17.018,7.902 C14.594,7.902 12.147,6.849 10.026,4.916 C8.633,6.698 6.094,9.796 4.94,11.199 C6.07,12.383 8.095,15.016 8.095,18.68 C8.095,21.112 7.064,22.888 6.066,24.607 C5.004,26.438 4,28.168 4,30.82 C4,37.169 11.599,39.028 13.928,39.446 C18.591,40.284 22.524,42.74 23.992,43.752 C25.46,42.74 29.391,40.284 34.054,39.446 C36.383,39.028 43.983,37.169 43.983,30.82 L43.983,30.82 Z M45.983,30.82 C45.983,36.152 41.656,40.112 34.408,41.415 C29.095,42.369 24.645,45.742 24.6,45.777 C24.421,45.914 24.207,45.983 23.992,45.983 C23.777,45.983 23.562,45.914 23.383,45.777 C23.338,45.742 18.888,42.369 13.575,41.415 C6.327,40.112 2,36.152 2,30.82 C2,27.629 3.241,25.49 4.337,23.603 C5.28,21.977 6.095,20.573 6.095,18.68 C6.095,14.682 2.976,12.084 2.945,12.058 C2.739,11.89 2.608,11.645 2.582,11.381 C2.556,11.116 2.635,10.851 2.804,10.646 C2.856,10.584 7.949,4.413 9.112,2.818 C9.287,2.577 9.561,2.427 9.859,2.409 C10.139,2.387 10.447,2.506 10.65,2.724 C12.567,4.773 14.829,5.902 17.018,5.902 C19.433,5.902 21.339,4.819 23.198,2.392 C23.387,2.145 23.68,2 23.992,2 C24.303,2 24.596,2.145 24.786,2.392 C26.643,4.819 28.548,5.902 30.964,5.902 C33.154,5.902 35.416,4.773 37.333,2.724 C37.536,2.506 37.841,2.388 38.124,2.409 C38.421,2.427 38.696,2.577 38.871,2.818 C40.034,4.413 45.127,10.584 45.178,10.646 C45.348,10.852 45.428,11.117 45.402,11.383 C45.375,11.648 45.243,11.892 45.036,12.06 C45.006,12.084 41.887,14.682 41.887,18.68 C41.887,20.573 42.703,21.977 43.646,23.603 C44.742,25.49 45.983,27.629 45.983,30.82 L45.983,30.82 Z M34.898,16.37 L36.312,17.784 L21.828,32.269 C21.632,32.464 21.377,32.562 21.121,32.562 C20.865,32.562 20.609,32.464 20.414,32.269 L14.532,26.387 L15.946,24.973 L21.121,30.148 L34.898,16.37 Z" id="Fill-1" fill="#8C4FFF"></path>
    </g>
</svg>