<?xml version="1.0" encoding="UTF-8"?>
<svg width="48px" height="48px" viewBox="0 0 48 48" version="1.1" xmlns="http://www.w3.org/2000/svg" xmlns:xlink="http://www.w3.org/1999/xlink">
    <title>Icon-Resource/Networking-and-Content-Delivery/Res_Amazon-Route-53_Application-Recovery-Controller_48</title>
    <g id="Icon-Resource/Networking-and-Content-Delivery/Res_Amazon-Route-53_Application-Recovery-Controller_48" stroke="none" stroke-width="1" fill="none" fill-rule="evenodd">
        <path d="M28.4775,30.0118 C27.6505,30.0118 26.9775,29.3388 26.9775,28.5118 C26.9775,27.6848 27.6505,27.0118 28.4775,27.0118 C29.3045,27.0118 29.9775,27.6848 29.9775,28.5118 C29.9775,29.3388 29.3045,30.0118 28.4775,30.0118 L28.4775,30.0118 Z M19.9775,35.0118 L19.9775,30.0118 L25.3295,30.0118 C25.6735,30.7338 26.2555,31.3148 26.9775,31.6608 L26.9775,35.0118 L19.9775,35.0118 Z M28.4775,25.0118 C26.7185,25.0118 25.2735,26.3208 25.0285,28.0118 L12.9775,28.0118 L12.9775,23.0118 L10.9775,23.0118 L10.9775,30.0118 L17.9775,30.0118 L17.9775,37.0118 L28.9775,37.0118 L28.9775,31.9608 C30.1595,31.7898 31.1475,31.0338 31.6385,29.9898 L36.9775,29.9898 L36.9775,27.9898 L31.9245,27.9898 C31.6695,26.3088 30.2285,25.0118 28.4775,25.0118 L28.4775,25.0118 Z M20.4775,21.0118 C19.6505,21.0118 18.9775,20.3388 18.9775,19.5118 C18.9775,18.6848 19.6505,18.0118 20.4775,18.0118 C21.3045,18.0118 21.9775,18.6848 21.9775,19.5118 C21.9775,20.3388 21.3045,21.0118 20.4775,21.0118 L20.4775,21.0118 Z M20.4775,16.0118 C20.3065,16.0118 20.1425,16.0388 19.9775,16.0628 L19.9775,13.0118 L26.9775,13.0118 L26.9775,18.0118 L28.9775,18.0118 L28.9775,11.0118 L17.9775,11.0118 L17.9775,17.0698 C17.4705,17.5898 17.1345,18.2668 17.0275,19.0188 L10.9775,19.0188 L10.9775,21.0188 L17.3325,21.0188 C17.8985,22.1938 19.0895,23.0118 20.4775,23.0118 C21.8685,23.0118 23.0625,22.1898 23.6255,21.0118 L34.9775,21.0118 L34.9775,26.0118 L36.9775,26.0118 L36.9775,19.0118 L23.9265,19.0118 C23.6815,17.3208 22.2365,16.0118 20.4775,16.0118 L20.4775,16.0118 Z M34.0545,39.4468 C29.3915,40.2838 25.4595,42.7408 23.9925,43.7518 C22.5245,42.7408 18.5915,40.2838 13.9285,39.4468 C11.5995,39.0278 3.9995,37.1698 3.9995,30.8208 C3.9995,28.1678 5.0035,26.4388 6.0665,24.6078 C7.0645,22.8888 8.0955,21.1118 8.0955,18.6798 C8.0955,15.0168 6.0705,12.3838 4.9405,11.1998 C6.0945,9.7968 8.6335,6.6988 10.0265,4.9168 C12.1475,6.8498 14.5945,7.9018 17.0185,7.9018 C19.7185,7.9018 21.9595,6.8368 23.9925,4.5688 C26.0235,6.8368 28.2645,7.9018 30.9645,7.9018 C33.3885,7.9018 35.8355,6.8498 37.9565,4.9168 C39.3495,6.6988 41.8885,9.7968 43.0425,11.1998 C41.9135,12.3838 39.8875,15.0168 39.8875,18.6798 C39.8875,21.1118 40.9185,22.8888 41.9165,24.6078 C42.9795,26.4388 43.9835,28.1678 43.9835,30.8208 C43.9835,37.1698 36.3835,39.0278 34.0545,39.4468 L34.0545,39.4468 Z M43.6465,23.6038 C42.7035,21.9778 41.8875,20.5738 41.8875,18.6798 C41.8875,14.6818 45.0065,12.0848 45.0365,12.0608 C45.2435,11.8928 45.3745,11.6488 45.4025,11.3828 C45.4285,11.1168 45.3485,10.8518 45.1785,10.6458 C45.1265,10.5838 40.0345,4.4128 38.8715,2.8178 C38.6965,2.5768 38.4215,2.4278 38.1235,2.4088 C37.8425,2.3878 37.5365,2.5058 37.3325,2.7238 C35.4155,4.7738 33.1545,5.9018 30.9645,5.9018 C28.5485,5.9018 26.6435,4.8198 24.7865,2.3918 C24.5965,2.1448 24.3035,1.9998 23.9925,1.9998 C23.6805,1.9998 23.3875,2.1448 23.1985,2.3918 C21.3395,4.8198 19.4335,5.9018 17.0185,5.9018 C14.8295,5.9018 12.5675,4.7738 10.6505,2.7238 C10.4475,2.5058 10.1395,2.3868 9.8595,2.4088 C9.5615,2.4278 9.2875,2.5768 9.1125,2.8178 C7.9495,4.4128 2.8565,10.5838 2.8045,10.6458 C2.6355,10.8508 2.5565,11.1158 2.5815,11.3808 C2.6085,11.6458 2.7395,11.8898 2.9455,12.0588 C2.9765,12.0848 6.0955,14.6818 6.0955,18.6798 C6.0955,20.5738 5.2805,21.9778 4.3365,23.6038 C3.2415,25.4908 1.9995,27.6298 1.9995,30.8208 C1.9995,36.1528 6.3275,40.1128 13.5755,41.4148 C18.8885,42.3688 23.3385,45.7428 23.3835,45.7768 C23.5625,45.9138 23.7775,45.9828 23.9925,45.9828 C24.2065,45.9828 24.4215,45.9138 24.6005,45.7768 C24.6455,45.7428 29.0955,42.3688 34.4085,41.4148 C41.6565,40.1128 45.9835,36.1528 45.9835,30.8208 C45.9835,27.6298 44.7425,25.4908 43.6465,23.6038 L43.6465,23.6038 Z" id="Fill-1" fill="#8C4FFF"></path>
    </g>
</svg>