<?xml version="1.0" encoding="UTF-8"?>
<svg width="48px" height="48px" viewBox="0 0 48 48" version="1.1" xmlns="http://www.w3.org/2000/svg" xmlns:xlink="http://www.w3.org/1999/xlink">
    <title>Icon-Resource/Application-Integration/Res_Amazon-EventBridge_Scheduler_48</title>
    <g id="Icon-Resource/Application-Integration/Res_Amazon-EventBridge_Scheduler_48" stroke="none" stroke-width="1" fill="none" fill-rule="evenodd">
        <path d="M15,16 L18.92,16 L18.92,14 L15.92,14 L15.92,11 L14,11 L14,15 C14,15.552 14.447,16 15,16 L15,16 Z M5.293,24.293 L6.707,25.707 L9.707,22.707 L8.293,21.293 L5.293,24.293 Z M8.707,8.293 L5.707,5.293 L4.293,6.707 L7.293,9.707 L8.707,8.293 Z M15.92,6 L16,6 L16,2 L15.92,2 L14,2 L14,6 L15.92,6 Z M25.707,6.707 L24.293,5.293 L21.293,8.293 L22.707,9.707 L25.707,6.707 Z M8.92,15 C8.92,18.309 11.611,21 14.92,21 C18.229,21 20.92,18.309 20.92,15 C20.92,11.691 18.229,9 14.92,9 C11.611,9 8.92,11.691 8.92,15 L8.92,15 Z M6.92,15 C6.92,10.589 10.509,7 14.92,7 C19.331,7 22.92,10.589 22.92,15 C22.92,19.411 19.331,23 14.92,23 C10.509,23 6.92,19.411 6.92,15 L6.92,15 Z M18,38 L22,38 L22,36 L18,36 L18,38 Z M18,33 L22,33 L22,31 L18,31 L18,33 Z M18,28 L22,28 L22,26 L18,26 L18,28 Z M36,38 L40,38 L40,36 L36,36 L36,38 Z M36,33 L40,33 L40,31 L36,31 L36,33 Z M36,28 L40,28 L40,26 L36,26 L36,28 Z M27,38 L31,38 L31,36 L27,36 L27,38 Z M27,33 L31,33 L31,31 L27,31 L27,33 Z M27,28 L31,28 L31,26 L27,26 L27,28 Z M45,12 L42,12 L42,10 L40,10 L40,12 L35.92,12 L35.92,10 L34,10 L34,12 L29.92,12 L29.92,10 L28,10 L28,12 L25,12 L25,14 L28,14 L28,16 L29.92,16 L29.92,14 L34,14 L34,16 L35.92,16 L35.92,14 L40,14 L40,16 L41.92,16 L41.92,14 L44,14 L44,18 L25,18 L25,20 L44,20 L44,43 L14,43 L14,26 L12,26 L12,44 C12,44.552 12.447,45 13,45 L45,45 C45.553,45 46,44.552 46,44 L46,19 L46,13 C46,12.448 45.553,12 45,12 L45,12 Z M2,17 L5.976,17 L5.976,15 L2,15 L2,17 Z" id="Fill-1" fill="#E7157B"></path>
    </g>
</svg>