<?xml version="1.0" encoding="UTF-8"?>
<svg width="48px" height="48px" viewBox="0 0 48 48" version="1.1" xmlns="http://www.w3.org/2000/svg" xmlns:xlink="http://www.w3.org/1999/xlink">
    <title>Icon-Resource/Management-Governance/Res_AWS-Systems-Manager_Incident-Manager_48</title>
    <g id="Icon-Resource/Management-Governance/Res_AWS-Systems-Manager_Incident-Manager_48" stroke="none" stroke-width="1" fill="none" fill-rule="evenodd">
        <path d="M22.8408,15.3737048 L21.7798,13.6787048 C23.4628,12.6257048 25.3198,11.9467048 27.2988,11.6627048 L27.5838,13.6417048 C25.8818,13.8867048 24.2858,14.4697048 22.8408,15.3737048 L22.8408,15.3737048 Z M21.5358,16.3157048 C18.8628,18.5277048 17.2448,21.7727048 17.0988,25.2217048 L15.1008,25.1367048 C15.2718,21.1237048 17.1528,17.3467048 20.2608,14.7747048 L21.5358,16.3157048 Z M22.8088,22.8617048 C22.4078,23.8577048 22.2788,24.9507048 22.4328,26.0207048 L20.4518,26.3057048 C20.2478,24.8867048 20.4218,23.4377048 20.9528,22.1157048 L22.8088,22.8617048 Z M23.3808,21.7677048 L21.7108,20.6667048 C22.9918,18.7227048 25.0478,17.4167048 27.3528,17.0847048 L27.6378,19.0647048 C25.8998,19.3147048 24.3478,20.2997048 23.3808,21.7677048 L23.3808,21.7677048 Z M22.9998,30.9937048 L8.9558,30.9937048 C7.7818,30.9937048 6.9278,30.5497048 6.3138,30.1627048 C4.7038,29.1517048 1.9998,26.7847048 1.9998,22.3007048 C1.9998,16.9847048 5.5408,14.9527048 7.7268,14.2047048 L7.6948,13.6767048 C7.6938,9.20670483 10.6678,4.63570483 14.6128,2.98570483 C19.2208,1.04470483 24.1068,2.00470483 27.6778,5.56170483 C28.7238,6.60070483 29.5938,7.85270483 30.2748,9.29770483 C31.6918,8.24470483 33.5488,7.90970483 35.2748,8.48170483 C37.5208,9.22370483 38.9338,11.2547048 39.1468,13.9867048 C41.4608,14.5707048 45.9708,16.4697048 45.9708,22.3697048 L45.9718,22.6707048 C45.9741852,23.1217048 45.9768,23.8627048 45.9698,24.0187048 L43.9718,23.9307048 C43.9788,23.7847048 43.9738,23.0987048 43.9718,22.6807048 L43.9708,22.3697048 C43.9708,17.3537048 39.7868,16.0927048 37.9868,15.7827048 C37.7178,15.7367048 37.4788,15.5817048 37.3258,15.3537048 C37.1808,15.1357048 37.1258,14.8707048 37.1738,14.6147048 C37.1458,12.4427048 36.2288,10.9027048 34.6468,10.3807048 C33.2178,9.90670483 31.6368,10.4167048 30.7218,11.6507048 C30.5028,11.9477048 30.1338,12.0957048 29.7728,12.0447048 C29.4068,11.9907048 29.1028,11.7397048 28.9778,11.3927048 C28.3418,9.61970483 27.4298,8.13470483 26.2668,6.97970483 C24.8378,5.55670483 20.9168,2.49570483 15.3878,4.82970483 C12.1938,6.16570483 9.6938,10.0247048 9.6938,13.6167048 L9.7708,14.8767048 C9.7998,15.3567048 9.4838,15.7887048 9.0168,15.9067048 C7.1438,16.3787048 3.9998,17.8377048 3.9998,22.3007048 C3.9998,25.6457048 5.8378,27.5017048 7.3788,28.4697048 C7.9778,28.8477048 8.4188,28.9937048 8.9558,28.9937048 L22.9998,28.9937048 L22.9998,30.9937048 Z M35.7668,42.7787048 L37.7668,42.7787048 C37.7668,44.5407048 36.3328,45.9747048 34.5698,45.9747048 C32.8078,45.9747048 31.3738,44.5407048 31.3738,42.7787048 L33.3738,42.7787048 C33.3738,43.4377048 33.9108,43.9747048 34.5698,43.9747048 C35.2298,43.9747048 35.7668,43.4377048 35.7668,42.7787048 L35.7668,42.7787048 Z M43.9998,38.7727048 C43.9998,39.4457048 43.4518,39.9937048 42.7788,39.9937048 L26.2208,39.9937048 C25.5478,39.9937048 24.9998,39.4457048 24.9998,38.7727048 L24.9998,38.2147048 C24.9998,37.5417048 25.5478,36.9937048 26.2208,36.9937048 L42.7788,36.9937048 C43.4518,36.9937048 43.9998,37.5417048 43.9998,38.2147048 L43.9998,38.7727048 Z M27.9998,29.1547048 C27.9998,25.9357048 29.5028,23.6077048 32.0208,22.9297048 C32.4568,22.8117048 32.7608,22.4157048 32.7608,21.9637048 L32.7608,19.8787048 C32.7608,19.5327048 32.9608,19.2027048 33.3108,18.9757048 C34.0168,18.5167048 34.6428,18.7297048 34.9518,18.8977048 C35.4468,19.1657048 35.7148,19.6117048 35.7148,19.8947048 L35.7148,21.7627048 C35.7148,22.2297048 36.0378,22.6347048 36.4928,22.7377048 C39.2738,23.3697048 40.9998,25.8757048 40.9998,29.2797048 L40.9998,34.9937048 L27.9998,34.9937048 L27.9998,29.1547048 Z M42.9998,35.0157048 L42.9998,29.2797048 C42.9998,25.2047048 40.9958,22.1077048 37.7148,21.0057048 L37.7148,19.8947048 C37.7148,18.8177048 37.0048,17.7357048 35.9058,17.1397048 C34.7318,16.5027048 33.3528,16.5607048 32.2198,17.2987048 C31.3068,17.8937048 30.7608,18.8577048 30.7608,19.8787048 L30.7608,21.2387048 C27.7638,22.3827048 25.9998,25.2847048 25.9998,29.1547048 L25.9998,34.9937048 L26.2208,34.9937048 C24.4448,34.9937048 22.9998,36.4387048 22.9998,38.2147048 L22.9998,38.7727048 C22.9998,40.5487048 24.4448,41.9937048 26.2208,41.9937048 L42.7788,41.9937048 C44.5558,41.9937048 45.9998,40.5487048 45.9998,38.7727048 L45.9998,38.2147048 C45.9998,36.5147048 44.6718,35.1317048 42.9998,35.0157048 L42.9998,35.0157048 Z" id="Fill-1" fill="#E7157B"></path>
    </g>
</svg>