<?xml version="1.0" encoding="UTF-8"?>
<svg width="48px" height="48px" viewBox="0 0 48 48" version="1.1" xmlns="http://www.w3.org/2000/svg" xmlns:xlink="http://www.w3.org/1999/xlink">
    <title>Icon-Resource/Analytics/Res_Amazon-OpenSearch-Service_Cluster-Administrator-Node_48</title>
    <g id="Icon-Resource/Analytics/Res_Amazon-OpenSearch-Service_Cluster-Administrator-Node_48" stroke="none" stroke-width="1" fill="none" fill-rule="evenodd">
        <path d="M36.868,33 C36.868,30.962 35.21,29.304 33.172,29.304 C31.134,29.304 29.476,30.962 29.476,33 C29.476,35.038 31.134,36.696 33.172,36.696 C35.21,36.696 36.868,35.038 36.868,33 L36.868,33 Z M38.868,33 C38.868,36.141 36.312,38.696 33.172,38.696 C30.031,38.696 27.476,36.141 27.476,33 C27.476,29.859 30.031,27.304 33.172,27.304 C36.312,27.304 38.868,29.859 38.868,33 L38.868,33 Z M44.172,31.673 L43.236,31.727 C42.777,31.75 42.311,31.426 42.204,30.949 C41.972,29.925 41.57,28.954 41.008,28.065 C40.747,27.651 40.823,27.11 41.187,26.785 L41.888,26.16 L40.012,24.284 L39.384,24.988 C39.056,25.353 38.515,25.428 38.103,25.167 C37.216,24.606 36.247,24.205 35.222,23.973 C34.746,23.865 34.417,23.429 34.445,22.941 L34.498,22 L31.846,22 L31.899,22.939 C31.928,23.428 31.598,23.864 31.122,23.972 C30.096,24.204 29.125,24.605 28.238,25.166 C27.824,25.426 27.282,25.351 26.958,24.986 L26.332,24.284 L24.456,26.16 L25.158,26.786 C25.523,27.112 25.599,27.654 25.338,28.067 C24.775,28.957 24.372,29.926 24.14,30.95 C24.031,31.426 23.561,31.75 23.108,31.727 L22.172,31.673 L22.172,34.326 L23.105,34.273 C23.569,34.255 24.031,34.575 24.138,35.053 C24.367,36.076 24.769,37.047 25.332,37.94 C25.593,38.354 25.516,38.895 25.151,39.22 L24.456,39.84 L26.332,41.716 L26.953,41.02 C27.278,40.653 27.821,40.579 28.233,40.84 C29.125,41.404 30.097,41.807 31.122,42.038 C31.598,42.146 31.928,42.583 31.899,43.071 L31.847,44 L34.498,44 L34.445,43.072 C34.417,42.583 34.746,42.147 35.222,42.04 C36.251,41.807 37.223,41.404 38.113,40.842 C38.525,40.582 39.067,40.656 39.393,41.022 L40.013,41.716 L41.888,39.84 L41.19,39.218 C40.826,38.893 40.75,38.352 41.011,37.938 C41.573,37.045 41.975,36.074 42.205,35.052 C42.312,34.575 42.763,34.255 43.237,34.273 L44.172,34.326 L44.172,31.673 Z M45.858,29.888 C46.058,30.077 46.172,30.34 46.172,30.615 L46.172,35.385 C46.172,35.66 46.058,35.923 45.858,36.112 C45.659,36.3 45.388,36.397 45.115,36.383 L43.937,36.316 C43.73,36.99 43.461,37.642 43.13,38.268 L44.01,39.053 C44.215,39.236 44.336,39.496 44.344,39.771 C44.351,40.045 44.245,40.312 44.051,40.506 L40.678,43.879 C40.483,44.074 40.195,44.182 39.942,44.171 C39.667,44.164 39.407,44.042 39.224,43.837 L38.443,42.961 C37.818,43.292 37.165,43.563 36.488,43.771 L36.555,44.942 C36.57,45.217 36.472,45.486 36.283,45.686 C36.095,45.886 35.832,46 35.556,46 L30.787,46 C30.512,46 30.249,45.886 30.059,45.686 C29.871,45.486 29.773,45.217 29.789,44.942 L29.856,43.77 C29.181,43.562 28.528,43.291 27.903,42.959 L27.119,43.837 C26.936,44.043 26.677,44.164 26.401,44.171 C26.129,44.179 25.86,44.074 25.666,43.879 L22.293,40.506 C22.098,40.312 21.992,40.045 22,39.77 C22.008,39.495 22.129,39.235 22.335,39.052 L23.213,38.269 C22.882,37.644 22.611,36.991 22.405,36.316 L21.228,36.383 C20.959,36.398 20.684,36.3 20.485,36.112 C20.285,35.923 20.172,35.66 20.172,35.385 L20.172,30.615 C20.172,30.34 20.285,30.077 20.485,29.888 C20.684,29.699 20.958,29.604 21.228,29.616 L22.41,29.684 C22.617,29.01 22.888,28.359 23.219,27.736 L22.335,26.948 C22.129,26.765 22.008,26.505 22,26.23 C21.992,25.955 22.098,25.689 22.293,25.495 L25.666,22.122 C25.86,21.927 26.131,21.817 26.401,21.829 C26.677,21.837 26.935,21.958 27.119,22.163 L27.908,23.047 C28.53,22.717 29.181,22.447 29.856,22.24 L29.789,21.057 C29.773,20.782 29.871,20.513 30.06,20.313 C30.249,20.113 30.512,20 30.787,20 L35.556,20 C35.832,20 36.095,20.113 36.283,20.312 C36.472,20.513 36.57,20.782 36.555,21.056 L36.488,22.242 C37.161,22.449 37.811,22.719 38.433,23.048 L39.224,22.163 C39.408,21.958 39.667,21.837 39.942,21.829 C40.22,21.814 40.483,21.927 40.678,22.122 L44.051,25.495 C44.245,25.689 44.351,25.955 44.344,26.23 C44.336,26.505 44.215,26.765 44.01,26.948 L43.127,27.735 C43.458,28.358 43.727,29.01 43.935,29.684 L45.115,29.616 C45.388,29.605 45.659,29.699 45.858,29.888 L45.858,29.888 Z M7,44 L19,44 L19,46 L7,46 C4.243,46 2,43.757 2,41 L2,7 C2,4.243 4.243,2 7,2 L41,2 C43.757,2 46,4.243 46,7 L46,20 L44,20 L44,7 C44,5.346 42.654,4 41,4 L7,4 C5.346,4 4,5.346 4,7 L4,41 C4,42.654 5.346,44 7,44 L7,44 Z" id="Fill-1" fill="#8C4FFF"></path>
    </g>
</svg>