<?xml version="1.0" encoding="UTF-8"?>
<svg width="40px" height="40px" viewBox="0 0 40 40" version="1.1" xmlns="http://www.w3.org/2000/svg" xmlns:xlink="http://www.w3.org/1999/xlink">
    <title>Icon-Architecture/32/Arch_Amazon-WorkSpaces-Thin-Client_32</title>
    <g id="Icon-Architecture/32/Arch_Amazon-WorkSpaces-Thin-Client_32" stroke="none" stroke-width="1" fill="none" fill-rule="evenodd">
        <g id="Icon-Architecture-BG/32/End-User-Computing" fill="#01A88D">
            <rect id="Rectangle" x="0" y="0" width="40" height="40"></rect>
        </g>
        <g id="Icon-Service/32/Amazon-WorkSpaces-Thin-Client_32" transform="translate(6.000000, 6.000000)" fill="#FFFFFF">
            <path d="M0.02,11.663 C-0.198,9.211 1.393,7.042 3.697,6.551 C4.138,2.847 7.223,0 10.885,0 C13.505,0 15.929,1.467 17.21,3.828 C17.311,4.013 17.457,4.078 17.562,4.1 C17.723,4.135 17.9,4.087 18.045,3.973 C18.678,3.477 19.434,3.214 20.231,3.214 C22.068,3.214 23.589,4.629 23.817,6.454 C24.927,6.571 25.973,7.099 26.742,7.942 C27.655,8.943 28.106,10.306 27.979,11.681 C27.754,14.103 25.642,16 23.168,16 L21,16 L21,15 L23.168,15 C25.13,15 26.806,13.502 26.983,11.589 C27.084,10.494 26.727,9.41 26.003,8.616 C25.305,7.85 24.362,7.429 23.346,7.429 C23.07,7.429 22.846,7.205 22.846,6.929 C22.846,5.432 21.673,4.214 20.231,4.214 C19.66,4.214 19.118,4.403 18.663,4.76 C18.286,5.056 17.808,5.174 17.359,5.079 C16.916,4.987 16.552,4.712 16.332,4.304 C15.225,2.266 13.138,1 10.885,1 C7.619,1 4.883,3.642 4.658,7.013 C4.641,7.252 4.458,7.447 4.22,7.476 C2.241,7.722 0.833,9.522 1.016,11.574 C1.188,13.495 2.876,15 4.86,15 L6,15 L6,16 L4.86,16 C2.363,16 0.238,14.095 0.02,11.663 L0.02,11.663 Z M1,23 L6,23 L6,18 L1,18 L1,23 Z M10,14.5 L10,11.707 L11.147,12.853 L11.854,12.146 L9.854,10.146 C9.659,9.951 9.342,9.951 9.147,10.146 L7.147,12.146 L7.854,12.853 L9,11.707 L9,14.5 C9,15.878 7.879,17 6.5,17 L0.5,17 C0.224,17 0,17.224 0,17.5 L0,23.5 C0,23.776 0.224,24 0.5,24 L6.5,24 C6.777,24 7,23.776 7,23.5 L7,17.949 C8.692,17.704 10,16.258 10,14.5 L10,14.5 Z M21,23 L26,23 L26,18 L21,18 L21,23 Z M26.5,17 L20.5,17 C19.122,17 18,15.878 18,14.5 L18,11.707 L19.147,12.853 L19.854,12.146 L17.854,10.146 C17.659,9.951 17.342,9.951 17.147,10.146 L15.147,12.146 L15.854,12.853 L17,11.707 L17,14.5 C17,16.258 18.309,17.704 20,17.949 L20,23.5 C20,23.776 20.224,24 20.5,24 L26.5,24 C26.777,24 27,23.776 27,23.5 L27,17.5 C27,17.224 26.777,17 26.5,17 L26.5,17 Z M10,27 L17,27 L17,20 L10,20 L10,27 Z M17.5,19 L14,19 L14,7.707 L15.147,8.853 L15.854,8.146 L13.854,6.146 C13.659,5.951 13.342,5.951 13.147,6.146 L11.147,8.146 L11.854,8.853 L13,7.707 L13,19 L9.5,19 C9.224,19 9,19.224 9,19.5 L9,27.5 C9,27.776 9.224,28 9.5,28 L17.5,28 C17.777,28 18,27.776 18,27.5 L18,19.5 C18,19.224 17.777,19 17.5,19 L17.5,19 Z" id="Fill-5"></path>
        </g>
    </g>
</svg>