<svg id="uuid-8c3ede43-556d-4c60-b8eb-ea300a9c8766" xmlns="http://www.w3.org/2000/svg" width="18" height="18" viewBox="0 0 18 18"><defs><linearGradient id="uuid-d6d02162-7031-4e3b-b29b-ca55708bd0cf" x1="-235" y1="996.992" x2="-235" y2="979.11" gradientTransform="translate(244 997.516) scale(1 -1)" gradientUnits="userSpaceOnUse"><stop offset=".18" stop-color="#5ea0ef" /><stop offset="1" stop-color="#0078d4" /></linearGradient><linearGradient id="uuid-fc6fa532-36b5-4e80-bb0b-12e223ed5f8b" x1="-234.949" y1="812.064" x2="-234.949" y2="803.315" gradientTransform="translate(244 -798)" gradientUnits="userSpaceOnUse"><stop offset="0" stop-color="#86d633" /><stop offset=".596" stop-color="#a4e434" /><stop offset=".999" stop-color="#b4ec36" /></linearGradient><linearGradient id="uuid-6c77c759-fa11-42a5-905e-4a3b7bac0fd6" x1="9.051" y1="11.847" x2="9.051" y2="7.673" gradientTransform="matrix(1, 0, 0, 1, 0, 0)" gradientUnits="userSpaceOnUse"><stop offset="0" stop-color="#5e9624" /><stop offset=".111" stop-color="#64a026" /><stop offset=".348" stop-color="#6eaf2a" /><stop offset=".619" stop-color="#74b92c" /><stop offset=".999" stop-color="#76bc2d" /></linearGradient></defs><path d="M17.966,11.442c-.036-2.004-1.515-3.689-3.497-3.985-.081-2.814-2.415-5.037-5.23-4.981-2.232-.023-4.233,1.374-4.981,3.477C1.858,6.262,.054,8.295,.034,10.715c.097,2.708,2.341,4.842,5.051,4.802H13.702c.073,.01,.146,.01,.219,0,2.23-.038,4.023-1.845,4.045-4.075Z" fill="url(#uuid-d6d02162-7031-4e3b-b29b-ca55708bd0cf)" /><path d="M10.457,6.85l-.424-.26c-.061-.038-.108-.095-.133-.163l-.323-.902c-.045-.126-.165-.21-.299-.21h-.54c-.143,0-.269,.096-.306,.234l-.229,.844c-.025,.093-.092,.17-.181,.208l-.424,.183c-.083,.036-.176,.034-.258-.003l-.85-.391c-.123-.056-.268-.029-.361,.068l-.381,.397c-.094,.098-.115,.244-.054,.364l.417,.814c.041,.081,.046,.176,.013,.26l-.164,.418c-.035,.09-.109,.159-.202,.187l-.911,.281c-.133,.041-.224,.164-.224,.303v.536c0,.143,.096,.268,.233,.306l.832,.228c.093,.025,.169,.092,.208,.18l.183,.425c.035,.082,.035,.175-.002,.256l-.38,.842c-.055,.121-.028,.264,.067,.357l.399,.392c.098,.096,.247,.119,.369,.055l.798-.414c.081-.042,.177-.047,.263-.014l.43,.17c.083,.033,.148,.099,.18,.182l.335,.876c.047,.123,.165,.204,.296,.204h.551c.136,0,.256-.086,.3-.214l.275-.802c.025-.073,.076-.134,.142-.172l.397-.228c.088-.05,.194-.056,.286-.015l.758,.336c.121,.053,.262,.026,.355-.068l.398-.406c.094-.095,.118-.239,.06-.36l-.344-.717c-.04-.083-.042-.18-.005-.265l.182-.416c.036-.083,.107-.147,.193-.175l.872-.281c.131-.042,.22-.164,.22-.302v-.522c0-.143-.096-.269-.235-.306l-.863-.232c-.082-.022-.152-.076-.194-.15l-.211-.374c-.049-.086-.054-.19-.016-.281l.329-.771c.052-.121,.023-.262-.072-.353l-.407-.392c-.094-.091-.235-.114-.354-.059l-.698,.325c-.097,.045-.209,.039-.3-.017Zm-2.82,3.544c-.056-.056-.091-.132-.093-.211-.048-1.807,1.631-2.303,2.518-1.463h0c.567,.565,.569,1.483,.005,2.05-.554,.557-1.452,.571-2.023,.031l-.406-.407Z" fill="url(#uuid-fc6fa532-36b5-4e80-bb0b-12e223ed5f8b)" /><ellipse cx="9.051" cy="9.76" rx="2.078" ry="2.087" fill="url(#uuid-6c77c759-fa11-42a5-905e-4a3b7bac0fd6)" /><path d="M10.066,8.829l-1.439,1.446-.701-.701-.035-.029c-.115-.077-.271-.047-.349,.069-.066,.099-.054,.23,.028,.315l.879,.88,.035,.029c.1,.069,.235,.057,.32-.03l1.62-1.624,.029-.035c.076-.116,.043-.272-.073-.348-.098-.064-.226-.052-.311,.028h-.004Z" fill="#fff" /></svg>