<svg xmlns="http://www.w3.org/2000/svg" width="18" height="18" viewBox="0 0 18 18"><defs><linearGradient id="f1d18d75-cdb0-4067-bf85-3c1e6d63cb93" x1="3.423" y1="8.438" x2="14.584" y2="8.438" gradientUnits="userSpaceOnUse"><stop offset="0" stop-color="#005ba1" /><stop offset="0.52" stop-color="#0078d4" /><stop offset="1" stop-color="#005ba1" /></linearGradient></defs><g id="b1ff15b8-ad5b-4c51-b2e7-990b2644075c"><path d="M17.549,15.146c-.16.7-1.035,1.391-2.617,1.929a21.585,21.585,0,0,1-12.125.017C1.35,16.578.564,15.922.441,15.25c-.022-.118,0-1.966,0-1.966l17.136-.16S17.569,15.061,17.549,15.146Z" fill="#5ea0ef" /><ellipse cx="9.001" cy="13.246" rx="8.576" ry="2.965" transform="translate(-0.133 0.091) rotate(-0.575)" fill="#50e6ff" /><path d="M9,4.067c-3.082,0-5.581-.87-5.581-2.019v10.76c0,1.106,2.456,2,5.5,2.02H9c3.082,0,5.58-.871,5.58-2.02V2.048C14.584,3.171,12.086,4.067,9,4.067Z" fill="url(#f1d18d75-cdb0-4067-bf85-3c1e6d63cb93)" /><path d="M14.584,2.048c0,1.123-2.5,2.019-5.58,2.019S3.423,3.2,3.423,2.048,5.922.028,9,.028s5.58.87,5.58,2.02" fill="#e8e8e8" /><path d="M13.287,1.882c0,.714-1.924,1.289-4.283,1.289S4.72,2.594,4.72,1.882,6.644.6,9,.6s4.283.574,4.283,1.283" fill="#50e6ff" /><path d="M9,2.2a10.059,10.059,0,0,0-3.387.5A9.947,9.947,0,0,0,9,3.173a9.691,9.691,0,0,0,3.386-.5A10.332,10.332,0,0,0,9,2.2Z" fill="#198ab3" /></g>​
</svg>