<svg id="uuid-731bd5b3-23db-488a-9ced-4191169e8995" xmlns="http://www.w3.org/2000/svg" width="18" height="18" viewBox="0 0 18 18"><path d="M1.823,14.733c-.054-.03-.087-.087-.086-.149V3.422c0-.062.032-.119.086-.149l2.428-1.409c.081-.049.109-.152.063-.235l-.698-1.215c-.047-.082-.151-.111-.233-.065L1.349,1.53.086,2.263C.033,2.294,0,2.351,0,2.412v13.175c0,.062.033.119.086.15l1.221.708,2.075,1.2c.08.047.184.021.231-.06,0,0,0,0,0-.001l.7-1.215c.046-.083.018-.187-.063-.236l-2.428-1.4ZM17.914,2.263l-1.221-.708-2.077-1.204c-.08-.047-.184-.021-.231.06,0,0,0,0,0,.001l-.7,1.215c-.046.083-.018.187.063.236l2.426,1.408c.054.03.087.087.086.149v11.158c0,.062-.032.119-.086.149l-2.426,1.409c-.081.049-.109.152-.063.235l.7,1.215c.047.082.151.111.233.065l2.033-1.18,1.263-.733c.054-.031.087-.088.087-.15V2.413c0-.062-.033-.119-.086-.15Z" fill="#949494" /><path d="M1.739,3.422c-.001-.062.032-.119.086-.149l2.426-1.409c.081-.049.109-.152.063-.235l-.698-1.215c-.035-.061-.104-.095-.174-.084-.03-.001-.06.006-.086.021L1.324,1.53.061,2.263c-.025.015-.046.035-.061.06l.02.012c-.013.024-.019.05-.02.077l1.739,1.01ZM1.825,14.728c-.054-.03-.087-.087-.086-.149L0,15.588c0,.027.007.054.02.078l-.02.011c.015.025.036.046.061.061l1.261.732,2.032,1.18c.026.015.056.022.086.021.07.01.139-.023.174-.084l.7-1.215c.046-.083.018-.187-.063-.236l-2.426-1.408ZM16.261,14.578c.001.062-.032.119-.086.149l-2.426,1.409c-.082.047-.111.152-.065.235l.7,1.215c.035.061.104.095.174.084.03.001.06-.006.086-.021l2.032-1.179,1.263-.733c.025-.015.046-.035.061-.06l-.02-.012c.013-.024.019-.05.02-.077l-1.739-1.01ZM18,2.323c-.015-.025-.036-.046-.061-.061l-1.263-.732-2.032-1.18c-.026-.015-.056-.022-.086-.021-.07-.01-.139.023-.174.084l-.7,1.215c-.046.083-.018.187.063.236l2.426,1.408c.054.03.087.087.086.149l1.741-1.009c0-.027-.007-.054-.02-.078l.02-.011Z" fill="#a3a3a3" /><g><path d="M10.35,12.367c-.051-.029-.092-.006-.092.053l-.003,1.049c0,.179.062.379.164.555.102.177.244.331.4.421l.913.527.321.186c.051.029.092.006.092-.053s-.041-.129-.092-.159l-.321-.186-.913-.527c-.106-.061-.201-.165-.27-.285-.069-.12-.111-.253-.111-.375l.003-1.049c0-.058-.041-.129-.092-.159Z" fill="#f4f3f5" /><path d="M10.35,12.367c-.051-.029-.092-.006-.092.053l-.003,1.049c0,.179.062.379.164.555.102.177.244.331.4.421l.913.527.321.186c.051.029.092.006.092-.053s-.041-.129-.092-.159l-.321-.186-.913-.527c-.106-.061-.201-.165-.27-.285-.069-.12-.111-.253-.111-.375l.003-1.049c0-.058-.041-.129-.092-.159Z" fill="#bebfbe" /></g><path d="M13.878,13.889l-.321-.185c-.292-.201-1.119-.524-1.23-.904-.116-.192-.046-1.112-.062-1.332.002-.073-.076-.196-.157-.165,0,0-1.827,1.062-1.827,1.062.017-.01.04-.008.065.006.168.027.063.956.089,1.208-.036.605.898.923,1.294,1.187.101.076.525.219.386.403,0,0,1.827-1.062,1.827-1.062.066-.055-.002-.182-.065-.218Z" fill="#d9d9d6" /><path d="M10.248,2.557s-.1-.069-.238.024c-.029.019-6.887,3.976-6.887,3.976-.022.012-.043.027-.063.044-.007.005-.013.011-.019.017-.01.009-.02.017-.029.026-.004.004-.009.009-.013.014-.004.004-.007.008-.011.012-.004.005-.009.009-.013.014-.009.011-.018.022-.027.033-.003.004-.006.008-.009.012-.002.002-.003.004-.005.006-.003.004-.006.008-.009.012-.007.01-.013.019-.019.029-.006.009-.012.019-.017.028,0,0,0,.002-.001.002s0,.002-.001.002c-.004.008-.009.016-.013.024-.005.009-.01.019-.015.029-.004.009-.008.017-.012.026,0,0,0,.001,0,.002,0,0,0,.001,0,.002-.004.01-.008.02-.012.03-.004.01-.008.021-.011.032-.002.005-.003.01-.005.016,0,.002-.001.005-.002.007-.001.004-.002.008-.004.012-.004.013-.007.026-.009.038-.002.008-.003.015-.004.023,0,.004-.002.008-.002.012,0,.004-.001.008-.002.011-.003.022-.004.044-.004.065l.014,5.018c0,.106.038.18.098.215l.334.194s.116.047.239-.023l1.449-.837.004,1.43c0,.106.038.18.098.215l.334.194c-.02-.011.115.048.239-.023l1.449-.836.004,1.549c0,.106.038.18.098.215l.334.194s.116.048.239-.023l6.887-3.976c.185-.107.335-.367.334-.579l-.014-5.018c0-.106-.038-.181-.099-.215,0,0,0,0,0,0h-.001s0,0,0,0c0,0-.334-.194-.334-.194,0,0-.101-.068-.237.024l-1.449.836-.004-1.549c0-.106-.038-.181-.099-.215,0,0,0,0,0,0,0,0-.307-.18-.334-.194s-.091-.071-.239.023c-.019.012-1.449.837-1.449.837l-.004-1.43c0-.106-.038-.181-.099-.215,0,0,0,0,0,0l-.334-.194" fill="#0078d4" /><polygon points="12.833 8.885 12.833 10.367 11.562 11.116 11.562 9.626 12.833 8.885" fill="#50e6ff" /><polygon points="12.833 8.885 11.562 9.633 10.284 8.885 11.562 8.136 12.833 8.885" fill="#c3f1ff" /><polygon points="11.562 9.633 11.562 11.116 10.284 10.367 10.284 8.885 11.562 9.633" fill="#9cebff" /><path d="M10.406,2.746c.058-.022.123-.026.177.005-.12-.055-.369-.277-.511-.199-.071.018-6.881,3.974-6.949,4.005-.029.017-.057.037-.082.061-.147.129-.247.322-.252.519,0,0,.014,5.018.014,5.018-.031.239.301.303.432.409-.06-.035-.098-.109-.098-.215l-.014-5.018c.001-.115.04-.23.098-.33.058-.099.138-.19.236-.249.11-.055,6.829-3.957,6.948-4.004ZM12.529,3.725c.058-.022.123-.026.177.005-.133-.056-.372-.286-.526-.194-.156.087-6.851,3.941-6.996,4.043-.157.13-.267.33-.271.536l.014,5.018c-.031.239.301.303.432.409-.06-.035-.098-.109-.098-.215l-.014-5.018c.001-.115.04-.23.098-.33.058-.099.138-.19.236-.249.11-.055,6.828-3.957,6.948-4.004ZM14.496,4.634c-.076-.043-.167-.018-.239.023l-6.887,3.976c-.074.044-.139.107-.19.177-.084.116-.143.257-.145.402l.014,5.018c-.031.239.301.303.432.409-.06-.035-.098-.109-.098-.215l-.014-5.018c.007-.229.141-.458.334-.579.11-.055,6.828-3.957,6.948-4.004.042-.016.086-.022.128-.013.184.08-.303-.178-.285-.176Z" fill="#155ea1" /></svg>