<svg xmlns="http://www.w3.org/2000/svg" width="18" height="18" viewBox="0 0 18 18"><defs><linearGradient id="bc99d29d-6fcb-4faf-ad5d-7554405ac4e3" x1="11.003" y1="10.663" x2="11.003" y2="0.658" gradientUnits="userSpaceOnUse"><stop offset="0" stop-color="#773adc" /><stop offset="1" stop-color="#a67af4" /></linearGradient></defs><g id="b3e24f8e-a04d-4ee2-87a2-c697420da69f"><path d="M18,7.5a3.148,3.148,0,0,0-2.73-3.056A3.96,3.96,0,0,0,11.2.66,4.074,4.074,0,0,0,7.306,3.338a3.747,3.747,0,0,0-3.3,3.616,3.809,3.809,0,0,0,3.907,3.708h6.93A3.188,3.188,0,0,0,18,7.5Z" fill="url(#bc99d29d-6fcb-4faf-ad5d-7554405ac4e3)" /><path d="M14.323,4.774,12.459,2.961c-.2-.2-.376-.132-.376.184v.814a.224.224,0,0,1-.224.225h-.011c-1.2,0-4.552.316-4.674,4.9a.234.234,0,0,0,.234.235H8.6a.235.235,0,0,0,.236-.234c0-.007,0-.014,0-.021A2.813,2.813,0,0,1,11.889,5.67a.235.235,0,0,1,.234.235v.753c0,.377.123.438.377.184l1.823-1.681a.234.234,0,0,0,.062-.325A.261.261,0,0,0,14.323,4.774Z" fill="#fff" /><circle cx="5.502" cy="10.498" r="5.379" fill="#0078d4" /><path d="M11,10.316h-.009a5.5,5.5,0,1,0,0,.363H11Zm-2.282,0a6.33,6.33,0,0,0-.442-2.29h1.7a5.071,5.071,0,0,1,.644,2.29Zm-8.34.363H2.356a6.31,6.31,0,0,0,.454,2.292H1.025A5.067,5.067,0,0,1,.381,10.679ZM7.713,7.664H5.683V5.607A5.785,5.785,0,0,1,7.713,7.664Zm-2.393,0h-1.9a6.131,6.131,0,0,1,1.9-1.912Zm0,.362v2.29h-2.6a5.5,5.5,0,0,1,.519-2.29Zm-2.965,2.29H.381a5.07,5.07,0,0,1,.643-2.29H2.839A5.923,5.923,0,0,0,2.355,10.316Zm.363.363h2.6v2.292h-2.1A5.84,5.84,0,0,1,2.718,10.679Zm2.6,2.654v2.032a5.939,5.939,0,0,1-1.927-2.032Zm.363,0h2a5.993,5.993,0,0,1-2,2.081Zm0-.362V10.679H8.359a5.84,5.84,0,0,1-.5,2.292Zm0-2.655V8.026h2.2a5.878,5.878,0,0,1,.474,2.29Zm4.1-2.652H8.106A5.962,5.962,0,0,0,6.04,5.413,5.124,5.124,0,0,1,9.782,7.664ZM5.215,5.387A6.445,6.445,0,0,0,3.021,7.664h-1.8A5.127,5.127,0,0,1,5.215,5.387ZM1.222,13.333H2.986A6.139,6.139,0,0,0,5,15.587,5.126,5.126,0,0,1,1.222,13.333Zm4.863,2.245a6.121,6.121,0,0,0,2.006-2.245H9.782A5.129,5.129,0,0,1,6.085,15.578Zm3.893-2.607H8.267a6.289,6.289,0,0,0,.454-2.292h1.9A5.08,5.08,0,0,1,9.978,12.971Z" fill="#83b9f9" /></g></svg>