<svg xmlns="http://www.w3.org/2000/svg" width="18" height="18" viewBox="0 0 18 18"><g id="efc786b8-9630-4074-8d70-5ab0b13fb7c0"><g><path d="M6,10.58V8.63H16.35V3.11a.64.64,0,0,0-.64-.64H.64A.64.64,0,0,0,0,3.11v7.75a.64.64,0,0,0,.64.64H9v-.92ZM7.85,8H3.42V6H7.85ZM13,8H8.53V6H13Zm2.59,0H13.71V6h1.84ZM11.12,3.37h4.43v2H11.12ZM6,3.37h4.43v2H6ZM.9,3.37H5.34v2H.9ZM.9,6H2.75V8H.9Zm4.44,4.58H.9V8.63H5.34Z" fill="#821010" /><rect x="0.9" y="3.37" width="4.43" height="1.96" fill="#e62323" /><rect x="6.01" y="3.37" width="4.43" height="1.96" fill="#ff7381" /><rect x="11.12" y="3.37" width="4.43" height="1.96" fill="#e62323" /><rect x="0.9" y="6" width="1.84" height="1.96" fill="#e62323" /><rect x="13.71" y="6" width="1.84" height="1.96" fill="#ff7381" /><rect x="3.42" y="6" width="4.43" height="1.96" fill="#ff7381" /><rect x="8.53" y="6" width="4.43" height="1.96" fill="#e62323" /><rect x="0.9" y="8.63" width="4.43" height="1.96" fill="#e62323" /><path d="M9,8.87a.25.25,0,0,1,.26-.24H6v1.95H9V8.88Z" fill="#ff7381" /><path d="M18,8.88v.95H9v5.44a.27.27,0,0,0,.28.26h8.41a.28.28,0,0,0,.29-.26V8.88ZM9.72,11.21a.37.37,0,1,1,.37.37A.38.38,0,0,1,9.72,11.21Zm.37,3.36a.37.37,0,1,1,.37-.37A.38.38,0,0,1,10.09,14.57Zm0-1.58a.38.38,0,0,1-.37-.37.37.37,0,0,1,.74,0A.38.38,0,0,1,10.09,13ZM17,14.35c0,.07-.1.13-.22.13H11.23c-.12,0-.22-.06-.22-.13V14c0-.06.1-.12.22-.12h5.55c.12,0,.22.06.22.12Zm0-1.58c0,.07-.1.13-.22.13H11.23c-.12,0-.22-.06-.22-.13v-.31c0-.07.1-.12.22-.12h5.55c.12,0,.22.05.22.12Zm0-1.41c0,.07-.1.13-.22.13H11.23c-.12,0-.22-.06-.22-.13v-.31c0-.06.1-.12.22-.12h5.55c.12,0,.22.06.22.12Z" fill="#e6e6e6" /><path d="M9.29,8.62h0A.25.25,0,0,0,9,8.87H9v.95h9V8.88h0a.26.26,0,0,0-.27-.24H9.29Z" fill="#666" /><path d="M16.78,12.34H11.23c-.12,0-.22.05-.22.12v.31c0,.07.1.13.22.13h5.55c.12,0,.22-.06.22-.13v-.31C17,12.39,16.9,12.34,16.78,12.34Z" fill="#666" /><path d="M16.78,10.93H11.23c-.12,0-.22.06-.22.12v.31c0,.07.1.13.22.13h5.55c.12,0,.22-.06.22-.13v-.31C17,11,16.9,10.93,16.78,10.93Z" fill="#666" /><path d="M16.78,13.92H11.23c-.12,0-.22.06-.22.12v.31c0,.07.1.13.22.13h5.55c.12,0,.22-.06.22-.13V14C17,14,16.9,13.92,16.78,13.92Z" fill="#666" /><circle cx="10.09" cy="11.21" r="0.37" fill="#666" /><circle cx="10.09" cy="12.62" r="0.37" fill="#666" /><circle cx="10.09" cy="14.2" r="0.37" fill="#666" /></g></g></svg>