<svg width="18" height="18" viewBox="0 0 18 18" fill="none" xmlns="http://www.w3.org/2000/svg"><path d="M14.908 10.0335L16.1463 8.64513H12.6V7.55491H16.1463L14.908 6.16659L15.5917 5.40002L18 8.10002L15.5917 10.8L14.908 10.0335Z" fill="url(#paint0_linear_6102_134435)" /><path d="M6.30005 5.5C6.30005 4.94772 6.74776 4.5 7.30005 4.5H10.7C11.2523 4.5 11.7 4.94772 11.7 5.5V10.7C11.7 11.2523 11.2523 11.7 10.7 11.7H7.30005C6.74777 11.7 6.30005 11.2523 6.30005 10.7V5.5Z" fill="url(#paint1_linear_6102_134435)" /><path fill-rule="evenodd" clip-rule="evenodd" d="M10.8 7.2C10.8 6.20589 9.99416 5.4 9.00005 5.4V5.4C8.00594 5.4 7.20005 6.20589 7.20005 7.2V9C7.20005 9.99411 8.00594 10.8 9.00005 10.8V10.8C9.99416 10.8 10.8 9.99411 10.8 9V7.2ZM8.30005 4.5C7.19548 4.5 6.30005 5.39543 6.30005 6.5V9.7C6.30005 10.8046 7.19548 11.7 8.30005 11.7H9.70005C10.8046 11.7 11.7 10.8046 11.7 9.7V6.5C11.7 5.39543 10.8046 4.5 9.70005 4.5H8.30005Z" fill="url(#paint2_linear_6102_134435)" /><path d="M2.30799 10.0335L3.54631 8.64513H0V7.55491H3.54631L2.30799 6.16659L2.99173 5.40002L5.4 8.10002L2.99173 10.8L2.30799 10.0335Z" fill="url(#paint3_linear_6102_134435)" /><defs><linearGradient id="paint0_linear_6102_134435" x1="15.3" y1="10.8" x2="15.3" y2="5.40002" gradientUnits="userSpaceOnUse"><stop stop-color="#0078D4" /><stop offset="0.156" stop-color="#1380DA" /><stop offset="0.528" stop-color="#3C91E5" /><stop offset="0.822" stop-color="#559CEC" /><stop offset="1" stop-color="#5EA0EF" /></linearGradient><linearGradient id="paint1_linear_6102_134435" x1="9.00005" y1="11.7" x2="9.00005" y2="4.5" gradientUnits="userSpaceOnUse"><stop stop-color="#0078D4" /><stop offset="0.156" stop-color="#1380DA" /><stop offset="0.528" stop-color="#3C91E5" /><stop offset="0.822" stop-color="#559CEC" /><stop offset="1" stop-color="#5EA0EF" /></linearGradient><linearGradient id="paint2_linear_6102_134435" x1="9.00005" y1="11.7" x2="9.00005" y2="4.5" gradientUnits="userSpaceOnUse"><stop stop-color="#0078D4" /><stop offset="0.156" stop-color="#1380DA" /><stop offset="0.528" stop-color="#3C91E5" /><stop offset="0.822" stop-color="#559CEC" /><stop offset="1" stop-color="#5EA0EF" /></linearGradient><linearGradient id="paint3_linear_6102_134435" x1="2.7" y1="10.8" x2="2.7" y2="5.40002" gradientUnits="userSpaceOnUse"><stop stop-color="#0078D4" /><stop offset="0.156" stop-color="#1380DA" /><stop offset="0.528" stop-color="#3C91E5" /><stop offset="0.822" stop-color="#559CEC" /><stop offset="1" stop-color="#5EA0EF" /></linearGradient></defs></svg>