<svg id="uuid-0c31b75c-7043-4fa6-ac60-2d6adbc0732c" xmlns="http://www.w3.org/2000/svg" width="18" height="18" viewBox="0 0 18 18"><path d="M14.609,11.297l-5.609,1.781-5.609-1.781c-.34-.108-.691.133-.691.474v3.869c0,.215.145.406.359.474l5.941,1.886,5.941-1.886c.214-.068.359-.259.359-.474v-3.869c0-.341-.351-.582-.691-.474Z" fill="#76d263" /><path d="M15.3,9.641v-3.869c0-.341-.351-.582-.691-.474l-5.609,1.781-5.609-1.781c-.34-.108-.691.133-.691.474v3.869c0,.215.145.406.359.474l5.941,1.886,5.941-1.886c.214-.068.359-.259.359-.474Z" fill="#399a91" /><path d="M2.7,3.64V.5c0-.276.235-.5.525-.5h11.55c.29,0,.525.224.525.5v3.14c0,.215-.145.406-.359.474l-5.941,1.886-5.941-1.886c-.214-.068-.359-.259-.359-.474Z" fill="#225b62" /></svg>