<?xml version="1.0" encoding="UTF-8" standalone="no"?>
<!-- Created with Inkscape (http://www.inkscape.org/) -->

<svg
   width="27.43729mm"
   height="31.75mm"
   viewBox="0 0 27.43729 31.75"
   version="1.1"
   id="svg560"
   inkscape:version="1.2.1 (9c6d41e, 2022-07-14)"
   sodipodi:docname="aftership.svg"
   xmlns:inkscape="http://www.inkscape.org/namespaces/inkscape"
   xmlns:sodipodi="http://sodipodi.sourceforge.net/DTD/sodipodi-0.dtd"
   xmlns="http://www.w3.org/2000/svg"
   xmlns:svg="http://www.w3.org/2000/svg">
  <sodipodi:namedview
     id="namedview562"
     pagecolor="#ffffff"
     bordercolor="#000000"
     borderopacity="0.25"
     inkscape:showpageshadow="2"
     inkscape:pageopacity="0.0"
     inkscape:pagecheckerboard="0"
     inkscape:deskcolor="#d1d1d1"
     inkscape:document-units="mm"
     showgrid="false"
     inkscape:zoom="0.2102413"
     inkscape:cx="-589.79848"
     inkscape:cy="-233.06553"
     inkscape:window-width="1309"
     inkscape:window-height="456"
     inkscape:window-x="0"
     inkscape:window-y="25"
     inkscape:window-maximized="0"
     inkscape:current-layer="layer1" />
  <defs
     id="defs557" />
  <g
     inkscape:label="Layer 1"
     inkscape:groupmode="layer"
     id="layer1"
     transform="translate(-260.62882,-210.65042)">
    <path
       class="st0"
       d="m 288.06611,224.48813 c 0,6.45583 -4.36563,11.85333 -10.29229,13.38791 l -3.43959,4.52438 -3.43958,-4.52438 c -5.90021,-1.53458 -10.26583,-6.93208 -10.26583,-13.38791 0,-7.64646 6.11187,-13.83771 13.73187,-13.83771 7.54063,0 13.70542,6.16479 13.70542,13.83771 z m -20.10834,-3.73063 5.87375,2.8575 c 0.60855,0.3175 1.61396,0.3175 2.24896,0 l 5.87375,-2.8575 c 0.60854,-0.26458 0.60854,-0.76729 0,-1.08479 l -5.87375,-2.8575 c -0.60854,-0.3175 -1.61396,-0.3175 -2.24896,0 l -5.87375,2.8575 c -0.635,0.26458 -0.635,0.74083 0,1.08479 z m 7.32896,5.55625 v 5.63563 c 0,0.71437 0.50271,1.03187 1.11125,0.71437 l 6.11188,-2.8575 c 0.60854,-0.3175 1.11125,-1.13771 1.11125,-1.77271 V 222.345 c 0,-0.71437 -0.50271,-1.03187 -1.11125,-0.71437 l -6.11188,2.91041 c -0.60854,0.3175 -1.11125,1.13771 -1.11125,1.77271 z m -8.33437,3.41313 6.05896,2.96333 c 0.60854,0.26458 1.11125,-0.0529 1.11125,-0.71437 v -5.68855 c 0,-0.71437 -0.50271,-1.4552 -1.11125,-1.7727 l -6.05896,-2.91042 c -0.60854,-0.26458 -1.11125,0.0529 -1.11125,0.71437 v 5.63563 c -0.0265,0.68792 0.47625,1.45521 1.11125,1.77271 z"
       id="path420"
       style="fill:#f9a31a;stroke-width:0.264583" />
  </g>
</svg>
