<?xml version="1.0" encoding="UTF-8" standalone="no"?>
<!-- Created with Inkscape (http://www.inkscape.org/) -->

<svg
   width="11.234229mm"
   height="9.3981161mm"
   viewBox="0 0 11.234229 9.3981161"
   version="1.1"
   id="svg5"
   xml:space="preserve"
   xmlns="http://www.w3.org/2000/svg"
   xmlns:svg="http://www.w3.org/2000/svg"><defs
     id="defs2" /><g
     id="layer1"
     transform="translate(-242.68966,-108.56365)"><g
       style="shape-rendering:geometricPrecision"
       id="g219"
       transform="matrix(0.0635,0,0,0.0635,242.68966,108.56375)"><path
         fill="#fcb400"
         d="M 79,1.867 13.04,29.16 c -3.668,1.518 -3.63,6.729 0.061,8.192 l 66.235,26.266 a 24.575,24.575 0 0 0 18.12,0 l 66.236,-26.267 c 3.69,-1.462 3.73,-6.672 0.06,-8.19 L 97.794,1.866 a 24.578,24.578 0 0 0 -18.795,0"
         id="path200" /><path
         fill="#18bfff"
         d="m 94.273,77.96 v 65.617 c 0,3.12 3.147,5.258 6.048,4.108 l 73.806,-28.648 a 4.418,4.418 0 0 0 2.79,-4.108 V 49.313 c 0,-3.121 -3.147,-5.258 -6.048,-4.108 L 97.063,73.853 a 4.42,4.42 0 0 0 -2.79,4.108"
         id="path202" /><path
         fill="#f82b60"
         d="M 77.038,81.346 55.134,91.922 52.91,92.997 6.672,115.152 C 3.742,116.566 0,114.43 0,111.174 V 49.588 c 0,-1.178 0.604,-2.195 1.414,-2.96 a 5.024,5.024 0 0 1 1.12,-0.84 c 1.104,-0.663 2.68,-0.84 4.02,-0.31 L 76.67,73.26 c 3.564,1.414 3.844,6.408 0.368,8.087"
         id="path204" /><path
         fill="rgba(0, 0, 0, 0.25)"
         d="M 77.038,81.346 55.134,91.922 1.414,46.627 a 5.024,5.024 0 0 1 1.12,-0.839 c 1.104,-0.663 2.68,-0.84 4.02,-0.31 L 76.67,73.26 c 3.564,1.414 3.844,6.408 0.368,8.087"
         id="path206" /></g></g></svg>
