<?xml version="1.0" encoding="UTF-8" standalone="no"?>
<!-- Generator: Adobe Illustrator 19.0.0, SVG Export Plug-In . SVG Version: 6.00 Build 0)  -->

<svg
   version="1.1"
   id="Layer_1"
   x="0px"
   y="0px"
   viewBox="-218 385 175 120"
   xml:space="preserve"
   sodipodi:docname="bamboohr.svg"
   width="175"
   height="120"
   inkscape:version="1.2.1 (9c6d41e, 2022-07-14)"
   xmlns:inkscape="http://www.inkscape.org/namespaces/inkscape"
   xmlns:sodipodi="http://sodipodi.sourceforge.net/DTD/sodipodi-0.dtd"
   xmlns="http://www.w3.org/2000/svg"
   xmlns:svg="http://www.w3.org/2000/svg"
   xmlns:rdf="http://www.w3.org/1999/02/22-rdf-syntax-ns#"
   xmlns:cc="http://creativecommons.org/ns#"
   xmlns:dc="http://purl.org/dc/elements/1.1/"><defs
   id="defs6164" /><sodipodi:namedview
   id="namedview6162"
   pagecolor="#ffffff"
   bordercolor="#000000"
   borderopacity="0.25"
   inkscape:showpageshadow="2"
   inkscape:pageopacity="0.0"
   inkscape:pagecheckerboard="0"
   inkscape:deskcolor="#d1d1d1"
   showgrid="false"
   inkscape:zoom="1.724064"
   inkscape:cx="17.980771"
   inkscape:cy="30.741318"
   inkscape:window-width="1309"
   inkscape:window-height="456"
   inkscape:window-x="0"
   inkscape:window-y="25"
   inkscape:window-maximized="0"
   inkscape:current-layer="Layer_1" />
<style
   type="text/css"
   id="style6141">
	.st0{fill:#73C41D;}
</style>
<title
   id="title6143">BambooHR Logo</title>
<desc
   id="desc6145">Created with Sketch.</desc>
<g
   id="Symbols"
   transform="translate(0,43.501865)">
	<g
   id="logo_x2F_bamboohr_x2F_green">
		<g
   id="BambooHR-Logo">
			<path
   id="Fill-1"
   class="st0"
   d="m -174.3,407.3 c -4.1,0 -6,-3.3 -6,-6.4 0,-3.2 2,-6.4 6.1,-6.4 3.2,0 5.9,2.6 5.9,6.5 -0.1,3.7 -2.9,6.3 -6,6.3 z m 5.7,-12.2 v 0 c -1.2,-1.3 -2.9,-2.9 -5.9,-2.9 -4.9,0 -8.6,3.7 -8.6,8.8 0,5.4 4,8.8 8.5,8.8 2.8,0 4.8,-1.3 6,-2.8 h 0.1 v 2.2 h 2.7 v -16.4 h -2.7 v 2.3 z" />
			<path
   id="Fill-3"
   class="st0"
   d="m -144.7,392.2 c -2.9,0 -4.9,1.7 -5.7,3.4 -0.7,-1.9 -2.8,-3.4 -5.4,-3.4 -2.1,0 -3.8,1.1 -4.9,2.6 h -0.1 v -2.1 h -2.7 v 16.4 h 2.7 V 400 c 0,-3.4 1.8,-5.4 4.5,-5.4 2.4,0 3.9,2.1 3.9,4.8 v 9.8 h 2.8 V 400 c 0,-3.8 2.2,-5.4 4.5,-5.4 2.8,0 4,2.2 4,4.8 v 9.8 h 2.7 v -9.6 c 0,-4.9 -2.6,-7.4 -6.3,-7.4" />
			<path
   id="Fill-5"
   class="st0"
   d="m -108.2,407.3 c -3.2,0 -6,-2.6 -6,-6.4 0,-3.6 2.5,-6.3 6,-6.3 3.6,0 6,2.8 6,6.3 0,3.6 -2.5,6.4 -6,6.4 m 0,-15.1 c -5,0 -8.8,3.7 -8.8,8.8 0,5 3.8,8.8 8.8,8.8 5.1,0 8.8,-4 8.8,-8.8 0,-5.1 -3.7,-8.8 -8.8,-8.8" />
			<path
   id="Fill-7"
   class="st0"
   d="m -88.8,407.3 c -3.2,0 -6,-2.6 -6,-6.4 0,-3.6 2.5,-6.3 6,-6.3 3.6,0 6,2.8 6,6.3 -0.1,3.6 -2.6,6.4 -6,6.4 m 0,-15.1 c -5,0 -8.8,3.7 -8.8,8.8 0,5 3.8,8.8 8.8,8.8 5.1,0 8.8,-4 8.8,-8.8 0,-5.1 -3.7,-8.8 -8.8,-8.8" />
			<polygon
   id="Fill-9"
   class="st0"
   points="-77.9,409.2 -75.9,409.2 -75.9,401.6 -67.1,401.6 -67.1,409.2 -65.1,409.2 -65.1,392.8 -67.1,392.8 -67.1,399.8 -75.9,399.8 -75.9,392.8 -77.9,392.8 " />
			<path
   id="Fill-11"
   class="st0"
   d="m -60.1,400.5 v -5.9 h 3 c 2.1,0 3.3,1.1 3.3,3 0,1.6 -1.1,2.9 -3.3,2.9 z m 4.5,1.6 c 2.1,-0.4 3.8,-2.2 3.8,-4.5 0,-2.3 -1.5,-4.8 -5.6,-4.8 h -4.7 v 16.4 h 2 v -6.8 h 2.2 l 5,6.8 h 2.5 z" />
			<polygon
   id="Fill-13"
   class="st0"
   points="-48.3,396.4 -48.8,396.4 -48.8,393.2 -49.8,393.2 -49.8,392.8 -47.2,392.8 -47.2,393.2 -48.3,393.2 " />
			<polygon
   id="Fill-15"
   class="st0"
   points="-43.5,396.4 -43.6,393.5 -44.7,395.9 -45.1,395.9 -46.2,393.5 -46.3,396.4 -46.8,396.4 -46.6,392.8 -46,392.8 -44.9,395.3 -43.8,392.8 -43.2,392.8 -43,396.4 " />
			<path
   id="Fill-17"
   class="st0"
   d="m -194.3,407.5 c -3.4,0 -6.3,-2.7 -6.3,-6.3 0,-3.6 2.5,-6.6 6.4,-6.6 4,0 6.3,3.2 6.3,6.5 0,3.6 -2.5,6.4 -6.4,6.4 M -194,392 c -3.2,0 -4.9,1.1 -6.1,2.3 l -0.3,0.3 V 384 h -2.7 v 17.3 c 0,5.3 4.1,8.7 8.8,8.7 5.2,0 9.1,-4 9.1,-9.1 0.1,-4.8 -4.1,-8.9 -8.8,-8.9" />
			<path
   id="Fill-19"
   class="st0"
   d="m -127.6,407.5 c -3.4,0 -6.3,-2.7 -6.3,-6.3 0,-3.6 2.5,-6.6 6.4,-6.6 4,0 6.3,3.2 6.3,6.5 -0.1,3.6 -2.5,6.4 -6.4,6.4 m 0.3,-15.5 c -3.2,0 -4.9,1.1 -6.1,2.3 l -0.3,0.3 v -9 h -2.7 v 15.7 c 0,5.3 4.1,8.7 8.8,8.7 5.2,0 9.1,-4 9.1,-9.1 0,-4.8 -4.1,-8.9 -8.8,-8.9" />
			<path
   id="Fill-21"
   class="st0"
   d="m -204.4,395.5 c 0,0 -1.2,-0.2 -2.2,-0.4 -1.1,-0.2 -1.6,-0.3 -3.1,-0.9 -1.4,-0.6 -2.8,-2 -4,-3.6 -1.3,-1.6 -4.3,-4.1 -4.3,-4.1 0,0 0.9,0.1 1.9,0.3 0.8,0.2 2.8,0.8 4.8,1.9 0.5,0.2 0.7,0.4 1.2,0.7 0.7,0.4 1.4,1.1 2.1,1.8 0.8,0.8 1.5,1.5 2.1,2.2 -0.7,-1.2 -2.4,-5.6 -5.7,-9.2 -0.3,-0.4 2.3,1.3 3,2 2,2.2 2.3,3.4 3,5.4 z" />
		</g>
	</g>
</g>
<metadata
   id="metadata6283"><rdf:RDF><cc:Work
       rdf:about=""><dc:title>BambooHR Logo</dc:title></cc:Work></rdf:RDF></metadata></svg>
