<?xml version="1.0" encoding="UTF-8" standalone="no"?>
<!-- Generator: Adobe Illustrator 26.0.3, SVG Export Plug-In . SVG Version: 6.00 Build 0)  -->

<svg
   version="1.0"
   id="katman_1"
   x="0px"
   y="0px"
   viewBox="0 0 100.45 93.800003"
   xml:space="preserve"
   sodipodi:docname="baremetrics.svg"
   width="100.45"
   height="93.800003"
   inkscape:version="1.2.1 (9c6d41e, 2022-07-14)"
   xmlns:inkscape="http://www.inkscape.org/namespaces/inkscape"
   xmlns:sodipodi="http://sodipodi.sourceforge.net/DTD/sodipodi-0.dtd"
   xmlns="http://www.w3.org/2000/svg"
   xmlns:svg="http://www.w3.org/2000/svg"><defs
   id="defs6315" /><sodipodi:namedview
   id="namedview6313"
   pagecolor="#ffffff"
   bordercolor="#000000"
   borderopacity="0.25"
   inkscape:showpageshadow="2"
   inkscape:pageopacity="0.0"
   inkscape:pagecheckerboard="0"
   inkscape:deskcolor="#d1d1d1"
   showgrid="false"
   inkscape:zoom="0.39333333"
   inkscape:cx="312.71186"
   inkscape:cy="48.305085"
   inkscape:window-width="1309"
   inkscape:window-height="456"
   inkscape:window-x="0"
   inkscape:window-y="25"
   inkscape:window-maximized="0"
   inkscape:current-layer="katman_1" />
<style
   type="text/css"
   id="style6306">
	.st0{fill-rule:evenodd;clip-rule:evenodd;fill:#5386FF;}
	.st1{fill-rule:evenodd;clip-rule:evenodd;fill:#33334F;}
</style>
<path
   class="st0"
   d="m 92.525,30 6.2,10.3 c 2.3,4.3 2.3,9.4 0,13.7 l -18.8,32.3 c -2.4,4.6 -7.2,7.5 -12.3,7.5 h -34.8 c -5.1,0 -9.8,-2.9 -12.3,-7.5 l -6.5,-11 25.7,-23.8 18.6,10.8 c 1.9,1.3 4.6,1 6.1,-0.8 -0.1,-0.1 28.1,-31.5 28.1,-31.5 z m -56.1,2.6 -28.1,31.6 -6.6,-10.1 c -2.3,-4.3 -2.3,-9.4 0,-13.7 l 19.9,-32.9 c 2.4,-4.6 7.1,-7.5 12.3,-7.5 h 33.5 c 5.1,0 9.9,2.9 12.3,7.5 l 6.8,11.4 -25.2,23.4 -18.5,-10.8 c -2.1,-1.4 -4.9,-0.9 -6.4,1.1 0,0 0,0 0,0 z"
   id="path6308" />

</svg>
