<?xml version="1.0" encoding="UTF-8" standalone="no"?>
<svg
   width="37.42495"
   height="24.49437"
   version="1.1"
   viewBox="0 0 119.95176 79.010671"
   id="svg8349"
   sodipodi:docname="cloudinary.svg"
   inkscape:version="1.2.1 (9c6d41e, 2022-07-14)"
   xmlns:inkscape="http://www.inkscape.org/namespaces/inkscape"
   xmlns:sodipodi="http://sodipodi.sourceforge.net/DTD/sodipodi-0.dtd"
   xmlns="http://www.w3.org/2000/svg"
   xmlns:svg="http://www.w3.org/2000/svg"
   xmlns:rdf="http://www.w3.org/1999/02/22-rdf-syntax-ns#"
   xmlns:cc="http://creativecommons.org/ns#"
   xmlns:dc="http://purl.org/dc/elements/1.1/">
  <defs
     id="defs8353" />
  <sodipodi:namedview
     id="namedview8351"
     pagecolor="#ffffff"
     bordercolor="#000000"
     borderopacity="0.25"
     inkscape:showpageshadow="2"
     inkscape:pageopacity="0.0"
     inkscape:pagecheckerboard="0"
     inkscape:deskcolor="#d1d1d1"
     showgrid="false"
     inkscape:zoom="3.5141397"
     inkscape:cx="91.345258"
     inkscape:cy="9.9597633"
     inkscape:window-width="1309"
     inkscape:window-height="456"
     inkscape:window-x="0"
     inkscape:window-y="25"
     inkscape:window-maximized="0"
     inkscape:current-layer="svg8349" />
  <title
     id="title8341">Cloudinary</title>
  <desc
     id="desc8343">American digital media management company</desc>
  <path
     d="M 96.318417,28.110655 C 91.011164,11.46903 75.605379,0.12653078 58.138417,6.5462591e-4 43.46757,-0.08347174 29.951207,7.9463177 23.008417,20.870655 10.157683,23.173624 0.28996077,33.553056 -1.3609277,46.503715 -3.0118162,59.454374 3.9364073,71.977423 15.798417,77.430655 l 0.75,0.34 h 0.05 v -8.5 C 8.4693255,64.280607 4.4162962,54.671122 6.5163494,45.366688 8.6164025,36.062255 16.404046,29.125264 25.888417,28.110655 l 2.1,-0.22 0.92,-1.89 c 5.333117,-11.302339 16.732744,-18.489994 29.23,-18.4300004 15.007562,0.1058791 28.016395,10.4139884 31.55,25.0000004 l 0.72,2.86 h 3 c 10.057973,0.206241 18.114113,8.399976 18.150003,18.46 0,7.05 -4.07,12.82 -11,15.74 v 8.06 l 0.5,-0.16 c 11.14,-3.65 18.06,-12.71 18.06,-23.64 -0.0948,-13.081628 -9.82804,-24.08703 -22.800003,-25.78 z"
     fill="#3448c5"
     id="path8345"
     sodipodi:nodetypes="cccsccccsccccccccccccc" />
  <path
     d="m 43.478417,76.790655 1.66,1.66 a 0.33,0.33 0 0 1 -0.23,0.56 h -13.1 a 6,6 0 0 1 -6,-6 v -25.44 a 0.33,0.33 0 0 0 -0.33,-0.33 h -2.8 a 0.33,0.33 0 0 1 -0.24,-0.56 l 11.12,-11.12 a 0.33,0.33 0 0 1 0.47,0 l 11.11,11.12 a 0.33,0.33 0 0 1 -0.23,0.56 h -2.84 a 0.34,0.34 0 0 0 -0.34,0.33 v 25 a 6,6 0 0 0 1.75,4.22 z m 24.57,0 1.67,1.66 a 0.33,0.33 0 0 1 -0.24,0.56 h -13.07 a 6,6 0 0 1 -6,-6 v -19.01 a 0.34,0.34 0 0 0 -0.33,-0.34 h -2.83 a 0.33,0.33 0 0 1 -0.23,-0.56 l 11.11,-11.1 a 0.33,0.33 0 0 1 0.47,0 l 11.12,11.08 a 0.33,0.33 0 0 1 -0.24,0.56 h -2.84 a 0.34,0.34 0 0 0 -0.33,0.34 v 18.59 a 6,6 0 0 0 1.74,4.22 z m 24.58,0 1.66,1.66 a 0.33,0.33 0 0 1 -0.23,0.56 h -13.11 a 6,6 0 0 1 -6,-6 v -12.63 a 0.33,0.33 0 0 0 -0.33,-0.33 h -2.8 a 0.33,0.33 0 0 1 -0.23,-0.57 l 11.12,-11.11 a 0.32,0.32 0 0 1 0.46,0 l 11.12,11.11 a 0.33,0.33 0 0 1 -0.23,0.57 h -2.85 a 0.33,0.33 0 0 0 -0.33,0.33 v 12.19 a 6,6 0 0 0 1.75,4.22 z"
     fill="#3448c5"
     id="path8347" />
  <metadata
     id="metadata8472">
    <rdf:RDF>
      <cc:Work
         rdf:about="">
        <dc:title>Cloudinary</dc:title>
      </cc:Work>
    </rdf:RDF>
  </metadata>
</svg>
