<?xml version="1.0" encoding="utf-8"?>
<!-- Generator: Adobe Illustrator 23.0.6, SVG Export Plug-In . SVG Version: 6.00 Build 0)  -->
<svg version="1.1" id="Layer_1" xmlns="http://www.w3.org/2000/svg" xmlns:xlink="http://www.w3.org/1999/xlink" x="0px" y="0px"
	 viewBox="0 0 527.3 100" style="enable-background:new 527.3 100;" xml:space="preserve">
<style type="text/css">
	.st0{fill-rule:evenodd;clip-rule:evenodd;fill:#FFFFFF;}
	.st1{fill-rule:evenodd;clip-rule:evenodd;fill:#CA312C;}
	.st2{fill-rule:evenodd;clip-rule:evenodd;fill:#91B949;}
</style>
<title>cp_logoAsset 2</title>
<g id="Shape_6_copy_20" >
	<g id="Shape_6_copy_20-2">
		<path class="st1" d="M342.5,58.5c-1.7-4.5-3.5-8.3-6.4-10.9c-13.3-14.8-25.5-20.4-45.7-11h-1c-8.8,1.4-13.2,4.6-16.2,13.1
			c-7.5,21.4-15.5,42.7-23.2,64l0,0c-1.2,1.6-2.3,3.1-3.5,4.6c-14.3,10.5-28.2,20.3-48,12.2c-7.3-3-19.2-2.1-12.9,12.8
			c0.7,2.2,1.5,4.2,3,5c0.9,1.7,5.4,4.3,6.6,5c27.8,18.2,58.3,22,87.7,7.8c33.4-16.1,57.7-41.5,60.2-81.3
			C343.9,71.2,344.1,63.8,342.5,58.5z"/>
	</g>
</g>
<g id="Shape_7_copy_20">
	<g id="Shape_7_copy_20-2">
		<path class="st2" d="M330.5,37.5c-0.1-6.1,1.2-11.2,1.8-16.6C334,6.7,326.4,0.5,320.1,0c-5.8-0.3-11.5,1.9-15.6,6.1
			c-1.7,1.9-2.5,5.2-0.3,7.5c2.8,3,5.3,2.9,6.9-3.2c2.7-9.9,14.2,0.1,13.9,5.1c-0.6,10.1-8,13.9-14.3,18.2
			c-6.8,4.6-12.8,4.8-23.1,8.5c-2.1,0.8-2.5,4-0.4,5.9c2.6,0.5,5.3,0.5,8,0.1c8.5-1.3,11.1,1.1,13.7,9.5c5.2-2.7,13.5-3.4,16.5-2.3
			c5.6,2,5.7,5.5,7.6,7.9c1.3,0.4,2.6-0.3,3.1-1.6c0.1-0.3,0.1-0.6,0.1-0.9C331.2,51.5,330.7,45.9,330.5,37.5z"/>
	</g>
</g>
</svg>
