<?xml version="1.0" encoding="UTF-8" standalone="no"?>
<!-- Created with Inkscape (http://www.inkscape.org/) -->

<svg
   version="1.1"
   id="svg182"
   width="654.18665"
   height="341.42667"
   viewBox="0 0 654.18665 341.42667"
   xmlns="http://www.w3.org/2000/svg"
   xmlns:svg="http://www.w3.org/2000/svg">
  <defs
     id="defs186" />
  <g
     id="g190"
     transform="matrix(1.3333333,0,0,-1.3333333,0,341.42667)">
    <g
       id="g192"
       transform="scale(0.1)">
      <path
         d="m 2873.22,1109.64 c -35.89,3.57 -99.57,12.43 -179.26,-27.74 -79.64,-40.17 -111,-41.9 -150.09,-37.73 11.49,-21.03 34.78,-49.881 108.01,-55.029 73.21,-5.161 108.22,-7.422 69.7,-98.661 0.88,27.559 -5.55,80.84 -78.25,71.489 -72.65,-9.36 -89.64,-74.778 -11.68,-107.43 -25.35,-5.09 -79.08,-8.129 -117.47,92.281 -26.59,-11.55 -67.58,-34.718 -141.9,22.692 25.88,-9.391 57.92,-9.973 57.92,-9.973 -65.99,31.492 -128.99,90.061 -169.38,145.411 32.01,-23.84 67.34,-47.59 103.05,-52.04 -42.2,51.49 -139.82,154.47 -259.26,260.28 76.8,-50.13 169.46,-129.42 321.1,-111.6 151.67,17.83 253.6,52.58 447.51,-91.95"
         style="fill:#ed1c24;fill-opacity:1;fill-rule:nonzero;stroke:none"
         id="path194" />
      <path
         d="m 2224.12,1145.4 c -95.12,41.21 -115.48,49.48 -237.74,80.56 -122.28,31.06 -242.56,95.71 -322.96,196.61 56.71,-41.53 172.47,-125.09 291.36,-116.04 -18.08,26.46 -51.4,47.07 -91.25,67.86 45.05,-10.79 181.05,-45.57 360.59,-228.99"
         style="fill:#ed1c24;fill-opacity:1;fill-rule:nonzero;stroke:none"
         id="path196" />
      <path
         d="m 2017.08,1497.37 c -24.53,70.34 -68.75,160.41 -278.55,294.22 -102.18,67.43 -252.18,152.11 -449.69,368.04 14.12,-58.2 76.53,-209.56 390.98,-406.06 103.31,-70.48 236.63,-113.98 337.26,-256.2"
         style="fill:#ed1c24;fill-opacity:1;fill-rule:nonzero;stroke:none"
         id="path198" />
      <path
         d="m 2030.05,1395.41 c -25.82,59.54 -77.68,135.92 -280.92,244.97 -93.7,52.5 -253.82,133.26 -397.81,286.82 13.07,-55.44 79.91,-177.22 367.51,-329.31 79.65,-43.89 214.3,-85.04 311.22,-202.48"
         style="fill:#ed1c24;fill-opacity:1;fill-rule:nonzero;stroke:none"
         id="path200" />
      <path
         d="m 2227.16,1703.15 c -396.16,113.35 -553.7,256.41 -675.57,406.19 55.64,-172.39 188.39,-234.07 330.17,-349.8 141.8,-115.75 149.87,-177.94 191.63,-246.32 93.05,-152.33 107.85,-177.5 200.2,-244.01 108.83,-72.2 240.47,-23.34 384.87,-45.98 144.38,-22.63 263.73,-132.69 289.69,-175.04 30.27,54 -42.04,131.81 -61.57,151.34 10.42,70.74 -156.84,101.82 -220.18,126.03 -12.43,4.75 -43.22,11.88 -16.52,75.36 36,87.6 73.5,163.84 -422.72,302.23 m 571.74,-464.79 c 75.12,-11.35 71.33,-27.28 72.14,-54.74 -31.96,34.91 -72.14,54.74 -72.14,54.74"
         style="fill:#ed1c24;fill-opacity:1;fill-rule:nonzero;stroke:none"
         id="path202" />
      <path
         d="m 656.922,352.34 c 66.141,0 118.082,28.992 151.422,69.699 v 7.801 l -65.602,56.879 h -7.648 c -18.043,-20.078 -45.922,-35.129 -77.082,-35.129 -48.649,0 -86.91,37.359 -86.91,88.66 0,51.289 38.261,88.648 86.91,88.648 31.16,0 59.039,-15.046 77.082,-35.128 h 7.648 l 65.602,56.878 v 7.801 c -34.442,42.379 -88.563,69.699 -149.781,69.699 -112.61,0 -197.891,-80.289 -197.891,-187.898 0,-107.621 85.832,-187.91 196.25,-187.91 m 512.218,95.351 -6.01,3.899 c -3.28,-1.668 -6.02,-3.899 -14.22,-3.899 -12.57,0 -20.22,13.379 -26.78,23.969 -10.94,16.731 -19.68,25.649 -27.34,29.559 39.91,17.84 66.7,51.293 66.7,99.25 0,74.152 -50.3,120.992 -143.77,120.992 H 854.813 V 359.031 H 963.051 V 486.16 h 9.84 c 24.05,0 54.669,-52.41 68.879,-75.832 29.52,-47.398 53.02,-57.988 95.12,-57.988 19.68,0 36.08,7.25 45.91,16.172 l 2.74,7.808 z M 963.051,558.648 v 73.602 h 50.289 c 20.23,0 37.72,-13.379 37.72,-37.922 0,-23.969 -17.49,-35.68 -37.72,-35.68 z M 1402.55,352.34 c 113.16,0 198.44,80.851 198.44,187.91 0,107.609 -85.28,187.898 -198.44,187.898 -113.15,0 -198.43,-80.289 -198.43,-187.898 0,-107.621 85.28,-187.91 198.43,-187.91 m 0,99.25 c -48.65,0 -88.01,36.801 -88.01,88.66 0,51.852 39.36,88.648 88.01,88.648 48.66,0 88.01,-36.796 88.01,-88.648 0,-51.859 -39.35,-88.66 -88.01,-88.66 m 748.37,269.871 h -103.31 l -63.96,-200.731 -67.79,200.731 h -65.6 l -67.23,-199.609 -63.96,199.609 h -103.32 l -4.92,-8.359 132.29,-354.071 h 65.6 l 74.34,197.391 74.9,-197.391 h 65.59 l 132.29,354.071 z m 221.4,0 h -165.64 v -362.43 h 165.64 c 116.43,0 188.04,72.489 188.04,181.77 0,108.179 -71.61,180.66 -188.04,180.66 m -4.38,-273.223 h -53.02 V 632.25 h 53.02 c 47.56,0 82,-32.898 82,-92 0,-59.109 -34.44,-92.012 -82,-92.012 m 385.93,-95.898 c 79.27,0 148.14,39.031 148.14,114.301 0,81.968 -69.42,103.16 -130.64,121 -24.06,7.25 -48.66,15.609 -48.66,33.461 0,12.82 13.67,20.628 34.44,20.628 35.53,0 65.6,-22.308 80.91,-36.8 h 7.65 l 50.84,61.332 v 7.808 c -26.79,30.66 -81.45,54.078 -141.58,54.078 -84.19,0 -142.68,-45.718 -142.68,-112.07 0,-71.367 64.5,-102.598 119.17,-118.207 35.53,-10.043 59.58,-11.711 59.58,-31.23 0,-13.93 -16.94,-22.301 -43.18,-22.301 -33.35,0 -73.8,21.75 -93.48,41.262 h -7.65 l -50.29,-63.563 v -7.809 c 32.25,-36.242 90.19,-61.89 157.43,-61.89 m 395.23,279.91 h 108.24 v 89.211 H 2932.62 V 632.25 h 108.24 V 359.031 h 108.24 z m 386.48,-130.48 c 38.81,18.402 65.05,51.3 65.05,98.699 0,74.152 -50.29,120.992 -143.77,120.992 h -162.9 V 359.031 H 3402.2 V 486.16 h 25.69 l 67.24,-127.129 h 107.69 l 4.92,8.36 z M 3402.2,632.25 h 50.29 c 20.22,0 37.72,-13.379 37.72,-37.922 0,-23.969 -17.5,-35.68 -37.72,-35.68 h -50.29 z m 272.22,-273.219 h 108.24 v 362.43 h -108.24 z m 401.78,200.168 122.45,153.903 -4.92,8.359 H 4078.39 L 3978.35,592.66 v 128.801 h -108.23 v -362.43 h 108.23 v 111.52 l 19.68,23.418 91.84,-134.938 h 113.16 l 4.92,8.36 z m 440.05,73.051 v 89.211 h -270.59 v -362.43 h 272.23 v 89.207 h -164 v 50.192 h 123.55 v 83.64 h -123.55 v 50.18 h 162.36"
         style="fill:#ed1c24;fill-opacity:1;fill-rule:nonzero;stroke:none"
         id="path204" />
    </g>
  </g>
</svg>
