<?xml version="1.0" encoding="UTF-8" standalone="no"?>
<!--Generator: Adobe Illustrator 24.3.0, SVG Export Plug-In . SVG Version: 6.00 Build 0)-->

<svg
   viewBox="0 0 76.599996 76.699994"
   xml:space="preserve"
   version="1.1"
   id="svg24623"
   sodipodi:docname="cloudquery_logo_svg_dark_background.svg"
   width="76.599998"
   height="76.699997"
   inkscape:version="1.2.1 (9c6d41e, 2022-07-14)"
   inkscape:export-filename="../code/cloudquery/cloudquery/website/public/images/logos/plugins/default.svg"
   inkscape:export-xdpi="96"
   inkscape:export-ydpi="96"
   xmlns:inkscape="http://www.inkscape.org/namespaces/inkscape"
   xmlns:sodipodi="http://sodipodi.sourceforge.net/DTD/sodipodi-0.dtd"
   xmlns="http://www.w3.org/2000/svg"
   xmlns:svg="http://www.w3.org/2000/svg"><defs
     id="defs24627" /><sodipodi:namedview
     id="namedview24625"
     pagecolor="#ffffff"
     bordercolor="#000000"
     borderopacity="0.25"
     inkscape:showpageshadow="2"
     inkscape:pageopacity="0.0"
     inkscape:pagecheckerboard="0"
     inkscape:deskcolor="#d1d1d1"
     showgrid="false"
     inkscape:zoom="3.0729165"
     inkscape:cx="103.15933"
     inkscape:cy="32.21695"
     inkscape:window-width="1309"
     inkscape:window-height="602"
     inkscape:window-x="459"
     inkscape:window-y="151"
     inkscape:window-maximized="0"
     inkscape:current-layer="svg24623" /><linearGradient
     id="a"
     gradientUnits="userSpaceOnUse"
     x1="-9.4460001"
     y1="429.94"
     x2="73.751999"
     y2="430.69"
     gradientTransform="translate(0.5,-393.276)"><stop
       offset="0"
       style="stop-color:#ffe53b"
       id="stop24595" /><stop
       offset="1"
       style="stop-color:#0ff"
       id="stop24597" /></linearGradient><path
     d="m 28.3,43.4 c 3.5,0 6.4,-2.9 6.4,-6.4 0,-3.5 -2.9,-6.4 -6.4,-6.4 -3.5,0 -6.4,2.9 -6.4,6.4 0,3.5 2.8,6.4 6.4,6.4 z"
     style="fill:url(#a)"
     id="path24600" /><linearGradient
     id="b"
     gradientUnits="userSpaceOnUse"
     x1="-9.4440002"
     y1="429.75601"
     x2="73.753998"
     y2="430.50601"
     gradientTransform="translate(0.5,-393.276)"><stop
       offset="0"
       style="stop-color:#ffe53b"
       id="stop24602" /><stop
       offset="1"
       style="stop-color:#0ff"
       id="stop24604" /></linearGradient><path
     d="m 48.7,43.4 c 3.5,0 6.4,-2.9 6.4,-6.4 0,-3.5 -2.9,-6.4 -6.4,-6.4 -3.5,0 -6.4,2.9 -6.4,6.4 0,3.5 2.8,6.4 6.4,6.4 z"
     style="fill:url(#b)"
     id="path24607" /><linearGradient
     id="c"
     gradientUnits="userSpaceOnUse"
     x1="-9.6879997"
     y1="456.798"
     x2="73.510002"
     y2="457.548"
     gradientTransform="translate(0.5,-393.276)"><stop
       offset="0"
       style="stop-color:#ffe53b"
       id="stop24609" /><stop
       offset="1"
       style="stop-color:#0ff"
       id="stop24611" /></linearGradient><path
     d="m 71.4,62.4 -1.7,-1.7 -9.3,-9.3 c -2.2,3.7 -5.3,6.8 -9,9 -3.8,2.2 -8.2,3.5 -12.9,3.5 -4.8,0 -9.3,-1.3 -13.1,-3.6 -3.7,-2.2 -6.8,-5.4 -8.9,-9.1 l -9.4,9.2 c 2.5,3.5 5.5,6.6 9,9.1 6.3,4.5 14,7.2 22.4,7.2 8.3,0 15.9,-2.6 22.2,-7.1 l 1.7,1.7 c 2.5,2.5 6.5,2.5 9,0 2.5,-2.4 2.5,-6.5 0,-8.9 z"
     style="fill:url(#c)"
     id="path24614" /><linearGradient
     id="d"
     gradientUnits="userSpaceOnUse"
     x1="-0.40200001"
     y1="415.67599"
     x2="76.197998"
     y2="415.67599"
     gradientTransform="translate(0.5,-393.276)"><stop
       offset="0"
       style="stop-color:#00ffa9"
       id="stop24616" /><stop
       offset="1"
       style="stop-color:#0d4dff"
       id="stop24618" /></linearGradient><path
     d="m 13,38.4 c 0,-2.2 0.3,-4.3 0.8,-6.4 0.6,-2.3 1.5,-4.5 2.7,-6.5 2.2,-3.7 5.3,-6.8 9,-9 3.8,-2.2 8.2,-3.5 12.9,-3.5 4.6,0 9,1.2 12.7,3.4 3.7,2.2 6.9,5.2 9.1,8.9 1.2,2.1 2.2,4.3 2.8,6.7 0.5,2 0.8,4.2 0.8,6.4 0,2.2 -0.3,4.3 -0.8,6.4 h 13.1 c 0.3,-2.1 0.5,-4.2 0.5,-6.4 0,-2.2 -0.2,-4.3 -0.5,-6.4 C 75.1,26.1 72.8,20.7 69.4,16 66.9,12.5 63.8,9.5 60.3,7 54.1,2.6 46.5,0 38.3,0 30,0 22.4,2.6 16.1,7.1 12.6,9.6 9.6,12.6 7.1,16.1 3.8,20.7 1.5,26.1 0.5,31.9 0.2,34 0,36.1 0,38.3 c 0,2.2 0.2,4.3 0.5,6.4 H 13.6 C 13.2,42.7 13,40.6 13,38.4 Z"
     style="fill:url(#d)"
     id="path24621" /></svg>
