<?xml version="1.0" encoding="UTF-8" standalone="no"?>
<!-- Generator: Adobe Illustrator 24.3.0, SVG Export Plug-In . SVG Version: 6.00 Build 0)  -->

<svg
   version="1.1"
   id="Layer_1"
   x="0px"
   y="0px"
   viewBox="0 0 76.599998 76.699994"
   xml:space="preserve"
   sodipodi:docname="cloudquery_logo_svg_light_background.svg"
   width="76.599998"
   height="76.699997"
   inkscape:version="1.2.1 (9c6d41e, 2022-07-14)"
   xmlns:inkscape="http://www.inkscape.org/namespaces/inkscape"
   xmlns:sodipodi="http://sodipodi.sourceforge.net/DTD/sodipodi-0.dtd"
   xmlns="http://www.w3.org/2000/svg"
   xmlns:svg="http://www.w3.org/2000/svg"><defs
   id="defs26090" /><sodipodi:namedview
   id="namedview26088"
   pagecolor="#ffffff"
   bordercolor="#000000"
   borderopacity="0.25"
   inkscape:showpageshadow="2"
   inkscape:pageopacity="0.0"
   inkscape:pagecheckerboard="0"
   inkscape:deskcolor="#d1d1d1"
   showgrid="false"
   inkscape:zoom="3.0729165"
   inkscape:cx="130.82034"
   inkscape:cy="41.654239"
   inkscape:window-width="1309"
   inkscape:window-height="456"
   inkscape:window-x="0"
   inkscape:window-y="25"
   inkscape:window-maximized="0"
   inkscape:current-layer="Layer_1" />
<style
   type="text/css"
   id="style26019">
	.st0{fill:url(#SVGID_1_);}
	.st1{fill:url(#SVGID_2_);}
	.st2{fill:url(#SVGID_3_);}
	.st3{fill:url(#SVGID_4_);}
	.st4{fill:#161C24;}
</style>
<g
   id="g26061">
	<g
   id="g26050">
		<g
   id="g26048">
			
				<linearGradient
   id="SVGID_1_"
   gradientUnits="userSpaceOnUse"
   x1="17.1763"
   y1="48.535702"
   x2="69.944199"
   y2="12.8257"
   gradientTransform="matrix(1,0,0,-1,0,78.0756)">
				<stop
   offset="0"
   style="stop-color:#5DCBDD"
   id="stop26021" />
				<stop
   offset="0.4944"
   style="stop-color:#73CC93"
   id="stop26023" />
				<stop
   offset="1"
   style="stop-color:#F4E736"
   id="stop26025" />
			</linearGradient>
			<path
   class="st0"
   d="m 28.2,43.4 c 3.5,0 6.4,-2.8 6.4,-6.4 0,-3.5 -2.8,-6.4 -6.4,-6.4 -3.5,0 -6.4,2.8 -6.4,6.4 0,3.5 2.8,6.4 6.4,6.4 z"
   id="path26028"
   style="fill:url(#SVGID_1_)" />
			
				<linearGradient
   id="SVGID_2_"
   gradientUnits="userSpaceOnUse"
   x1="23.584299"
   y1="58.004601"
   x2="76.352203"
   y2="22.2946"
   gradientTransform="matrix(1,0,0,-1,0,78.0756)">
				<stop
   offset="0"
   style="stop-color:#5DCBDD"
   id="stop26030" />
				<stop
   offset="0.4944"
   style="stop-color:#73CC93"
   id="stop26032" />
				<stop
   offset="1"
   style="stop-color:#F4E736"
   id="stop26034" />
			</linearGradient>
			<path
   class="st1"
   d="m 48.6,43.4 c 3.5,0 6.4,-2.8 6.4,-6.4 0,-3.5 -2.8,-6.4 -6.4,-6.4 -3.6,0 -6.4,2.8 -6.4,6.4 0,3.5 2.8,6.4 6.4,6.4 z"
   id="path26037"
   style="fill:url(#SVGID_2_)" />
			
				<linearGradient
   id="SVGID_3_"
   gradientUnits="userSpaceOnUse"
   x1="9.4054003"
   y1="37.052898"
   x2="62.173401"
   y2="1.3428"
   gradientTransform="matrix(1,0,0,-1,0,78.0756)">
				<stop
   offset="0"
   style="stop-color:#5DCBDD"
   id="stop26039" />
				<stop
   offset="0.4944"
   style="stop-color:#73CC93"
   id="stop26041" />
				<stop
   offset="1"
   style="stop-color:#F4E736"
   id="stop26043" />
			</linearGradient>
			<path
   class="st2"
   d="m 71.3,62.4 -1.8,-1.8 -9.3,-9.3 c -2.2,3.7 -5.3,6.8 -9,9 -3.8,2.2 -8.2,3.5 -12.9,3.5 -4.8,0 -9.3,-1.3 -13.1,-3.6 -3.7,-2.2 -6.8,-5.3 -9,-9.1 l -9.3,9.3 c 2.5,3.5 5.5,6.6 9,9.1 6.3,4.5 14,7.2 22.4,7.2 8.3,0 15.9,-2.6 22.2,-7.1 l 1.8,1.8 c 2.5,2.5 6.5,2.5 9,0 2.5,-2.5 2.5,-6.5 0,-9 z"
   id="path26046"
   style="fill:url(#SVGID_3_)" />
		</g>
	</g>
	
		<linearGradient
   id="SVGID_4_"
   gradientUnits="userSpaceOnUse"
   x1="79.807098"
   y1="55.943501"
   x2="-1.497"
   y2="54.9869"
   gradientTransform="matrix(1,0,0,-1,0,78.0756)">
		<stop
   offset="0"
   style="stop-color:#355AAD"
   id="stop26052" />
		<stop
   offset="0.4832"
   style="stop-color:#119ED8"
   id="stop26054" />
		<stop
   offset="1"
   style="stop-color:#53C29D"
   id="stop26056" />
	</linearGradient>
	<path
   class="st3"
   d="M 76.1,32 C 75.1,26.1 72.8,20.7 69.4,16 66.9,12.5 63.8,9.5 60.3,7 54.1,2.6 46.5,0 38.2,0 29.9,0 22.3,2.6 16,7.1 12.5,9.6 9.5,12.6 7,16.1 3.7,20.7 1.4,26.1 0.5,31.9 0.2,34 0,36.1 0,38.3 c 0,2.2 0.2,4.3 0.5,6.4 h 13.1 c -0.5,-2 -0.8,-4.2 -0.8,-6.4 0,-2.2 0.3,-4.4 0.8,-6.4 0.6,-2.3 1.5,-4.5 2.7,-6.5 2.2,-3.7 5.3,-6.8 9,-9 3.8,-2.2 8.2,-3.5 12.9,-3.5 4.6,0 9,1.2 12.8,3.4 3.7,2.2 6.9,5.3 9.1,9 1.2,2.1 2.2,4.3 2.8,6.7 0.5,2 0.8,4.2 0.8,6.4 0,2.2 -0.3,4.4 -0.8,6.4 h 13.2 c 0.3,-2.1 0.5,-4.2 0.5,-6.4 0,-2.2 -0.2,-4.3 -0.5,-6.4 z"
   id="path26059"
   style="fill:url(#SVGID_4_)" />
</g>

</svg>
