<?xml version="1.0" encoding="UTF-8" standalone="no"?>
<!-- Created with Inkscape (http://www.inkscape.org/) -->

<svg
   id="svg2"
   sodipodi:docname="file.svg"
   viewBox="0 0 128 128"
   version="1.1"
   inkscape:version="1.2.1 (9c6d41e, 2022-07-14)"
   xmlns:inkscape="http://www.inkscape.org/namespaces/inkscape"
   xmlns:sodipodi="http://sodipodi.sourceforge.net/DTD/sodipodi-0.dtd"
   xmlns="http://www.w3.org/2000/svg"
   xmlns:svg="http://www.w3.org/2000/svg"
   xmlns:rdf="http://www.w3.org/1999/02/22-rdf-syntax-ns#"
   xmlns:cc="http://creativecommons.org/ns#"
   xmlns:dc="http://purl.org/dc/elements/1.1/">
  <defs
     id="defs4">
    <linearGradient
       id="linearGradient3606"
       y2="-112"
       gradientUnits="userSpaceOnUse"
       x2="-80"
       gradientTransform="translate(2 922.36)"
       y1="123"
       x1="105"
       inkscape:collect="always">
      <stop
         id="stop3602"
         style="stop-color:#e6e6e6"
         offset="0" />
      <stop
         id="stop3604"
         style="stop-color:#f9f9f9"
         offset="1" />
    </linearGradient>
    <linearGradient
       id="linearGradient3614"
       y2="957.36"
       gradientUnits="userSpaceOnUse"
       x2="80"
       gradientTransform="translate(2,-2)"
       y1="944.36"
       x1="93"
       inkscape:collect="always">
      <stop
         id="stop3610"
         style="stop-color:#cccccc"
         offset="0" />
      <stop
         id="stop3616"
         style="stop-color:#e6e6e6"
         offset=".22008" />
      <stop
         id="stop3618"
         style="stop-color:#ffffff"
         offset=".46933" />
      <stop
         id="stop3612"
         style="stop-color:#e6e6e6"
         offset="1" />
    </linearGradient>
  </defs>
  <sodipodi:namedview
     id="base"
     bordercolor="#666666"
     inkscape:pageshadow="2"
     inkscape:window-y="38"
     pagecolor="#ffffff"
     inkscape:window-height="912"
     inkscape:window-maximized="0"
     inkscape:zoom="3.9457085"
     inkscape:window-x="73"
     showgrid="true"
     borderopacity="1.0"
     inkscape:current-layer="layer1"
     inkscape:cx="61.966058"
     inkscape:cy="57.7843"
     inkscape:window-width="1423"
     inkscape:pageopacity="0.0"
     inkscape:document-units="px"
     inkscape:showpageshadow="2"
     inkscape:pagecheckerboard="0"
     inkscape:deskcolor="#d1d1d1">
    <inkscape:grid
       id="grid2816"
       enabled="true"
       visible="true"
       snapvisiblegridlinesonly="true"
       type="xygrid"
       empspacing="5" />
  </sodipodi:namedview>
  <g
     id="layer1"
     inkscape:label="Layer 1"
     inkscape:groupmode="layer"
     transform="translate(0 -924.36)">
    <path
       id="path2826"
       sodipodi:nodetypes="cccccc"
       style="stroke-linejoin:round;fill-rule:evenodd;stroke:#808080;stroke-width:1px;fill:url(#linearGradient3606)"
       d="m82 930.36h-60v115h85v-90l-25-25z" />
    <path
       id="rect2822"
       sodipodi:nodetypes="cccc"
       style="stroke-linejoin:round;fill-rule:evenodd;stroke:#808080;stroke-width:1px;fill:url(#linearGradient3614)"
       d="m107 955.36-25-25c1.8633 8.3333 2.1329 16.667 0 25 9.9055-1.935 17.128-0.56751 25 0z" />
    <path
       d="m 60.468055,1010.3481 c -2.070538,-2.2928 -2.132181,-2.3919 -1.759789,-2.8257 0.589919,-0.6872 25.755075,-24.59498 26.109734,-24.81399 0.312526,-0.18746 3.397139,1.35848 4.071836,2.04045 0.258398,0.26139 -1.746279,2.48573 -12.683318,14.06796 -7.144712,7.56878 -13.130867,13.79628 -13.291308,13.83138 -0.166015,0.038 -1.267487,-1.0001 -2.447155,-2.3071 z m -5.643317,-6.0929 c -1.116334,-1.1648 -1.822276,-2.0799 -1.751344,-2.2701 0.127255,-0.3443 14.591728,-12.4815 14.861944,-12.47272 0.333381,0.0127 3.737442,2.69787 3.737442,2.94768 0,0.26304 -14.541062,13.74374 -14.828168,13.74374 -0.08461,0 -0.994737,-0.8783 -2.023251,-1.9511 z m -5.26839,-5.60048 c -0.873983,-1.01322 -1.422863,-1.83187 -1.304642,-1.9459 0.609593,-0.5906 6.898983,-5.11793 7.106712,-5.11526 0.338108,0 3.373493,2.70576 3.373493,3.00291 0,0.36485 -6.811163,5.80693 -7.267998,5.80693 -0.219974,0 -1.078337,-0.78698 -1.907565,-1.74868 z m -4.334451,-4.61742 c -1.251445,-1.31394 -1.400908,-1.5593 -1.11718,-1.83277 0.407267,-0.39285 20.401396,-13.78752 20.806723,-13.94532 0.319869,-0.12089 3.08892,1.61987 3.08892,1.94158 0,0.22982 -20.494284,15.12843 -20.992498,15.26001 -0.198102,0.0522 -0.947449,-0.54542 -1.785965,-1.42618 z m 13.333528,-2.11592 c -0.825429,-0.71112 -1.496328,-1.41562 -1.491261,-1.5654 0.005,-0.14979 0.734399,-0.80084 1.619614,-1.44718 0.885806,-0.64584 4.855465,-3.59364 8.824279,-6.55099 3.966281,-2.95735 7.375242,-5.37741 7.574526,-5.37741 0.533848,0 3.236696,1.62152 3.149718,1.89067 -0.125312,0.39017 -17.471228,14.33968 -17.834333,14.33968 -0.188308,0 -1.017537,-0.57902 -1.843388,-1.29026 z M 41.19397,989.83269 c -0.985448,-1.08169 -1.128156,-1.34283 -0.870606,-1.58652 0.223267,-0.21125 12.607322,-7.80436 14.10196,-8.64757 0.247417,-0.13935 2.872746,1.82654 2.789148,2.0878 -0.108588,0.33825 -14.076627,9.44 -14.490397,9.44 -0.197258,1.2e-4 -0.889182,-0.58208 -1.537703,-1.29371 z m 29.943441,0.0865 c -0.906072,-0.67511 -1.682947,-1.33672 -1.72601,-1.46996 -0.06097,-0.19038 8.154647,-7.27763 10.014925,-8.64235 0.362342,-0.26533 0.647337,-0.17701 2.201426,0.68249 0.982068,0.54288 1.783433,1.09734 1.781743,1.23236 -0.0048,0.34513 -9.78693,9.27342 -10.24292,9.36098 -0.209335,0.0369 -1.122245,-0.48447 -2.029164,-1.15945 z m -33.278934,-3.75501 -1.191489,-1.25247 0.528866,-0.35581 c 0.290905,-0.1956 6.195574,-3.53854 13.122422,-7.42932 l 12.590432,-7.07339 1.204156,0.61288 c 0.662285,0.3371 1.204154,0.72715 1.204154,0.86675 0,0.19089 -25.890183,15.88231 -26.202622,15.88231 -0.03436,0 -0.5987,-0.5635 -1.253977,-1.25247 z m 19.36275,-6.31441 c -0.583668,-0.45469 -1.060602,-0.94744 -1.059757,-1.09467 6.52e-4,-0.14724 2.361022,-1.7101 5.244746,-3.47364 l 5.243057,-3.20537 1.34602,0.74471 c 0.740395,0.40977 1.346019,0.824 1.346019,0.92033 0,0.275 -10.285141,6.94981 -10.690467,6.94205 -0.201565,0 -0.844091,-0.3791 -1.427929,-0.83392 z m 10.504692,-1.3866 c -0.706533,-0.45317 -1.282686,-0.94579 -1.280152,-1.09557 0.0042,-0.25286 3.57531,-2.73566 4.161344,-2.89346 0.269373,-0.0725 2.672616,1.24382 2.866836,1.56985 0.05852,0.098 -0.06714,0.33927 -0.279252,0.53538 -0.725619,0.67052 -3.704509,2.72064 -3.944329,2.71454 -0.131729,0 -0.817575,-0.3772 -1.524192,-0.83036 z"
       style="fill:#50abf1;stroke-width:0.22764"
       inkscape:connector-curvature="0"
       id="path4688"
       sodipodi:nodetypes="cccccccccccsscccccssccccsccccsccscccccccccccccccccccccccccsscccccccsccccccccccc" />
  </g>
  <metadata
     id="metadata6428">
    <rdf:RDF>
      <cc:Work>
        <dc:format>image/svg+xml</dc:format>
        <dc:type
           rdf:resource="http://purl.org/dc/dcmitype/StillImage" />
        <cc:license
           rdf:resource="http://creativecommons.org/licenses/publicdomain/" />
        <dc:publisher>
          <cc:Agent
             rdf:about="http://openclipart.org/">
            <dc:title>Openclipart</dc:title>
          </cc:Agent>
        </dc:publisher>
        <dc:title>File icon</dc:title>
        <dc:date>2010-09-06T16:12:46</dc:date>
        <dc:description>File icon</dc:description>
        <dc:source>https://openclipart.org/detail/83893/file-icon-by-jhnri4</dc:source>
        <dc:creator>
          <cc:Agent>
            <dc:title>jhnri4</dc:title>
          </cc:Agent>
        </dc:creator>
        <dc:subject>
          <rdf:Bag>
            <rdf:li>black and white</rdf:li>
            <rdf:li>file</rdf:li>
            <rdf:li>folded</rdf:li>
            <rdf:li>how i did it</rdf:li>
            <rdf:li>icon</rdf:li>
            <rdf:li>paper</rdf:li>
            <rdf:li>photorealistic</rdf:li>
          </rdf:Bag>
        </dc:subject>
      </cc:Work>
      <cc:License
         rdf:about="http://creativecommons.org/licenses/publicdomain/">
        <cc:permits
           rdf:resource="http://creativecommons.org/ns#Reproduction" />
        <cc:permits
           rdf:resource="http://creativecommons.org/ns#Distribution" />
        <cc:permits
           rdf:resource="http://creativecommons.org/ns#DerivativeWorks" />
      </cc:License>
    </rdf:RDF>
  </metadata>
</svg>
