<?xml version="1.0" encoding="UTF-8" standalone="no"?>
<!-- Created with Inkscape (http://www.inkscape.org/) -->

<svg
   width="58.081009mm"
   height="61.802292mm"
   viewBox="0 0 58.081009 61.802292"
   version="1.1"
   id="svg19372"
   inkscape:version="1.2.1 (9c6d41e, 2022-07-14)"
   sodipodi:docname="ga.svg"
   xmlns:inkscape="http://www.inkscape.org/namespaces/inkscape"
   xmlns:sodipodi="http://sodipodi.sourceforge.net/DTD/sodipodi-0.dtd"
   xmlns="http://www.w3.org/2000/svg"
   xmlns:svg="http://www.w3.org/2000/svg">
  <sodipodi:namedview
     id="namedview19374"
     pagecolor="#ffffff"
     bordercolor="#000000"
     borderopacity="0.25"
     inkscape:showpageshadow="2"
     inkscape:pageopacity="0.0"
     inkscape:pagecheckerboard="0"
     inkscape:deskcolor="#d1d1d1"
     inkscape:document-units="mm"
     showgrid="false"
     inkscape:zoom="0.2102413"
     inkscape:cx="-642.11931"
     inkscape:cy="-104.64167"
     inkscape:window-width="1309"
     inkscape:window-height="456"
     inkscape:window-x="0"
     inkscape:window-y="25"
     inkscape:window-maximized="0"
     inkscape:current-layer="layer1" />
  <defs
     id="defs19369" />
  <g
     inkscape:label="Layer 1"
     inkscape:groupmode="layer"
     id="layer1"
     transform="translate(-274.25187,-176.74716)">
    <path
       d="m 321.07944,237.67224 c -1.82949,-0.97722 -3.43214,-3.05625 -3.89526,-5.05311 -0.17668,-0.76181 -0.32503,-12.03224 -0.32965,-25.04539 -0.01,-26.90563 -0.0746,-26.18976 2.60092,-28.65592 3.14152,-2.89575 7.1639,-2.89402 10.30836,0.004 2.71005,2.49805 2.64162,1.69673 2.52789,29.59948 l -0.0998,24.47617 -0.98964,1.68359 c -1.43295,2.43775 -3.30806,3.5606 -6.20331,3.71463 -1.93817,0.10311 -2.60017,-0.0191 -3.91955,-0.72389 z"
       style="fill:#f9ab00;fill-opacity:1;stroke-width:0.352778"
       id="path8114-1" />
    <path
       d="m 299.71951,237.65092 c -1.66232,-0.90213 -3.02888,-2.69481 -3.66466,-4.80735 -0.70898,-2.35576 -0.72929,-26.42147 -0.0237,-28.1052 1.24042,-2.96006 3.98717,-4.82387 7.10902,-4.82387 3.57031,0 6.81896,2.56477 7.54667,5.95799 0.50266,2.34379 0.51205,24.28773 0.0113,26.48207 -0.45267,1.98381 -1.6915,3.79497 -3.37546,4.93489 -1.79312,1.21382 -5.69116,1.39913 -7.60319,0.36147 z"
       style="fill:#e37400;fill-opacity:1;stroke-width:0.352778"
       id="path8137-5" />
    <path
       d="m 278.3616,237.79773 c -2.98603,-1.47804 -4.72664,-5.27941 -3.9073,-8.53328 1.178,-4.67829 6.07669,-7.1674 10.4832,-5.3267 6.1758,2.57978 6.1758,11.49391 0,14.07369 -1.89638,0.79216 -4.72981,0.70008 -6.5759,-0.21371 z"
       style="fill:#e37400;fill-opacity:1;stroke-width:0.352778"
       id="path8160-3" />
  </g>
</svg>
