<?xml version="1.0" encoding="utf-8"?>
<svg
        version="1.1"
        id="Layer_1"
        xmlns="http://www.w3.org/2000/svg"
        x="0px"
        y="0px"
        viewBox="1.4 0.03 248.31 226.88"
        style="enable-background:new .1.4 0.03 248.31 226.88;"
        xml:space="preserve"
>
<style type="text/css">
	.st0{fill:#3C8BD9;}
	.st1{fill:#FABC04;}
	.st2{fill:#34A852;}
	.st3{fill:#E1C025;}
	.st4{fill:#757575;}
</style>
    <g>
	<path class="st0" d="M85.9,28.6c2.4-6.3,5.7-12.1,10.6-16.8c19.6-19.1,52-14.3,65.3,9.7c10,18.2,20.6,36,30.9,54
		c17.2,29.9,34.6,59.8,51.6,89.8c14.3,25.1-1.2,56.8-29.6,61.1c-17.4,2.6-33.7-5.4-42.7-21c-15.1-26.3-30.3-52.6-45.4-78.8
		c-0.3-0.6-0.7-1.1-1.1-1.6c-1.6-1.3-2.3-3.2-3.3-4.9c-6.7-11.8-13.6-23.5-20.3-35.2c-4.3-7.6-8.8-15.1-13.1-22.7
		c-3.9-6.8-5.7-14.2-5.5-22C83.6,36.2,84.1,32.2,85.9,28.6"/>
        <path class="st1" d="M85.9,28.6c-0.9,3.6-1.7,7.2-1.9,11c-0.3,8.4,1.8,16.2,6,23.5C101,82,112,101,122.9,120c1,1.7,1.8,3.4,2.8,5
		c-6,10.4-12,20.7-18.1,31.1c-8.4,14.5-16.8,29.1-25.3,43.6c-0.4,0-0.5-0.2-0.6-0.5c-0.1-0.8,0.2-1.5,0.4-2.3
		c4.1-15,0.7-28.3-9.6-39.7c-6.3-6.9-14.3-10.8-23.5-12.1c-12-1.7-22.6,1.4-32.1,8.9c-1.7,1.3-2.8,3.2-4.8,4.2
		c-0.4,0-0.6-0.2-0.7-0.5c4.8-8.3,9.5-16.6,14.3-24.9C45.5,98.4,65.3,64,85.2,29.7C85.4,29.3,85.7,29,85.9,28.6"/>
        <path class="st2" d="M11.8,158c1.9-1.7,3.7-3.5,5.7-5.1c24.3-19.2,60.8-5.3,66.1,25.1c1.3,7.3,0.6,14.3-1.6,21.3
		c-0.1,0.6-0.2,1.1-0.4,1.7c-0.9,1.6-1.7,3.3-2.7,4.9c-8.9,14.7-22,22-39.2,20.9C20,225.4,4.5,210.6,1.8,191
		c-1.3-9.5,0.6-18.4,5.5-26.6c1-1.8,2.2-3.4,3.3-5.2C11.1,158.8,10.9,158,11.8,158"/>
</g>
</svg>
