<?xml version="1.0" encoding="UTF-8" standalone="no"?>
<svg
   version="1.1"
   width="200"
   height="200"
   id="logo"
   xml:space="preserve"
   xmlns="http://www.w3.org/2000/svg"
   xmlns:svg="http://www.w3.org/2000/svg"><defs
   id="defs220" />

<path
   id="gandi"
   d="m 151.66758,51.03736 c -5.12134,-3.625617 -12.20991,-2.412498 -15.83403,2.707344 -4.44881,6.290483 -9.37451,10.953061 -14.9791,14.173389 -0.51673,0.296721 -1.04146,0.581323 -1.57044,0.855057 -0.48749,0.252743 -0.98236,0.494368 -1.48023,0.724748 -5.23303,2.42549 -11.06163,3.698704 -17.79925,3.900723 C 93.265779,73.196602 87.434307,71.922388 82.199276,69.496898 75.304857,66.301807 69.40667,61.149608 64.165142,53.744704 60.541524,48.624862 53.452494,47.411743 48.333578,51.03736 c -5.12088,3.621869 -6.335097,10.710687 -2.710518,15.831528 7.487811,10.581382 16.581225,18.401071 27.026925,23.240308 2.051685,0.951256 4.144848,1.787197 6.290234,2.509446 -8.872393,6.406918 -18.465535,15.386998 -23.060761,27.697978 -4.770472,12.77612 -4.710441,26.60832 0.165926,38.95103 4.67867,11.84097 13.338797,21.47128 24.386809,27.11922 12.308483,6.29312 27.976597,6.30678 41.910357,0.0312 14.62279,-6.58154 24.16022,-18.63238 25.51601,-32.24207 1.42313,-14.32456 -5.44492,-27.07968 -17.50066,-32.49388 -12.48665,-5.60795 -26.57271,-1.60504 -35.883249,10.19447 -3.887106,4.92369 -3.044794,12.06748 1.8784,15.95309 4.925189,3.8876 12.067979,3.04429 15.953589,-1.8794 2.76669,-3.50543 5.95591,-4.79826 8.74846,-3.54404 2.38013,1.06933 4.73191,4.13411 4.19707,9.52393 -0.53298,5.3356 -5.22004,10.61699 -12.2334,13.77498 -7.58931,3.41334 -16.114756,3.58801 -22.248195,0.45339 -6.121821,-3.13063 -10.950939,-8.54295 -13.596939,-15.23909 -1.987343,-5.02627 -3.602254,-13.0421 -0.01121,-22.65723 2.692851,-7.21201 9.480827,-14.01711 21.363406,-21.41027 5.043758,-3.14049 10.453068,-6.06709 15.682728,-8.897242 6.03112,-3.26443 11.74727,-6.358448 16.76717,-9.672227 8.93336,-4.885588 16.79065,-12.074229 23.40097,-21.413632 3.62461,-5.12084 2.41087,-12.209659 -2.7091,-15.831528 z M 93.926061,29.653466 c 1.454369,-1.455494 3.389361,-2.257578 5.445421,-2.257578 2.058558,0 3.993548,0.802084 5.447418,2.256328 1.45525,1.456743 2.25708,3.38949 2.25708,5.447171 0,2.058931 -0.80183,3.992927 -2.25608,5.445922 -1.45487,1.456744 -3.38986,2.257577 -5.448418,2.257577 -2.05606,0 -3.991052,-0.800833 -5.445421,-2.255078 -1.454745,-1.455494 -2.256579,-3.38949 -2.256579,-5.448421 0,-2.057681 0.801834,-3.990428 2.256579,-5.445921 z m 5.445421,31.662306 c 7.002738,0 13.587688,-2.727333 18.538748,-7.679761 4.95005,-4.94993 7.67714,-11.531512 7.67714,-18.536624 0,-7.002613 -2.72709,-13.585444 -7.67864,-18.537874 -4.94956,-4.949928 -11.53451,-7.6772608 -18.537248,-7.6772608 -7.000739,0 -13.584694,2.7273328 -18.536247,7.6797608 -4.951553,4.94993 -7.678138,11.532761 -7.678138,18.535374 0,7.002614 2.726585,13.586694 7.678637,18.536624 4.950554,4.952428 11.535009,7.679761 18.535748,7.679761 z"
   style="fill:#ffffff;fill-opacity:1;fill-rule:nonzero;stroke:none" />

</svg>
