<svg width="51" height="46" viewBox="0 0 51 46" fill="none" xmlns="http://www.w3.org/2000/svg">
<path d="M10.9064 42.5558L0.605729 24.6668C-0.20191 23.2663 -0.20191 21.5487 0.605729 20.1483L10.9064 2.25925C11.7141 0.858779 13.197 0 14.8122 0H35.4137C37.0289 0 38.5118 0.858779 39.3195 2.25925L49.6202 20.1483C50.4278 21.5487 50.4278 23.2663 49.6202 24.6668L39.3195 42.5558C38.5118 43.943 37.0289 44.815 35.4137 44.815H14.8122C13.197 44.815 11.7141 43.943 10.9064 42.5558Z" fill="url(#paint0_linear_7347_16410)"/>
<g opacity="0.07">
<path opacity="0.07" d="M47.5095 28.5304L35.011 16.0054L32.7072 16.4811L26.9743 10.7471L25.1472 14.1822L24.1542 18.159L25.8357 19.8501L22.6051 20.4975L18.1697 16.0583L15.1643 18.9649L20.6986 24.5139L14.8333 29.2042L30.6021 45.0057L38.2813 44.9265L47.5095 28.5304Z" fill="black"/>
</g>
<path d="M33.5497 19.6106C34.705 19.6106 35.6416 18.6701 35.6416 17.5099C35.6416 16.3497 34.705 15.4092 33.5497 15.4092C32.3943 15.4092 31.4578 16.3497 31.4578 17.5099C31.4578 18.6701 32.3943 19.6106 33.5497 19.6106Z" fill="white"/>
<path d="M16.6687 19.6106C17.824 19.6106 18.7606 18.6701 18.7606 17.5099C18.7606 16.3497 17.824 15.4092 16.6687 15.4092C15.5134 15.4092 14.5768 16.3497 14.5768 17.5099C14.5768 18.6701 15.5134 19.6106 16.6687 19.6106Z" fill="white"/>
<path d="M25.1158 34.2756C26.2712 34.2756 27.2078 33.3351 27.2078 32.1749C27.2078 31.0147 26.2712 30.0742 25.1158 30.0742C23.9605 30.0742 23.0239 31.0147 23.0239 32.1749C23.0239 33.3351 23.9605 34.2756 25.1158 34.2756Z" fill="white"/>
<path d="M24.6273 23.2326L25.5938 21.5547L34.041 26.4431L33.0744 28.121L24.6273 23.2326Z" fill="white"/>
<path d="M16.1934 26.4558L24.6272 21.5674L25.5938 23.2453L17.1599 28.1205L16.1934 26.4558Z" fill="white"/>
<path d="M26.0704 12.623H24.1373V22.3867H26.0704V12.623Z" fill="white"/>
<path d="M25.1157 25.7802C26.9803 25.7802 28.4919 24.2659 28.4919 22.3979C28.4919 20.5299 26.9803 19.0156 25.1157 19.0156C23.2511 19.0156 21.7395 20.5299 21.7395 22.3979C21.7395 24.2659 23.2511 25.7802 25.1157 25.7802Z" fill="white"/>
<path d="M16.6687 29.9558C18.1384 29.9558 19.3299 28.7609 19.3299 27.287C19.3299 25.813 18.1384 24.6182 16.6687 24.6182C15.1989 24.6182 14.0074 25.813 14.0074 27.287C14.0074 28.7609 15.1989 29.9558 16.6687 29.9558Z" fill="white"/>
<path d="M33.5497 29.9558C35.0194 29.9558 36.2109 28.7609 36.2109 27.287C36.2109 25.813 35.0194 24.6182 33.5497 24.6182C32.0799 24.6182 30.8884 25.813 30.8884 27.287C30.8884 28.7609 32.0799 29.9558 33.5497 29.9558Z" fill="white"/>
<path d="M25.1157 15.3035C26.5855 15.3035 27.7769 14.1086 27.7769 12.6346C27.7769 11.1607 26.5855 9.96582 25.1157 9.96582C23.6459 9.96582 22.4545 11.1607 22.4545 12.6346C22.4545 14.1086 23.6459 15.3035 25.1157 15.3035Z" fill="white"/>
<defs>
<linearGradient id="paint0_linear_7347_16410" x1="25.1328" y1="0.0061711" x2="25.1328" y2="44.7446" gradientUnits="userSpaceOnUse">
<stop stop-color="#4387FD"/>
<stop offset="1" stop-color="#4683EA"/>
</linearGradient>
</defs>
</svg>
