<?xml version="1.0" encoding="UTF-8" standalone="no"?>
<!-- Created with Inkscape (http://www.inkscape.org/) -->

<svg
   width="326.00284mm"
   height="130.80978mm"
   viewBox="0 0 326.00284 130.80978"
   version="1.1"
   id="svg3783"
   xml:space="preserve"
   xmlns:inkscape="http://www.inkscape.org/namespaces/inkscape"
   xmlns:sodipodi="http://sodipodi.sourceforge.net/DTD/sodipodi-0.dtd"
   xmlns="http://www.w3.org/2000/svg"
   xmlns:svg="http://www.w3.org/2000/svg"><sodipodi:namedview
     id="namedview3785"
     pagecolor="#ffffff"
     bordercolor="#000000"
     borderopacity="0.25"
     inkscape:showpageshadow="2"
     inkscape:pageopacity="0.0"
     inkscape:pagecheckerboard="0"
     inkscape:deskcolor="#d1d1d1"
     inkscape:document-units="mm"
     showgrid="false" /><defs
     id="defs3780" /><g
     inkscape:label="Layer 1"
     inkscape:groupmode="layer"
     id="layer1"
     transform="translate(38.396577,-112.18858)"><g
       id="g8181"
       transform="translate(164.28058,-8.6794741)"
       inkscape:export-filename="googlenanalytics-dark.svg"
       inkscape:export-xdpi="96"
       inkscape:export-ydpi="96"><g
         id="g8101"
         transform="translate(161.87181,162.65936)"
         style="fill:#ffffff;fill-opacity:1"><g
           id="g8104"
           style="fill:#ffffff;fill-opacity:1" /><path
           style="fill:#ffffff;fill-opacity:1;stroke-width:0.352778"
           d="m -121.6272,86.938956 c 0.27562,-0.64002 1.40146,-3.1022 2.50185,-5.47151 l 2.00072,-4.30785 -4.43023,-10.08357 c -2.43664,-5.54597 -4.43024,-10.15587 -4.43024,-10.24424 0,-0.0884 0.99218,-0.15896 2.20486,-0.15689 l 2.20486,0.004 3.17465,7.78512 c 2.19886,5.39217 3.26954,7.63469 3.48334,7.29575 0.16978,-0.26915 1.60641,-3.73447 3.19252,-7.70071 l 2.88382,-7.21133 2.18769,-0.10503 c 1.20324,-0.0578 2.1877,0.0258 2.1877,0.18567 0,0.15988 -3.0028,7.19214 -6.67289,15.62724 l -6.67289,15.33656 -2.15845,0.10534 -2.15845,0.10534 0.50114,-1.16368 z m -28.78456,-8.19204 c -1.86319,-0.66498 -2.89427,-1.40513 -4.02791,-2.89141 -0.80011,-1.04901 -1.00993,-1.73448 -1.11838,-3.65383 -0.21338,-3.77628 1.26693,-5.96604 4.89955,-7.24771 1.93607,-0.68308 6.85304,-0.67893 8.7984,0.007 0.8249,0.29105 1.55526,0.52917 1.62303,0.52917 0.23982,0 -0.31936,-2.30634 -0.78292,-3.22914 -0.25863,-0.51484 -0.99002,-1.25178 -1.62531,-1.63763 -2.53744,-1.54117 -5.08196,-1.37426 -7.52934,0.49386 l -1.54702,1.18086 -1.58446,-0.96161 c -0.87145,-0.52889 -1.58948,-1.14594 -1.59561,-1.37123 -0.0148,-0.54549 1.85093,-2.08936 3.65193,-3.02183 1.04108,-0.53903 2.30109,-0.79351 4.45081,-0.89892 3.79067,-0.18588 6.3787,0.67343 8.24295,2.73693 2.00722,2.22176 2.34038,3.98938 2.34038,12.41718 v 7.34431 h -1.94028 -1.94027 v -1.41111 c 0,-1.60642 -0.37675,-1.7891 -1.17553,-0.57001 -1.42808,2.17953 -6.05546,3.28559 -9.14002,2.1847 z m 7.09929,-4.44758 c 2.90312,-2.10301 3.71321,-4.96302 1.6804,-5.93267 -0.55368,-0.26411 -1.94172,-0.56498 -3.08454,-0.66861 -3.80888,-0.34537 -6.66849,1.42252 -6.66849,4.12266 0,2.27372 1.65599,3.54762 4.61167,3.54762 1.65038,0 2.23416,-0.18031 3.46096,-1.069 z m 71.44217,4.47013 c -3.29197,-1.07782 -6.10119,-3.97055 -7.19538,-7.40926 -0.26589,-0.83565 -0.378,-2.60858 -0.28997,-4.58611 0.12159,-2.73174 0.29986,-3.51021 1.16797,-5.10018 1.94502,-3.56237 4.86938,-5.38376 9.04447,-5.63322 4.45426,-0.26613 8.147511,1.55972 9.831389,4.86039 l 0.679507,1.33195 -1.838202,0.76646 c -1.691534,0.7053 -1.866354,0.71962 -2.190974,0.17943 -1.44626,-2.40656 -3.0812,-3.33368 -5.87415,-3.331 -6.12415,0.006 -9.21442,8.10415 -4.98017,13.05092 1.51786,1.77328 2.9933,2.46949 5.23342,2.46949 2.57615,0 4.23491,-1.05416 6.02616,-3.82972 0.1319,-0.20437 3.304412,1.08379 3.517218,1.42812 0.514202,0.83199 -2.27469,3.92825 -4.628038,5.13809 -2.12864,1.09432 -6.21525,1.41375 -8.50325,0.66464 z m 20.891119,-0.0988 c -1.866883,-0.57325 -5.21237,-3.54212 -5.581333,-4.95302 -0.170279,-0.65116 0.06355,-0.87968 1.557895,-1.52253 0.967034,-0.416 1.788936,-0.70564 1.826454,-0.64364 0.787015,1.30077 2.243674,2.87683 3.038997,3.28811 2.444507,1.2641 6.759571,0.24058 7.251665,-1.72009 0.481965,-1.9203 -1.157912,-3.07365 -6.044301,-4.25105 -3.322891,-0.80067 -5.884985,-2.28961 -6.625642,-3.85042 -1.729476,-3.6446 0.436488,-7.54477 4.853484,-8.73949 2.085704,-0.56414 6.091904,-0.2219 7.829423,0.66885 1.537032,0.78797 3.670766,2.9649 3.670766,3.74507 0,0.25793 -0.727707,0.74688 -1.617123,1.08655 l -1.617126,0.61758 -1.116902,-1.05697 c -2.108979,-1.99583 -5.444024,-2.31607 -7.47583,-0.71785 -0.696468,0.54784 -0.886262,0.97808 -0.804132,1.82283 0.132761,1.36554 1.185548,1.93866 5.928335,3.22732 4.081808,1.10906 5.826527,2.18961 6.722724,4.16355 0.844391,1.85984 0.847241,3.20259 0.01069,5.04471 -1.617969,3.56288 -6.962228,5.27843 -11.808058,3.79049 z m -44.699749,-0.58369 c -1.10474,-0.57496 -1.78454,-1.26034 -2.34854,-2.3678 -0.74389,-1.46073 -0.79375,-1.99707 -0.79375,-8.53943 v -6.98086 h -1.94027 -1.94028 v -1.76388 -1.76389 h 1.94028 1.94027 v -3.35139 -3.35139 h 2.11667 2.11667 v 3.35139 3.35139 h 2.64583 2.64583 v 1.76389 1.76388 h -2.64583 -2.64583 v 6.54243 6.54242 l 0.90876,0.90877 c 0.75312,0.75312 1.14012,0.87772 2.25966,0.72756 1.31437,-0.17629 1.3661,-0.14137 1.91346,1.29186 0.76864,2.01267 0.72525,2.21068 -0.53987,2.4637 -2.13337,0.42667 -4.07122,0.22415 -5.63306,-0.5887 z m -113.55892,0.19178 c 0.001,-0.14553 2.66915,-7.32896 5.92801,-15.9632 l 5.92519,-15.69861 h 2.38921 2.38919 l 5.9703,15.83212 c 3.28366,8.70767 5.97029,15.89111 5.97029,15.9632 0,0.0721 -1.00913,0.13107 -2.24252,0.13107 h -2.24252 l -1.55074,-4.32153 -1.55074,-4.32153 -6.70229,-0.0955 -6.70229,-0.0955 -1.58405,4.41703 -1.58406,4.41704 h -2.20789 c -1.21434,0 -2.20663,-0.11907 -2.20509,-0.26459 z m 19.39997,-12.60227 c 0,-0.2805 -4.64714,-13.02606 -4.95556,-13.59149 -0.25659,-0.47036 -0.31071,-0.47036 -0.48717,0 -1.75739,4.68467 -4.78783,13.18777 -4.78783,13.43416 0,0.18215 2.24118,0.32418 5.11528,0.32418 2.81341,0 5.11528,-0.0751 5.11528,-0.16685 z m 11.99444,1.93074 v -10.93611 h 1.94028 1.94028 v 1.44109 1.44109 l 1.56662,-1.379 c 3.44802,-3.03506 8.99982,-2.97307 11.91342,0.13302 1.80664,1.926 2.04218,3.32925 2.04218,12.16648 v 8.06954 h -1.90144 -1.90145 l -0.13437,-7.67292 c -0.11747,-6.70833 -0.21706,-7.81104 -0.7922,-8.77163 -0.9472,-1.582 -2.29685,-2.25267 -4.53322,-2.25267 -2.42186,0 -4.01138,0.98373 -5.11301,3.1644 -0.74347,1.47168 -0.79375,2.01339 -0.79375,8.55201 v 6.98081 h -2.11667 -2.11667 z m 45.50834,-5.11528 v -16.05139 h 2.11666 2.11667 v 16.05139 16.05139 h -2.11667 -2.11666 z m 45.86111,5.11528 v -10.93611 h 2.11666 2.11667 v 10.93611 10.93611 h -2.11667 -2.11666 z m 0.0615,-16.69149 c -1.6575,-1.76433 -0.35337,-4.82796 2.05517,-4.82796 2.44774,0 3.77136,3.21868 2.00574,4.8774 -1.11888,1.05113 -3.04906,1.02763 -4.06091,-0.0494 z"
           id="path8098"
           sodipodi:nodetypes="cscssccsssccssccccccssscsssscsssssscccssccsssssssssssscsccssssssssscsssssssscsssssssscsscccccccccccccccccccccsssscccscccssscccccccscsscsssccccccssscccsssssccccccccccccccccccccccsssss" /><path
           d="m -268.94001,88.72963 c -1.70455,-0.52038 -3.71515,-1.73678 -4.79738,-2.90238 -1.35243,-1.45664 -2.25817,-2.79212 -2.25817,-3.3296 0,-0.22421 0.98205,-0.77492 2.18233,-1.2238 1.81372,-0.67828 2.2096,-0.73024 2.34374,-0.30759 0.33162,1.04492 2.89383,3.12458 4.1369,3.35778 4.29183,0.80515 7.23197,-1.44667 7.5059,-5.74868 l 0.15045,-2.36267 -0.83952,0.61252 c -3.70419,2.7026 -8.94937,2.27215 -12.62931,-1.03643 -1.01596,-0.91343 -2.17317,-2.4276 -2.74453,-3.59111 -0.86239,-1.75615 -0.98702,-2.41515 -0.9809,-5.18676 0.006,-2.58629 0.15659,-3.47825 0.81372,-4.81052 2.03393,-4.12359 5.77292,-6.65475 9.83028,-6.65475 2.41464,0 4.38014,0.63971 5.66015,1.84222 l 0.79856,0.75021 v -0.94344 c 0,-0.93362 0.0259,-0.94344 2.49004,-0.94344 h 2.49004 l -0.10879,12.43542 c -0.10667,12.19314 -0.12499,12.47125 -0.94048,14.27471 -1.13036,2.49981 -3.68755,4.83554 -6.06795,5.54244 -1.9452,0.57766 -5.50806,0.69205 -7.03508,0.22587 z m 6.74824,-15.73547 c 1.94691,-1.24921 2.88759,-3.49065 2.71878,-6.47823 -0.15882,-2.81073 -1.10456,-4.50517 -3.15899,-5.65983 -1.43029,-0.80386 -4.11402,-0.96868 -5.36108,-0.32924 -1.65779,0.85004 -3.09652,2.6081 -3.6266,4.43153 -1.80356,6.204 4.24626,11.36051 9.42789,8.03577 z m -87.79875,5.32174 c -10.06455,-2.28655 -16.50483,-12.30337 -14.02694,-21.81664 1.60172,-6.14942 6.04067,-10.9265 12.08076,-13.001 3.23607,-1.11144 8.45813,-1.10939 11.53072,0.005 2.20116,0.798 5.0046,2.44788 5.96772,3.51212 0.53709,0.59348 0.46287,0.74215 -1.17671,2.35708 l -1.74996,1.72364 -0.80177,-0.75322 c -0.44097,-0.41426 -1.7538,-1.19551 -2.9174,-1.7361 -1.78807,-0.83071 -2.57989,-0.98347 -5.11424,-0.98667 -2.6234,-0.003 -3.28553,0.13234 -5.29166,1.08405 -8.47517,4.02065 -10.29428,15.11884 -3.5172,21.458 2.07642,1.94224 3.82399,2.83949 6.59068,3.3838 5.50849,1.08373 11.72219,-1.97408 13.27558,-6.53302 1.0791,-3.16697 1.37027,-3.00015 -5.23657,-3.00015 h -5.82083 V 61.54334 59.0739 h 8.24913 8.24914 l 0.21271,0.79375 c 0.61023,2.27706 -0.0774,6.79678 -1.51503,9.95743 -1.04882,2.3059 -3.33508,4.88397 -5.598,6.31249 -3.4698,2.19039 -9.22044,3.12612 -13.39013,2.17881 z m 31.65184,0.047 c -3.80103,-0.84463 -6.34514,-2.92148 -8.07201,-6.58949 -0.74547,-1.58341 -0.91353,-2.46071 -0.91376,-4.76992 -2.5e-4,-2.49441 0.13906,-3.11266 1.17583,-5.21864 2.16188,-4.39141 5.88251,-6.45364 11.12423,-6.16581 4.44086,0.24386 7.64592,2.2615 9.69029,6.10021 0.83711,1.57184 0.93938,2.14797 0.93938,5.29166 0,3.14959 -0.10188,3.72094 -0.95035,5.32963 -2.47049,4.68398 -7.83252,7.16921 -12.99361,6.02236 z m 5.58595,-5.08884 c 2.04388,-0.94902 3.59606,-3.72136 3.59606,-6.42291 0,-2.04677 -1.57801,-4.81684 -3.3283,-5.84257 -3.36349,-1.97115 -7.26001,-0.77227 -9.08981,2.79674 -1.05977,2.06708 -0.79706,5.63857 0.54409,7.39692 2.2026,2.88776 5.00832,3.58998 8.27796,2.07182 z m 19.87031,5.18493 c -5.53193,-1.12369 -9.26361,-5.63446 -9.32487,-11.27169 -0.034,-3.12771 0.85844,-5.58049 2.82711,-7.77012 2.29866,-2.55667 4.5213,-3.60086 8.08285,-3.7973 3.36484,-0.18559 4.86772,0.2053 7.44366,1.93606 5.903,3.9662 6.56858,12.81369 1.34579,17.88966 -2.53896,2.46759 -6.86934,3.72539 -10.37454,3.01339 z m 5.77436,-5.57475 c 3.84524,-2.57204 3.98189,-8.77363 0.25593,-11.61556 -1.09963,-0.83872 -1.57949,-0.96054 -3.78371,-0.96054 -2.20422,0 -2.68408,0.12182 -3.78371,0.96054 -3.57759,2.72876 -3.60694,8.73332 -0.0559,11.44181 2.27559,1.73568 4.93842,1.79848 7.36741,0.17375 z m 52.03472,5.46567 c -2.58586,-0.58713 -4.01569,-1.38658 -5.84348,-3.26724 -2.02317,-2.0817 -2.97597,-4.66597 -2.97597,-8.07176 0,-3.62576 0.98787,-6.14915 3.32045,-8.48173 2.15159,-2.1516 4.27434,-2.98503 7.59031,-2.9801 3.03473,0.005 5.32969,1.06251 7.47105,3.44421 1.38165,1.53674 3.12102,4.8284 2.73403,5.17401 -0.0691,0.0617 -3.499,1.50214 -7.62209,3.20105 -4.16742,1.71718 -7.49652,3.2866 -7.49652,3.53406 0,0.73999 2.37001,2.58092 3.82815,2.97356 2.27063,0.61142 4.34169,0.005 6.29408,-1.8418 l 1.1264,-1.0657 1.78401,1.1448 c 0.98121,0.62964 1.78402,1.33416 1.78402,1.5656 0,0.77455 -2.62499,2.98722 -4.58611,3.86575 -2.45266,1.09873 -4.92997,1.36801 -7.40833,0.80529 z m 1.39854,-13.85021 c 2.62629,-1.09013 4.82762,-2.02903 4.89185,-2.08645 0.39416,-0.35242 -0.85337,-1.58233 -2.11843,-2.08851 -2.74302,-1.09754 -5.93648,0.24473 -7.30422,3.07011 -0.73731,1.52308 -0.98873,3.0869 -0.49628,3.0869 0.13861,0 2.4008,-0.89192 5.02708,-1.98205 z m -18.33187,-3.48601 V 43.90396 h 2.64583 2.64583 v 17.10973 17.10972 h -2.64583 -2.64583 z"
           style="fill:#ffffff;fill-opacity:1;stroke-width:0.352778"
           id="path8813" /></g><path
         d="m -21.963114,181.79314 c -1.82949,-0.97722 -3.43214,-3.05625 -3.89526,-5.05311 -0.17668,-0.76181 -0.32503,-12.03224 -0.32965,-25.04539 -0.01,-26.90563 -0.0746,-26.18976 2.60092,-28.65592 3.14152,-2.89575 7.1639,-2.89402 10.30836,0.004 2.710059,2.49805 2.641629,1.69673 2.527899,29.59948 l -0.0998,24.47617 -0.989639,1.68359 c -1.43295,2.43775 -3.30806,3.5606 -6.20331,3.71463 -1.93817,0.10311 -2.60017,-0.0191 -3.91955,-0.72389 z"
         style="fill:#f9ab00;fill-opacity:1;stroke-width:0.352778"
         id="path8114" /><path
         d="m -43.323045,181.77182 c -1.66231,-0.90213 -3.02887,-2.69481 -3.66465,-4.80735 -0.70898,-2.35576 -0.72929,-26.42147 -0.0237,-28.1052 1.24042,-2.96006 3.98716,-4.82387 7.10902,-4.82387 3.5703,0 6.81896,2.56477 7.54667,5.95799 0.50266,2.34379 0.51205,24.28773 0.0113,26.48207 -0.45267,1.98381 -1.6915,3.79497 -3.37546,4.93489 -1.79313,1.21382 -5.69116,1.39913 -7.6032,0.36147 z"
         style="fill:#e37400;fill-opacity:1;stroke-width:0.352778"
         id="path8137" /><path
         d="m -64.68095,181.91863 c -2.98603,-1.47804 -4.72664,-5.27941 -3.9073,-8.53328 1.178,-4.67829 6.07669,-7.1674 10.4832,-5.3267 6.1758,2.57978 6.1758,11.49391 0,14.07369 -1.89638,0.79216 -4.72981,0.70008 -6.5759,-0.21371 z"
         style="fill:#e37400;fill-opacity:1;stroke-width:0.352778"
         id="path8160" /></g></g></svg>
