<?xml version="1.0" encoding="UTF-8" standalone="no"?>
<!-- Created with Inkscape (http://www.inkscape.org/) -->

<svg
   version="1.1"
   id="svg2"
   width="480"
   height="576"
   viewBox="0 0 480 576"
   sodipodi:docname="gremlin-character-2.ai"
   xmlns:inkscape="http://www.inkscape.org/namespaces/inkscape"
   xmlns:sodipodi="http://sodipodi.sourceforge.net/DTD/sodipodi-0.dtd"
   xmlns="http://www.w3.org/2000/svg"
   xmlns:svg="http://www.w3.org/2000/svg">
  <defs
     id="defs6">
    <clipPath
       clipPathUnits="userSpaceOnUse"
       id="clipPath16">
      <path
         d="M 0,432 H 360 V 0 H 0 Z"
         id="path14" />
    </clipPath>
  </defs>
  <sodipodi:namedview
     id="namedview4"
     pagecolor="#ffffff"
     bordercolor="#000000"
     borderopacity="0.25"
     inkscape:showpageshadow="2"
     inkscape:pageopacity="0.0"
     inkscape:pagecheckerboard="0"
     inkscape:deskcolor="#d1d1d1" />
  <g
     id="g8"
     inkscape:groupmode="layer"
     inkscape:label="gremlin-character-2"
     transform="matrix(1.3333333,0,0,-1.3333333,0,576)">
    <g
       id="g10">
      <g
         id="g12"
         clip-path="url(#clipPath16)">
        <g
           id="g18"
           transform="translate(155.7246,315.5161)">
          <path
             d="m 0,0 c -0.048,6.145 -17.642,17.078 -24.172,19.063 0.004,-10.502 1.251,-21.599 7.068,-30.492 5.695,0.212 12.574,1.32 14.977,7.557"
             style="fill:#ffe800;fill-opacity:1;fill-rule:nonzero;stroke:#007100;stroke-width:5;stroke-linecap:round;stroke-linejoin:miter;stroke-miterlimit:4;stroke-dasharray:none;stroke-opacity:1"
             id="path20" />
        </g>
        <g
           id="g22"
           transform="translate(205.9189,317.7559)">
          <path
             d="M 0,0 C 8.401,3.065 14.241,13.181 23.37,15.405 23.955,9.482 22.574,-8.097 17.072,-11.763 11.403,-15.541 -1.742,-8.037 1.656,0.431"
             style="fill:#ffe800;fill-opacity:1;fill-rule:nonzero;stroke:#007100;stroke-width:5;stroke-linecap:round;stroke-linejoin:miter;stroke-miterlimit:4;stroke-dasharray:none;stroke-opacity:1"
             id="path24" />
        </g>
        <g
           id="g26"
           transform="translate(298.7656,320.6328)">
          <path
             d="m 0,0 c -35.297,2.142 -65.501,-3.211 -97.261,-15.811 h -39.986 c -31.759,12.6 -61.963,17.953 -97.261,15.811 -3.488,-17.394 41.49,-70.528 61.612,-56.05 l -3.639,-8.979 c -5.424,-13.88 14.128,-31.059 25.619,-37.422 -5.636,-1.453 -8.846,-2.727 -8.846,-2.727 -23.2,-3.55 -44.731,-33.76 -37.16,-55.129 3.739,-10.556 20.421,-17.841 30.74,-10.628 9.566,6.683 8.712,25.725 -5.443,26.021 -0.489,7.42 8.737,26.232 18.224,28.415 h 4.513 c 11.079,-7.975 1.57,-27.456 -0.17,-33.19 -1.433,-4.733 1.668,-8.262 -1.703,-11.974 -2.401,-2.643 -4.276,-4.477 -5.978,-7.506 -3.235,-5.757 -7.496,-14.917 -3.115,-20.904 -9.373,1.23 -22.228,6.528 -29.681,-2.599 -8.254,-10.107 -7.209,-20.336 3.922,-22.369 14.189,-2.59 67.312,-4.748 54.314,20.227 -20.154,8.126 0.158,24.565 11.237,26.337 h 5.612 c 11.081,-1.772 31.39,-18.211 11.236,-26.337 -12.997,-24.975 40.126,-22.817 54.316,-20.227 11.13,2.033 12.175,12.262 3.92,22.369 -7.452,9.127 -20.307,3.829 -29.68,2.599 4.381,5.987 0.121,15.147 -3.114,20.904 -1.702,3.029 -3.577,4.863 -5.979,7.506 -3.37,3.712 -0.27,7.241 -1.702,11.974 -1.74,5.734 -13.301,25.215 -2.223,33.19 h 5.54 c 9.487,-2.183 19.739,-20.995 19.249,-28.415 -14.155,-0.296 -15.009,-19.338 -5.443,-26.021 10.319,-7.213 27.002,0.072 30.741,10.628 7.569,21.369 -13.962,51.579 -37.16,55.129 0,0 -3.146,1.32 -8.889,2.806 11.84,6.288 32.291,22.692 25.325,37.343 l -3.325,8.979 C -41.516,-70.528 3.488,-17.394 0,0"
             style="fill:#b0e141;fill-opacity:1;fill-rule:nonzero;stroke:none"
             id="path28" />
        </g>
        <g
           id="g30"
           transform="translate(298.7656,320.6328)">
          <path
             d="m 0,0 c -35.297,2.142 -65.501,-3.211 -97.261,-15.811 h -39.986 c -31.759,12.6 -61.963,17.953 -97.261,15.811 -3.488,-17.394 41.49,-70.528 61.612,-56.05 l -3.639,-8.979 c -5.424,-13.88 14.128,-31.059 25.619,-37.422 -5.636,-1.453 -8.846,-2.727 -8.846,-2.727 -23.2,-3.55 -44.731,-33.76 -37.16,-55.129 3.739,-10.556 20.421,-17.841 30.74,-10.628 9.566,6.683 8.712,25.725 -5.443,26.021 -0.489,7.42 8.737,26.232 18.224,28.415 h 4.513 c 11.079,-7.975 1.57,-27.456 -0.17,-33.19 -1.433,-4.733 1.668,-8.262 -1.703,-11.974 -2.401,-2.643 -4.276,-4.477 -5.978,-7.506 -3.235,-5.757 -7.496,-14.917 -3.115,-20.904 -9.373,1.23 -22.228,6.528 -29.681,-2.599 -8.254,-10.107 -7.209,-20.336 3.922,-22.369 14.189,-2.59 67.312,-4.748 54.314,20.227 -20.154,8.126 0.158,24.565 11.237,26.337 h 5.612 c 11.081,-1.772 31.39,-18.211 11.236,-26.337 -12.997,-24.975 40.126,-22.817 54.316,-20.227 11.13,2.033 12.175,12.262 3.92,22.369 -7.452,9.127 -20.307,3.829 -29.68,2.599 4.381,5.987 0.121,15.147 -3.114,20.904 -1.702,3.029 -3.577,4.863 -5.979,7.506 -3.37,3.712 -0.27,7.241 -1.702,11.974 -1.74,5.734 -13.301,25.215 -2.223,33.19 h 5.54 c 9.487,-2.183 19.739,-20.995 19.249,-28.415 -14.155,-0.296 -15.009,-19.338 -5.443,-26.021 10.319,-7.213 27.002,0.072 30.741,10.628 7.569,21.369 -13.962,51.579 -37.16,55.129 0,0 -3.146,1.32 -8.889,2.806 11.84,6.288 32.291,22.692 25.325,37.343 l -3.325,8.979 C -41.516,-70.528 3.488,-17.394 0,0 Z"
             style="fill:none;stroke:#007100;stroke-width:1;stroke-linecap:round;stroke-linejoin:miter;stroke-miterlimit:4;stroke-dasharray:none;stroke-opacity:1"
             id="path32" />
        </g>
        <g
           id="g34"
           transform="translate(211.0898,204.1338)">
          <path
             d="m 0,0 c -1.072,2.921 -4.275,-3.749 -7.09,-3.134 -3.216,-9.462 1.67,-22.759 1,-33 -0.89,-13.606 -32,-13 -42.5,-10.5 -0.39,-0.84 0.279,-0.719 0,-1.5 9.526,-4.275 40.123,-5.737 48.552,7 6.948,10.5 -11.55,23.691 -4.052,37"
             style="fill:#6cbf61;fill-opacity:1;fill-rule:nonzero;stroke:none"
             id="path36" />
        </g>
        <g
           id="g38"
           transform="translate(298.7656,319.6328)">
          <path
             d="m 0,0 c -35.298,2.142 -65.502,-3.211 -97.261,-15.811 h -39.986 c -31.759,12.6 -61.963,17.953 -97.261,15.811 -3.488,-17.394 41.49,-69.528 61.612,-55.05 l -3.639,-8.979 c -5.424,-13.88 14.128,-31.059 25.618,-37.422 -5.636,-1.453 -8.846,-2.727 -8.846,-2.727 -23.199,-3.55 -44.73,-33.76 -37.159,-55.129 3.738,-10.556 20.421,-17.841 30.74,-10.628 9.565,6.683 8.712,25.725 -5.443,26.021 -0.489,7.42 8.737,26.232 18.223,28.415 h 4.513 c 11.08,-7.975 1.571,-27.456 -0.169,-33.19 -1.433,-4.733 1.667,-8.262 -1.703,-11.974 -2.401,-2.643 -4.276,-4.477 -5.978,-7.506 -3.235,-5.757 -7.496,-14.917 -3.115,-20.904 -9.373,1.23 -22.228,6.528 -29.681,-2.599 -8.254,-10.107 -7.209,-20.336 3.922,-22.369 14.189,-2.59 67.312,-4.748 54.314,20.227 -20.154,8.126 0.157,24.565 11.237,26.337 h 5.612 c 11.079,-1.772 31.39,-18.211 11.236,-26.337 -12.997,-24.975 40.126,-22.817 54.316,-20.227 11.13,2.033 12.175,12.262 3.92,22.369 -7.452,9.127 -20.307,3.829 -29.68,2.599 4.381,5.987 0.121,15.147 -3.114,20.904 -1.702,3.029 -3.577,4.863 -5.979,7.506 -3.371,3.712 -0.27,7.241 -1.702,11.974 -1.74,5.734 -13.301,25.215 -2.223,33.19 h 5.54 c 9.487,-2.183 19.739,-20.995 19.249,-28.415 -14.155,-0.296 -15.009,-19.338 -5.443,-26.021 10.319,-7.213 27.002,0.072 30.74,10.628 7.57,21.369 -13.961,51.579 -37.16,55.129 0,0 -3.146,1.32 -8.888,2.806 11.839,6.288 32.29,22.692 25.325,37.343 l -3.325,8.979 C -41.516,-69.528 3.488,-17.394 0,0 Z"
             style="fill:none;stroke:#007100;stroke-width:5;stroke-linecap:round;stroke-linejoin:miter;stroke-miterlimit:4;stroke-dasharray:none;stroke-opacity:1"
             id="path40" />
        </g>
        <g
           id="g42"
           transform="translate(129.7568,279.9761)">
          <path
             d="M 0,0 C 1.015,20.401 -37.342,34.181 -59.162,36.107 -38.554,29.069 -11.047,13.055 0,-2.721"
             style="fill:#6cbf61;fill-opacity:1;fill-rule:nonzero;stroke:none"
             id="path44" />
        </g>
        <g
           id="g46"
           transform="translate(236.9473,280.9019)">
          <path
             d="M 0,0 C -0.949,19.268 34.893,32.283 55.281,34.102 36.025,27.456 10.321,12.331 0,-2.569"
             style="fill:#6cbf61;fill-opacity:1;fill-rule:nonzero;stroke:none"
             id="path48" />
        </g>
        <g
           id="g50"
           transform="translate(208.0596,298.459)">
          <path
             d="m 0,0 c -0.588,7.743 1.474,18.298 4.37,22.629 -6.58,3.178 -12.705,-1.73 -18.71,-4.333 -0.795,13.246 0.841,27.021 3.234,39.298 -9.24,-5.79 -26.891,-21.116 -27.858,-34.928 -4.863,6.993 -9.408,15.332 -14.298,22.839 -2.788,-11.974 -6.478,-30.144 -2.387,-42.5"
             style="fill:#b0e141;fill-opacity:1;fill-rule:nonzero;stroke:#007100;stroke-width:5;stroke-linecap:round;stroke-linejoin:miter;stroke-miterlimit:4;stroke-dasharray:none;stroke-opacity:1"
             id="path52" />
        </g>
        <g
           id="g54"
           transform="translate(146.8926,235.353)">
          <path
             d="m 0,0 c 2.725,-3.969 2.113,-8.713 4.711,-13.01 2.657,2.76 6.785,4.777 9.302,7.523"
             style="fill:#fffec6;fill-opacity:1;fill-rule:nonzero;stroke:#007100;stroke-width:3;stroke-linecap:round;stroke-linejoin:miter;stroke-miterlimit:4;stroke-dasharray:none;stroke-opacity:1"
             id="path56" />
        </g>
        <g
           id="g58"
           transform="translate(140.2656,244.7749)">
          <path
             d="M 0,0 C 0.408,0.141 -1.018,-0.285 -1.787,-1.228 4.885,-13.4 28.544,-17.739 40.616,-17.719 56.889,-17.693 72.213,-13.432 84.275,-1.942 83.539,-1.063 82.453,-0.444 81.232,0"
             style="fill:none;stroke:#007100;stroke-width:3;stroke-linecap:round;stroke-linejoin:miter;stroke-miterlimit:4;stroke-dasharray:none;stroke-opacity:1"
             id="path60" />
        </g>
        <g
           id="g62"
           transform="translate(175.2031,255.3579)">
          <path
             d="m 0,0 c -2.279,12.531 0.372,23.509 -9.2,29.943 -6.564,4.413 -18.618,4.321 -23.944,-4.608 -1.819,-3.05 -5.102,-12.766 -4.085,-16.658 1.052,-4.041 6.821,-6.441 9.717,-7.504 6.345,-2.334 21.105,-5.764 26.722,-1.178"
             style="fill:#ffffff;fill-opacity:1;fill-rule:nonzero;stroke:#007100;stroke-width:3;stroke-linecap:round;stroke-linejoin:miter;stroke-miterlimit:4;stroke-dasharray:none;stroke-opacity:1"
             id="path64" />
        </g>
        <g
           id="g66"
           transform="translate(166.4521,270.3711)">
          <path
             d="m 0,0 c 0,-5.709 -3.209,-10.337 -7.167,-10.337 -3.959,0 -7.167,4.628 -7.167,10.337 0,5.709 3.208,10.337 7.167,10.337 C -3.209,10.337 0,5.709 0,0"
             style="fill:#007100;fill-opacity:1;fill-rule:nonzero;stroke:none"
             id="path68" />
        </g>
        <g
           id="g70"
           transform="translate(164.0625,274.3091)">
          <path
             d="m 0,0 c 0,-2.446 -1.426,-4.431 -3.185,-4.431 -1.758,0 -3.185,1.985 -3.185,4.431 0,2.446 1.427,4.43 3.185,4.43 C -1.426,4.43 0,2.446 0,0"
             style="fill:#ffffff;fill-opacity:1;fill-rule:nonzero;stroke:none"
             id="path72" />
        </g>
        <g
           id="g74"
           transform="translate(134.5977,263.479)">
          <path
             d="M 0,0 C 2.66,-0.528 3.159,-1.103 5.575,-2.953"
             style="fill:none;stroke:#007100;stroke-width:3;stroke-linecap:round;stroke-linejoin:miter;stroke-miterlimit:4;stroke-dasharray:none;stroke-opacity:1"
             id="path76" />
        </g>
        <g
           id="g78"
           transform="translate(188.7529,255.3579)">
          <path
             d="m 0,0 c 2.28,12.531 -0.371,23.509 9.201,29.943 6.563,4.413 18.617,4.321 23.943,-4.608 C 34.963,22.285 38.246,12.569 37.23,8.677 36.177,4.636 30.409,2.236 27.513,1.173 21.167,-1.161 6.407,-4.591 0.791,-0.005"
             style="fill:#ffffff;fill-opacity:1;fill-rule:nonzero;stroke:#007100;stroke-width:3;stroke-linecap:round;stroke-linejoin:miter;stroke-miterlimit:4;stroke-dasharray:none;stroke-opacity:1"
             id="path80" />
        </g>
        <g
           id="g82"
           transform="translate(197.5039,270.3711)">
          <path
             d="m 0,0 c 0,-5.709 3.209,-10.337 7.167,-10.337 3.959,0 7.167,4.628 7.167,10.337 0,5.709 -3.208,10.337 -7.167,10.337 C 3.209,10.337 0,5.709 0,0"
             style="fill:#007100;fill-opacity:1;fill-rule:nonzero;stroke:none"
             id="path84" />
        </g>
        <g
           id="g86"
           transform="translate(199.8936,274.3091)">
          <path
             d="m 0,0 c 0,-2.446 1.426,-4.431 3.186,-4.431 1.757,0 3.185,1.985 3.185,4.431 0,2.446 -1.428,4.43 -3.185,4.43 C 1.426,4.43 0,2.446 0,0"
             style="fill:#ffffff;fill-opacity:1;fill-rule:nonzero;stroke:none"
             id="path88" />
        </g>
        <g
           id="g90"
           transform="translate(229.3584,263.479)">
          <path
             d="M 0,0 C -2.659,-0.528 -3.159,-1.103 -5.575,-2.953"
             style="fill:none;stroke:#007100;stroke-width:3;stroke-linecap:round;stroke-linejoin:miter;stroke-miterlimit:4;stroke-dasharray:none;stroke-opacity:1"
             id="path92" />
        </g>
        <g
           id="g94"
           transform="translate(195.8838,210.7129)">
          <path
             d="m 0,0 c -4.219,-3.086 -25.696,-4.047 -27.848,-0.723 0,0 13.13,-2.605 27.848,0.723"
             style="fill:#6cbf61;fill-opacity:1;fill-rule:nonzero;stroke:none"
             id="path96" />
        </g>
      </g>
    </g>
  </g>
</svg>
