<?xml version="1.0" encoding="UTF-8" standalone="no"?>
<svg
   id="LOGOS"
   viewBox="0 0 268 132"
   version="1.1"
   sodipodi:docname="hashicorp-vault-dark.svg"
   inkscape:version="1.2.1 (9c6d41e, 2022-07-14)"
   xmlns:inkscape="http://www.inkscape.org/namespaces/inkscape"
   xmlns:sodipodi="http://sodipodi.sourceforge.net/DTD/sodipodi-0.dtd"
   xmlns="http://www.w3.org/2000/svg"
   xmlns:svg="http://www.w3.org/2000/svg">
  <defs
     id="defs10125" />
  <sodipodi:namedview
     id="namedview10123"
     pagecolor="#ffffff"
     bordercolor="#000000"
     borderopacity="0.25"
     inkscape:showpageshadow="2"
     inkscape:pageopacity="0.0"
     inkscape:pagecheckerboard="0"
     inkscape:deskcolor="#d1d1d1"
     showgrid="false"
     inkscape:zoom="1.7878788"
     inkscape:cx="134.23729"
     inkscape:cy="66"
     inkscape:window-width="1309"
     inkscape:window-height="456"
     inkscape:window-x="0"
     inkscape:window-y="25"
     inkscape:window-maximized="0"
     inkscape:current-layer="LOGOS" />
  <path
     d="M145,51.69h7.92L140.85,92H129.6l-12-40.28h7.92l9.74,33.57Z"
     id="path10108"
     style="fill:#ffffff;fill-opacity:1" />
  <path
     d="M174.9,92h-6l-.55-2a16.12,16.12,0,0,1-8.77,2.6c-5.38,0-7.68-3.69-7.68-8.77,0-6,2.6-8.29,8.59-8.29h7.08V72.44c0-3.27-.91-4.42-5.63-4.42a40.72,40.72,0,0,0-8.16.91l-.91-5.63a38.68,38.68,0,0,1,10.1-1.39c9.25,0,12,3.27,12,10.65Zm-7.37-11.13h-5.45c-2.42,0-3.08.67-3.08,2.91,0,2,.66,3,3,3a11.72,11.72,0,0,0,5.57-1.51Z"
     id="path10110"
     style="fill:#ffffff;fill-opacity:1" />
  <path
     d="M186.52,62.52V83.08c0,1.57.66,2.36,2.36,2.36s5-1.09,7.68-2.48V62.52h7.38V92h-5.63l-.72-2.48a29.44,29.44,0,0,1-11.8,3.09c-4.9,0-6.65-3.45-6.65-8.71V62.52Z"
     id="path10112"
     style="fill:#ffffff;fill-opacity:1" />
  <path
     d="M207.87,92V50.48l7.38-1V92Z"
     id="path10114"
     style="fill:#ffffff;fill-opacity:1" />
  <path
     d="M237.26,91.43a20.62,20.62,0,0,1-6.47,1.15c-5.38,0-8.11-2.54-8.11-7.8V68.38h-4.41V62.52h4.41V55.2l7.38-1v8.35h7.56l-.48,5.86h-7.08V83.81a2.33,2.33,0,0,0,2.66,2.6,13.92,13.92,0,0,0,3.69-.61Z"
     id="path10116"
     style="fill:#ffffff;fill-opacity:1" />
  <path
     d="M125.42,41.81V36.16h-5.18v5.65H117.6V28.23h2.64v5.69h5.18V28.23h2.64V41.81Zm12.32,0h-2.09l-.19-.66a5.77,5.77,0,0,1-3,.86c-1.87,0-2.66-1.22-2.66-2.91,0-2,.9-2.76,3-2.76h2.46v-1c0-1.08-.32-1.47-1.95-1.47a14.94,14.94,0,0,0-2.83.3l-.32-1.87a14,14,0,0,1,3.5-.46c3.21,0,4.15,1.09,4.15,3.54Zm-2.55-3.7H133.3c-.84,0-1.07.22-1.07,1s.23,1,1,1a4.22,4.22,0,0,0,1.93-.5ZM143.1,42a12.53,12.53,0,0,1-3.52-.56l.35-1.87a12,12,0,0,0,3,.42c1.13,0,1.3-.24,1.3-1s-.12-.9-1.78-1.28c-2.49-.59-2.79-1.19-2.79-3.08s.9-2.84,3.82-2.84a14.07,14.07,0,0,1,3.06.34l-.25,2a19,19,0,0,0-2.81-.28c-1.11,0-1.3.24-1.3.85,0,.78.06.84,1.44,1.19,2.86.72,3.13,1.08,3.13,3.09S146.18,42,143.1,42Zm11.7-.2V35c0-.52-.23-.79-.81-.79a7.41,7.41,0,0,0-2.67.83v6.8h-2.55V28l2.55.38v4.34a9.28,9.28,0,0,1,3.74-.95c1.69,0,2.3,1.15,2.3,2.9v7.1Zm4.71-11.19V28.23h2.56v2.39Zm0,11.19V32h2.56v9.8Zm4.6-9.72c0-2.45,1.49-3.88,5-3.88a16.63,16.63,0,0,1,3.8.44l-.3,2.19a21.49,21.49,0,0,0-3.41-.34c-1.83,0-2.41.61-2.41,2v5.16c0,1.43.58,2,2.41,2a21.49,21.49,0,0,0,3.41-.34l.3,2.19a16.63,16.63,0,0,1-3.8.44c-3.47,0-5-1.43-5-3.88ZM178.52,42c-3.5,0-4.45-1.85-4.45-3.86V35.67c0-2,1-3.86,4.45-3.86S183,33.66,183,35.67v2.48C183,40.16,182,42,178.52,42Zm0-8.11c-1.37,0-1.89.59-1.89,1.69v2.64c0,1.11.52,1.69,1.89,1.69s1.88-.58,1.88-1.69V35.59C180.4,34.49,179.88,33.9,178.52,33.9Zm11.64.16a21.92,21.92,0,0,0-2.71,1.43v6.32H184.9V32h2.16l.16,1.09a11.83,11.83,0,0,1,2.69-1.29Zm10.22,4.49c0,2.17-1,3.46-3.37,3.46a14.76,14.76,0,0,1-2.73-.28v4l-2.56.38V32h2l.25.83a5.48,5.48,0,0,1,3.23-1c2,0,3.14,1.17,3.14,3.4Zm-6.1,1.11a11.85,11.85,0,0,0,2.26.26c.93,0,1.28-.42,1.28-1.31V35.15c0-.8-.31-1.25-1.25-1.25a3.74,3.74,0,0,0-2.29.89Z"
     id="path10118"
     style="fill:#ffffff;fill-opacity:1" />
  <path
     d="M30.11,40.8,62,102.86,94.11,40.8ZM57,65.44H52V60.36H57Zm0-7.62H52V52.74H57Zm7.62,15.24H59.57V68h5.08Zm0-7.62H59.57V60.36h5.08Zm0-7.62H59.57V52.74h5.08Zm7.58,7.62H67.15V60.36h5.08Zm-5.08-7.62V52.74h5.08v5.08Z"
     id="path10120"
     style="fill:#ffffff;fill-opacity:1" />
</svg>
