<?xml version="1.0" encoding="UTF-8" standalone="no"?>
<!-- Generator: Adobe Illustrator 19.1.0, SVG Export Plug-In . SVG Version: 6.00 Build 0)  -->

<svg
   version="1.1"
   id="Layer_1"
   x="0px"
   y="0px"
   viewBox="60 -8 35.900002 40"
   xml:space="preserve"
   sodipodi:docname="heroku.svg"
   width="35.900002"
   height="40"
   inkscape:version="1.2.1 (9c6d41e, 2022-07-14)"
   xmlns:inkscape="http://www.inkscape.org/namespaces/inkscape"
   xmlns:sodipodi="http://sodipodi.sourceforge.net/DTD/sodipodi-0.dtd"
   xmlns="http://www.w3.org/2000/svg"
   xmlns:svg="http://www.w3.org/2000/svg"
   xmlns:rdf="http://www.w3.org/1999/02/22-rdf-syntax-ns#"
   xmlns:cc="http://creativecommons.org/ns#"
   xmlns:dc="http://purl.org/dc/elements/1.1/"><defs
   id="defs1096" /><sodipodi:namedview
   id="namedview1094"
   pagecolor="#ffffff"
   bordercolor="#000000"
   borderopacity="0.25"
   inkscape:showpageshadow="2"
   inkscape:pageopacity="0.0"
   inkscape:pagecheckerboard="0"
   inkscape:deskcolor="#d1d1d1"
   showgrid="false"
   inkscape:zoom="3.7440129"
   inkscape:cx="63.968796"
   inkscape:cy="23.237099"
   inkscape:window-width="1309"
   inkscape:window-height="456"
   inkscape:window-x="0"
   inkscape:window-y="25"
   inkscape:window-maximized="0"
   inkscape:current-layer="nav" />
<title
   id="title1083">Heroku logo</title>
<desc
   id="desc1085">A platform as a service division of Salesforce.com</desc>
<style
   type="text/css"
   id="style1087">
	.st0{fill:#430098;}
</style>
<g
   id="Page-1">
	<g
   id="main"
   transform="translate(-25,-23)">
		<g
   id="nav"
   transform="translate(25,23)">
			<path
   id="logo"
   class="st0"
   d="M 92.3,-8 H 63.6 c -2,0 -3.6,1.6 -3.6,3.6 v 32.8 c 0,2 1.6,3.6 3.6,3.6 h 28.7 c 2,0 3.6,-1.6 3.6,-3.6 V -4.4 c 0,-2 -1.6,-3.6 -3.6,-3.6 z m 1.6,36.4 c 0,0.9 -0.7,1.6 -1.6,1.6 H 63.6 C 62.7,30 62,29.3 62,28.4 V -4.4 C 62,-5.3 62.7,-6 63.6,-6 h 28.7 c 0.9,0 1.6,0.7 1.6,1.6 z M 69,26 73.5,22 69,18 Z M 85.2,9.8 C 84.4,9 82.9,8 80.4,8 77.7,8 74.9,8.7 72.9,9.4 V -2 h -4 V 15.3 L 71.7,14 c 0,0 4.6,-2.1 8.6,-2.1 2,0 2.5,1.1 2.5,2.1 v 12 h 4 V 14 c 0.1,-0.3 0.1,-2.5 -1.6,-4.2 z M 79.9,4.5 h 4 c 1.8,-2.1 2.7,-4.2 3,-6.5 h -4 c -0.4,2.3 -1.4,4.4 -3,6.5 z"
   sodipodi:nodetypes="ssssssssssssssssscsccccsscccccsscccsccccc" />
		</g>
	</g>
</g>
<metadata
   id="metadata1147"><rdf:RDF><cc:Work
       rdf:about=""><dc:title>Heroku logo</dc:title></cc:Work></rdf:RDF></metadata></svg>
