<?xml version="1.0" encoding="UTF-8" standalone="no"?>
<svg
   width="106"
   height="60"
   version="1.1"
   id="svg1166"
   sodipodi:docname="hubspot.svg"
   inkscape:version="1.2.1 (9c6d41e, 2022-07-14)"
   xmlns:inkscape="http://www.inkscape.org/namespaces/inkscape"
   xmlns:sodipodi="http://sodipodi.sourceforge.net/DTD/sodipodi-0.dtd"
   xmlns="http://www.w3.org/2000/svg"
   xmlns:svg="http://www.w3.org/2000/svg">
  <defs
     id="defs1170" />
  <sodipodi:namedview
     id="namedview1168"
     pagecolor="#ffffff"
     bordercolor="#000000"
     borderopacity="0.25"
     inkscape:showpageshadow="2"
     inkscape:pageopacity="0.0"
     inkscape:pagecheckerboard="0"
     inkscape:deskcolor="#d1d1d1"
     showgrid="false"
     inkscape:zoom="4.0736264"
     inkscape:cx="15.588076"
     inkscape:cy="41.118154"
     inkscape:window-width="1507"
     inkscape:window-height="641"
     inkscape:window-x="348"
     inkscape:window-y="35"
     inkscape:window-maximized="0"
     inkscape:current-layer="svg1166" />
  <g
     fill="none"
     id="g1164"
     transform="translate(0,14.972999)">
    <path
       d="m 11.48,4.974 v 8.475 H 3.694 V 4.974 H 0 v 20.231 h 3.695 v -8.2 h 7.784 v 8.2 h 3.696 V 4.974 Z m 15.522,13.692 a 3.0575,3.0575 0 1 1 -6.115,0 V 10 h -3.505 v 8.666 a 6.556,6.556 0 0 0 13.112,0 V 10 h -3.492 z m 25.971,-7.773 c 0,-1.777 1.175,-2.34 2.462,-2.34 1.038,0 2.408,0.79 3.305,1.748 l 2.295,-2.706 c -1.146,-1.55 -3.47,-2.621 -5.373,-2.621 -3.803,0 -6.553,2.227 -6.553,5.919 0,6.85 8.372,4.676 8.372,8.51 0,1.182 -1.148,2.226 -2.462,2.226 -2.073,0 -2.745,-1.013 -3.697,-2.085 l -2.548,2.649 c 1.63,2 3.64,3.016 6.047,3.016 3.613,0 6.519,-2.254 6.519,-5.778 0,-7.604 -8.373,-5.241 -8.373,-8.538 m 51.8,11.08 c -2.071,0 -2.66,-0.896 -2.66,-2.268 V 13.63 h 3.22 v -3.078 h -3.22 V 6.491 L 98.553,8.086 V 20.46 c 0,3.165 2.184,4.76 5.178,4.76 0.47,0.008 0.94,-0.03 1.402,-0.112 L 106,21.916 c -0.391,0.027 -0.84,0.054 -1.233,0.054 M 40.344,10.101 c -1.736,0 -2.948,0.504 -4.12,1.653 V 5.095 h -3.51 v 12.343 c 0,4.62 3.34,7.786 7.094,7.786 4.164,0 7.827,-3.222 7.827,-7.56 0,-4.284 -3.371,-7.56 -7.291,-7.56 m -0.022,11.587 a 3.9835,3.9835 0 1 1 0,-7.967 3.9835,3.9835 0 0 1 0,7.967 M 78.464,17.48 c 0,-4.346 -3.655,-7.56 -7.827,-7.56 -3.753,0 -7.094,3.165 -7.094,7.786 v 12.35 h 3.51 v -6.668 c 1.17,1.147 2.384,1.653 4.118,1.653 3.92,0 7.292,-3.276 7.292,-7.561 M 75.14,17.436 a 3.9835,3.9835 0 1 1 -7.967,0 3.9835,3.9835 0 0 1 7.967,0"
       fill="#33475b"
       id="path1160" />
    <path
       d="M 89.806,9.75 V 6.223 A 2.716,2.716 0 0 0 91.372,3.775 V 3.694 c 0,-1.5 -1.216,-2.716 -2.716,-2.716 h -0.081 a 2.716,2.716 0 0 0 -2.716,2.716 v 0.081 a 2.716,2.716 0 0 0 1.566,2.448 V 9.75 a 7.691,7.691 0 0 0 -3.657,1.61 L 74.095,3.826 C 74.164,3.577 74.2,3.321 74.204,3.064 a 3.06,3.06 0 1 0 -3.064,3.054 3.027,3.027 0 0 0 1.507,-0.41 l 9.525,7.412 a 7.715,7.715 0 0 0 0.118,8.69 l -2.897,2.898 a 2.488,2.488 0 0 0 -0.724,-0.118 2.513,2.513 0 1 0 2.515,2.515 2.48,2.48 0 0 0 -0.118,-0.724 l 2.866,-2.867 A 7.728,7.728 0 1 0 89.806,9.75 m -1.188,11.6 a 3.965,3.965 0 1 1 0,-7.927 3.965,3.965 0 0 1 0.004,7.925"
       fill="#ff7a59"
       id="path1162" />
  </g>
</svg>
