<?xml version="1.0" encoding="UTF-8" standalone="no"?>
<!-- Created with Inkscape (http://www.inkscape.org/) -->

<svg
   width="16.88781mm"
   height="17.147785mm"
   viewBox="0 0 16.88781 17.147785"
   version="1.1"
   id="svg13031"
   inkscape:version="1.2.1 (9c6d41e, 2022-07-14)"
   sodipodi:docname="infoblox-dark.svg"
   xmlns:inkscape="http://www.inkscape.org/namespaces/inkscape"
   xmlns:sodipodi="http://sodipodi.sourceforge.net/DTD/sodipodi-0.dtd"
   xmlns="http://www.w3.org/2000/svg"
   xmlns:svg="http://www.w3.org/2000/svg">
  <sodipodi:namedview
     id="namedview13033"
     pagecolor="#ffffff"
     bordercolor="#000000"
     borderopacity="0.25"
     inkscape:showpageshadow="2"
     inkscape:pageopacity="0.0"
     inkscape:pagecheckerboard="0"
     inkscape:deskcolor="#d1d1d1"
     inkscape:document-units="mm"
     showgrid="false"
     inkscape:zoom="14.802928"
     inkscape:cx="64.3116"
     inkscape:cy="36.040167"
     inkscape:window-width="1600"
     inkscape:window-height="859"
     inkscape:window-x="0"
     inkscape:window-y="25"
     inkscape:window-maximized="0"
     inkscape:current-layer="layer1" />
  <defs
     id="defs13028" />
  <g
     inkscape:label="Layer 1"
     inkscape:groupmode="layer"
     id="layer1"
     transform="translate(-107.52421,-71.365069)">
    <path
       style="fill:#ffffff;stroke-width:0.352778;fill-opacity:1;stroke:#ffffff;stroke-opacity:1"
       d="m 113.25367,87.523994 -1.2214,-1.05834 1.2214,-1.05833 c 1.52543,-1.32178 2.32899,-1.31982 3.89388,0.009 l 1.23472,1.04884 -1.23472,1.04885 c -1.56489,1.3293 -2.36845,1.33126 -3.89388,0.009 z m -4.35738,-3.28805 -1.37208,-1.16089 1.42285,-1.12692 c 0.78257,-0.61981 1.61277,-1.12692 1.84489,-1.12692 0.49307,0 3.16199,1.82961 3.17307,2.17522 0.0123,0.38426 -2.69947,2.41133 -3.21824,2.40564 -0.26312,-0.003 -1.09584,-0.52765 -1.85049,-1.16613 z m 8.87765,0.18818 c -0.72263,-0.52639 -1.31455,-1.11583 -1.31538,-1.30986 -0.003,-0.62603 2.76956,-2.35278 3.42388,-2.13264 0.33907,0.11408 1.1518,0.65231 1.80605,1.19606 l 1.18956,0.98865 -1.52364,1.12049 c -0.838,0.61628 -1.6908,1.11462 -1.89511,1.10744 -0.20431,-0.007 -0.96272,-0.44375 -1.68536,-0.97014 z m -4.44869,-3.34885 -1.52925,-1.12909 1.35286,-1.14474 c 0.74407,-0.6296 1.58245,-1.1471 1.86306,-1.14998 0.69298,-0.007 3.19581,1.75827 3.18643,2.24759 -0.008,0.415 -2.54146,2.34315 -3.04745,2.31929 -0.16302,-0.008 -0.98457,-0.52207 -1.82565,-1.14307 z m -4.38398,-3.30902 c -0.7253,-0.51605 -1.31533,-1.03199 -1.31119,-1.14652 0.004,-0.11454 0.64627,-0.66023 1.42696,-1.21265 1.60986,-1.13917 2.37425,-1.07988 4.03356,0.31288 l 1.05834,0.88832 -1.23472,1.03864 c -1.53314,1.28967 -2.29589,1.31258 -3.97295,0.11933 z m 8.54573,-0.11365 -1.2214,-1.05195 1.23473,-1.05523 c 1.56685,-1.33908 2.21458,-1.33535 3.92917,0.0226 l 1.38488,1.09684 -1.33411,1.01001 c -1.69963,1.28673 -2.47842,1.28238 -3.99327,-0.0223 z m -4.23333,-3.18139 -1.2214,-1.05834 1.2214,-1.05833 c 1.52543,-1.32177 2.32899,-1.31982 3.89388,0.009 l 1.23472,1.04884 -1.23472,1.04885 c -1.56489,1.32931 -2.36845,1.33126 -3.89388,0.009 z"
       id="path13536"
       sodipodi:nodetypes="ccsccsccscssscsscsscscsscscccsscsscssccsscsccccsccscc" />
    <circle
       style="fill:none;fill-opacity:1;stroke:#ffffff;stroke-width:0.380989;stroke-opacity:1"
       id="path13601"
       cx="123.22096"
       cy="79.676704"
       r="1.0005622" />
    <text
       xml:space="preserve"
       style="font-size:1.41346px;fill:#ffffff;fill-opacity:1;stroke:#ffffff;stroke-width:0.235576;stroke-opacity:1"
       x="117.0862"
       y="83.973747"
       id="text14280"
       transform="scale(1.0479385,0.95425448)"><tspan
         sodipodi:role="line"
         id="tspan14278"
         style="stroke-width:0.235576;fill:#ffffff;fill-opacity:1;stroke:#ffffff;stroke-opacity:1"
         x="117.0862"
         y="83.973747">R</tspan></text>
  </g>
</svg>
