<?xml version="1.0" encoding="UTF-8" standalone="no"?>
<!-- Created with Inkscape (http://www.inkscape.org/) -->

<svg
   version="1.1"
   id="svg19469"
   width="507.84"
   height="531.49335"
   viewBox="0 0 507.84 531.49335"
   sodipodi:docname="mailchimp.svg"
   inkscape:version="1.2.1 (9c6d41e, 2022-07-14)"
   xmlns:inkscape="http://www.inkscape.org/namespaces/inkscape"
   xmlns:sodipodi="http://sodipodi.sourceforge.net/DTD/sodipodi-0.dtd"
   xmlns="http://www.w3.org/2000/svg"
   xmlns:svg="http://www.w3.org/2000/svg">
  <defs
     id="defs19473" />
  <sodipodi:namedview
     id="namedview19471"
     pagecolor="#ffffff"
     bordercolor="#000000"
     borderopacity="0.25"
     inkscape:showpageshadow="2"
     inkscape:pageopacity="0.0"
     inkscape:pagecheckerboard="0"
     inkscape:deskcolor="#d1d1d1"
     showgrid="false"
     inkscape:zoom="0.4440319"
     inkscape:cx="254.48622"
     inkscape:cy="265.74667"
     inkscape:window-width="1419"
     inkscape:window-height="456"
     inkscape:window-x="0"
     inkscape:window-y="25"
     inkscape:window-maximized="0"
     inkscape:current-layer="g19477">
    <inkscape:page
       x="0"
       y="0"
       id="page19475"
       width="507.84"
       height="531.49335" />
  </sodipodi:namedview>
  <g
     id="g19477"
     inkscape:groupmode="layer"
     inkscape:label="Page 1"
     transform="matrix(1.3333333,0,0,-1.3333333,0,531.49333)">
    <g
       id="g19479"
       transform="scale(0.1)">
      <path
         d="m 3334.5,300.801 v -62.102 h 16.49 v 44.84 l 13.47,-44.84 h 14.06 l 13.47,44.961 v -44.961 h 16.49 v 62.102 h -25.78 l -11.14,-35.742 -11.3,35.742 z m -42.11,-14.891 v -47.211 h 18.08 v 47.211 h 18.49 v 14.891 h -54.82 V 285.91 Z m 457.04,851.79 C 3746.33,1127.54 3452.89,-0.339844 2299.96,0 1303.33,0.300781 830.938,866.582 830.938,866.582 758.301,862.531 688.215,874.07 623.574,897.82 331.172,1005.24 190.879,1339.76 291.762,1620.41 l -160.703,122.82 c -622.524,474.22 1140.971,2644.27 1764.571,2153.23 3.16,-2.48 148.86,-119.76 148.86,-119.76 223.91,135.98 445.65,209.48 625.91,209.49 128.01,0.01 235.06,-37.05 307.16,-115.12 161.86,-175.25 103.68,-509.9 -117.33,-848.72 47.54,-45.13 86.94,-106.47 115.06,-167.36 70.26,-54.22 115.8,-136.63 138.43,-250.47 25.2,-126.57 30.42,-306.86 46.24,-384.34 59.6,-26.9 34.21,-14.45 97.76,-46.19 66.25,-33.12 146.94,-73.44 236.11,-159.24 158.5,-39.71 219.02,-208.23 126.27,-323.23 -2.48,-3.09 -13.68,-16.35 -25.28,-29.55 2.78,-7.3 33.17,-56.56 55.11,-156.83 65.68,-15.51 118,-55.95 145.45,-114.58 47.49,-114.78 -45.95,-252.86 -45.95,-252.86"
         style="fill:#61423f;fill-opacity:1;fill-rule:nonzero;stroke:none"
         id="path19481" />
      <path
         d="m 3260.88,641.891 c 312.66,245.668 367.29,541.539 372.5,551.739 76.93,92.27 56.02,183.18 -45.62,183.19 -32.34,0 -56.76,-8.53 -56.76,-8.53 0,0 0.37,134.64 -61.92,239.51 -48.01,-54 -181.28,-160.97 -356.16,-243.99 -163.99,-77.86 -382.81,-146.04 -653.98,-155.07 h -0.01 c -75.93,-3.3 -122.9,9.06 -149.35,-79.46 -8.44,-31.27 -4.79,-77.73 1.56,-91.16 21.39,-73.319 77.27,-105.64 150.84,-122.749 55.78,-12.992 115.02,-14.211 115.02,-14.211 549.96,-15.43 991.58,413.5 996.86,417.07 5.1,4.18 9.33,9.14 9.33,9.14 0,0 -4.85,-11.38 -5.43,-12.66 -79.43,-178.64 -539.35,-502.581 -997.14,-493.312 l -1.5,-0.527 c -106.17,0.399 -235.17,27.731 -302.23,110.891 -106.1,131.568 -51.04,350.338 118.06,355.458 0.22,0.01 39.1,0.91 56.41,1.35 418.7,12.87 794.39,166.7 1063.39,487.93 36.99,45.95 -4.33,109.07 -84.49,110.99 -0.7,0.02 -1.39,0.33 -1.86,0.84 -95.06,101.76 -178.6,137.72 -252.94,175.5 -155.83,79.38 -141.16,10.81 -177.41,395.86 -9.8,103.81 -29.46,245.38 -120.66,299.66 -23.91,14.23 -50.04,20.34 -77.16,20.34 -26.81,0 -39.87,-5.48 -45.14,-6.65 -49.95,-11.06 -78.36,-39.38 -113.94,-72.19 -168.14,-155.05 -302.53,-112.96 -503.12,-111.18 -188.39,1.64 -354.73,-129.77 -386.55,-331.59 l -0.05,-0.11 c -15.46,-105.64 -5.45,-212.98 11.1,-261.23 0,0 -51.13,34.01 -75.5,64.13 29.49,-184.37 197.7,-304.86 197.7,-304.86 -26.5,-6.09 -64.61,-3.57 -64.61,-3.57 0.16,-0.13 96.01,-75.93 179.2,-102.38 -21.67,-13.49 -131.32,-121.69 -187.87,-270.65 -52.92,-139.4 -31.36,-306.74 -31.36,-306.74 l 45.96,68.51 c 0,0 -30.02,-152.692 28.07,-300.551 19.28,43.992 61.39,122.512 61.39,122.512 0,0 -6.67,-163.969 72.27,-298.231 2.03,30.981 13.87,109.871 13.87,109.871 0,0 45.3,-139.98 149.93,-237.859 195.89,-173.832 714.55,-205.223 1109.3,104.969 z M 1066.13,1562.12 v 0 0 c 25.11,63.82 37.76,116.19 37.76,116.19 28.75,-87.87 43.45,-180.29 37.68,-273.71 v 0 0 c 23.83,31.71 49.41,91.42 49.41,91.42 44.33,-260.96 -146.11,-499.84 -397.003,-499.84 -222.754,0 -403.325,190.1 -403.325,424.6 0,234.5 180.571,424.6 403.325,424.6 57.742,0 112.652,-12.77 162.316,-35.79 0,0.01 85.727,-43.22 109.837,-247.47"
         style="fill:#f5daaf;fill-opacity:1;fill-rule:nonzero;stroke:none"
         id="path19483" />
      <path
         d="m 352.148,1739.87 c -1.585,0.43 -151.769,110.64 -173.128,146.93 -126.3637,213.24 93.472,651.21 249.906,900.17 386.605,615.27 1030.094,1100.83 1322.364,1031.49 l 300.14,-154.93 c -116.54,-68.55 -229.25,-152.75 -296.78,-208.74 l -63.86,-53.56 c 0,0 -186.5,-125.56 -279.26,-204.72 -371.84,-317.29 -737.956,-808.48 -873.729,-1282.6 0,0.01 -111.551,-55.36 -185.653,-174.04"
         style="fill:#3a87c6;fill-opacity:1;fill-rule:nonzero;stroke:none"
         id="path19485" />
      <path
         d="m 1751.3,3818.47 v 0 c -292.28,69.34 -935.761,-416.22 -1322.362,-1031.49 -0.114,-0.18 -0.223,-0.36 -0.336,-0.54 l 1.562,-0.17 308.051,-242.52 c 338.235,536.9 763.345,813.75 775.335,821.88 l -48.84,328.61 91.49,43.81 183.64,-59.47 -14.05,61.35 25.51,78.54 v 0"
         style="fill:#60bee8;fill-opacity:1;fill-rule:nonzero;stroke:none"
         id="path19487" />
      <path
         d="m 2051.43,3663.54 -296.78,-208.74 -20.76,-16.25 -263.16,215.02 -6.04,40.66 91.5,43.81 c 4.69,-1.52 176.38,-57.12 183.63,-59.47 l 3.06,114.01 8.41,25.88 80.38,30.81 c 0.11,-0.09 219.45,-185.47 219.76,-185.73"
         style="fill:#fbcf34;fill-opacity:1;fill-rule:nonzero;stroke:none"
         id="path19489" />
      <path
         d="m 2637.05,3868.26 c -196.26,0 -416.6,-103.22 -585.62,-204.71 -23.72,-13.95 -47.24,-28.55 -70.29,-43.43 l -88.44,74.13 32.13,-111.63 c -12.15,-8.34 -24.01,-16.66 -35.61,-24.92 l -182.74,55.79 120.91,-101.22 c -27.6,-20.92 -52.26,-40.5 -72.73,-57.47 l -289.96,239.43 15.35,-107.3 210.75,-185.7 c 0,0 -186.51,-125.55 -279.26,-204.71 C 1039.7,2879.23 673.582,2388.04 537.809,1913.92 l 7.718,4.34 c 1.047,0.58 2.106,1.06 3.153,1.63 3.777,2.04 7.547,3.98 11.324,5.88 2.422,1.22 4.836,2.45 7.258,3.61 3.886,1.87 7.773,3.6 11.664,5.31 2.293,1.02 4.594,2.08 6.887,3.04 4.21,1.76 8.414,3.37 12.628,4.96 1.942,0.73 3.887,1.55 5.832,2.24 6.129,2.2 12.243,4.23 18.332,6.04 92.305,27.53 217.891,45.24 364.895,-17.19 73.83,186.21 162.03,375.66 301.03,557.7 112.7,147.6 221.03,279.36 351.06,351.84 246.2,231.28 909.78,476.53 1122.37,263.94 50.27,82.24 93.89,160.08 129.83,257.66 88.71,234.67 90.33,503.34 -254.74,503.34"
         style="fill:#181f2a;fill-opacity:1;fill-rule:nonzero;stroke:none"
         id="path19491" />
      <path
         d="m 1794.69,3660.82 -43.39,157.65 -25.52,-78.54 15.27,-61.74 53.64,-17.37"
         style="fill:#181f2a;fill-opacity:1;fill-rule:nonzero;stroke:none"
         id="path19493" />
      <path
         d="m 2241.93,3765.38 c 107.19,49.42 222.09,88.47 332.28,99.73 -109.44,-24.63 -242.8,-81.37 -400.81,-178.06 -3.85,-2.23 -373.88,-251.96 -599.95,-476.21 C 1450.25,3088.64 955.535,2495.39 955.926,2495.89 1046.34,2667 1105.91,2751 1249.04,2931 c 80.95,101.81 167.33,200.82 255.76,292.24 29.72,30.73 59.68,60.6 89.74,89.43 v 0 0 c 11.46,10.99 269.98,275.71 647.39,452.71 z M 3531,1368.44 c 0,0 0.38,134.65 -61.91,239.51 -48.01,-53.99 -181.29,-160.97 -356.16,-243.99 -163.99,-77.85 -382.81,-146.04 -653.99,-155.07 v 0 c -75.93,-3.3 -122.9,9.07 -149.35,-79.46 -2.07,-7.63 -3.4,-16.17 -4.16,-24.91 l -0.04,-0.89 c -0.01,0 -0.02,0 -0.03,0 -0.23,-2.82 -0.4,-5.66 -0.52,-8.49 -0.27,-8.09 -0.18,-15.22 0.13,-21.43 0.01,-0.16 0.02,-0.3 0.03,-0.46 0.03,-0.46 0.05,-0.91 0.08,-1.35 0.24,-3.89 0.57,-7.62 0.98,-11.13 0.01,-0.17 0.04,-0.36 0.06,-0.53 0.02,-0.18 0.04,-0.36 0.07,-0.55 1.79,-14.06 4.57,-20.59 4.92,-21.34 0,-0.03 0.02,-0.06 0.03,-0.09 l 0.35,-1.17 c 21.65,-72.488 77.32,-104.559 150.49,-121.57 55.78,-13 115.03,-14.219 115.03,-14.219 448.72,-12.582 825.32,270.649 951.63,377.289 2.16,29.88 3.44,51.2 2.36,89.85"
         style="fill:#ffffff;fill-opacity:1;fill-rule:nonzero;stroke:none"
         id="path19495" />
      <path
         d="m 934.492,1240.06 c 0.11,0.07 0.223,0.15 0.332,0.23 23.813,25.59 33.809,61.36 28.145,95.57 -8.789,49.22 -64.563,59.16 -101.438,97.39 -0.59,0.6 -1.168,1.22 -1.738,1.84 -0.621,0.67 -1.23,1.36 -1.816,2.03 -0.043,0.04 -0.079,0.09 -0.122,0.14 -16.566,19.08 -22.339,40.78 -20.992,60.14 2.918,50.35 47.629,64.5 70.899,55.23 0,0 27.601,-6.53 48.976,-36.34 0,0 -0.008,0.05 -0.019,0.12 -3.246,9.84 -2.582,25.73 -19.313,49.41 -27.41,38.84 -90.379,78.35 -179.64,59.43 h 0.015 c -16.5,-3.49 -7.254,-1.51 -23.531,-6.09 -2.543,-0.72 -4.859,-1.43 -6.863,-2.26 -5.117,-2.4 -9.852,-4.04 -14.387,-6.46 v 0 c -2.352,-1.31 -15.766,-7.39 -31.902,-19.55 -100.34,-129.51 69.597,-364.39 253.394,-350.83 z m 2188.098,-36.52 c -1.15,-0.03 -2.35,-0.28 -4.25,-0.71 -45.6,-10.56 -515.76,-192.7 -812.98,-99.34 -1.33,-16.26 -0.9,-50.43 5.75,-65.29 0.01,-0.02 0.03,-0.06 0.04,-0.08 44.96,-9.02 101.86,-14.78 167.91,-14.78 391.11,0 672.97,177.83 643.53,180.2 z m -54.6,912.83 c -44.25,31.75 -45.82,87.14 -69.95,343.32 -7.71,81.71 -21.55,186.81 -71.56,254.33 -10.34,9.03 -24.88,19.41 -45.82,19.41 -31.59,1.4 -67.3,-31.33 -87.54,-53.7 -57.46,-82.93 -112.35,-136.33 -209.44,-182.61 -98.27,-44.47 -191.65,-60.6 -288.6,-57.54 -70.97,2.24 -133.12,13.93 -194.04,14.7 -112.88,1.77 -210.71,-34.82 -282.02,-124.86 -48.9,-61.74 -68.53,-127.02 -74.78,-204.72 0.23,-9.36 0.65,-18.19 1.19,-26.5 0.84,-12.35 1.97,-24.13 3.33,-35.19 4.98,-39.38 12.09,-59.81 12.09,-59.81 0,-0.3 -0.06,-0.6 -0.14,-0.88 0.59,-1.93 1.18,-3.79 1.8,-5.56 0,0 -51.13,34.01 -75.5,64.12 24.59,-153.69 145.56,-263 185.13,-295.11 2.34,-1.79 4.64,-3.57 6.9,-5.36 0.19,-0.15 0.37,-0.33 0.51,-0.52 3.32,-2.55 5.15,-3.87 5.15,-3.87 -26.49,-6.09 -64.6,-3.57 -64.6,-3.57 0.16,-0.14 96,-75.93 179.2,-102.38 110.36,93.27 235.49,129.07 338.21,140.18 62.26,38.63 129.2,76.58 201.08,113.18 -21.77,135.53 98.43,272.02 249.68,285.12 114.13,8.31 169.65,-42.84 209.63,-97.55 21.7,6.92 46.17,14.5 73.51,22.54 -1.15,0.77 -2.3,1.72 -3.42,2.83 z m -837.15,-966.06 c 20.13,74.92 76.98,134.27 164.11,136.91 0.22,0.01 39.1,0.91 56.41,1.35 418.7,12.87 794.39,166.7 1063.39,487.93 36.99,45.95 -4.33,109.07 -84.49,110.99 -0.32,0.01 -1.15,0 -1.15,0 -13.55,-14.33 -15.98,-40.52 -38.41,-79.64 -81.82,-142.16 -194.99,-207.15 -345.9,-282.58 -462.67,-230.34 -702.59,-123.16 -798.88,-264.19 -27.98,-41.5 -28.51,-87.86 -15.08,-110.77 0,-0.01 0,0 0,0 z m 670.48,917.81 c -63.91,45.45 -169.74,9.28 -193.08,-65.93 36.98,-1.87 76.22,-29.84 73.8,-65.64 26.1,25.28 63.23,39.54 99.35,38.88 -17.42,27.93 -8.62,76.08 19.93,92.69 z M 3260.88,641.891 c -53.68,-42.172 -109.63,-78.02 -166.76,-108.071 -132.12,50.211 -213.19,157.2 -213.19,157.2 0,0 113.27,26.781 264.67,103.769 184.15,93.57 356.23,228.761 487.79,398.851 -5.22,-10.2 -59.85,-306.081 -372.51,-551.749"
         style="fill:#e8b77b;fill-opacity:1;fill-rule:nonzero;stroke:none"
         id="path19497" />
      <path
         d="m 1745.45,2907.71 c 434.18,281.42 867.87,313.77 1016.46,199.53 0.01,0.01 0.02,0.02 0.03,0.04 -0.27,0.75 -2.66,7.34 -3.59,9.15 v 0 c -37.73,80.16 -125.76,136.09 -204.17,158.52 13.75,-14.29 33.65,-40.45 41.7,-55.99 -59.18,40.64 -137.82,76.45 -219.9,93.46 0,0 9.78,-7.03 11.45,-8.59 16.37,-15.24 38.13,-39.31 47.04,-59.99 -78.44,31.5 -177.6,49.14 -262.49,32.8 -1.19,-0.23 -10.61,-2.46 -10.61,-2.46 0,0 11.05,-2.74 13.51,-3.47 28.15,-8.35 68.32,-25.51 86.02,-49.01 -140.91,24.78 -295.92,-2.65 -379.52,-49.4 10.76,0.45 10.65,0.5 19.74,0.26 30.76,-0.82 92.71,-5 118.72,-21.55 -88.88,-18.07 -217.51,-57.83 -286.75,-117.38 12.23,1.42 81.61,10.26 110,5.7 C 1461.96,2821.24 1288.5,2491.5 1288.5,2491.5 v 0 c 112.37,146.43 258.14,287.36 456.95,416.21 z m 923.68,-930.93 c -12.61,-23.01 2.75,-55.69 34.31,-72.99 31.56,-17.29 67.37,-12.66 79.98,10.36 12.61,23.02 -2.75,55.7 -34.31,72.99 -31.57,17.29 -67.37,12.65 -79.98,-10.36 z m 252.11,91.79 c -22.95,3.58 -45.52,-19.03 -50.44,-50.5 -4.91,-31.46 9.72,-59.87 32.66,-63.45 22.95,-3.58 45.52,19.02 50.43,50.49 4.92,31.47 -9.71,59.88 -32.65,63.46 z M 897.648,1469.56 c -8.57,6.79 -12.55,12.59 -14.914,21.51 -3.504,16.25 -1.675,25.69 12.211,35.44 10.692,7.32 19.305,10.85 19.328,15.46 0.489,8.7 -35.289,17.67 -60.296,-6.95 -20.77,-22.13 -27.329,-68.25 5.808,-104.19 36.883,-39.81 94.238,-49.19 103.176,-99.23 1.176,-7.1 2.047,-14.99 1.434,-22.79 0.128,-8.95 -2.868,-21.82 -3.012,-22.63 -11.09,-48.34 -56.965,-94.47 -132.61,-82.71 -13.933,2.03 -22.96,3.74 -25.656,-0.11 -5.832,-8.12 26.586,-45.21 85.93,-43.86 58.062,1.23 115.673,44.7 134.133,110.04 0.21,0.85 5.66,19.37 6.11,35.97 1.04,12.3 0.15,24.94 -2.14,38.18 -15.13,83.9 -98.498,101.14 -129.502,125.87 z m 13.243,119.82 0.015,-0.01 0.028,-0.02 c 11.312,-9 19.996,-18.6 26.464,-27.77 21.207,-30.02 14.461,-47.54 23.161,-56.05 3.136,-3.08 7.621,-4.05 12.097,-2.23 12.024,4.96 17.93,24.09 19.055,37.43 v 0 l 0.012,0.09 v 0 c 3.015,32.08 -13.942,68.14 -36.418,93.69 v 0 l -0.059,0.07 v 0 c -13.754,15.98 -31.855,30.87 -53.394,42.86 -21.571,12.02 -46.598,21.12 -74.122,25.39 -47.55,7.4 -94.324,-2.08 -107.386,-5.97 l 0.066,0.02 c -6.734,-1.96 -15.058,-3.71 -22.211,-6.52 -77.554,-30.24 -128.594,-85.77 -151.301,-159.3 l -0.007,-0.02 -0.008,-0.04 c -8.399,-27.99 -11.742,-55.02 -11.742,-79.98 0,-21.52 2.48,-41.53 6.351,-59.36 v -0.01 l 0.008,-0.03 -0.008,0.03 c 6.567,-29.99 19.985,-63.76 40.926,-85.93 v 0 l 0.07,-0.07 v 0 c 26.184,-28.3 54.883,-22.88 42.633,3.44 -2.926,7.3 -18.742,37.1 -20.875,91.06 -1.379,35.31 3.461,72.05 16.422,105.59 7.172,18.14 17.004,35.79 29.793,51.66 26.355,32.25 58.746,46.68 62.531,48.79 v 0 c 4.535,2.41 9.27,4.06 14.383,6.45 1.996,0.84 4.316,1.55 6.863,2.26 16.278,4.59 7.043,2.6 23.535,6.1 h -0.015 c 62.055,13.16 115.457,-1.23 153.133,-31.62 z M 2395.6,1942.99 c -25.25,19.29 -71.76,32.22 -120.04,24.02 -10.13,-1.54 -19.49,-4.68 -28.7,-7.15 -3.38,-0.84 -6.61,-2.03 -9.76,-3.36 -19.96,-8.4 -37.24,-17.47 -54.01,-33.54 -19.24,-18.59 -24.7,-35.86 -19.14,-40.11 5.46,-4.36 18.78,2.1 39.36,10.42 68.95,28.67 117.74,29.43 164.22,26.19 22.42,-1.51 37.43,-2.86 40.9,3.25 2.46,4.14 -2,12.02 -12.83,20.28 z m 18.26,94.23 c 8.46,-12.38 10.73,-21.74 7.31,-25.63 -6.82,-7.97 -31.2,2.8 -67.19,16.82 -92.12,34.37 -159.98,39.6 -280.12,-5.88 -30.38,-11.58 -51.92,-20.54 -62.25,-18.99 -16.85,2.5 -0.54,33.34 36.29,63.26 74.08,59.11 175.84,77.45 262.79,45.09 38.06,-14.01 80.8,-41.97 103.17,-74.67"
         style="fill:#976a4b;fill-opacity:1;fill-rule:nonzero;stroke:none"
         id="path19499" />
      <path
         d="m 2769.82,2292.89 c -0.59,29.92 4.14,79.36 32.31,88.55 v 0 c 0.04,0.01 0.02,0.01 0.06,0.02 v 0 c 48.15,16.7 111.89,-106.6 114.83,-216.08 -38.05,19.05 -82.76,27.14 -128.73,23.15 -11.57,35.24 -17.1,68.44 -18.47,104.36"
         style="fill:#61423f;fill-opacity:1;fill-rule:nonzero;stroke:none"
         id="path19501" />
    </g>
  </g>
</svg>
