<?xml version="1.0" encoding="UTF-8" standalone="no"?>
<svg
   id="Layer_1"
   data-name="Layer 1"
   viewBox="0 0 130.44299 290.60999"
   version="1.1"
   sodipodi:docname="MongoDB_Logo.svg"
   width="130.44299"
   height="290.60999"
   inkscape:version="1.2.1 (9c6d41e, 2022-07-14)"
   xmlns:inkscape="http://www.inkscape.org/namespaces/inkscape"
   xmlns:sodipodi="http://sodipodi.sourceforge.net/DTD/sodipodi-0.dtd"
   xmlns="http://www.w3.org/2000/svg"
   xmlns:svg="http://www.w3.org/2000/svg"
   xmlns:rdf="http://www.w3.org/1999/02/22-rdf-syntax-ns#"
   xmlns:cc="http://creativecommons.org/ns#"
   xmlns:dc="http://purl.org/dc/elements/1.1/">
  <sodipodi:namedview
     id="namedview5917"
     pagecolor="#ffffff"
     bordercolor="#000000"
     borderopacity="0.25"
     inkscape:showpageshadow="2"
     inkscape:pageopacity="0.0"
     inkscape:pagecheckerboard="0"
     inkscape:deskcolor="#d1d1d1"
     showgrid="false"
     inkscape:zoom="0.78666667"
     inkscape:cx="511.65254"
     inkscape:cy="123.30508"
     inkscape:window-width="1309"
     inkscape:window-height="456"
     inkscape:window-x="73"
     inkscape:window-y="38"
     inkscape:window-maximized="0"
     inkscape:current-layer="Layer_1" />
  <defs
     id="defs5890">
    <style
       id="style5888">.cls-1{fill:#10aa50;}.cls-2{fill:#b8c4c2;}.cls-3{fill:#12924f;}.cls-4{fill:#21313c;}</style>
  </defs>
  <title
     id="title5892">MongoDB_Logo_FullColorBlack_RGB</title>
  <path
     class="cls-1"
     d="M 128.11943,115.65 C 112.80943,48.11 80.899428,30.13 72.759428,17.42 a 144.57,144.57 0 0 1 -8.9,-17.42 c -0.43,6 -1.22,9.78 -6.32,14.33 C 47.299428,23.46 3.8094277,58.9 0.14942766,135.64 -3.2605723,207.19 52.749428,251.31 60.149428,255.87 c 5.69,2.8 12.62,0.06 16,-2.51 27.000002,-18.53 63.890002,-67.93 52.000002,-137.71"
     id="path5894" />
  <path
     class="cls-2"
     d="m 66.179428,217.77 c -1.41,17.71 -2.42,28 -6,38.12 0,0 2.35,16.86 4,34.72 h 5.84 a 324.73,324.73 0 0 1 6.37,-37.39 c -7.56,-3.72 -9.92,-19.91 -10.21,-35.45 z"
     id="path5896" />
  <path
     class="cls-3"
     d="m 76.379428,253.23 v 0 c -7.64,-3.53 -9.85,-20.06 -10.19,-35.46 a 725.83,725.83 0 0 0 1.65,-76.35 c -0.4,-13.36 0.19,-123.74 -3.29,-139.9 a 134.29,134.29 0 0 0 8.21,15.89 c 8.14,12.72 40.060002,30.7 55.360002,98.24 11.92,69.66 -24.77,118.93 -51.740002,137.58 z"
     id="path5898" />
  <metadata
     id="metadata5919">
    <rdf:RDF>
      <cc:Work
         rdf:about="">
        <dc:title>MongoDB_Logo_FullColorBlack_RGB</dc:title>
      </cc:Work>
    </rdf:RDF>
  </metadata>
</svg>
