<?xml version="1.0" encoding="UTF-8" standalone="no"?>
<!-- Created with Inkscape (http://www.inkscape.org/) -->

<svg
   version="1.1"
   id="svg6582"
   width="319.32001"
   height="221.32001"
   viewBox="0 0 319.32001 221.32001"
   sodipodi:docname="mysql.svg"
   inkscape:version="1.2.1 (9c6d41e, 2022-07-14)"
   xmlns:inkscape="http://www.inkscape.org/namespaces/inkscape"
   xmlns:sodipodi="http://sodipodi.sourceforge.net/DTD/sodipodi-0.dtd"
   xmlns="http://www.w3.org/2000/svg"
   xmlns:svg="http://www.w3.org/2000/svg">
  <defs
     id="defs6586" />
  <sodipodi:namedview
     id="namedview6584"
     pagecolor="#ffffff"
     bordercolor="#000000"
     borderopacity="0.25"
     inkscape:showpageshadow="2"
     inkscape:pageopacity="0.0"
     inkscape:pagecheckerboard="0"
     inkscape:deskcolor="#d1d1d1"
     showgrid="false"
     inkscape:zoom="1.0663293"
     inkscape:cx="159.89433"
     inkscape:cy="110.66"
     inkscape:window-width="1419"
     inkscape:window-height="456"
     inkscape:window-x="0"
     inkscape:window-y="25"
     inkscape:window-maximized="0"
     inkscape:current-layer="g6592">
    <inkscape:page
       x="0"
       y="0"
       id="page6588"
       width="319.32001"
       height="221.32001" />
  </sodipodi:namedview>
  <g
     id="g6590"
     inkscape:groupmode="layer"
     inkscape:label="Page 1"
     transform="matrix(1.3333333,0,0,-1.3333333,0,221.32)">
    <g
       id="g6592"
       transform="scale(0.1)">
      <path
         d="m 1477.69,1243.17 c -7.94,0 -13.54,-0.96 -19.19,-2.35 v -0.94 h 0.91 c 3.78,-7.47 10.34,-12.66 14.98,-19.2 3.77,-7.49 7.05,-14.95 10.79,-22.45 0.46,0.46 0.91,0.95 0.91,0.95 6.6,4.66 9.87,12.14 9.87,23.39 -2.83,3.3 -3.27,6.55 -5.63,9.84 -2.8,4.67 -8.89,7.01 -12.64,10.76"
         style="fill:#5b85a4;fill-opacity:1;fill-rule:evenodd;stroke:none"
         id="path6596" />
      <path
         d="m 733.074,319.32 h -64.832 c -2.285,109.43 -8.601,212.328 -18.933,308.719 h -0.571 L 550.027,319.32 h -49.363 l -98.113,308.719 h -0.578 C 394.695,535.469 390.117,432.57 388.215,319.32 h -59.113 c 3.82,137.731 13.378,266.84 28.679,387.36 h 80.356 l 93.535,-284.621 h 0.574 l 94.109,284.621 h 76.887 C 720.078,565.531 730.02,436.379 733.074,319.32"
         style="fill:#2c7493;fill-opacity:1;fill-rule:nonzero;stroke:none"
         id="path6598" />
      <path
         d="M 1014.26,605.109 C 987.859,461.859 953.035,357.762 909.813,292.82 c -33.68,-50.039 -70.575,-75.058 -110.75,-75.058 -10.711,0 -23.918,3.226 -39.59,9.636 v 34.532 c 7.656,-1.121 16.64,-1.719 26.972,-1.719 18.743,0 33.848,5.18 45.34,15.519 13.762,12.598 20.649,26.758 20.649,42.45 0,10.718 -5.371,32.711 -16.067,65.98 l -71.152,220.949 h 63.691 l 51.067,-165.25 c 11.472,-37.519 16.257,-63.711 14.343,-78.64 27.93,74.601 47.442,155.902 58.543,243.89 h 61.401"
         style="fill:#2c7493;fill-opacity:1;fill-rule:nonzero;stroke:none"
         id="path6600" />
      <path
         d="m 1877.3,319.32 h -184.19 v 387.36 h 61.98 V 366.969 H 1877.3 V 319.32"
         style="fill:#f18513;fill-opacity:1;fill-rule:nonzero;stroke:none"
         id="path6602" />
      <path
         d="m 1414.23,396.809 c -15.69,25.25 -23.55,65.769 -23.55,121.64 0,97.539 29.66,146.344 88.95,146.344 31,0 53.75,-11.672 68.3,-34.992 15.67,-25.262 23.53,-65.43 23.53,-120.52 0,-98.32 -29.66,-147.5 -88.95,-147.5 -30.99,0 -53.75,11.66 -68.28,35.028 m 230.68,-86.829 -71.2,35.11 c 6.34,5.199 12.36,10.808 17.81,17.301 30.23,35.539 45.36,88.14 45.36,157.781 0,128.148 -50.31,192.258 -150.92,192.258 -49.35,0 -87.81,-16.25 -115.35,-48.797 -30.24,-35.582 -45.34,-87.985 -45.34,-157.235 0,-68.089 13.38,-118.039 40.16,-149.769 24.49,-28.68 61.41,-43.039 110.77,-43.039 18.43,0 35.34,2.269 50.71,6.808 l 92.72,-53.957 25.28,43.539"
         style="fill:#f18513;fill-opacity:1;fill-rule:evenodd;stroke:none"
         id="path6604" />
      <path
         d="m 1298.26,426.691 c 0,-32.851 -12.07,-59.82 -36.13,-80.921 -24.08,-21.008 -56.43,-31.54 -96.94,-31.54 -37.89,0 -74.61,12.122 -110.18,36.168 l 16.64,33.274 c 30.61,-15.301 58.31,-22.942 83.18,-22.942 23.33,0 41.59,5.192 54.8,15.45 13.18,10.332 21.08,24.742 21.08,43.019 0,23 -16.04,42.66 -45.47,59.153 -27.17,14.91 -81.47,46.039 -81.47,46.039 -29.42,21.461 -44.17,44.488 -44.17,82.429 0,31.379 11,56.743 32.97,76.039 22.02,19.336 50.43,29.004 85.22,29.004 35.96,0 68.66,-9.597 98.11,-28.722 l -14.96,-33.243 c -25.2,10.684 -50.05,16.047 -74.55,16.047 -19.88,0 -35.2,-4.773 -45.88,-14.375 -10.74,-9.519 -17.38,-21.769 -17.38,-36.699 0,-22.941 16.39,-42.84 46.65,-59.652 27.51,-14.918 83.14,-46.649 83.14,-46.649 30.26,-21.422 45.34,-44.261 45.34,-81.879"
         style="fill:#f18513;fill-opacity:1;fill-rule:nonzero;stroke:none"
         id="path6606" />
      <path
         d="m 1955.08,836.434 c -37.46,0.937 -66.47,-2.801 -90.8,-13.106 -7.02,-2.805 -18.24,-2.805 -19.2,-11.699 3.77,-3.738 4.22,-9.816 7.52,-14.988 5.6,-9.36 15.41,-21.977 24.32,-28.547 9.83,-7.492 19.66,-14.953 29.97,-21.504 18.24,-11.281 38.84,-17.805 56.6,-29.043 10.33,-6.543 20.59,-14.961 30.92,-22 5.13,-3.742 8.38,-9.836 14.96,-12.152 v 1.418 c -3.3,4.199 -4.22,10.285 -7.48,14.992 -4.67,4.644 -9.36,8.883 -14.05,13.543 -13.58,18.25 -30.45,34.148 -48.66,47.254 -14.99,10.324 -47.77,24.367 -53.83,41.632 0,0 -0.49,0.496 -0.95,0.957 10.3,0.95 22.49,4.7 32.31,7.539 15.89,4.2 30.4,3.25 46.78,7.45 7.5,1.886 14.99,4.242 22.51,6.543 v 4.242 c -8.47,8.406 -14.53,19.656 -23.42,27.605 -23.85,20.586 -50.09,40.696 -77.23,57.571 -14.53,9.363 -33.25,15.418 -48.7,23.394 -5.59,2.813 -14.94,4.199 -18.23,8.906 -8.43,10.293 -13.13,23.848 -19.2,36.036 -13.56,25.713 -26.69,54.253 -38.37,81.443 -8.42,18.24 -13.57,36.48 -23.87,53.34 -48.23,79.58 -100.63,127.76 -181.13,175.04 -17.32,9.84 -37.91,14.05 -59.89,19.2 -11.72,0.49 -23.41,1.4 -35.11,1.86 -7.5,3.29 -15,12.19 -21.54,16.4 -26.69,16.84 -95.46,53.34 -115.13,5.14 -12.64,-30.44 18.72,-60.38 29.49,-75.83 7.95,-10.75 18.26,-22.94 23.85,-35.09 3.28,-7.96 4.22,-16.4 7.51,-24.81 7.48,-20.59 14.49,-43.53 24.34,-62.73 5.13,-9.83 10.74,-20.14 17.29,-28.99 3.78,-5.18 10.31,-7.49 11.72,-15.94 -6.53,-9.35 -7.04,-23.39 -10.78,-35.1 -16.84,-52.89 -10.3,-118.414 13.58,-157.254 7.47,-11.699 25.28,-37.449 49.15,-27.597 21.06,8.41 16.38,35.089 22.46,58.476 1.4,5.656 0.46,9.367 3.26,13.106 v -0.946 c 6.55,-13.086 13.12,-25.691 19.2,-38.84 14.53,-22.91 39.78,-46.785 60.86,-62.683 11.2,-8.457 20.1,-22.942 34.14,-28.106 v 1.414 h -0.92 c -2.82,4.2 -7.02,6.086 -10.77,9.348 -8.42,8.43 -17.76,18.731 -24.34,28.086 -19.65,26.199 -36.99,55.234 -52.4,85.184 -7.51,14.543 -14.05,30.441 -20.14,44.941 -2.8,5.59 -2.8,14.039 -7.49,16.84 -7.04,-10.285 -17.31,-19.191 -22.45,-31.789 -8.9,-20.149 -9.83,-44.949 -13.13,-70.703 -1.86,-0.489 -0.92,0 -1.86,-0.93 -14.96,3.742 -20.11,19.184 -25.74,32.246 -14.04,33.274 -16.4,86.627 -4.21,125.007 3.26,9.81 17.34,40.7 11.7,50.06 -2.83,8.93 -12.18,14.03 -17.32,21.08 -6.07,8.89 -12.66,20.1 -16.83,29.95 -11.24,26.2 -16.89,55.23 -29.02,81.43 -5.62,12.19 -15.47,24.83 -23.4,36.04 -8.91,12.64 -18.73,21.53 -25.76,36.49 -2.32,5.16 -5.6,13.59 -1.87,19.19 0.92,3.75 2.82,5.16 6.57,6.1 6.05,5.15 23.39,-1.39 29.46,-4.2 17.33,-7 31.84,-13.59 46.33,-23.4 6.56,-4.69 13.58,-13.58 21.99,-15.94 h 9.85 c 14.97,-3.25 31.83,-0.91 45.88,-5.14 24.79,-7.95 47.25,-19.65 67.39,-32.29 61.29,-38.85 111.84,-94.09 145.99,-160.07 5.63,-10.75 7.99,-20.59 13.13,-31.8 9.83,-22.98 22.01,-46.38 31.82,-68.823 9.82,-22 19.2,-44.446 33.26,-62.727 7,-9.812 35.09,-14.961 47.73,-20.113 9.34,-4.199 23.87,-7.949 32.3,-13.09 15.91,-9.812 31.79,-21.062 46.79,-31.844 7.47,-5.617 30.88,-17.304 32.29,-26.679"
         style="fill:#2c7493;fill-opacity:1;fill-rule:evenodd;stroke:none"
         id="path6608" />
      <path
         d="m 1921.54,319.359 h 10.27 v 39.411 h 13.44 v 8.05 h -37.67 v -8.05 h 13.96 z m 78.15,0 h 9.68 v 47.461 h -14.56 l -11.85,-32.351 -12.9,32.351 h -14.03 v -47.461 h 9.16 v 36.121 h 0.52 l 13.51,-36.121 h 6.98 l 13.49,36.121 v -36.121"
         style="fill:#f18513;fill-opacity:1;fill-rule:nonzero;stroke:none"
         id="path6610" />
    </g>
  </g>
</svg>
