<?xml version="1.0" encoding="UTF-8" standalone="no"?>
<svg
   version="1.1"
   viewBox="0 0 200 200"
   id="svg192"
   width="200"
   height="200"
   xmlns="http://www.w3.org/2000/svg"
   xmlns:svg="http://www.w3.org/2000/svg">
  <defs
     id="defs196" />
  <style
     type="text/css"
     id="style182">
	.st0{fill-rule:evenodd;clip-rule:evenodd;fill:#AA81F3;}
	.st1{fill-rule:evenodd;clip-rule:evenodd;fill:#FFFFFF;}
</style>
  <g
     id="g190">
    <g
       id="Logo"
       transform="translate(600)">
      <rect
         id="Background"
         x="-600"
         y="0"
         class="st0"
         width="200"
         height="200"
         style="stroke-width:0.534522" />
      <path
         class="st1"
         d="m -494.15,105.34729 c 0,0 1,0.9 2.7,2.5 1.8,1.7 4.5,4 8,6.8 3.5,2.7 8.1,5.8 13.6,8.2 2.8,1.1 5.8,2 9,2.1 1.6,0 3.2,0 4.7,-0.5 0.8,-0.1 1.5,-0.5 2.2,-0.8 0.7,-0.4 1.4,-0.7 2.1,-1.2 1.3,-0.9 2.6,-2 3.6,-3.4 1,-1.4 1.9,-2.9 2.7,-4.6 1.4,-3.4 2.3,-7.2 2.5,-11.2 0.2,-4.000004 -0.3,-8.100004 -1.6,-12.000004 -1.3,-3.8 -3.4,-7.3 -6.4,-9.5 -2.9,-2.1 -6.6,-2.9 -10.6,-2.3 -2,0.4 -4.1,0.9 -6.1,1.8 -1,0.4 -2,0.9 -3.1,1.4 -1,0.6 -2,1.1 -3,1.7 -4,2.4 -7.9,5.4 -11.6,8.6 -1.8,1.7 -3.7,3.3 -5.4,5.1 -0.9,0.9 -1.8,1.7 -2.6,2.700004 l -2.7,2.8 c -3.5,3.7 -7.5,7.6 -11.5,11 -4.1,3.5 -8.4,6.7 -13.2,9.5 -4.7,2.7 -10,5 -15.9,5.8 -2.9,0.4 -6,0.3 -9.1,-0.4 -3,-0.7 -5.9,-2.1 -8.3,-4 -2.4,-1.9 -4.3,-4.2 -5.7,-6.6 -1.4,-2.4 -2.5,-4.9 -3.2,-7.5 -0.7,-2.5 -1.1,-5.1 -1.3,-7.6 -0.2,-2.5 -0.2,-5.000004 0.1,-7.400004 0.5,-4.8 1.8,-9.4 4,-13.6 1.1,-2.1 2.4,-4 4,-5.7 1.5,-1.7 3.4,-3.2 5.3,-4.3 2,-1.1 4.1,-1.9 6.2,-2.2 2.1,-0.4 4.2,-0.3 6.2,-0.1 3.9,0.5 7.3,1.9 10.2,3.4 5.8,3.2 10,6.9 13.3,10.1 3.2,3.2 5.5,6 7.1,7.8 1.5,1.9 2.3,2.9 2.3,2.9 0,0 -1,-0.9 -2.7,-2.5 -1.8,-1.7 -4.5,-4 -8,-6.7 -3.5,-2.7 -8.1,-5.8 -13.6,-8.2 -2.8,-1.1 -5.8,-2 -9,-2.1 -3.1,-0.1 -6.3,0.6 -8.9,2.5 -1.3,0.9 -2.6,2 -3.6,3.4 -1,1.4 -2,2.9 -2.7,4.6 -1.5,3.4 -2.3,7.2 -2.5,11.2 -0.2,4.000004 0.3,8.100004 1.6,12.000004 1.3,3.8 3.4,7.3 6.4,9.4 2.9,2.1 6.6,2.9 10.6,2.2 0.5,0 1,-0.2 1.5,-0.3 0.5,-0.1 1,-0.2 1.5,-0.4 l 1.5,-0.5 1.5,-0.6 c 0.5,-0.2 1,-0.4 1.5,-0.7 l 1.5,-0.7 c 1,-0.6 2,-1.1 3,-1.7 4,-2.4 7.9,-5.4 11.6,-8.6 3.7,-3.3 7.1,-6.6 10.8,-10.500004 l 2.7,-2.8 c 0.9,-1 1.9,-1.9 2.8,-2.8 1.9,-1.9 3.9,-3.7 5.9,-5.4 4.1,-3.5 8.4,-6.7 13.2,-9.5 4.7,-2.7 10,-5 15.9,-5.8 2.9,-0.4 6,-0.3 9.1,0.5 3,0.7 5.9,2.2 8.2,4.1 2.4,1.9 4.2,4.2 5.7,6.6 1.4,2.4 2.5,4.9 3.2,7.5 0.7,2.5 1.1,5.1 1.3,7.6 0.2,2.5 0.2,5.000004 -0.1,7.400004 -0.5,4.8 -1.8,9.5 -3.9,13.6 -1.1,2.1 -2.4,4 -4,5.7 -1.5,1.7 -3.4,3.2 -5.4,4.3 -1,0.6 -2,1 -3.1,1.4 -1.1,0.3 -2.1,0.7 -3.2,0.8 -2.1,0.4 -4.2,0.3 -6.2,0.1 -3.9,-0.6 -7.3,-2 -10.2,-3.5 -5.8,-3.2 -10,-7 -13.3,-10.2 -3.2,-3.2 -5.5,-6 -7.1,-7.9 -1.2,-1.8 -2,-2.8 -2,-2.8"
         id="path187" />
    </g>
  </g>
</svg>
