<?xml version="1.0" encoding="UTF-8" standalone="no"?>
<svg
   width="61.868893mm"
   height="48.59726mm"
   inkscape:version="1.2.1 (9c6d41e, 2022-07-14)"
   sodipodi:docname="Apache_Parquet_logo.svg"
   version="1.1"
   viewBox="0 0 61.868893 48.597261"
   id="svg4692"
   xmlns:inkscape="http://www.inkscape.org/namespaces/inkscape"
   xmlns:sodipodi="http://sodipodi.sourceforge.net/DTD/sodipodi-0.dtd"
   xmlns="http://www.w3.org/2000/svg"
   xmlns:svg="http://www.w3.org/2000/svg"
   xmlns:rdf="http://www.w3.org/1999/02/22-rdf-syntax-ns#"
   xmlns:cc="http://creativecommons.org/ns#"
   xmlns:dc="http://purl.org/dc/elements/1.1/">
  <defs
     id="defs4694" />
  <sodipodi:namedview
     id="cvfa"
     bordercolor="#666666"
     borderopacity="1.0"
     fit-margin-bottom="0"
     fit-margin-left="0"
     fit-margin-right="0"
     fit-margin-top="0"
     inkscape:current-layer="g4690"
     inkscape:cx="-39.395949"
     inkscape:cy="133.34014"
     inkscape:document-rotation="0"
     inkscape:document-units="mm"
     inkscape:pageopacity="0.0"
     inkscape:pageshadow="2"
     inkscape:window-height="456"
     inkscape:window-maximized="0"
     inkscape:window-width="1309"
     inkscape:window-x="73"
     inkscape:window-y="38"
     inkscape:zoom="0.49497475"
     pagecolor="#ffffff"
     showgrid="false"
     inkscape:showpageshadow="2"
     inkscape:pagecheckerboard="0"
     inkscape:deskcolor="#d1d1d1" />
  <title
     id="title4684">Apache Parquet logo</title>
  <metadata
     id="metadata4686">
    <rdf:RDF>
      <cc:Work
         rdf:about="">
        <dc:format>image/svg+xml</dc:format>
        <dc:type
           rdf:resource="http://purl.org/dc/dcmitype/StillImage" />
        <dc:title>Apache Parquet logo</dc:title>
      </cc:Work>
    </rdf:RDF>
  </metadata>
  <g
     transform="translate(124.316,-38.4979)"
     inkscape:groupmode="layer"
     inkscape:label="Layer 1"
     id="g4690">
    <path
       d="m -96.13,84.47 c -2.452,-2.616 -2.525,-2.729 -2.084,-3.224 0.6986,-0.784 30.5,-28.06 30.92,-28.31 0.3701,-0.2137 4.023,1.55 4.822,2.328 0.306,0.2982 -2.068,2.836 -15.02,16.05 -8.461,8.635 -15.55,15.74 -15.74,15.78 -0.1966,0.0435 -1.501,-1.141 -2.898,-2.632 z m -6.683,-6.9513 c -1.322,-1.329 -2.158,-2.373 -2.074,-2.59 0.1507,-0.3927 17.28,-14.24 17.6,-14.23 0.3948,0.0148 4.426,3.078 4.426,3.363 0,0.3001 -17.22,15.68 -17.56,15.68 -0.1002,0 -1.178,-1.002 -2.396,-2.226 z m -6.239,-6.3896 c -1.035,-1.156 -1.685,-2.09 -1.545,-2.22 0.7219,-0.6739 8.17,-5.839 8.416,-5.836 0.4004,0.005 3.995,3.087 3.995,3.426 0,0.4162 -8.066,6.625 -8.607,6.625 -0.2605,0 -1.277,-0.8978 -2.259,-1.995 z m -5.133,-5.268 c -1.482,-1.499 -1.659,-1.779 -1.323,-2.091 0.4823,-0.4481 24.16,-15.73 24.64,-15.91 0.3788,-0.1375 3.658,1.848 3.658,2.215 0,0.2622 -24.27,17.26 -24.86,17.41 -0.2346,0.0602 -1.122,-0.6222 -2.115,-1.627 z m 15.79,-2.414 c -0.9775,-0.8114 -1.772,-1.615 -1.766,-1.786 0.006,-0.1709 0.8697,-0.9136 1.918,-1.651 1.049,-0.7369 5.75,-4.1 10.45,-7.474 4.697,-3.374 8.734,-6.135 8.97,-6.135 0.6322,0 3.833,1.85 3.73,2.157 -0.1484,0.4452 -20.69,16.36 -21.12,16.36 -0.223,0.002 -1.205,-0.6605 -2.183,-1.472 z m -20.56,-2.383 c -1.167,-1.234 -1.336,-1.532 -1.031,-1.81 0.2644,-0.241 14.93,-8.904 16.7,-9.866 0.293,-0.159 3.402,2.084 3.303,2.382 -0.1286,0.3859 -16.67,10.77 -17.16,10.77 -0.2336,2.1e-4 -1.053,-0.6641 -1.821,-1.476 z m 35.46,0.0987 c -1.073,-0.7701 -1.993,-1.525 -2.044,-1.677 -0.0722,-0.2172 9.657,-8.303 11.86,-9.86 0.4291,-0.3027 0.7666,-0.2019 2.607,0.7786 1.163,0.6195 2.112,1.252 2.11,1.406 -0.0053,0.3937 -11.59,10.58 -12.13,10.68 -0.2479,0.0425 -1.329,-0.5528 -2.403,-1.323 z m -39.41,-4.284 -1.411,-1.429 0.6263,-0.4059 c 0.3445,-0.2232 7.337,-4.037 15.54,-8.476 l 14.91,-8.07 1.426,0.6993 c 0.7843,0.3846 1.426,0.8296 1.426,0.9888 0,0.2179 -30.66,18.12 -31.03,18.12 -0.0407,0 -0.709,-0.643 -1.485,-1.429 z m 22.93,-7.204 c -0.6912,-0.5188 -1.256,-1.081 -1.255,-1.249 7.9e-4,-0.168 2.796,-1.951 6.211,-3.963 l 6.209,-3.657 1.594,0.8497 c 0.8768,0.4674 1.594,0.94 1.594,1.05 0,0.3137 -12.18,7.929 -12.66,7.92 -0.2387,-0.004 -0.9996,-0.4325 -1.691,-0.9514 z m 12.44,-1.582 c -0.8367,-0.5171 -1.519,-1.079 -1.516,-1.25 0.005,-0.2884 4.234,-3.121 4.928,-3.301 0.319,-0.08261 3.165,1.419 3.395,1.791 0.0693,0.1122 -0.0795,0.387 -0.3307,0.6107 -0.8593,0.765 -4.387,3.104 -4.671,3.097 -0.156,-0.0039 -0.9682,-0.4302 -1.805,-0.9473 z"
       style="fill:#50abf1;stroke-width:0.2646"
       inkscape:connector-curvature="0"
       id="path4688"
       sodipodi:nodetypes="cccccccccccsscccccssccccsccccsccscccccccccccccccccccccccccsscccccccsccccccccccc" />
  </g>
</svg>
