<?xml version="1.0" encoding="UTF-8" standalone="no"?>
<!-- Created with Inkscape (http://www.inkscape.org/) -->

<svg
   width="446.69418mm"
   height="90.041595mm"
   viewBox="0 0 446.69418 90.041595"
   version="1.1"
   id="svg10589"
   xmlns="http://www.w3.org/2000/svg"
   xmlns:svg="http://www.w3.org/2000/svg">
  <defs
     id="defs10586" />
  <g
     id="layer1"
     transform="translate(-171.81394,-171.43684)">
    <g
       id="g10183"
       transform="matrix(0.03527778,0,0,-0.03527778,171.8138,261.47843)">
      <path
         d="m 12111.1,1061.45 104.4,-210.751 h 333 l -602.1,1186.561 h -336.5 L 11009.5,850.699 h 320.6 l 104.4,210.751 z m -570.3,216.05 230.2,469.31 h 3.6 l 230.2,-469.31 z M 9266.08,2030.19 H 8816.24 V 850.699 h 285.14 v 880.181 h 3.53 l 455.16,-881.939 h 219.58 l 455.15,881.939 h 3.6 V 850.699 H 10543 V 2030.19 h -449.9 l -409.06,-802.28 h -5.34 z m -2720.36,0 H 6235.8 V 850.699 h 309.92 z M 4677.33,850.699 v 403.791 h 324.09 l 341.8,-403.791 h 352.44 L 5327.28,1277.5 c 184.17,49.59 309.92,175.33 309.92,366.61 0,242.62 -171.77,386.08 -495.86,386.08 H 4369.18 V 850.699 Z m 0,632.241 v 309.93 h 403.79 c 173.57,0 244.4,-54.9 244.4,-154.07 0,-104.5 -86.77,-155.86 -258.57,-155.86 z M 3340.28,2030.19 H 2660.22 V 850.699 h 308.15 v 370.141 h 355.97 c 324.09,0 527.77,150.53 527.77,409.1 0,244.39 -184.2,400.25 -511.83,400.25 z m -371.91,-572.02 v 332.93 h 325.86 c 178.87,0 251.5,-67.3 251.5,-166.47 0,-102.74 -65.53,-166.46 -265.67,-166.46 z m 4791.3,110.45 c 388.33,-55.45 569.51,-137.19 569.51,-365.57 0,-233.441 -270.85,-375.351 -621.78,-375.351 -208.82,0 -391.69,39.102 -553.16,104.5 -8.09,3.199 -19.38,8.082 -30.68,12.981 v 271.69 c 38.77,-20.74 85.11,-42.14 120.34,-56.29 142.43,-57.65 308.45,-96.24 448.85,-96.24 217.09,0 315.01,48.87 315.01,124.04 0,66.92 -65.39,96.24 -332.88,133.83 -380.23,53.77 -572.9,135.34 -572.9,363.9 0,205.62 238.33,367.09 598.86,367.09 202.42,0 355.79,-32.52 501.09,-94.56 2.18,-0.84 4.39,-1.68 6.57,-2.69 v -271.53 c -31.02,14.66 -62.02,29.33 -96.4,42.47 -132.16,53.77 -282.32,89.67 -427.44,89.67 -184.39,0 -262.77,-52.08 -262.77,-114.11 0,-62.02 60.34,-93.04 337.78,-133.83 v 0"
         style="fill:#100f0d;fill-opacity:1;fill-rule:nonzero;stroke:none"
         id="path10185" />
      <path
         d="m 12497.3,1941.03 h 30.9 c 17.7,0 25,-5.89 25,-19.14 v -1.48 c 0,-11.77 -7.3,-19.13 -25,-19.13 h -30.9 z m 83.9,-22.09 v 4.42 c 0,25.02 -19.2,42.69 -53,42.69 h -58.9 v -135.43 h 28 v 45.63 h 31.1 l 23.3,-45.63 h 31 l -28.8,53.58 c 17.5,5.31 27.3,18.37 27.3,34.74"
         style="fill:#100f0d;fill-opacity:1;fill-rule:nonzero;stroke:none"
         id="path10187" />
      <path
         d="m 12522.3,1777.61 c -69.2,0 -119.3,50.05 -119.3,120.72 0,70.67 50.1,120.72 119.3,120.72 69.2,0 119.2,-50.05 119.2,-120.72 0,-70.67 -50,-120.72 -119.2,-120.72 m 0,260.58 c -79.5,0 -139.9,-60.36 -139.9,-139.86 0,-79.5 60.4,-139.86 139.9,-139.86 79.5,0 139.9,60.36 139.9,139.86 0,79.5 -60.4,139.86 -139.9,139.86"
         style="fill:#100f0d;fill-opacity:1;fill-rule:nonzero;stroke:none"
         id="path10189" />
      <path
         d="M 1276.02,850.711 V 2032.32 L 1893.37,850.711 h -617.35 v 0"
         style="fill:#51c7eb;fill-opacity:1;fill-rule:nonzero;stroke:none"
         id="path10191" />
      <path
         d="M 1275.93,2032.33 658.664,850.699 H 1275.93 V 0 L 0.00390625,1276.18 652.543,1928.97 l 103.613,103.36 519.774,520.03 v -520.03 0"
         style="fill:#51c7eb;fill-opacity:1;fill-rule:nonzero;stroke:none"
         id="path10193" />
      <path
         d="m 7953.12,148.879 v 61.141 h 0.33 c 37.25,-18.79 73.54,-28.032 105.08,-28.032 23.87,0 35.98,5.731 35.98,16.891 0,11.141 -7.96,14.012 -55.72,21.652 -52.23,8.278 -86.94,23.879 -86.94,68.789 0,41.719 36.62,73.871 108.28,73.871 28.66,0 58.58,-6.043 86.29,-17.832 v -60.507 l -0.32,-0.313 c -26.42,15.281 -62.1,24.84 -90.76,24.84 -25.47,0 -35.66,-6.051 -35.66,-16.25 0,-13.051 15.6,-14.32 54.77,-21.008 52.23,-8.922 86.94,-23.57 86.94,-70.691 0,-36.641 -27.39,-73.258 -106.05,-73.258 -38.85,0 -69.74,7.969 -102.22,20.707 z M 7668,357.148 h 66.87 V 274.98 h 27.38 l 65.29,82.168 h 75.15 l 0.33,-0.32 -85.36,-106.68 90.13,-115.597 -0.33,-0.321 h -78.01 l -67.51,85.661 h -27.07 V 134.23 H 7668 Z m -287.04,0 h 129.92 c 59.24,0 88.2,-28.027 88.2,-79.929 0,-35.68 -14.64,-59.879 -43.31,-71.34 l 52.88,-71.649 h -75.81 l -41.06,58.59 h -43.96 v -58.59 h -66.86 z m 121.32,-112.097 c 22.3,0 30.26,12.418 30.26,29.301 0,16.867 -7.96,28.976 -30.26,28.976 h -54.46 v -58.277 z m -443.08,0.629 c 0,72.609 49.35,118.148 127.37,118.148 78.03,0 127.39,-45.539 127.39,-118.148 0,-72.602 -49.36,-118.141 -127.39,-118.141 -78.02,0 -127.37,45.539 -127.37,118.141 z m 188.2,0 c 0,38.539 -22.28,61.468 -60.83,61.468 -38.52,0 -60.83,-22.929 -60.83,-61.468 0,-38.52 22.31,-61.45 60.52,-61.45 38.53,0 61.14,22.93 61.14,61.45 z m -608.98,111.468 h 71.32 l 36.31,-154.777 h 3.51 l 47.13,154.777 h 65.28 l 46.17,-154.777 h 3.51 l 35.66,154.777 h 68.15 l -58.6,-222.918 h -87.56 l -40.77,134.379 h -1.92 L 6785.22,134.23 h -87.89 z M 6444.68,299.82 h -78.02 l 2.54,57.328 h 218.14 l 2.55,-57.328 h -78.03 V 134.23 h -67.18 z m -331.62,57.328 h 194.89 l 2.55,-54.136 H 6179.61 V 272.43 h 102.86 v -49.352 h -102.86 v -34.707 h 134.71 l -2.55,-54.141 h -198.71 z m -309.34,0 h 69.43 L 5969,230.719 h 0.94 v 126.429 h 63.71 V 134.23 h -67.2 l -98.09,129.61 h -0.95 V 134.23 h -63.69 z M 5360.04,245.68 c 0,72.609 49.36,118.148 127.37,118.148 78.03,0 127.4,-45.539 127.4,-118.148 0,-72.602 -49.37,-118.141 -127.4,-118.141 -78.01,0 -127.37,45.539 -127.37,118.141 z m 188.2,0 c 0,38.539 -22.28,61.468 -60.83,61.468 -38.52,0 -60.83,-22.929 -60.83,-61.468 0,-38.52 22.31,-61.45 60.52,-61.45 38.54,0 61.14,22.93 61.14,61.45 z m -377.16,54.14 h -78.03 l 2.55,57.328 h 218.14 l 2.55,-57.328 h -78.04 V 134.23 h -67.17 z m -278.45,57.328 h 66.88 V 191.871 h 118.14 l -2.55,-57.641 h -182.47 z m -243.74,0 h 107.64 l 77.38,-222.918 h -70.06 l -15.6,46.168 h -92.04 L 4640.3,134.23 h -68.79 z m 23.56,-126.75 h 59.88 l -23.89,70.063 h -12.1 z m -523.92,15.282 c 0,72.609 49.35,118.148 127.38,118.148 78.02,0 127.38,-45.539 127.38,-118.148 0,-72.602 -49.36,-118.141 -127.38,-118.141 -78.03,0 -127.38,45.539 -127.38,118.141 z m 188.2,0 c 0,38.539 -22.28,61.468 -60.82,61.468 -38.53,0 -60.83,-22.929 -60.83,-61.468 0,-38.52 22.3,-61.45 60.51,-61.45 38.53,0 61.14,22.93 61.14,61.45 z m -416.97,111.468 h 66.87 V 191.871 h 118.15 l -2.55,-57.641 h -182.47 z m -243.74,0 h 107.64 l 77.38,-222.918 h -70.06 l -15.61,46.168 h -92.03 l -15.92,-46.168 h -68.77 z m 23.56,-126.75 h 59.88 l -23.89,70.063 h -12.1 z m -347.22,126.75 h 131.51 c 54.78,0 83.76,-31.527 83.76,-83.117 0,-58.281 -37.27,-85.031 -88.85,-85.031 h -59.55 v -54.77 h -66.87 z m 119.73,-115.609 c 20.71,0 29.62,13.383 29.62,30.891 0,20.07 -9.87,30.898 -30.25,30.898 h -52.23 v -61.789 z m -458.65,-35.98 -97.76,151.589 h 75.15 l 55.1,-88.847 h 3.18 l 55.73,88.847 h 73.25 L 3080.64,205.879 V 134.23 h -67.2 z m -353.92,151.589 h 140.44 c 46.49,0 74.52,-19.109 74.52,-56.058 0,-24.828 -9.88,-42.352 -37.58,-51.27 28.66,-11.461 42.35,-26.422 42.35,-52.859 0,-46.172 -35.34,-62.731 -84.37,-62.731 h -135.36 z m 122.6,-89.168 c 18.48,0 26.12,5.731 26.12,20.059 0,13.383 -8.28,19.109 -26.12,19.109 h -56.68 V 267.98 Z m 3.2,-83.121 c 19.73,0 27.38,6.371 27.38,21.02 0,13.691 -7.65,20.699 -27.38,20.699 h -59.88 v -42.039 l 59.88,0.32 v 0"
         style="fill:#7a7777;fill-opacity:1;fill-rule:nonzero;stroke:none"
         id="path10195" />
    </g>
  </g>
</svg>
