<?xml version="1.0" encoding="UTF-8" standalone="no"?>
<svg
   width="52.951"
   height="60"
   viewBox="0 0 52.951 60"
   fill="none"
   version="1.1"
   id="svg1267"
   sodipodi:docname="shopify.svg"
   inkscape:version="1.2.1 (9c6d41e, 2022-07-14)"
   xmlns:inkscape="http://www.inkscape.org/namespaces/inkscape"
   xmlns:sodipodi="http://sodipodi.sourceforge.net/DTD/sodipodi-0.dtd"
   xmlns="http://www.w3.org/2000/svg"
   xmlns:svg="http://www.w3.org/2000/svg">
  <defs
     id="defs1271" />
  <sodipodi:namedview
     id="namedview1269"
     pagecolor="#ffffff"
     bordercolor="#000000"
     borderopacity="0.25"
     inkscape:showpageshadow="2"
     inkscape:pageopacity="0.0"
     inkscape:pagecheckerboard="0"
     inkscape:deskcolor="#d1d1d1"
     showgrid="false"
     inkscape:zoom="3.8688525"
     inkscape:cx="119.54449"
     inkscape:cy="18.868644"
     inkscape:window-width="1309"
     inkscape:window-height="456"
     inkscape:window-x="0"
     inkscape:window-y="25"
     inkscape:window-maximized="0"
     inkscape:current-layer="svg1267" />
  <path
     d="m 46.3758,11.5534 c -0.0416,-0.303 -0.3063,-0.4711 -0.526,-0.4894 -0.218,-0.0183 -4.4894,-0.0832 -4.4894,-0.0832 0,0 -3.5723,-3.46905 -3.9252,-3.82195 -0.3528,-0.35289 -1.042,-0.24636 -1.31,-0.16646 -0.0033,0.00167 -0.6708,0.20808 -1.7944,0.55598 -0.1881,-0.60924 -0.4645,-1.35832 -0.859,-2.11072 -1.2717,-2.42699 -3.1344,-3.7104 -5.385,-3.71372 -0.0033,0 -0.005,0 -0.0083,0 -0.1565,0 -0.3113,0.01498 -0.4677,0.02829 C 27.5442,1.67232 27.4776,1.59409 27.4077,1.51751 26.4272,0.46881499 25.1705,-0.04221811 23.664,0.00272612 20.7576,0.08595629 17.8629,2.18502 15.5158,5.91373 13.8645,8.53714 12.6077,11.8331 12.2515,14.3849 8.91395,15.4186 6.58017,16.141 6.52857,16.1577 4.84399,16.687 4.79073,16.7386 4.571,18.3267 4.40787,19.5268 0,53.6113 0,53.6113 L 36.9392,60 52.9493,56.0199 c 0,0 -6.5319,-44.1635 -6.5735,-44.4665 z M 32.4814,8.12099 C 31.6308,8.384 30.6636,8.68363 29.6149,9.00823 29.5933,7.53672 29.4185,5.48926 28.7327,3.71978 c 2.2056,0.41782 3.2909,2.91306 3.7487,4.40121 z m -4.7991,1.48649 c -1.9359,0.59922 -4.0483,1.25342 -6.1673,1.90932 0.5959,-2.28219 1.7262,-4.55437 3.1145,-6.04419 0.516,-0.55431 1.2384,-1.17188 2.094,-1.52478 0.804,1.67792 0.9788,4.05331 0.9588,5.65965 z M 23.7222,1.93699 c 0.6825,-0.01498 1.2568,0.13484 1.7479,0.45777 -0.7857,0.40783 -1.5448,0.99377 -2.2572,1.75782 -1.8461,1.98088 -3.261,5.0554 -3.8253,8.02172 -1.7595,0.5443 -3.4807,1.0787 -5.0654,1.5681 1.0005,-4.66925 4.9139,-11.67557 9.4,-11.80541 z"
     fill="#95bf47"
     id="path1245" />
  <path
     d="m 45.8514,11.0657 c -0.218,-0.0183 -4.4894,-0.0832 -4.4894,-0.0832 0,0 -3.5722,-3.46906 -3.9251,-3.82195 C 37.3054,7.02904 37.1273,6.96079 36.9408,6.9325 L 36.9425,59.9984 52.951,56.02 c 0,0 -6.5319,-44.1619 -6.5735,-44.4649 -0.0417,-0.303 -0.308,-0.4711 -0.5261,-0.4894 z"
     fill="#5e8e3e"
     id="path1247" />
  <path
     d="m 28.0668,19.2972 -1.8593,6.9563 c 0,0 -2.0741,-0.9438 -4.5327,-0.789 -3.6056,0.2281 -3.6439,2.5019 -3.6072,3.0729 0.1964,3.1111 8.3812,3.7903 8.8407,11.0779 0.3612,5.7329 -3.0413,9.6547 -7.9435,9.9643 -5.8844,0.3712 -9.12371,-3.0995 -9.12371,-3.0995 l 1.24681,-5.3034 c 0,0 3.2609,2.4603 5.871,2.2955 1.7046,-0.1082 2.3138,-1.4948 2.2522,-2.4753 -0.2563,-4.0583 -6.9214,-3.8186 -7.3425,-10.487 -0.3546,-5.6113 3.3309,-11.2976 11.4624,-11.8103 3.1328,-0.2014 4.7358,0.5976 4.7358,0.5976 z"
     fill="#ffffff"
     id="path1249" />
</svg>
