<svg width="50" height="51" viewBox="0 0 50 51" fill="none" xmlns="http://www.w3.org/2000/svg">
<path d="M10.5436 31.6973C10.5436 34.6115 8.1974 36.9658 5.29328 36.9658C2.38916 36.9658 0.0429688 34.6115 0.0429688 31.6973C0.0429688 28.7831 2.38916 26.4287 5.29328 26.4287H10.5436V31.6973Z" fill="#E01E5A"/>
<path d="M13.1616 31.6973C13.1616 28.7831 15.5078 26.4287 18.4119 26.4287C21.3161 26.4287 23.6622 28.7831 23.6622 31.6973V44.8758C23.6622 47.79 21.3161 50.1444 18.4119 50.1444C15.5078 50.1444 13.1616 47.7757 13.1616 44.8615V31.6973Z" fill="#E01E5A"/>
<path d="M18.4118 10.5371C15.5077 10.5371 13.1615 8.18277 13.1615 5.26855C13.1615 2.35434 15.5077 0 18.4118 0C21.3159 0 23.6621 2.35434 23.6621 5.26855V10.5371H18.4118Z" fill="#36C5F0"/>
<path d="M18.4118 13.207C21.316 13.207 23.6622 15.5614 23.6622 18.4756C23.6622 21.3898 21.316 23.7441 18.4118 23.7441H5.25031C2.34619 23.7441 0 21.3898 0 18.4756C0 15.5614 2.34619 13.207 5.25031 13.207H18.4118Z" fill="#36C5F0"/>
<path d="M39.4564 18.4756C39.4564 15.5614 41.8026 13.207 44.7067 13.207C47.6108 13.207 49.957 15.5614 49.957 18.4756C49.957 21.3898 47.6108 23.7441 44.7067 23.7441H39.4564V18.4756Z" fill="#2EB67D"/>
<path d="M36.8384 18.4758C36.8384 21.39 34.4922 23.7444 31.5881 23.7444C28.684 23.7444 26.3378 21.39 26.3378 18.4758V5.26855C26.3378 2.35434 28.684 0 31.5881 0C34.4922 0 36.8384 2.35434 36.8384 5.26855V18.4758Z" fill="#2EB67D"/>
<path d="M31.5881 39.5928C34.4922 39.5928 36.8384 41.9471 36.8384 44.8613C36.8384 47.7755 34.4922 50.1299 31.5881 50.1299C28.684 50.1299 26.3378 47.7755 26.3378 44.8613V39.5928H31.5881Z" fill="#ECB22E"/>
<path d="M31.5881 36.9658C28.684 36.9658 26.3378 34.6115 26.3378 31.6973C26.3378 28.7831 28.684 26.4287 31.5881 26.4287H44.7496C47.6537 26.4287 49.9999 28.7831 49.9999 31.6973C49.9999 34.6115 47.6537 36.9658 44.7496 36.9658H31.5881Z" fill="#ECB22E"/>
</svg>
