<?xml version="1.0" encoding="UTF-8" standalone="no"?>
<svg
   width="64"
   height="51.451351"
   viewBox="0 0 63.999999 51.451351"
   fill="none"
   version="1.1"
   id="svg1341"
   sodipodi:docname="snyk.svg"
   inkscape:version="1.2.1 (9c6d41e, 2022-07-14)"
   xmlns:inkscape="http://www.inkscape.org/namespaces/inkscape"
   xmlns:sodipodi="http://sodipodi.sourceforge.net/DTD/sodipodi-0.dtd"
   xmlns="http://www.w3.org/2000/svg"
   xmlns:svg="http://www.w3.org/2000/svg">
  <sodipodi:namedview
     id="namedview1343"
     pagecolor="#ffffff"
     bordercolor="#000000"
     borderopacity="0.25"
     inkscape:showpageshadow="2"
     inkscape:pageopacity="0.0"
     inkscape:pagecheckerboard="0"
     inkscape:deskcolor="#d1d1d1"
     showgrid="false"
     inkscape:zoom="4.5384615"
     inkscape:cx="17.29661"
     inkscape:cy="25.559322"
     inkscape:window-width="1309"
     inkscape:window-height="456"
     inkscape:window-x="0"
     inkscape:window-y="25"
     inkscape:window-maximized="0"
     inkscape:current-layer="g1334" />
  <g
     clip-path="url(#clip0)"
     id="g1334"
     transform="translate(-0.268188,-0.345947)">
    <g
       id="g1403"
       transform="translate(15.752144)">
      <path
         d="M 28.5023,13.9224 H 4.60516 c 0,-1.4972 2.16004,-6.02263 6.48014,-13.576453 0,0 0.5981,3.983863 1.7944,11.951553 l 7.3007,2e-4 1.792,-11.951753 C 26.3257,7.99993 28.5023,12.5254 28.5023,13.9224 Z"
         fill="#ffffff"
         id="path1281" />
      <path
         d="M 16.5172,51.7973 0.268188,40.4008 V 13.8021 c 0,0 6.007772,-2.2192 16.269812,-2.2192 10.2621,0 16.2259,2.2192 16.2259,2.2192 v 26.5987 z"
         fill="#ffffff"
         id="path1283" />
      <path
         d="M 16.5172,50.1955 1.3064,39.5716 V 14.8697 c 0,0 5.68821,-2.0609 15.2108,-2.0609 z"
         fill="#dbdbdb"
         id="path1285" />
      <path
         d="m 16.5379,12.8088 c -0.0071,0 -0.0137,2e-4 -0.0207,0 V 50.164 h 2e-4 L 31.5945,39.571 V 14.8697 c 0,0 -5.5341,-2.0609 -15.0566,-2.0609 z"
         fill="#c6c6c6"
         id="path1287" />
      <path
         d="M 24.7477,44.3832 23.465,33.2261 h -7.0494 c 0,8.8554 0,14.5204 0,16.9953 l 0.1016,0.096 c 2.7425,-1.878 5.486,-3.856 8.2305,-5.9342 z"
         fill="#3b3b63"
         id="path1289" />
      <path
         d="m 8.29114,44.4713 8.22606,5.8461 0.0041,-17.431 H 9.39711 Z"
         fill="#53537a"
         id="path1291" />
      <path
         d="m 20.0372,41.1688 c 0,1.9169 -1.817,2.8671 -3.484,2.8671 -1.6669,0 -3.5207,-0.9502 -3.5207,-2.8671"
         fill="#bc9375"
         id="path1293" />
      <path
         d="m 16.5348,42.1601 c -1.3383,0 -1.989,-0.9674 -1.989,-2.9561 h 0.6381 c 0,2.3283 0.9121,2.3283 1.3509,2.3283 0.4385,0 1.3509,0 1.3509,-2.3283 h 0.6379 c 0,1.9887 -0.6508,2.9561 -1.9888,2.9561 z"
         fill="#ffffff"
         id="path1295" />
      <path
         d="m 16.5172,39.6894 c 0.4117,1.0667 1.2075,1.6 2.3875,1.6 1.1553,0 2.3609,-0.5991 2.9099,-2.0795 0.7668,-2.0708 0.7591,-4.9532 0.7591,-4.9532 0,0 3.4076,-4.2019 3.4076,-5.6228 0,0 -3.1547,0 -9.4641,0 z"
         fill="#c49a7e"
         id="path1297" />
      <path
         d="m 6.91577,28.6339 c 0,1.6454 3.37813,5.6228 3.37813,5.6228 0,0 -0.0083,2.8815 0.7593,4.9532 0.5478,1.4794 1.7546,2.0795 2.9101,2.0795 1.18,0 2.0313,-0.5333 2.5539,-1.6 V 28.6339 Z"
         fill="#d8b7a0"
         id="path1299" />
      <path
         d="m 25.5746,19.1728 c -2.6269,-2.653 -3.2839,-8.185 -3.2839,-8.185 -0.4904,1.7431 -1.5564,6.8827 -1.5564,6.8827 0,0 -2.0706,-0.6596 -4.3008,-0.663 -0.0733,0 -0.0733,6.9247 0,20.7743 l 2.1232,-1.5117 0.3947,-7.3359 2.2608,2.5408 2.9124,0.8383 c 0,0 1.0897,-0.7653 1.0897,-0.7625 0.4626,-0.6382 0.6161,-1.1819 0.728,-1.464 0.4045,-1.0265 -0.5037,-8.8762 -0.5037,-8.8762 -0.3225,-0.6649 0.136,-2.2378 0.136,-2.2378 z"
         fill="#3b3b63"
         id="path1301" />
      <path
         d="m 12.3555,17.8701 c 0,0 -1.0664,-5.1394 -1.5564,-6.8827 0,0 -0.6566,5.532 -3.28388,8.185 0,0 0.45847,1.5732 0.13601,2.2378 0,0 -0.90822,7.8501 -0.50374,8.8749 0.11171,0.2824 0.26641,0.8258 0.7284,1.4641 0,-0.0029 1.09032,0.7627 1.09032,0.7627 l 2.91179,-0.8385 2.2603,-2.5404 0.3958,7.3359 1.9852,1.4717 V 17.1685 c -2.2386,0.0037 -4.1638,0.7016 -4.1638,0.7016 z"
         fill="#53537a"
         id="path1303" />
      <path
         d="m 23.7363,5.86104 c 0.4359,0.80007 4.1826,8.19656 4.1826,10.75796 l -1.6618,4.4583 c 0.2811,2.5157 0.8403,7.9818 0.4182,9.0497 -0.2606,0.6605 -1.254,2.0194 -2.1036,3.1198 l 1.1616,10.4431 -1.5703,1.1138 -0.8731,-7.6305 c -0.12,0.7743 -0.3005,1.6011 -0.5756,2.3436 -0.3638,0.9827 -1.0066,1.7274 -1.8289,2.1685 -0.0481,2.3559 -2.2539,3.6269 -4.3322,3.6269 -2.0955,0 -4.3197,-1.27 -4.3687,-3.625 -0.824,-0.442 -1.4676,-1.1867 -1.8318,-2.1704 C 10.0885,38.8029 9.91059,38.0127 9.78995,37.2643 L 8.95473,44.9439 7.37592,43.812 8.51607,33.2786 C 7.65976,32.1733 6.64731,30.7942 6.38423,30.1264 5.9621,29.0582 6.49947,23.593 6.78103,21.0769 L 5.02045,16.4624 V 16.312 c 0,-2.5614 3.84488,-9.65089 4.28134,-10.45096 L 10.547,3.61487 c 0.7582,5.20415 1.137,7.80853 1.1364,7.81313 l 0.6132,4.2172 0.8067,1.3061 c 0.7751,-0.2576 2.0909,-0.6154 3.4233,-0.6154 1.3339,0 2.6587,0.359 3.4371,0.6162 L 20.77,15.6454 22.5169,3.61487 Z M 16.5532,43.6377 c 0.9199,0 2.2299,-0.4096 2.5569,-1.4955 -0.0351,10e-4 -0.0689,0.0038 -0.104,0.0038 -0.179,0 -0.3464,-0.0165 -0.5088,-0.0384 -0.4744,0.6499 -1.2136,0.8471 -1.9624,0.8471 -0.7475,0 -1.4852,-0.199 -1.9588,-0.8479 -0.1635,0.0229 -0.3327,0.0392 -0.5131,0.0392 -0.0345,0 -0.0677,-0.0028 -0.1016,-0.0038 0.3304,1.0859 1.6581,1.4955 2.5918,1.4955 z M 15.476,41.8529 c 0.2853,0.2104 0.6378,0.3275 1.0596,0.3275 0.4194,0 0.7703,-0.1179 1.0552,-0.3275 -0.2272,-0.0995 -0.4327,-0.218 -0.614,-0.3474 -0.164,0.0478 -0.321,0.0468 -0.4421,0.0468 -0.1216,0 -0.2803,0 -0.4456,-0.0478 -0.1808,0.1304 -0.386,0.2489 -0.6131,0.3484 z m 6.5361,-8.1015 c 1.1302,-1.3819 2.8316,-3.6077 3.078,-4.2306 0.1859,-0.6413 -0.1312,-4.893 -0.5346,-8.4565 l -0.0222,-0.1976 0.3334,-0.8853 c -1.0994,-1.1539 -1.8665,-2.7353 -2.3905,-4.2286 l -0.0681,0.4691 -1.7359,2.8089 -0.678,-0.2844 c -0.0166,-0.0072 -1.7865,-0.7368 -3.4665,-0.7368 -1.6908,0 -3.4321,0.729 -3.4491,0.7362 l -0.679,0.2868 -1.738,-2.8101 -0.0515,-0.3599 c -0.5297,1.4787 -1.29752,3.0323 -2.39178,4.1611 l 0.31852,0.8436 -0.02222,0.1978 c -0.40365,3.5627 -0.72072,7.8144 -0.52865,8.4718 0.24024,0.6078 1.94185,2.8336 3.07143,4.2145 l 0.1885,0.2307 -0.001,0.2956 c 0,0.0278 0.0033,2.7616 0.708,4.6642 0.5117,1.3799 1.6466,1.5274 2.1115,1.5274 1.1686,0 1.663,-1.0557 1.6834,-1.1006 0.2738,-0.5305 0.4108,-1.4019 0.4108,-2.6144 h 0.7065 c 0,0.9741 0.1473,1.8475 0.4418,2.6201 0.0179,0.0382 0.5248,1.0975 1.6992,1.0975 0.4638,0 1.5992,-0.1491 2.1104,-1.529 0.707,-1.9093 0.7079,-4.6374 0.7079,-4.6642 l -9e-4,-0.2956 z"
         fill="#333152"
         id="path1305" />
      <path
         d="M 21.8194,26.3207 H 19.2675 18.417 v 0.0354 c 0,1.1694 1.0274,2.1168 2.2325,2.1168 1.2056,0 2.233,-0.9476 2.233,-2.1168 v -0.0354 z"
         fill="#333152"
         id="path1307" />
      <path
         d="m 19.2675,26.3207 v 0.0354 c 0,0.6956 0.569,1.2593 1.2762,1.2593 0.7072,0 1.2759,-0.5637 1.2759,-1.2593 v -0.0354 z"
         fill="#ffffff"
         id="path1309" />
      <path
         d="m 20.3393,26.3207 c -0.0058,0 -0.0108,0.0029 -0.016,0.0039 0.0742,0.0153 0.1153,0.1808 0.0993,0.2909 -0.0239,0.1684 -0.1697,0.2852 -0.3366,0.2881 0.0486,0.22 0.2309,0.397 0.473,0.4305 0.3094,0.0431 0.5953,-0.1657 0.6391,-0.4699 0.0316,-0.224 -0.0779,-0.5435 -0.2608,-0.5435 z"
         fill="#333152"
         id="path1311" />
      <path
         d="M 13.6062,26.3207 H 11.0547 10.204 v 0.0354 c 0,1.1694 1.0276,2.1168 2.2325,2.1168 1.2056,0 2.2332,-0.9476 2.2332,-2.1168 v -0.0354 z"
         fill="#333152"
         id="path1313" />
      <path
         d="m 11.0547,26.3207 v 0.0354 c 0,0.6956 0.5693,1.2593 1.2755,1.2593 0.7075,0 1.2762,-0.5637 1.2762,-1.2593 v -0.0354 z"
         fill="#ffffff"
         id="path1315" />
      <path
         d="m 12.7246,26.3207 h -0.5987 c -0.0052,0 -0.0108,0.0029 -0.0155,0.0039 0.0739,0.0153 0.1148,0.1808 0.0992,0.2909 -0.0241,0.1684 -0.169,0.2852 -0.337,0.2881 0.0492,0.22 0.2315,0.397 0.4732,0.4305 0.3092,0.0431 0.5958,-0.1657 0.6389,-0.4699 0.032,-0.224 -0.0772,-0.5435 -0.2601,-0.5435 z"
         fill="#333152"
         id="path1317" />
      <path
         d="m 21.5627,25.3225 c 0.1429,-0.1541 1.3557,-1.5082 -0.2664,-1.5082 -1.4657,0 -2.5203,1.1637 -2.7998,1.5082 z"
         fill="#c49a7e"
         id="path1319" />
      <path
         d="m 14.5661,25.3225 c -0.2793,-0.3445 -1.3339,-1.5082 -2.8001,-1.5082 -1.6212,0 -0.4084,1.3541 -0.2664,1.5082 z"
         fill="#d8b7a0"
         id="path1321" />
      <path
         d="M 6.76819,16.1758 C 6.86453,14.8472 8.26922,11.6638 9.60913,8.98105 L 9.96627,11.434 c -0.13621,0.9171 -0.75872,4.514 -2.42856,6.7812 z"
         fill="#d8b7a0"
         id="path1323" />
      <path
         d="m 23.1317,11.243 0.3291,-2.26174 c 1.3397,2.68254 2.7452,5.86614 2.8415,7.19474 l -0.7514,1.991 c -1.8042,-2.4959 -2.3702,-6.5532 -2.4192,-6.924 z"
         fill="#c49a7e"
         id="path1325" />
      <g
         mask="url(#mask0)"
         id="g1332">
        <path
           d="m 15.2837,38.2441 c -0.6292,-0.4698 -1.2747,-1.0626 -1.2747,-1.5173 0,-0.2987 0.5368,-1.2193 0.5368,-1.2193 h 3.9913 c 0,0 0.5234,0.8162 0.5234,1.2193 0,0.4234 -0.6515,0.9998 -1.3016,1.4696 -0.2213,-0.3749 -0.5029,-0.44 -0.633,-0.1445 -0.0671,0.1531 -0.0803,0.3736 -0.0475,0.6043 -0.3541,0.2251 -0.6128,0.3701 -0.6128,0.3701 0,0 -0.1998,-0.1149 -0.4854,-0.2997 0.046,-0.2557 0.0372,-0.5061 -0.037,-0.6747 -0.1312,-0.2995 -0.4184,-0.2286 -0.6414,0.1598 -0.0061,0.0107 -0.0121,0.0214 -0.0181,0.0324 z"
           fill="#333152"
           id="path1330" />
      </g>
    </g>
    <mask
       id="mask0"
       maskUnits="userSpaceOnUse"
       x="14"
       y="35"
       width="6"
       height="5">
      <path
         d="m 15.2837,38.2441 c -0.6292,-0.4698 -1.2747,-1.0626 -1.2747,-1.5173 0,-0.2987 0.5368,-1.2193 0.5368,-1.2193 h 3.9913 c 0,0 0.5234,0.8162 0.5234,1.2193 0,0.4234 -0.6515,0.9998 -1.3016,1.4696 -0.2213,-0.3749 -0.5029,-0.44 -0.633,-0.1445 -0.0671,0.1531 -0.0803,0.3736 -0.0475,0.6043 -0.3541,0.2251 -0.6128,0.3701 -0.6128,0.3701 0,0 -0.1998,-0.1149 -0.4854,-0.2997 0.046,-0.2557 0.0372,-0.5061 -0.037,-0.6747 -0.1312,-0.2995 -0.4184,-0.2286 -0.6414,0.1598 -0.0061,0.0107 -0.0121,0.0214 -0.0181,0.0324 z"
         fill="#ffffff"
         id="path1327" />
    </mask>
  </g>
  <defs
     id="defs1339">
    <clipPath
       id="clip0">
      <rect
         width="100"
         height="51.929798"
         fill="#ffffff"
         id="rect1336"
         x="0"
         y="0" />
    </clipPath>
  </defs>
</svg>
