<?xml version="1.0" encoding="UTF-8" standalone="no"?>
<svg
   viewBox="4 10.47 212.10872 253.44"
   width="350.0795"
   height="403.32825"
   version="1.1"
   id="svg4229"
   sodipodi:docname="sonatype.svg"
   inkscape:version="1.2.1 (9c6d41e, 2022-07-14)"
   xmlns:inkscape="http://www.inkscape.org/namespaces/inkscape"
   xmlns:sodipodi="http://sodipodi.sourceforge.net/DTD/sodipodi-0.dtd"
   xmlns="http://www.w3.org/2000/svg"
   xmlns:svg="http://www.w3.org/2000/svg">
  <defs
     id="defs4233" />
  <sodipodi:namedview
     id="namedview4231"
     pagecolor="#ffffff"
     bordercolor="#000000"
     borderopacity="0.25"
     inkscape:showpageshadow="2"
     inkscape:pageopacity="0.0"
     inkscape:pagecheckerboard="0"
     inkscape:deskcolor="#d1d1d1"
     showgrid="false"
     inkscape:zoom="0.18036454"
     inkscape:cx="371.46991"
     inkscape:cy="515.62241"
     inkscape:window-width="1309"
     inkscape:window-height="456"
     inkscape:window-x="0"
     inkscape:window-y="25"
     inkscape:window-maximized="0"
     inkscape:current-layer="svg4229" />
  <linearGradient
     id="a"
     gradientUnits="userSpaceOnUse"
     x1="10.42"
     x2="217.58"
     y1="85.190002"
     y2="230.25"
     gradientTransform="translate(-2.413274,-20.53)">
    <stop
       offset="0"
       stop-color="#6d3dec"
       id="stop4212" />
    <stop
       offset=".87"
       stop-color="#4ba8e9"
       id="stop4214" />
  </linearGradient>
  <path
     d="M 1.586727,200.55 V 73.83 q 23.549999,-13.73 47.1,-27.44 31,-18 62.000003,-35.92 h 1.76 q 28.73,16.64 57.45,33.28 25.85,15 51.67,30.08 v 126.72 c -2,1.26 -3.89,2.61 -5.91,3.78 q -51.6,29.8 -103.21,59.58 h -1.76 q -21.660003,-12.6 -43.320003,-25.21 -32.86,-19.09 -65.78,-38.15 z M 189.58673,137.47 c 0,-13.63 -0.09,-27.26 0.06,-40.89 0,-3.21 -1.12,-5.06 -3.88,-6.64 q -35.3,-20.18 -70.45,-40.6 a 6.38,6.38 0 0 0 -7.28,0 Q 73.086727,69.68 38.036727,89.76 c -3.21,1.83 -4.460001,4 -4.440001,7.67 q 0.2,39.58 0,79.15 c 0,4 1.210001,6.38 4.750001,8.39 q 34.79,19.74 69.340003,39.9 c 2.89,1.68 5.15,1.75 8.07,0.05 q 34.83,-20.35 69.99,-40.4 c 3,-1.7 4,-3.75 3.92,-7.06 -0.15,-13.34 -0.08,-26.68 -0.08,-39.99 z"
     fill="url(#a)"
     id="path4227"
     style="fill:url(#a)" />
</svg>
