<?xml version="1.0" encoding="utf-8"?><!-- Uploaded to: SVG Repo, www.svgrepo.com, Generator: SVG Repo Mixer Tools -->
<svg width="800px" height="800px" viewBox="0 0 48 48" xmlns="http://www.w3.org/2000/svg"><defs><style>.a{fill:none;stroke:#000000;stroke-linecap:round;stroke-linejoin:round;}</style></defs><path class="a" d="M32.6571,16.2426c1.8455-.5269,6.3257-5.6179,3.9971-9.1512s-8.9256-3.59-10.28.6749-.0249,7.9592,2.1927,8.5228a6.0378,6.0378,0,0,0,4.09-.0465Z"/><path class="a" d="M29.5614,28.1623c.4163-.0141,3.0956-11.92,3.0956-11.92S35.3861,27.33,35.1905,28.57"/><path class="a" d="M32.6571,16.2426l-.34,10.4277s-3.0833,8.36-3.0833,9.245-1.0234,6.6578-.9641,7.181"/><path class="a" d="M32.3166,26.671S35.3979,38.4765,35.7,38.8085s1.5956,4.2886,1.8515,4.3034"/><path class="a" d="M14.0932,18.6946s-.5139,1.5419-1.7632.2856-.906-1.7552-.906-1.7552-.9055.0189-.9717-1.136S11.32,15.06,11.32,15.06s-.53-4.1951,2.0155-5.7848,8.2133-1.6836,9.6253,2.1989-.1344,7.714-3.0355,8.745-4.7067.03-5.8314-1.5242Z"/><path class="a" d="M22.9225,11.4484c-.1624.2661-1.1453,3.1694-7.4819,3.1139s-1.3481,4.1332-1.3481,4.1332"/><path class="a" d="M14.6216,19.3735s-2.8569,6.8357-3.2983,11.36"/><path class="a" d="M14.6216,19.3735s.8455,8.2461,2.2789,11.3775"/><path class="a" d="M14.6216,19.3735s-.7563,7.5842-.2884,9.8235a30.4424,30.4424,0,0,1,2.891,8.9238C17.8908,42.24,18.6364,43.5,18.6364,43.5"/><path class="a" d="M14.3334,29.1967s-.8247,5.6656-1.65,8.7383a28.6317,28.6317,0,0,0-.9394,5.0509"/></svg>