<?xml version="1.0" encoding="UTF-8" standalone="no"?>
<!-- Uploaded to: SVG Repo, www.svgrepo.com, Generator: SVG Repo Mixer Tools -->

<svg
   width="800"
   height="800"
   viewBox="0 0 48 48"
   version="1.1"
   id="svg206"
   sodipodi:docname="xkcd.svg"
   inkscape:export-filename="xkcd-dark.svg"
   inkscape:export-xdpi="96"
   inkscape:export-ydpi="96"
   xmlns:inkscape="http://www.inkscape.org/namespaces/inkscape"
   xmlns:sodipodi="http://sodipodi.sourceforge.net/DTD/sodipodi-0.dtd"
   xmlns="http://www.w3.org/2000/svg"
   xmlns:svg="http://www.w3.org/2000/svg">
  <sodipodi:namedview
     id="namedview208"
     pagecolor="#ffffff"
     bordercolor="#000000"
     borderopacity="0.25"
     inkscape:showpageshadow="2"
     inkscape:pageopacity="0.0"
     inkscape:pagecheckerboard="0"
     inkscape:deskcolor="#d1d1d1"
     showgrid="false" />
  <defs
     id="defs184">
    <style
       id="style182">.a{fill:none;stroke:#000000;stroke-linecap:round;stroke-linejoin:round;}</style>
  </defs>
  <path
     class="a"
     d="m 32.6571,16.2426 c 1.8455,-0.5269 6.3257,-5.6179 3.9971,-9.1512 -2.3286,-3.5333 -8.9256,-3.59 -10.28,0.6749 -1.3544,4.2649 -0.0249,7.9592 2.1927,8.5228 a 6.0378,6.0378 0 0 0 4.09,-0.0465 z"
     id="path186"
     style="stroke:#ffffff;stroke-opacity:1" />
  <path
     class="a"
     d="m 29.5614,28.1623 c 0.4163,-0.0141 3.0956,-11.92 3.0956,-11.92 0,0 2.7291,11.0877 2.5335,12.3277"
     id="path188"
     style="stroke:#ffffff;stroke-opacity:1" />
  <path
     class="a"
     d="m 32.6571,16.2426 -0.34,10.4277 c 0,0 -3.0833,8.36 -3.0833,9.245 0,0.885 -1.0234,6.6578 -0.9641,7.181"
     id="path190"
     style="stroke:#ffffff;stroke-opacity:1" />
  <path
     class="a"
     d="m 32.3166,26.671 c 0,0 3.0813,11.8055 3.3834,12.1375 0.3021,0.332 1.5956,4.2886 1.8515,4.3034"
     id="path192"
     style="stroke:#ffffff;stroke-opacity:1" />
  <path
     class="a"
     d="m 14.0932,18.6946 c 0,0 -0.5139,1.5419 -1.7632,0.2856 -1.2493,-1.2563 -0.906,-1.7552 -0.906,-1.7552 0,0 -0.9055,0.0189 -0.9717,-1.136 -0.0662,-1.1549 0.8677,-1.029 0.8677,-1.029 0,0 -0.53,-4.1951 2.0155,-5.7848 2.5455,-1.5897 8.2133,-1.6836 9.6253,2.1989 1.412,3.8825 -0.1344,7.714 -3.0355,8.745 -2.9011,1.031 -4.7067,0.03 -5.8314,-1.5242 z"
     id="path194"
     style="stroke:#ffffff;stroke-opacity:1" />
  <path
     class="a"
     d="m 22.9225,11.4484 c -0.1624,0.2661 -1.1453,3.1694 -7.4819,3.1139 -6.3366,-0.0555 -1.3481,4.1332 -1.3481,4.1332"
     id="path196"
     style="stroke:#ffffff;stroke-opacity:1" />
  <path
     class="a"
     d="m 14.6216,19.3735 c 0,0 -2.8569,6.8357 -3.2983,11.36"
     id="path198"
     style="stroke:#ffffff;stroke-opacity:1" />
  <path
     class="a"
     d="m 14.6216,19.3735 c 0,0 0.8455,8.2461 2.2789,11.3775"
     id="path200"
     style="stroke:#ffffff;stroke-opacity:1" />
  <path
     class="a"
     d="m 14.6216,19.3735 c 0,0 -0.7563,7.5842 -0.2884,9.8235 a 30.4424,30.4424 0 0 1 2.891,8.9238 C 17.8908,42.24 18.6364,43.5 18.6364,43.5"
     id="path202"
     style="stroke:#ffffff;stroke-opacity:1" />
  <path
     class="a"
     d="m 14.3334,29.1967 c 0,0 -0.8247,5.6656 -1.65,8.7383 a 28.6317,28.6317 0 0 0 -0.9394,5.0509"
     id="path204"
     style="stroke:#ffffff;stroke-opacity:1" />
</svg>
