<?xml version="1.0" encoding="UTF-8" standalone="no"?>
<!-- Created with Inkscape (http://www.inkscape.org/) -->

<svg
   version="1.1"
   id="svg18"
   width="749.77332"
   height="258.60001"
   viewBox="0 0 749.77332 258.60001"
   sodipodi:docname="zoho.svg"
   inkscape:version="1.2.1 (9c6d41e, 2022-07-14)"
   xmlns:inkscape="http://www.inkscape.org/namespaces/inkscape"
   xmlns:sodipodi="http://sodipodi.sourceforge.net/DTD/sodipodi-0.dtd"
   xmlns="http://www.w3.org/2000/svg"
   xmlns:svg="http://www.w3.org/2000/svg">
  <defs
     id="defs22">
    <clipPath
       clipPathUnits="userSpaceOnUse"
       id="clipPath38">
      <path
         d="M 4222.55,1316.23 V 10.3086 H 5442.11 V 1316.23 Z"
         id="path36" />
    </clipPath>
    <linearGradient
       x1="0"
       y1="0"
       x2="1"
       y2="0"
       gradientUnits="userSpaceOnUse"
       gradientTransform="matrix(1209.74,-1332.77,-1332.77,-1209.74,4210.08,1348.8)"
       spreadMethod="pad"
       id="linearGradient46">
      <stop
         style="stop-opacity:1;stop-color:#f5c20f"
         offset="0"
         id="stop40" />
      <stop
         style="stop-opacity:1;stop-color:#f5c20f"
         offset="0.00599861"
         id="stop42" />
      <stop
         style="stop-opacity:1;stop-color:#e68416"
         offset="1"
         id="stop44" />
    </linearGradient>
    <clipPath
       clipPathUnits="userSpaceOnUse"
       id="clipPath60">
      <path
         d="M 4002.37,1346.44 4168.56,176.512 2985.67,10.3086 2819.17,1184.98 Z"
         id="path58" />
    </clipPath>
    <linearGradient
       x1="0"
       y1="0"
       x2="1"
       y2="0"
       gradientUnits="userSpaceOnUse"
       gradientTransform="matrix(1247.6,-1001.86,-1001.86,-1247.6,2861.63,1186.21)"
       spreadMethod="pad"
       id="linearGradient70">
      <stop
         style="stop-opacity:1;stop-color:#4189cf"
         offset="0"
         id="stop62" />
      <stop
         style="stop-opacity:1;stop-color:#4189cf"
         offset="0.005618"
         id="stop64" />
      <stop
         style="stop-opacity:1;stop-color:#4189cf"
         offset="0.02972923"
         id="stop66" />
      <stop
         style="stop-opacity:1;stop-color:#2b61a4"
         offset="1"
         id="stop68" />
    </linearGradient>
    <clipPath
       clipPathUnits="userSpaceOnUse"
       id="clipPath82">
      <path
         d="M 1889.87,1567.08 2951.89,1087.89 2472.68,0 1410.67,479.18 Z"
         id="path80" />
    </clipPath>
    <linearGradient
       x1="0"
       y1="0"
       x2="1"
       y2="0"
       gradientUnits="userSpaceOnUse"
       gradientTransform="matrix(0,-1093.25,-1093.25,0,2181.28,1131.87)"
       spreadMethod="pad"
       id="linearGradient90">
      <stop
         style="stop-opacity:1;stop-color:#34a43f"
         offset="0"
         id="stop84" />
      <stop
         style="stop-opacity:1;stop-color:#288b51"
         offset="0.97575255"
         id="stop86" />
      <stop
         style="stop-opacity:1;stop-color:#288b51"
         offset="1"
         id="stop88" />
    </linearGradient>
    <clipPath
       clipPathUnits="userSpaceOnUse"
       id="clipPath104">
      <path
         d="M 1187.15,1348.13 1362.2,196.891 188.512,12.8594 0,1166.36 Z"
         id="path102" />
    </clipPath>
    <linearGradient
       x1="0"
       y1="0"
       x2="1"
       y2="0"
       gradientUnits="userSpaceOnUse"
       gradientTransform="matrix(188.011,-1135.04,-1135.04,-188.011,595.35,1238.82)"
       spreadMethod="pad"
       id="linearGradient110">
      <stop
         style="stop-opacity:1;stop-color:#da1b31"
         offset="0"
         id="stop106" />
      <stop
         style="stop-opacity:1;stop-color:#bb1e35"
         offset="1"
         id="stop108" />
    </linearGradient>
  </defs>
  <sodipodi:namedview
     id="namedview20"
     pagecolor="#ffffff"
     bordercolor="#000000"
     borderopacity="0.25"
     inkscape:showpageshadow="2"
     inkscape:pageopacity="0.0"
     inkscape:pagecheckerboard="0"
     inkscape:deskcolor="#d1d1d1"
     showgrid="false"
     inkscape:zoom="0.91260633"
     inkscape:cx="374.75085"
     inkscape:cy="129.3"
     inkscape:window-width="1419"
     inkscape:window-height="456"
     inkscape:window-x="0"
     inkscape:window-y="25"
     inkscape:window-maximized="0"
     inkscape:current-layer="g28">
    <inkscape:page
       x="0"
       y="0"
       id="page24"
       width="749.77332"
       height="258.60001" />
  </sodipodi:namedview>
  <g
     id="g26"
     inkscape:groupmode="layer"
     inkscape:label="Page 1"
     transform="matrix(1.3333333,0,0,-1.3333333,0,258.6)">
    <g
       id="g28"
       transform="scale(0.1)">
      <path
         d="M 5623.31,1525.4 V 191.621 L 5442.11,10.3086 V 1316.23 l 181.2,209.17"
         style="fill:#db701b;fill-opacity:1;fill-rule:nonzero;stroke:none"
         id="path30" />
      <g
         id="g32">
        <g
           id="g34"
           clip-path="url(#clipPath38)">
          <path
             d="M 4222.55,1316.23 V 10.3086 H 5442.11 V 1316.23 H 4222.55"
             style="fill:url(#linearGradient46);fill-opacity:1;fill-rule:nonzero;stroke:none"
             id="path48" />
        </g>
      </g>
      <path
         d="m 4413.57,1524.52 -191.02,-208.29 h 1219.56 l 181.2,209.17 -1209.74,-0.88"
         style="fill:#f9d506;fill-opacity:1;fill-rule:nonzero;stroke:none"
         id="path50" />
      <path
         d="m 2903.11,1467.32 1199.63,166.76 -100.37,-287.64 -1183.2,-161.46 83.94,282.34"
         style="fill:#98ccee;fill-opacity:1;fill-rule:nonzero;stroke:none"
         id="path52" />
      <g
         id="g54">
        <g
           id="g56"
           clip-path="url(#clipPath60)">
          <path
             d="M 4002.37,1346.44 4168.56,176.512 2985.67,10.3086 2819.17,1184.98 l 1183.2,161.46"
             style="fill:url(#linearGradient70);fill-opacity:1;fill-rule:nonzero;stroke:none"
             id="path72" />
        </g>
      </g>
      <path
         d="m 4002.37,1346.44 166.19,-1169.928 90.68,252.539 -155.57,1197.969 -0.93,7.06"
         style="fill:#4498d9;fill-opacity:1;fill-rule:nonzero;stroke:none"
         id="path74" />
      <g
         id="g76">
        <g
           id="g78"
           clip-path="url(#clipPath82)">
          <path
             d="M 1889.87,1567.08 2951.89,1087.89 2472.68,0 1410.67,479.18 l 479.2,1087.9"
             style="fill:url(#linearGradient90);fill-opacity:1;fill-rule:nonzero;stroke:none"
             id="path92" />
        </g>
      </g>
      <path
         d="m 1779.63,1939.46 110.24,-372.38 1062.02,-479.19 -89.29,355.81 -1082.97,495.76"
         style="fill:#91d692;fill-opacity:1;fill-rule:nonzero;stroke:none"
         id="path94" />
      <path
         d="m 1779.63,1939.46 -427.44,-1014.472 58.48,-445.808 479.2,1087.9 -110.24,372.38"
         style="fill:#64c65e;fill-opacity:1;fill-rule:nonzero;stroke:none"
         id="path96" />
      <g
         id="g98">
        <g
           id="g100"
           clip-path="url(#clipPath104)">
          <path
             d="M 1187.15,1348.13 1362.2,196.891 188.512,12.8594 0,1166.36 1187.15,1348.13"
             style="fill:url(#linearGradient110);fill-opacity:1;fill-rule:nonzero;stroke:none"
             id="path112" />
        </g>
      </g>
      <path
         d="M 1267.47,1767.36 1441.23,604.988 1362.2,196.891 1187.15,1348.13 l 80.32,419.23"
         style="fill:#73141b;fill-opacity:1;fill-rule:nonzero;stroke:none"
         id="path114" />
      <path
         d="m 3801.17,1122.29 c -5.34,36.34 -17.75,64.06 -37.86,82.22 -15.99,14.5 -36.11,21.84 -59.02,21.79 -5.86,0 -11.87,-0.46 -18.13,-1.37 -30.7,-4.41 -54.23,-18.65 -68.63,-42.13 -10.49,-16.96 -15.58,-37.43 -15.58,-60.98 0,-9.02 0.75,-18.52 2.23,-28.48 l 43.14,-304.43 -340.11,-50.051 -43.14,304.491 c -5.23,35.39 -17.45,62.83 -37.3,81.49 -16.01,15.12 -35.99,22.85 -58.52,22.79 -5.31,0 -10.77,-0.42 -16.35,-1.24 -32.01,-4.61 -56.4,-18.57 -71.2,-41.71 -10.74,-16.66 -15.92,-37.22 -15.92,-61.14 0,-9.19 0.78,-18.89 2.27,-29.13 l 116.37,-791.738 c 5.34,-36.391 18.07,-64.063 39,-81.942 16.33,-13.968 36.79,-20.992 60.22,-20.949 6.41,0 13.07,0.508 19.94,1.528 29.28,4.23 51.9,18.39 65.53,41.851 9.78,16.668 14.53,36.699 14.53,59.621 0,9.168 -0.74,18.801 -2.23,28.867 l -47.55,312.793 340.1,49.989 47.57,-312.789 c 5.24,-35.93 17.85,-63.43 38.48,-81.551 16.39,-14.41 36.65,-21.668 59.62,-21.629 5.91,0 11.95,0.449 18.19,1.367 30.59,4.453 54.03,18.473 68.01,41.762 10.09,16.621 14.95,36.769 14.95,59.992 0,9.188 -0.74,18.859 -2.22,29.008 z M 2417.96,684.379 c -40.02,-94.258 -92.85,-158.918 -158.21,-194.738 -35.03,-19.2 -70.92,-28.7 -108.05,-28.711 -32.26,0 -65.53,7.211 -99.87,21.742 -74.33,31.687 -120.63,82.617 -140.67,154.449 -6.71,24.09 -10.07,49.418 -10.07,76.039 0,52.731 13.23,110.559 39.92,173.481 40.92,96.496 94.34,162.319 159.75,198.359 34.94,19.26 70.86,28.82 108.11,28.82 32.62,0 66.33,-7.29 101.25,-22.11 73.85,-31.43 119.68,-82.46 139.36,-154.608 6.4,-23.602 9.62,-48.43 9.62,-74.563 0,-53.84 -13.61,-113.25 -41.14,-178.16 z m 116.34,473.891 c -41.72,44.01 -92.41,78.62 -151.85,103.83 -59,25.06 -118.65,37.56 -178.77,37.56 l -2.77,-0.01 c -61.04,-0.4 -121.37,-13.99 -180.83,-40.66 v 0.02 c -62.24,-27.09 -116.48,-65 -162.51,-113.68 -46.03,-48.66 -83.51,-107.19 -112.44,-175.361 -28.54,-67.379 -44.39,-134.789 -47.33,-202.207 -0.34,-7.633 -0.5,-15.262 -0.5,-22.864 0,-59.5 10.21,-117.789 30.59,-174.757 21.62,-60.11 53.52,-112.161 95.58,-156.032 42.03,-43.879 93.75,-78.789 154.94,-104.679 v 0.011 c 58.53,-24.863 117.96,-37.3 178.16,-37.269 h 1.54 c 60.72,0.277 120.93,13.289 180.47,38.859 l 0.05,0.02 0.03,0.019 c 62.63,27.95 117.24,66.371 163.82,114.989 46.55,48.671 84.19,107.031 112.95,174.82 28.76,67.769 44.43,135.262 47.01,202.383 0.24,6.476 0.36,12.929 0.36,19.367 0,60.359 -10.65,119.508 -32,177.363 -22.6,61.478 -54.79,114.288 -96.5,158.278 z M 1061.07,380.199 c -9.26,11.063 -21.71,19.223 -36.89,24.52 -15.6,5.453 -34.461,8.07 -56.676,8.07 -20.941,0 -44.859,-2.32 -71.859,-6.949 L 585.867,352.891 c 3.274,23.871 15.129,55.238 36.035,93.468 23.34,42.852 57.754,94.301 103.215,154.192 l 0.031,0.027 c 15.602,20.852 27.524,36.774 35.762,47.781 5.922,7.321 14.16,18.102 24.832,32.352 70.867,92.961 114.735,168.648 131.551,228.07 9.613,33.688 15.473,67.621 17.594,101.809 0.574,9.36 0.843,18.64 0.843,27.86 0,24.5 -2.007,48.63 -6.066,72.36 -3.687,21.63 -9.008,39.62 -16.148,54.05 -7.137,14.42 -16.203,25.37 -27.391,32.28 -12.617,7.69 -30.359,10.94 -53.586,10.99 -19.168,0 -42.156,-2.33 -69.066,-6.92 l -357.996,-61.25 c -43.356,-7.43 -75.368,-20.19 -95.789,-39.42 -16.235,-15.24 -24.622,-34.96 -24.536,-57.59 0,-5.91 0.539,-12.03 1.633,-18.35 5.031,-30.428 20.887,-52.729 46.445,-64.077 15.086,-6.804 33.317,-10.058 54.59,-10.058 14.489,0 30.403,1.515 47.797,4.484 l 299.633,50.521 c 0.516,-5.3 0.863,-10.575 0.863,-15.825 0,-18.719 -3.242,-37 -9.738,-54.997 -8.895,-24.796 -31.117,-60.257 -66.527,-105.328 -10.039,-12.3 -25.407,-31.468 -46.121,-57.449 -80.805,-97.883 -138.68,-181.34 -173.7,-250.762 0,-0.031 -0.007,-0.031 -0.023,-0.058 l -0.008,-0.031 c -24.863,-47.782 -42.117,-94.848 -51.582,-141.18 -5.512,-27.02 -8.301,-52.969 -8.301,-77.86 0,-17.832 1.434,-35.082 4.289,-51.789 4.106,-23.961 10.02,-43.73 17.989,-59.39 7.968,-15.602 18.132,-27.25 30.675,-34.153 11.676,-6.339 28.844,-8.839 52.473,-8.918 29.996,0 70.375,4.43 121.481,13.149 l 324.832,55.531 c 57.519,9.91 97.528,23.629 120.768,42.719 18.58,15.25 28.21,36.211 28.11,60.883 0,6.238 -0.58,12.687 -1.74,19.398 -2.73,16.02 -8.67,29.762 -17.92,40.789 z m -275.316,300.539 0.023,0.012 -0.035,-0.039 h -0.019 z M 5005.35,416.102 c -46.73,-56.461 -109.65,-84.493 -190.87,-84.59 -81.79,0.097 -144.96,28.039 -191.95,84.207 -46.85,56.23 -70.56,133.543 -70.59,232.75 0.03,101.121 23.65,179.57 70.24,236.242 46.72,56.652 110.08,84.769 192.3,84.875 81.22,-0.106 144.12,-28.203 190.87,-84.875 46.62,-56.672 70.28,-135.121 70.28,-236.242 0,-98.75 -23.6,-175.969 -70.28,-232.367 z m 250.64,430.339 c -24.13,60.649 -59.86,115.012 -107.1,162.979 -45.22,46.11 -96.05,80.92 -152.16,104.27 -56.2,23.37 -116.93,35.03 -182.16,35.02 -65.69,0.01 -127.01,-11.65 -183.63,-35.01 -56.59,-23.36 -107.39,-58.18 -152.17,-104.3 -47.18,-47.494 -82.77,-101.681 -106.39,-162.291 -23.61,-60.679 -35.45,-126.847 -35.45,-198.437 0,-70.66 11.87,-136.613 35.83,-197.672 23.85,-61.078 59.24,-115.922 106.01,-164.34 43.82,-45.289 94.09,-79.539 150.44,-102.66 56.38,-23.078 118.24,-34.648 185.36,-34.648 64.71,0 125.38,11.57 181.73,34.648 56.38,23.102 107.32,57.34 152.55,102.602 47.28,48.468 83.01,103.128 107.14,164.019 24.15,60.828 36.22,126.918 36.22,198.051 0,71.137 -12.07,137.109 -36.22,197.769"
         style="fill:#ffffff;fill-opacity:1;fill-rule:nonzero;stroke:none"
         id="path116" />
      <path
         d="M 0,1166.36 23.2305,1282.2 82.4219,1577.41 1267.47,1767.36 1187.15,1348.13 0,1166.36"
         style="fill:#ed3239;fill-opacity:1;fill-rule:nonzero;stroke:none"
         id="path118" />
    </g>
  </g>
</svg>
