<?xml version="1.0" encoding="UTF-8" standalone="no"?>
<svg
   inkscape:version="1.2.1 (9c6d41e, 2022-07-14)"
   sodipodi:docname="zoom.svg"
   id="svg835"
   version="1.1"
   height="600.72302"
   width="1000"
   xmlns:inkscape="http://www.inkscape.org/namespaces/inkscape"
   xmlns:sodipodi="http://sodipodi.sourceforge.net/DTD/sodipodi-0.dtd"
   xmlns="http://www.w3.org/2000/svg"
   xmlns:svg="http://www.w3.org/2000/svg"
   xmlns:rdf="http://www.w3.org/1999/02/22-rdf-syntax-ns#"
   xmlns:cc="http://creativecommons.org/ns#"
   xmlns:dc="http://purl.org/dc/elements/1.1/">
  <metadata
     id="metadata841">
    <rdf:RDF>
      <cc:Work
         rdf:about="">
        <dc:format>image/svg+xml</dc:format>
        <dc:type
           rdf:resource="http://purl.org/dc/dcmitype/StillImage" />
      </cc:Work>
    </rdf:RDF>
  </metadata>
  <defs
     id="defs839" />
  <sodipodi:namedview
     inkscape:current-layer="svg835"
     inkscape:window-maximized="1"
     inkscape:window-y="25"
     inkscape:window-x="0"
     inkscape:cy="102.02541"
     inkscape:cx="843.47737"
     inkscape:zoom="0.49497475"
     showgrid="false"
     id="namedview837"
     inkscape:window-height="1027"
     inkscape:window-width="1920"
     inkscape:pageshadow="2"
     inkscape:pageopacity="0"
     guidetolerance="10"
     gridtolerance="10"
     objecttolerance="10"
     borderopacity="1"
     inkscape:document-rotation="0"
     bordercolor="#666666"
     pagecolor="#ffffff"
     fit-margin-top="0"
     fit-margin-left="0"
     fit-margin-right="0"
     fit-margin-bottom="0"
     inkscape:showpageshadow="2"
     inkscape:pagecheckerboard="0"
     inkscape:deskcolor="#d1d1d1" />
  <path
     inkscape:connector-curvature="0"
     id="path833"
     d="m 814.1856,251.23648 c 3.82247,6.59494 5.07303,14.0983 5.48595,22.53368 l 0.5427,11.24325 v 78.62013 l 0.55449,11.25504 c 1.10899,18.38088 14.66459,31.97188 33.18704,33.12806 l 11.19606,0.55449 V 285.01341 l 0.55449,-11.24325 c 0.46011,-8.341 1.69888,-15.98593 5.58033,-22.62806 a 44.902197,44.902197 0 0 1 77.74711,0.14157 c 3.82246,6.59494 5.01403,14.23987 5.47415,22.48649 l 0.55449,11.20786 v 78.65552 l 0.55449,11.25504 c 1.15618,18.47526 14.60561,32.06626 33.18705,33.12806 L 1000,408.57113 V 273.77016 a 89.898775,89.898775 0 0 0 -89.86338,-89.89877 89.662821,89.662821 0 0 0 -67.42408,30.44996 89.780798,89.780798 0 0 0 -67.42409,-30.46176 c -18.66402,0 -35.9831,5.66292 -50.32915,15.44324 -8.75392,-9.76853 -28.33817,-15.44324 -39.58142,-15.44324 v 224.71154 l 11.24325,-0.55449 c 18.80559,-1.23877 32.39659,-14.46403 33.12805,-33.12806 l 0.60168,-11.25504 v -78.62013 l 0.5545,-11.24325 c 0.47191,-8.48257 1.65168,-15.93874 5.48595,-22.58087 a 45.020174,45.020174 0 0 1 38.89714,-22.39211 44.949388,44.949388 0 0 1 38.89715,22.4393 z m -769.24801,156.79195 11.243246,0.5427 H 224.71155 l -0.5545,-11.20785 c -1.52191,-18.47526 -14.6056,-31.97188 -33.13985,-33.17525 l -11.24324,-0.55449 H 78.667327 L 213.4683,228.78538 212.91381,217.58933 C 212.04077,198.9253 198.40259,185.44049 179.77396,184.41408 L 168.53071,183.90678 0,183.85959 0.55449376,195.10284 C 2.0292112,213.40113 15.301668,227.18089 33.682546,228.24269 l 11.255044,0.55449 H 146.04422 L 11.243246,363.64534 11.79774,374.88858 c 1.108987,18.52245 14.475826,31.93648 33.13985,33.12806 z M 641.26613,216.75169 a 112.34987,112.34987 0 0 1 0,158.90375 112.43246,112.43246 0 0 1 -158.93914,0 c -43.8758,-43.8758 -43.8758,-115.02796 0,-158.90375 a 112.29089,112.29089 0 0 1 79.39878,-32.9039 112.37347,112.37347 0 0 1 79.54036,32.9157 z m -31.7949,31.8185 a 67.447677,67.447677 0 0 1 0,95.34933 67.447677,67.447677 0 0 1 -95.34934,0 67.447677,67.447677 0 0 1 0,-95.34933 67.447677,67.447677 0 0 1 95.34934,0 z m -283.55867,-64.7224 a 112.29089,112.29089 0 0 1 79.39878,32.9157 c 43.88759,43.86399 43.88759,115.02795 0,158.89195 a 112.43246,112.43246 0 0 1 -158.93914,0 c -43.8758,-43.8758 -43.8758,-115.02796 0,-158.90375 a 112.29089,112.29089 0 0 1 79.39878,-32.9039 z m 47.60387,64.69881 a 67.447677,67.447677 0 0 1 0,95.36112 67.447677,67.447677 0 0 1 -95.34933,0 67.447677,67.447677 0 0 1 0,-95.34933 67.447677,67.447677 0 0 1 95.34933,0 z"
     style="fill:#2d8cff;fill-rule:evenodd;stroke-width:11.7977" />
</svg>
