<svg width="307" height="128" viewBox="0 0 307 128" fill="none" xmlns="http://www.w3.org/2000/svg">
<g clip-path="url(#clip0_1851_13379)">
<path d="M257.607 102.981L205.271 75.0694C199.711 72.1049 199.711 67.2969 205.271 64.3325L257.607 36.4205C263.166 33.4551 272.179 33.4551 277.738 36.4205L330.074 64.3325C335.632 67.2969 335.632 72.1049 330.074 75.0694L277.738 102.981C272.179 105.946 263.166 105.946 257.607 102.981Z" fill="white"/>
<path d="M286.864 63.5902L265.154 69.104L262.359 82.2223L237.578 72.8818L272.237 91.3671L286.864 63.5902ZM287.795 61.2036L262.922 60.2596L231.149 65.0791L241.399 70.5458L287.795 61.2036V61.2036Z" fill="#0072C4"/>
<path d="M157.961 49.8373L105.619 21.9218C100.06 18.9573 100.06 14.1502 105.619 11.1849L157.961 -16.7307C163.52 -19.696 172.533 -19.696 178.092 -16.7307L230.434 11.1849C235.993 14.1502 235.993 18.9573 230.434 21.9218L178.092 49.8373C172.533 52.8018 163.52 52.8018 157.961 49.8373Z" fill="white"/>
<path d="M58.3103 102.985L5.9683 75.0694C0.410305 72.1049 0.410305 67.2978 5.9683 64.3325L58.3103 36.4169C63.8703 33.4516 72.8823 33.4516 78.4423 36.4169L130.784 64.3325C136.342 67.2978 136.342 72.1049 130.784 75.0694L78.4423 102.985C72.8823 105.949 63.8703 105.949 58.3103 102.985Z" fill="white"/>
<path d="M162.994 91.1743L145.883 82.048C143.103 80.5654 143.103 78.1618 145.883 76.6791L162.994 67.5529C165.774 66.0711 170.28 66.0711 173.06 67.5529L190.172 76.6791C192.951 78.1618 192.951 80.5654 190.172 82.048L173.06 91.1743C170.28 92.6569 165.774 92.6569 162.994 91.1743Z" fill="white"/>
<path d="M199.231 110.5L182.119 101.374C179.339 99.8916 179.339 97.488 182.119 96.0054L199.231 86.8792C202.01 85.3965 206.517 85.3965 209.296 86.8792L226.408 96.0054C229.188 97.488 229.188 99.8916 226.408 101.374L209.296 110.5C206.517 111.982 202.01 111.982 199.231 110.5Z" fill="white"/>
<path d="M90.5212 129.827L73.4092 120.7C70.6292 119.218 70.6292 116.814 73.4092 115.332L90.5212 106.206C93.3002 104.724 97.8072 104.724 100.586 106.206L117.698 115.332C120.478 116.814 120.478 119.218 117.698 120.7L100.586 129.827C97.8072 131.309 93.3002 131.309 90.5212 129.827Z" fill="white"/>
<path d="M235.467 129.827L218.356 120.7C215.575 119.218 215.575 116.814 218.356 115.332L235.467 106.206C238.246 104.724 242.753 104.724 245.532 106.206L262.645 115.332C265.424 116.814 265.424 119.218 262.645 120.7L245.532 129.827C242.753 131.309 238.246 131.309 235.467 129.827Z" fill="white"/>
<path d="M126.757 110.5L109.646 101.374C106.865 99.8916 106.865 97.488 109.646 96.0054L126.757 86.8792C129.536 85.3965 134.043 85.3965 136.822 86.8792L153.935 96.0054C156.714 97.488 156.714 99.8916 153.935 101.374L136.822 110.5C134.043 111.982 129.536 111.982 126.757 110.5Z" fill="white"/>
<path d="M182.627 15.1893H188.97L190.516 14.5902C189.992 8.70579 180.211 4.12446 169.1 4.49423C166.014 4.59646 162.897 5.11379 160.214 5.93423L161.51 6.45423L168.898 9.27912L169.888 9.2729C175.807 9.12535 180.994 11.4471 181.615 14.5902L182.627 15.1893Z" fill="#E84335"/>
<path d="M187.879 20.5893C189.834 18.7689 190.751 16.6844 190.516 14.5902H181.615C181.959 16.4115 180.716 18.216 178.244 19.4853L177.454 19.9067C179.642 21.0738 179.642 22.9653 177.454 24.1315C175.267 25.2987 171.764 25.2747 169.576 24.1075L161.644 19.8773L160.019 19.9129L155.269 22.4462L155.302 23.2595L163.234 27.4907C168.88 30.5484 178.061 30.6107 183.795 27.6C187.271 25.7742 188.804 23.144 187.879 20.5893Z" fill="#4283F2"/>
<path d="M147.381 19.0347L155.303 23.2596L161.645 19.8773L153.723 15.6524C153.158 15.3511 152.734 14.9956 152.454 14.5964L150.985 14.1804L144.621 14.1689L143.264 14.5964C143.703 16.2729 145.127 17.8436 147.381 19.0347Z" fill="#34A653"/>
<path d="M167.952 8.06222C162.228 5.04533 153.003 5.07556 147.347 8.128C144.188 9.83289 142.681 12.2196 143.263 14.5956H152.453C151.36 13.0516 152.82 11.328 155.715 10.7458C158.609 10.1627 161.842 10.9413 162.934 12.4844C163.416 13.1644 163.416 13.9156 162.934 14.5956H172.124C172.725 12.1893 171.181 9.77245 167.952 8.06222Z" fill="#F9BA05"/>
<path d="M86.2927 80.0516C85.398 79.5826 84.5678 79.0227 83.8187 78.3832C83.1277 77.7814 82.6547 77.2774 82.4547 76.88C82.3277 76.6374 82.3097 76.4329 82.3997 76.3076C82.5039 76.1723 82.6409 76.0596 82.8007 75.9778L83.7287 75.4827C84.1097 75.2792 84.4377 75.2596 84.7107 75.4045C84.8187 75.4632 84.9107 75.5316 84.9827 75.6089C85.0567 75.6863 85.1467 75.8125 85.2557 75.9485C85.6409 76.4671 86.0993 76.9397 86.6197 77.3547C87.2017 77.8205 87.8387 78.2374 88.5657 78.6258C89.7127 79.2365 90.8037 79.6054 91.8217 79.7218C92.8407 79.8383 93.7507 79.7023 94.4957 79.3049C95.0057 79.0329 95.2597 78.7227 95.2777 78.3636C95.2967 78.0045 94.9867 77.5103 94.3867 76.88L92.5677 75.0365C91.6587 74.1049 91.2947 73.2516 91.5137 72.4952C91.7127 71.7476 92.2957 71.1076 93.2407 70.6036C94.0118 70.1932 94.8635 69.9166 95.7507 69.7885C96.6607 69.6525 97.6057 69.6134 98.5527 69.6916C99.5167 69.7592 100.444 69.9236 101.39 70.1956C102.336 70.4676 103.19 70.8267 103.991 71.2534C104.392 71.4667 104.791 71.6996 105.137 71.9414C105.501 72.1938 105.81 72.4365 106.119 72.6792C106.392 72.9218 106.647 73.1547 106.865 73.3867C107.083 73.6205 107.229 73.8143 107.302 73.9689C107.41 74.1823 107.447 74.3574 107.393 74.5032C107.356 74.6392 107.21 74.7743 106.956 74.9103L106.101 75.3663C105.719 75.5698 105.373 75.5992 105.101 75.4534C104.955 75.376 104.791 75.2107 104.628 74.9689C104.064 74.1627 103.136 73.416 101.845 72.728C100.808 72.1752 99.8257 71.8258 98.9157 71.7094C98.0067 71.592 97.1887 71.7183 96.4417 72.1165C95.9337 72.3876 95.6787 72.7183 95.6957 73.096C95.7147 73.4747 96.0417 74.0178 96.6967 74.6969L98.4617 76.5112C99.3527 77.4329 99.7167 78.2472 99.5337 78.9458C99.3527 79.6445 98.7707 80.2454 97.8247 80.7503C97.0265 81.1709 96.1527 81.4662 95.2417 81.6232C94.2769 81.7841 93.2927 81.8331 92.3137 81.7689C91.2801 81.7035 90.2597 81.5244 89.2757 81.2356C88.2322 80.9471 87.2309 80.5497 86.2927 80.0516M63.4107 67.3245C63.0837 67.1494 62.9197 67.0045 62.9017 66.8587C62.8647 66.7227 62.9927 66.5192 63.2297 66.2765L73.0147 56.4978C73.2697 56.2463 73.4507 56.0907 73.5787 56.0232C73.8697 55.8676 74.1787 55.8578 74.4697 56.0134L76.2527 56.9636C76.5987 57.1476 76.7797 57.3032 76.7797 57.4392C76.8157 57.5752 76.6707 57.7689 76.4347 58.0116L67.4487 66.0632L82.3277 61.1547C82.7817 61.0089 83.1277 60.9405 83.3827 60.96C83.6377 60.9796 83.9647 61.0765 84.2917 61.2516L85.7467 62.0276C86.0927 62.2116 86.2737 62.3672 86.2927 62.5129C86.3287 62.648 86.2017 62.8516 85.9297 63.0756L76.6157 71.1076L91.9497 66.2863C92.4227 66.1503 92.7857 66.0925 93.0227 66.1023C93.2767 66.1218 93.5867 66.2089 93.9137 66.3832L95.6057 67.2854C95.8967 67.44 95.9147 67.6054 95.6057 67.7707C95.5147 67.8187 95.4047 67.8578 95.2777 67.9058C95.0884 67.9758 94.8939 68.0343 94.6957 68.0809L76.2527 73.2418C75.7787 73.3778 75.4157 73.4356 75.1607 73.416C74.8505 73.385 74.5521 73.2923 74.2877 73.1449L72.7237 72.3103C72.3777 72.1263 72.1957 71.9707 72.1787 71.8258C72.1597 71.68 72.2697 71.4863 72.5607 71.2534L81.4727 63.4925L66.9577 68.2454C66.5027 68.3912 66.1577 68.4587 65.8847 68.4498C65.6117 68.44 65.3027 68.3334 64.9757 68.1583L63.4107 67.3245V67.3245ZM50.7697 58.4872C51.3697 58.8072 52.0977 59.0783 52.9707 59.3112C53.8437 59.544 54.8257 59.6409 55.8617 59.6116C56.4987 59.5832 57.0997 59.496 57.6457 59.3209C58.2591 59.1232 58.8495 58.8731 59.4087 58.5743L60.1737 58.1663C59.7425 57.7907 59.2871 57.4378 58.8097 57.1094C58.2977 56.7587 57.7631 56.4349 57.2087 56.1396C55.9897 55.4889 54.8617 55.1405 53.7717 55.0818C52.7264 55.0143 51.6834 55.238 50.7877 55.7218C49.9337 56.1778 49.5147 56.6338 49.5327 57.1094C49.5147 57.5849 49.9337 58.0409 50.7697 58.4872M60.9187 60.9512C60.2457 61.3103 59.7727 61.64 59.5007 61.9209C59.2205 62.2346 58.9766 62.5726 58.7727 62.9298C58.7152 63.0531 58.6127 63.1555 58.4817 63.2205C58.2997 63.3174 58.0087 63.3565 57.5907 63.328L55.6807 63.1236C55.4077 63.0943 55.1887 63.0365 55.0437 62.9592C54.959 62.9152 54.888 62.8532 54.8372 62.7787C54.7864 62.7042 54.7573 62.6195 54.7527 62.5325C54.7717 62.2507 54.8437 61.9787 54.9527 61.7272C55.1021 61.4268 55.2724 61.1349 55.4627 60.8534C52.3697 60.9894 49.7507 60.4854 47.6047 59.3405C46.0767 58.5254 45.2947 57.6427 45.2757 56.7014C45.2587 55.7609 45.9677 54.8978 47.4227 54.1218C48.9687 53.2969 50.7697 52.9183 52.8247 53.0063C54.8807 53.0934 56.8267 53.6267 58.6997 54.6258C59.3177 54.9556 59.8997 55.3245 60.4817 55.7316C61.0637 56.1396 61.6097 56.5858 62.1747 57.0605L63.5017 56.352C64.8847 55.6152 65.5577 54.9458 65.5577 54.3449C65.5387 53.7334 64.8297 53.064 63.4297 52.3174C62.7307 51.9486 61.9937 51.6399 61.2287 51.3956C60.3814 51.1187 59.5194 50.879 58.6457 50.6774C58.351 50.6178 58.0593 50.5466 57.7717 50.464C57.6521 50.4327 57.5365 50.3904 57.4267 50.3378C57.1717 50.2018 57.2267 50.0374 57.6087 49.8338L58.4997 49.3583C58.7907 49.2027 59.0457 49.1067 59.2637 49.0872C59.4817 49.0676 59.7727 49.0872 60.1547 49.1547C61.1187 49.3192 62.1557 49.5814 63.2657 49.9405C64.3937 50.2898 65.4477 50.736 66.4487 51.2694C68.6127 52.4232 69.7047 53.5298 69.7407 54.5965C69.7587 55.6543 68.7767 56.7209 66.7757 57.7885L60.8827 60.9316L60.9187 60.9512V60.9512Z" fill="#252F3E"/>
<path fill-rule="evenodd" clip-rule="evenodd" d="M80.8892 86.5991C70.4852 85.7653 59.4452 82.3787 51.9692 78.392C41.4922 72.8045 35.9262 65.704 35.2352 58.4667C35.1802 57.8942 36.3802 57.7973 36.6542 58.3698C39.8912 64.8693 46.6942 71.3885 56.5352 76.6365C63.1732 80.1769 71.8492 83.3298 81.3992 85.3965C82.8542 85.6871 82.5992 86.7351 80.8892 86.5991" fill="#FF9700"/>
<path fill-rule="evenodd" clip-rule="evenodd" d="M86.2191 86.4152C86.4371 85.4845 81.6351 83.4667 79.4521 82.5547C78.7971 82.2827 79.2161 81.9627 80.1251 82.0401C85.9461 82.5832 90.8751 85.9503 90.7301 86.7263C90.5661 87.5112 84.1091 90.0632 78.2151 89.7912C77.3061 89.7521 77.0511 89.3841 77.8161 89.2089C80.3431 88.6374 86.0191 87.3369 86.2191 86.4152Z" fill="#FF9700"/>
<path d="M207.605 99.2338L202.524 101.944L209.465 102.938L214.552 100.225L207.605 99.2338Z" fill="#4040B0"/>
<path d="M194.539 100.992L196.399 104.696L201.483 101.984L199.623 98.28L194.539 100.992ZM203.217 91.1529L198.133 93.864L199.993 97.568L205.078 94.856L203.217 91.1529V91.1529ZM205.265 95.2711L207.123 98.976L202.042 101.686L200.182 97.9822L205.265 95.2711V95.2711Z" fill="#5C4EE3"/>
<path d="M168.205 83.0604C170.006 82.6711 169.859 81.9698 169.13 81.5804L162.022 77.6862C161.828 77.5822 162.12 77.4267 162.412 77.5307L169.81 81.3733C170.687 81.7884 172.342 81.944 173.511 81.6329C173.511 81.6329 175.019 81.3467 175.116 81.2435C177.141 79.5991 176.283 77.3911 173.2 76.312C171.212 75.6151 168.678 75.536 166.55 76.1031C165.917 74.4675 162.315 74.312 160.952 75.5058C158.47 74.3378 155.549 75.0124 154.526 75.8178C154.478 75.8435 154.478 75.8951 154.575 75.9475L167.913 83.0604C167.961 83.0862 168.107 83.112 168.205 83.0604Z" fill="#F18020"/>
<path d="M175.602 81.7102C175.408 81.6062 175.359 81.5289 175.212 81.5547L173.947 81.9698C172.925 82.256 172.632 82.8267 173.412 83.2942L174.872 84.1769C175.067 84.2809 174.775 84.4365 174.483 84.3325L172.828 83.5022C170.88 82.6711 168.69 83.32 168.69 83.32C168.592 83.3716 168.544 83.3973 168.641 83.4498L174.142 86.3831L174.385 86.4098C177.072 85.6071 178.031 83.7947 176.527 82.3618C176.254 82.1075 175.943 81.8882 175.602 81.7102" fill="#F8AC40"/>
<path d="M138.409 95.2427C138.263 95.1745 138.107 95.1248 137.945 95.0952L130.483 93.6889C130.093 93.6154 129.687 93.6391 129.311 93.7574L122.646 95.9832C122.337 96.0863 122.119 96.2534 122.044 96.4445C122.034 96.4672 122.027 96.4908 122.022 96.5147L121.172 100.696C121.128 100.915 121.272 101.133 121.566 101.291L127.172 104.279C127.466 104.436 127.876 104.513 128.287 104.49L136.126 104.035C136.537 104.012 136.904 103.889 137.123 103.702L141.295 100.147C141.513 99.9601 141.56 99.7298 141.422 99.5218L138.783 95.5423C138.691 95.4145 138.561 95.311 138.409 95.2427" fill="#326CE3"/>
<path d="M129.713 99.9227C129.753 99.9414 129.787 99.9693 129.811 100.004C129.824 100.022 129.831 100.043 129.833 100.065C129.834 100.086 129.828 100.108 129.817 100.127L129.822 100.131L129.202 101.282C129.069 101.247 128.938 101.208 128.809 101.164C128.087 100.922 127.541 100.588 127.192 100.207L129.346 99.8773H129.347C129.471 99.8562 129.6 99.8721 129.713 99.9227M129.034 98.8782C129.153 98.9431 129.178 99.0453 129.083 99.1253C129.033 99.1658 128.971 99.1934 128.904 99.2053L128.903 99.2107L126.838 99.6676C126.636 99.1724 126.729 98.6427 127.153 98.1591L128.979 98.8498L128.978 98.8533C128.998 98.8604 129.018 98.8693 129.034 98.8782M131.685 100.284C131.706 100.295 131.725 100.308 131.741 100.32L131.747 100.319L133.055 101.3C132.13 101.527 131.163 101.586 130.212 101.473L131.076 100.36H131.081C131.155 100.26 131.364 100.209 131.556 100.244C131.605 100.253 131.649 100.268 131.685 100.284M131.418 98.7636L131.904 99.0231L131.829 99.3858L131.249 99.5796L130.603 99.4587L130.375 99.1129L130.738 98.8036L131.418 98.7636ZM135.468 99.704C135.359 99.9511 135.173 100.193 134.906 100.42C134.625 100.653 134.305 100.847 133.958 100.995L132.87 99.944L132.875 99.9404C132.776 99.8471 132.83 99.728 133.002 99.6702C133.075 99.647 133.152 99.637 133.229 99.6409L133.231 99.6382L135.468 99.704V99.704ZM130.134 96.8587L130.259 98.0578L130.251 98.0613C130.266 98.168 130.119 98.2622 129.918 98.2747C129.841 98.2795 129.763 98.2711 129.689 98.2498L129.683 98.2516L127.722 97.6747C128.353 97.2551 129.208 96.9778 130.134 96.8587M134.649 97.7049C135.252 98.1164 135.576 98.6222 135.586 99.136L133.379 98.936L133.377 98.9324C133.179 98.9156 133.037 98.8187 133.061 98.7111C133.069 98.6667 133.105 98.6276 133.156 98.5982V98.5964L134.649 97.7049ZM133.892 97.3004L132.216 98.0987L132.207 98.0969C132.126 98.1325 132.036 98.1505 131.946 98.1495C131.855 98.1484 131.766 98.1282 131.686 98.0907C131.636 98.0673 131.597 98.0275 131.579 97.9796H131.575L131.197 96.7947C131.988 96.7936 132.772 96.917 133.514 97.1591C133.646 97.2027 133.772 97.2507 133.892 97.3004ZM136.613 96.2524C136.447 96.1636 136.161 96.1716 135.976 96.2702L135.968 96.2747C135.942 96.2889 135.911 96.304 135.89 96.3164C135.787 96.3751 135.729 96.4311 135.644 96.4916C135.458 96.6178 135.305 96.7218 135.129 96.8018C135.047 96.8255 134.961 96.836 134.875 96.8329L134.74 96.8969C134.535 96.8052 134.324 96.723 134.109 96.6507C133.147 96.3271 132.067 96.1822 131.007 96.1991C130.996 96.1662 130.985 96.133 130.976 96.0996C130.914 96.0747 130.843 96.0542 130.814 95.9947C130.769 95.8738 130.772 95.7413 130.774 95.5813C130.777 95.5058 130.797 95.4427 130.786 95.3627L130.773 95.2978C130.764 95.2655 130.748 95.2352 130.725 95.2087C130.703 95.1821 130.675 95.1598 130.642 95.1431C130.537 95.0877 130.416 95.0625 130.294 95.0711C130.06 95.0862 129.894 95.2098 129.923 95.3484L129.924 95.3529C129.928 95.3724 129.932 95.3964 129.937 95.4133C129.959 95.4933 130.005 95.552 130.04 95.6249C130.109 95.7813 130.166 95.9102 130.174 96.0338C130.171 96.0844 130.092 96.1351 130.061 96.1582L130.07 96.256C128.772 96.3956 127.567 96.7822 126.728 97.3813L126.565 97.3333C126.487 97.3387 126.373 97.3493 126.303 97.3342C126.086 97.2678 125.875 97.187 125.672 97.0924C125.565 97.0444 125.484 96.9964 125.359 96.9502L125.26 96.9173L125.257 96.9164C125.255 96.9164 125.253 96.9158 125.251 96.9147C125.029 96.8427 124.751 96.8684 124.627 96.9751C124.502 97.0809 124.578 97.2258 124.796 97.3004C124.798 97.3013 124.799 97.3019 124.801 97.3022L124.809 97.3049C124.84 97.3147 124.877 97.3289 124.904 97.3369C125.035 97.3778 125.151 97.3956 125.279 97.4258C125.552 97.4951 125.776 97.5511 125.962 97.6249C126.034 97.6578 126.059 97.72 126.074 97.7502L126.229 97.808C125.592 98.4711 125.467 99.2151 125.795 99.8987L125.609 99.9396C125.574 99.9868 125.523 100.023 125.464 100.044C125.254 100.094 124.992 100.126 124.699 100.161C124.561 100.176 124.441 100.18 124.296 100.204C124.261 100.209 124.211 100.22 124.176 100.226C123.932 100.274 123.797 100.405 123.874 100.524C123.952 100.643 124.215 100.701 124.462 100.655H124.464C124.499 100.648 124.547 100.641 124.578 100.634C124.72 100.604 124.817 100.567 124.942 100.533C125.224 100.468 125.479 100.38 125.72 100.368C125.786 100.369 125.852 100.381 125.913 100.404L126.106 100.374C126.538 100.892 127.25 101.348 128.213 101.672C128.432 101.746 128.657 101.81 128.888 101.866C128.87 101.897 128.853 101.929 128.836 101.962C128.871 101.998 128.919 102.033 128.897 102.093C128.838 102.213 128.728 102.332 128.596 102.476C128.531 102.542 128.462 102.595 128.406 102.67L128.366 102.732C128.279 102.863 128.391 103.004 128.613 103.045C128.834 103.087 129.082 103.015 129.171 102.885L129.213 102.82C129.258 102.743 129.265 102.679 129.292 102.606C129.357 102.449 129.41 102.319 129.504 102.207C129.558 102.152 129.635 102.141 129.705 102.124C129.707 102.111 129.756 102.059 129.776 102.032C131.107 102.215 132.511 102.124 133.711 101.793C133.743 101.817 133.8 101.86 133.817 101.874C133.893 101.882 133.974 101.884 134.049 101.931C134.187 102.028 134.293 102.149 134.421 102.293C134.479 102.363 134.512 102.424 134.588 102.494C134.604 102.509 134.629 102.529 134.649 102.545L134.652 102.549L134.656 102.552C134.797 102.668 135.069 102.708 135.268 102.643C135.466 102.576 135.515 102.428 135.38 102.309C135.359 102.292 135.333 102.268 135.313 102.252C135.228 102.185 135.137 102.142 135.046 102.084C134.857 101.96 134.7 101.857 134.593 101.748C134.555 101.701 134.585 101.637 134.594 101.608L134.508 101.524C135.004 101.331 135.459 101.065 135.856 100.738C136.226 100.422 136.471 100.084 136.598 99.7378L136.801 99.744C136.86 99.7182 136.913 99.6853 137.029 99.6827C137.26 99.6871 137.502 99.7173 137.794 99.7547C137.931 99.7733 138.042 99.7982 138.192 99.8107L138.313 99.8169C138.572 99.8329 138.806 99.744 138.832 99.6187C138.859 99.4942 138.669 99.3796 138.408 99.3644C138.371 99.3618 138.322 99.3582 138.287 99.3573C138.137 99.3511 138.018 99.3609 137.877 99.3636C137.576 99.3644 137.327 99.3662 137.101 99.3422C137.008 99.3298 136.934 99.2773 136.898 99.2551L136.7 99.2373C136.733 98.5218 136.279 97.8116 135.403 97.2533L135.531 97.1778C135.53 97.1369 135.515 97.0942 135.584 97.0444C135.734 96.9502 135.93 96.8693 136.166 96.7707C136.279 96.7253 136.384 96.6942 136.495 96.6391C136.521 96.6267 136.554 96.6071 136.58 96.5929C136.766 96.4942 136.78 96.3413 136.613 96.2524Z" fill="white"/>
<path d="M129.713 99.9227C129.753 99.9414 129.787 99.9693 129.811 100.004C129.824 100.022 129.831 100.043 129.833 100.065C129.834 100.086 129.828 100.108 129.817 100.127L129.822 100.131L129.202 101.282C129.069 101.247 128.938 101.208 128.809 101.164C128.087 100.922 127.541 100.588 127.192 100.207L129.346 99.8773H129.347C129.471 99.8562 129.6 99.8721 129.713 99.9227V99.9227ZM129.034 98.8782C129.153 98.9431 129.178 99.0453 129.083 99.1253C129.033 99.1658 128.971 99.1934 128.904 99.2053L128.903 99.2107L126.838 99.6676C126.636 99.1724 126.729 98.6427 127.153 98.1591L128.979 98.8498L128.978 98.8533C128.998 98.8604 129.018 98.8693 129.034 98.8782V98.8782ZM131.685 100.284C131.706 100.295 131.725 100.308 131.741 100.32L131.747 100.319L133.055 101.3C132.13 101.527 131.163 101.586 130.212 101.473L131.076 100.36H131.081C131.155 100.26 131.364 100.209 131.556 100.244C131.605 100.253 131.649 100.268 131.685 100.284V100.284ZM131.418 98.7636L131.904 99.0231L131.829 99.3858L131.249 99.5796L130.603 99.4587L130.375 99.1129L130.738 98.8036L131.418 98.7636ZM135.468 99.704C135.359 99.9511 135.173 100.193 134.906 100.42C134.625 100.653 134.305 100.847 133.958 100.995L132.87 99.944L132.875 99.9404C132.776 99.8471 132.83 99.728 133.002 99.6702C133.075 99.647 133.152 99.637 133.229 99.6409L133.231 99.6382L135.468 99.704V99.704ZM130.134 96.8587L130.259 98.0578L130.251 98.0613C130.266 98.168 130.119 98.2622 129.918 98.2747C129.841 98.2795 129.763 98.2711 129.689 98.2498L129.683 98.2516L127.722 97.6747C128.353 97.2551 129.208 96.9778 130.134 96.8587V96.8587ZM134.649 97.7049C135.252 98.1164 135.576 98.6222 135.586 99.136L133.379 98.936L133.377 98.9324C133.179 98.9156 133.037 98.8187 133.061 98.7111C133.069 98.6667 133.105 98.6276 133.156 98.5982V98.5964L134.649 97.7049ZM133.892 97.3004L132.216 98.0987L132.207 98.0969C132.126 98.1325 132.036 98.1505 131.946 98.1495C131.855 98.1484 131.766 98.1282 131.686 98.0907C131.636 98.0673 131.597 98.0275 131.579 97.9796H131.575L131.197 96.7947C131.988 96.7936 132.772 96.917 133.514 97.1591C133.646 97.2027 133.772 97.2507 133.892 97.3004ZM136.613 96.2524C136.447 96.1636 136.161 96.1716 135.976 96.2702L135.968 96.2747C135.942 96.2889 135.911 96.304 135.89 96.3164C135.787 96.3751 135.729 96.4311 135.644 96.4916C135.458 96.6178 135.305 96.7218 135.129 96.8018C135.047 96.8255 134.961 96.836 134.875 96.8329L134.74 96.8969C134.535 96.8052 134.324 96.723 134.109 96.6507C133.147 96.3271 132.067 96.1822 131.007 96.1991C130.996 96.1662 130.985 96.133 130.976 96.0996C130.914 96.0747 130.843 96.0542 130.814 95.9947C130.769 95.8738 130.772 95.7413 130.774 95.5813C130.777 95.5058 130.797 95.4427 130.786 95.3627L130.773 95.2978C130.764 95.2655 130.748 95.2352 130.725 95.2087C130.703 95.1821 130.675 95.1598 130.642 95.1431C130.537 95.0877 130.416 95.0625 130.294 95.0711C130.06 95.0862 129.894 95.2098 129.923 95.3484L129.924 95.3529C129.928 95.3724 129.932 95.3964 129.937 95.4133C129.959 95.4933 130.005 95.552 130.04 95.6249C130.109 95.7813 130.166 95.9102 130.174 96.0338C130.171 96.0844 130.092 96.1351 130.061 96.1582L130.07 96.256C128.772 96.3956 127.567 96.7822 126.728 97.3813L126.565 97.3333C126.487 97.3387 126.373 97.3493 126.303 97.3342C126.086 97.2678 125.875 97.187 125.672 97.0924C125.565 97.0444 125.484 96.9964 125.359 96.9502L125.26 96.9173L125.257 96.9164C125.255 96.9164 125.253 96.9158 125.251 96.9147C125.029 96.8427 124.751 96.8684 124.627 96.9751C124.502 97.0809 124.578 97.2258 124.796 97.3004C124.798 97.3013 124.799 97.3019 124.801 97.3022L124.809 97.3049C124.84 97.3147 124.877 97.3289 124.904 97.3369C125.035 97.3778 125.151 97.3956 125.279 97.4258C125.552 97.4951 125.776 97.5511 125.962 97.6249C126.034 97.6578 126.059 97.72 126.074 97.7502L126.229 97.808C125.592 98.4711 125.467 99.2151 125.795 99.8987L125.609 99.9396C125.574 99.9868 125.523 100.023 125.464 100.044C125.254 100.094 124.992 100.126 124.699 100.161C124.561 100.176 124.441 100.18 124.296 100.204C124.261 100.209 124.211 100.22 124.176 100.226C123.932 100.274 123.797 100.405 123.874 100.524C123.952 100.643 124.215 100.701 124.462 100.655H124.464C124.499 100.648 124.547 100.641 124.578 100.634C124.72 100.604 124.817 100.567 124.942 100.533C125.224 100.468 125.479 100.38 125.72 100.368C125.786 100.369 125.852 100.381 125.913 100.404L126.106 100.374C126.538 100.892 127.25 101.348 128.213 101.672C128.432 101.746 128.657 101.81 128.888 101.866C128.87 101.897 128.853 101.929 128.836 101.962C128.871 101.998 128.919 102.033 128.897 102.093C128.838 102.213 128.728 102.332 128.596 102.476C128.531 102.542 128.462 102.595 128.406 102.67L128.366 102.732C128.279 102.863 128.391 103.004 128.613 103.045C128.834 103.087 129.082 103.015 129.171 102.885L129.213 102.82C129.258 102.743 129.265 102.679 129.292 102.606C129.357 102.449 129.41 102.319 129.504 102.207C129.558 102.152 129.635 102.141 129.705 102.124C129.707 102.111 129.756 102.059 129.776 102.032C131.107 102.215 132.511 102.124 133.711 101.793C133.743 101.817 133.8 101.86 133.817 101.874C133.893 101.882 133.974 101.884 134.049 101.931C134.187 102.028 134.293 102.149 134.421 102.293C134.479 102.363 134.512 102.424 134.588 102.494C134.604 102.509 134.629 102.529 134.649 102.545L134.652 102.549L134.656 102.552C134.797 102.668 135.069 102.708 135.268 102.643C135.466 102.576 135.515 102.428 135.38 102.309C135.359 102.292 135.333 102.268 135.313 102.252C135.228 102.185 135.137 102.142 135.046 102.084C134.857 101.96 134.7 101.857 134.593 101.748C134.555 101.701 134.585 101.637 134.594 101.608L134.508 101.524C135.004 101.331 135.459 101.065 135.856 100.738C136.226 100.422 136.471 100.084 136.598 99.7378L136.801 99.744C136.86 99.7182 136.913 99.6853 137.029 99.6827C137.26 99.6871 137.502 99.7173 137.794 99.7547C137.931 99.7733 138.042 99.7982 138.192 99.8107L138.313 99.8169C138.572 99.8329 138.806 99.744 138.832 99.6187C138.859 99.4942 138.669 99.3796 138.408 99.3644C138.371 99.3618 138.322 99.3582 138.287 99.3573C138.137 99.3511 138.018 99.3609 137.877 99.3636C137.576 99.3644 137.327 99.3662 137.101 99.3422C137.008 99.3298 136.934 99.2773 136.898 99.2551L136.7 99.2373C136.733 98.5218 136.279 97.8116 135.403 97.2533L135.531 97.1778C135.53 97.1369 135.515 97.0942 135.584 97.0444C135.734 96.9502 135.93 96.8693 136.166 96.7707C136.279 96.7253 136.384 96.6942 136.495 96.6391C136.521 96.6267 136.554 96.6071 136.58 96.5929C136.766 96.4942 136.78 96.3413 136.613 96.2524Z" stroke="white" stroke-width="0.25"/>
<path d="M85.5439 115.019C84.8169 114.63 84.8169 114 85.5439 113.612C86.2719 113.225 87.4529 113.225 88.1809 113.612C88.9079 114 88.9079 114.63 88.1809 115.019C87.4529 115.406 86.2719 115.406 85.5439 115.019ZM89.4929 112.912C88.0389 112.137 85.6859 112.137 84.2319 112.912C82.7769 113.688 82.7769 114.943 84.2319 115.719C85.6859 116.494 88.0389 116.494 89.4929 115.719C90.9479 114.943 90.9479 113.688 89.4929 112.912" fill="#007DBF"/>
<path d="M90.602 117.253C90.811 117.142 91.162 117.223 91.162 117.38C91.151 118.087 91.088 119.282 91.088 119.287C91.088 119.304 91.078 119.326 91.12 119.371C91.1502 119.398 91.1853 119.421 91.224 119.438L92.412 120.071C92.626 120.186 92.935 120.088 92.961 119.968L93.008 117.845V117.733C93.05 117.471 93.181 117.429 93.709 117.42L97.01 117.324C97.235 117.309 97.413 117.148 97.193 117.03L96.116 116.456C96.0799 116.435 96.0409 116.418 96 116.405C95.916 116.383 95.87 116.38 95.832 116.383C95.823 116.383 94.028 116.42 92.924 116.439C92.622 116.444 92.464 116.249 92.679 116.135L95.665 114.542C95.817 114.46 95.749 114.364 95.65 114.31L94.771 113.842C94.62 113.761 94.447 113.774 94.358 113.822L87.736 117.354C87.583 117.435 87.667 117.524 87.772 117.58L88.651 118.049C88.7151 118.082 88.7873 118.1 88.8612 118.102C88.9351 118.105 89.0085 118.091 89.075 118.062L89.143 118.027L90.597 117.251L90.602 117.253Z" fill="#007DBF"/>
<path d="M96.283 121.879L97.068 121.36C97.178 121.29 97.146 121.184 97.005 121.132C96.9297 121.102 96.8562 121.068 96.785 121.031C96.085 120.657 96.063 120.06 96.718 119.667L96.791 119.628L97.868 119.052C97.9446 119.015 98.0306 118.994 98.1182 118.994C98.2059 118.993 98.2924 119.011 98.37 119.047L99.548 119.676C99.631 119.72 99.83 119.748 99.981 119.667L100.813 119.223C100.975 119.137 100.954 119.036 100.86 118.986L99.673 118.353C99.537 118.28 99.526 118.169 99.657 118.093L100.991 117.381C101.075 117.337 101.137 117.236 100.975 117.15L100.101 116.684C100.038 116.651 99.9662 116.633 99.8929 116.632C99.8196 116.631 99.7473 116.647 99.683 116.678L95.399 118.964C94.012 119.742 94.045 120.97 95.472 121.731C95.593 121.796 95.719 121.851 95.849 121.904C95.99 121.963 96.179 121.952 96.283 121.879" fill="#007DBF"/>
<path d="M100.196 122.833C99.4682 122.444 99.4682 121.814 100.196 121.427C100.923 121.039 102.105 121.039 102.832 121.427C103.559 121.814 103.559 122.444 102.832 122.833C102.099 123.218 100.918 123.218 100.196 122.833ZM103.726 124.671C102.984 124.276 103.135 124.072 104.134 123.539L104.145 123.533L106.546 122.252C106.63 122.208 106.708 122.099 106.541 122.01L105.662 121.541C105.592 121.509 105.514 121.491 105.435 121.49C105.356 121.49 105.278 121.506 105.207 121.538L105.097 121.596C104.935 121.276 104.616 120.972 104.145 120.721C102.691 119.945 100.337 119.945 98.8832 120.721C97.4282 121.497 97.4282 122.752 98.8832 123.527C99.5372 123.876 100.374 124.066 101.226 124.102C101.095 124.434 101.242 124.78 101.859 125.115C101.964 125.171 102.508 125.483 102.774 125.34L103.711 124.842C103.79 124.799 103.815 124.719 103.726 124.671" fill="#007DBF"/>
<path fill-rule="evenodd" clip-rule="evenodd" d="M246.409 114.724C242.691 112.742 236.688 112.742 232.971 114.724C230.014 116.301 229.432 118.667 231.224 120.577C231.538 120.793 231.806 120.744 231.985 120.649L233.15 120.028C230.866 119.24 231.762 118.332 231.762 118.332C232.21 117.758 231.985 117.4 231.985 117.4C231.762 116.851 232.433 117.209 232.433 117.209C233.06 117.591 232.792 118.116 232.792 118.116C232.344 118.977 233.642 119.335 234.225 119.454C234.641 119.269 235.105 119.186 235.569 119.216C234.27 118.332 233.285 117.185 235.838 115.823C236.555 115.442 237.45 115.25 238.302 115.226C238.39 115.083 238.839 114.605 240.138 114.295C240.138 114.295 240.899 114.509 241.303 115.632C241.974 115.847 242.646 116.11 243.228 116.42C243.81 116.732 244.304 117.09 244.707 117.448C246.856 117.687 247.215 118.069 247.215 118.069C246.633 118.762 245.737 119.001 245.468 119.049C245.468 119.526 245.065 119.98 244.348 120.363C241.75 121.748 239.645 121.198 237.988 120.506C237.988 120.744 237.808 121.079 237.181 121.413L235.345 122.393C235.166 122.488 235.076 122.68 235.479 122.799C239.062 123.755 243.452 123.42 246.409 121.844C250.126 119.908 250.126 116.708 246.409 114.724Z" fill="#181616"/>
</g>
<defs>
<clipPath id="clip0_1851_13379">
<rect width="307" height="128" fill="white"/>
</clipPath>
</defs>
</svg>
