<?xml version="1.0" encoding="UTF-8" standalone="no"?>
<svg
   width="307"
   height="128"
   viewBox="0 0 307 128"
   fill="none"
   version="1.1"
   id="svg5346"
   sodipodi:docname="section1_new.svg"
   inkscape:version="1.2.1 (9c6d41e, 2022-07-14)"
   xmlns:inkscape="http://www.inkscape.org/namespaces/inkscape"
   xmlns:sodipodi="http://sodipodi.sourceforge.net/DTD/sodipodi-0.dtd"
   xmlns="http://www.w3.org/2000/svg"
   xmlns:svg="http://www.w3.org/2000/svg">
  <sodipodi:namedview
     id="namedview5348"
     pagecolor="#ffffff"
     bordercolor="#000000"
     borderopacity="0.25"
     inkscape:showpageshadow="2"
     inkscape:pageopacity="0.0"
     inkscape:pagecheckerboard="0"
     inkscape:deskcolor="#d1d1d1"
     showgrid="false"
     inkscape:zoom="1.7036682"
     inkscape:cx="91.273639"
     inkscape:cy="55.175062"
     inkscape:window-width="1309"
     inkscape:window-height="864"
     inkscape:window-x="90"
     inkscape:window-y="90"
     inkscape:window-maximized="0"
     inkscape:current-layer="svg5346" />
  <g
     clip-path="url(#clip0_1851_13379)"
     id="g5339">
    <path
       d="M 257.607,102.981 205.271,75.0694 c -5.56,-2.9645 -5.56,-7.7725 0,-10.7369 l 52.336,-27.912 c 5.559,-2.9654 14.572,-2.9654 20.131,0 l 52.336,27.912 c 5.558,2.9644 5.558,7.7724 0,10.7369 l -52.336,27.9116 c -5.559,2.965 -14.572,2.965 -20.131,0 z"
       fill="#ffffff"
       id="path5283" />
    <path
       d="m 286.864,63.5902 -21.71,5.5138 -2.795,13.1183 -24.781,-9.3405 34.659,18.4853 z m 0.931,-2.3866 -24.873,-0.944 -31.773,4.8195 10.25,5.4667 z"
       fill="#0072c4"
       id="path5285" />
    <path
       d="M 157.961,49.8373 105.619,21.9218 c -5.559,-2.9645 -5.559,-7.7716 0,-10.7369 l 52.342,-27.9156 c 5.559,-2.9653 14.572,-2.9653 20.131,0 l 52.342,27.9156 c 5.559,2.9653 5.559,7.7724 0,10.7369 l -52.342,27.9155 c -5.559,2.9645 -14.572,2.9645 -20.131,0 z"
       fill="#ffffff"
       id="path5287" />
    <path
       d="M 58.3103,102.985 5.9683,75.0694 c -5.557995,-2.9645 -5.557995,-7.7716 0,-10.7369 l 52.342,-27.9156 c 5.56,-2.9653 14.572,-2.9653 20.132,0 l 52.3417,27.9156 c 5.558,2.9653 5.558,7.7724 0,10.7369 L 78.4423,102.985 c -5.56,2.964 -14.572,2.964 -20.132,0 z"
       fill="#ffffff"
       id="path5289" />
    <path
       d="M 162.994,91.1743 145.883,82.048 c -2.78,-1.4826 -2.78,-3.8862 0,-5.3689 l 17.111,-9.1262 c 2.78,-1.4818 7.286,-1.4818 10.066,0 l 17.112,9.1262 c 2.779,1.4827 2.779,3.8863 0,5.3689 l -17.112,9.1263 c -2.78,1.4826 -7.286,1.4826 -10.066,0 z"
       fill="#ffffff"
       id="path5291" />
    <path
       d="m 199.231,110.5 -17.112,-9.126 c -2.78,-1.4824 -2.78,-3.886 0,-5.3686 l 17.112,-9.1262 c 2.779,-1.4827 7.286,-1.4827 10.065,0 l 17.112,9.1262 c 2.78,1.4826 2.78,3.8862 0,5.3686 l -17.112,9.126 c -2.779,1.482 -7.286,1.482 -10.065,0 z"
       fill="#ffffff"
       id="path5293" />
    <path
       d="M 90.5212,129.827 73.4092,120.7 c -2.78,-1.482 -2.78,-3.886 0,-5.368 l 17.112,-9.126 c 2.779,-1.482 7.286,-1.482 10.0648,0 l 17.112,9.126 c 2.78,1.482 2.78,3.886 0,5.368 l -17.112,9.127 c -2.7788,1.482 -7.2858,1.482 -10.0648,0 z"
       fill="#ffffff"
       id="path5295" />
    <path
       d="M 235.467,129.827 218.356,120.7 c -2.781,-1.482 -2.781,-3.886 0,-5.368 l 17.111,-9.126 c 2.779,-1.482 7.286,-1.482 10.065,0 l 17.113,9.126 c 2.779,1.482 2.779,3.886 0,5.368 l -17.113,9.127 c -2.779,1.482 -7.286,1.482 -10.065,0 z"
       fill="#ffffff"
       id="path5297" />
    <path
       d="m 126.757,110.5 -17.111,-9.126 c -2.781,-1.4824 -2.781,-3.886 0,-5.3686 l 17.111,-9.1262 c 2.779,-1.4827 7.286,-1.4827 10.065,0 l 17.113,9.1262 c 2.779,1.4826 2.779,3.8862 0,5.3686 l -17.113,9.126 c -2.779,1.482 -7.286,1.482 -10.065,0 z"
       fill="#ffffff"
       id="path5299" />
    <path
       d="m 182.627,15.1893 h 6.343 l 1.546,-0.5991 C 189.992,8.70579 180.211,4.12446 169.1,4.49423 c -3.086,0.10223 -6.203,0.61956 -8.886,1.44 l 1.296,0.52 7.388,2.82489 0.99,-0.00622 c 5.919,-0.14755 11.106,2.1742 11.727,5.3173 z"
       fill="#e84335"
       id="path5301" />
    <path
       d="m 187.879,20.5893 c 1.955,-1.8204 2.872,-3.9049 2.637,-5.9991 h -8.901 c 0.344,1.8213 -0.899,3.6258 -3.371,4.8951 l -0.79,0.4214 c 2.188,1.1671 2.188,3.0586 0,4.2248 -2.187,1.1672 -5.69,1.1432 -7.878,-0.024 l -7.932,-4.2302 -1.625,0.0356 -4.75,2.5333 0.033,0.8133 7.932,4.2312 c 5.646,3.0577 14.827,3.12 20.561,0.1093 3.476,-1.8258 5.009,-4.456 4.084,-7.0107 z"
       fill="#4283f2"
       id="path5303" />
    <path
       d="m 147.381,19.0347 7.922,4.2249 6.342,-3.3823 -7.922,-4.2249 c -0.565,-0.3013 -0.989,-0.6568 -1.269,-1.056 l -1.469,-0.416 -6.364,-0.0115 -1.357,0.4275 c 0.439,1.6765 1.863,3.2472 4.117,4.4383 z"
       fill="#34a653"
       id="path5305" />
    <path
       d="M 167.952,8.06222 C 162.228,5.04533 153.003,5.07556 147.347,8.128 c -3.159,1.70489 -4.666,4.0916 -4.084,6.4676 h 9.19 c -1.093,-1.544 0.367,-3.2676 3.262,-3.8498 2.894,-0.5831 6.127,0.1955 7.219,1.7386 0.482,0.68 0.482,1.4312 0,2.1112 h 9.19 c 0.601,-2.4063 -0.943,-4.82315 -4.172,-6.53338 z"
       fill="#f9ba05"
       id="path5307" />
    <path
       d="m 86.2927,80.0516 c -0.8947,-0.469 -1.7249,-1.0289 -2.474,-1.6684 -0.691,-0.6018 -1.164,-1.1058 -1.364,-1.5032 -0.127,-0.2426 -0.145,-0.4471 -0.055,-0.5724 0.1042,-0.1353 0.2412,-0.248 0.401,-0.3298 l 0.928,-0.4951 c 0.381,-0.2035 0.709,-0.2231 0.982,-0.0782 0.108,0.0587 0.2,0.1271 0.272,0.2044 0.074,0.0774 0.164,0.2036 0.273,0.3396 0.3852,0.5186 0.8436,0.9912 1.364,1.4062 0.582,0.4658 1.219,0.8827 1.946,1.2711 1.147,0.6107 2.238,0.9796 3.256,1.096 1.019,0.1165 1.929,-0.0195 2.674,-0.4169 0.51,-0.272 0.764,-0.5822 0.782,-0.9413 0.019,-0.3591 -0.291,-0.8533 -0.891,-1.4836 l -1.819,-1.8435 c -0.909,-0.9316 -1.273,-1.7849 -1.054,-2.5413 0.199,-0.7476 0.782,-1.3876 1.727,-1.8916 0.7711,-0.4104 1.6228,-0.687 2.51,-0.8151 0.91,-0.136 1.855,-0.1751 2.802,-0.0969 0.964,0.0676 1.8913,0.232 2.8373,0.504 0.946,0.272 1.8,0.6311 2.601,1.0578 0.401,0.2133 0.8,0.4462 1.146,0.688 0.364,0.2524 0.673,0.4951 0.982,0.7378 0.273,0.2426 0.528,0.4755 0.746,0.7075 0.218,0.2338 0.364,0.4276 0.437,0.5822 0.108,0.2134 0.145,0.3885 0.091,0.5343 -0.037,0.136 -0.183,0.2711 -0.437,0.4071 l -0.855,0.456 c -0.382,0.2035 -0.728,0.2329 -1,0.0871 -0.146,-0.0774 -0.31,-0.2427 -0.473,-0.4845 -0.564,-0.8062 -1.492,-1.5529 -2.783,-2.2409 -1.037,-0.5528 -2.0193,-0.9022 -2.9293,-1.0186 -0.909,-0.1174 -1.727,0.0089 -2.474,0.4071 -0.508,0.2711 -0.763,0.6018 -0.746,0.9795 0.019,0.3787 0.346,0.9218 1.001,1.6009 l 1.765,1.8143 c 0.891,0.9217 1.255,1.736 1.072,2.4346 -0.181,0.6987 -0.763,1.2996 -1.709,1.8045 -0.7982,0.4206 -1.672,0.7159 -2.583,0.8729 -0.9648,0.1609 -1.949,0.2099 -2.928,0.1457 -1.0336,-0.0654 -2.054,-0.2445 -3.038,-0.5333 -1.0435,-0.2885 -2.0448,-0.6859 -2.983,-1.184 M 63.4107,67.3245 c -0.327,-0.1751 -0.491,-0.32 -0.509,-0.4658 -0.037,-0.136 0.091,-0.3395 0.328,-0.5822 l 9.785,-9.7787 c 0.255,-0.2515 0.436,-0.4071 0.564,-0.4746 0.291,-0.1556 0.6,-0.1654 0.891,-0.0098 l 1.783,0.9502 c 0.346,0.184 0.527,0.3396 0.527,0.4756 0.036,0.136 -0.109,0.3297 -0.345,0.5724 l -8.986,8.0516 14.879,-4.9085 c 0.454,-0.1458 0.8,-0.2142 1.055,-0.1947 0.255,0.0196 0.582,0.1165 0.909,0.2916 l 1.455,0.776 c 0.346,0.184 0.527,0.3396 0.546,0.4853 0.036,0.1351 -0.091,0.3387 -0.363,0.5627 l -9.314,8.032 15.334,-4.8213 c 0.473,-0.136 0.836,-0.1938 1.073,-0.184 0.254,0.0195 0.564,0.1066 0.891,0.2809 l 1.692,0.9022 c 0.291,0.1546 0.309,0.32 0,0.4853 -0.091,0.048 -0.201,0.0871 -0.328,0.1351 -0.1893,0.07 -0.3838,0.1285 -0.582,0.1751 l -18.443,5.1609 c -0.474,0.136 -0.837,0.1938 -1.092,0.1742 -0.3102,-0.031 -0.6086,-0.1237 -0.873,-0.2711 l -1.564,-0.8346 c -0.346,-0.184 -0.528,-0.3396 -0.545,-0.4845 -0.019,-0.1458 0.091,-0.3395 0.382,-0.5724 l 8.912,-7.7609 -14.515,4.7529 c -0.455,0.1458 -0.8,0.2133 -1.073,0.2044 -0.273,-0.0098 -0.582,-0.1164 -0.909,-0.2915 z m -12.641,-8.8373 c 0.6,0.32 1.328,0.5911 2.201,0.824 0.873,0.2328 1.855,0.3297 2.891,0.3004 0.637,-0.0284 1.238,-0.1156 1.784,-0.2907 0.6134,-0.1977 1.2038,-0.4478 1.763,-0.7466 l 0.765,-0.408 c -0.4312,-0.3756 -0.8866,-0.7285 -1.364,-1.0569 -0.512,-0.3507 -1.0466,-0.6745 -1.601,-0.9698 -1.219,-0.6507 -2.347,-0.9991 -3.437,-1.0578 -1.0453,-0.0675 -2.0883,0.1562 -2.984,0.64 -0.854,0.456 -1.273,0.912 -1.255,1.3876 -0.018,0.4755 0.401,0.9315 1.237,1.3778 m 10.149,2.464 c -0.673,0.3591 -1.146,0.6888 -1.418,0.9697 -0.2802,0.3137 -0.5241,0.6517 -0.728,1.0089 -0.0575,0.1233 -0.16,0.2257 -0.291,0.2907 -0.182,0.0969 -0.473,0.136 -0.891,0.1075 l -1.91,-0.2044 c -0.273,-0.0293 -0.492,-0.0871 -0.637,-0.1644 -0.0847,-0.044 -0.1557,-0.106 -0.2065,-0.1805 -0.0508,-0.0745 -0.0799,-0.1592 -0.0845,-0.2462 0.019,-0.2818 0.091,-0.5538 0.2,-0.8053 0.1494,-0.3004 0.3197,-0.5923 0.51,-0.8738 -3.093,0.136 -5.712,-0.368 -7.858,-1.5129 -1.528,-0.8151 -2.31,-1.6978 -2.329,-2.6391 -0.017,-0.9405 0.692,-1.8036 2.147,-2.5796 1.546,-0.8249 3.347,-1.2035 5.402,-1.1155 2.056,0.0871 4.002,0.6204 5.875,1.6195 0.618,0.3298 1.2,0.6987 1.782,1.1058 0.582,0.408 1.128,0.8542 1.693,1.3289 l 1.327,-0.7085 c 1.383,-0.7368 2.056,-1.4062 2.056,-2.0071 -0.019,-0.6115 -0.728,-1.2809 -2.128,-2.0275 -0.699,-0.3688 -1.436,-0.6775 -2.201,-0.9218 -0.8473,-0.2769 -1.7093,-0.5166 -2.583,-0.7182 -0.2947,-0.0596 -0.5864,-0.1308 -0.874,-0.2134 -0.1196,-0.0313 -0.2352,-0.0736 -0.345,-0.1262 -0.255,-0.136 -0.2,-0.3004 0.182,-0.504 l 0.891,-0.4755 c 0.291,-0.1556 0.546,-0.2516 0.764,-0.2711 0.218,-0.0196 0.509,0 0.891,0.0675 0.964,0.1645 2.001,0.4267 3.111,0.7858 1.128,0.3493 2.182,0.7955 3.183,1.3289 2.164,1.1538 3.256,2.2604 3.292,3.3271 0.018,1.0578 -0.964,2.1244 -2.965,3.192 l -5.893,3.1431 z"
       fill="#252f3e"
       id="path5309" />
    <path
       fill-rule="evenodd"
       clip-rule="evenodd"
       d="m 80.8892,86.5991 c -10.404,-0.8338 -21.444,-4.2204 -28.92,-8.2071 -10.477,-5.5875 -16.043,-12.688 -16.734,-19.9253 -0.055,-0.5725 1.145,-0.6694 1.419,-0.0969 3.237,6.4995 10.04,13.0187 19.881,18.2667 6.638,3.5404 15.314,6.6933 24.864,8.76 1.455,0.2906 1.2,1.3386 -0.51,1.2026"
       fill="#ff9700"
       id="path5311" />
    <path
       fill-rule="evenodd"
       clip-rule="evenodd"
       d="m 86.2191,86.4152 c 0.218,-0.9307 -4.584,-2.9485 -6.767,-3.8605 -0.655,-0.272 -0.236,-0.592 0.673,-0.5146 5.821,0.5431 10.75,3.9102 10.605,4.6862 -0.164,0.7849 -6.621,3.3369 -12.515,3.0649 -0.909,-0.0391 -1.164,-0.4071 -0.399,-0.5823 2.527,-0.5715 8.203,-1.872 8.403,-2.7937 z"
       fill="#ff9700"
       id="path5313" />
    <path
       d="m 207.605,99.2338 -5.081,2.7102 6.941,0.994 5.087,-2.713 z"
       fill="#4040b0"
       id="path5315" />
    <path
       d="m 194.539,100.992 1.86,3.704 5.084,-2.712 -1.86,-3.704 z m 8.678,-9.8391 -5.084,2.7111 1.86,3.704 5.085,-2.712 z m 2.048,4.1182 1.858,3.7049 -5.081,2.71 -1.86,-3.7038 z"
       fill="#5c4ee3"
       id="path5317" />
    <path
       d="m 168.205,83.0604 c 1.801,-0.3893 1.654,-1.0906 0.925,-1.48 l -7.108,-3.8942 c -0.194,-0.104 0.098,-0.2595 0.39,-0.1555 l 7.398,3.8426 c 0.877,0.4151 2.532,0.5707 3.701,0.2596 0,0 1.508,-0.2862 1.605,-0.3894 2.025,-1.6444 1.167,-3.8524 -1.916,-4.9315 -1.988,-0.6969 -4.522,-0.776 -6.65,-0.2089 -0.633,-1.6356 -4.235,-1.7911 -5.598,-0.5973 -2.482,-1.168 -5.403,-0.4934 -6.426,0.312 -0.048,0.0257 -0.048,0.0773 0.049,0.1297 l 13.338,7.1129 c 0.048,0.0258 0.194,0.0516 0.292,0 z"
       fill="#f18020"
       id="path5319" />
    <path
       d="m 175.602,81.7102 c -0.194,-0.104 -0.243,-0.1813 -0.39,-0.1555 l -1.265,0.4151 c -1.022,0.2862 -1.315,0.8569 -0.535,1.3244 l 1.46,0.8827 c 0.195,0.104 -0.097,0.2596 -0.389,0.1556 l -1.655,-0.8303 C 170.88,82.6711 168.69,83.32 168.69,83.32 c -0.098,0.0516 -0.146,0.0773 -0.049,0.1298 l 5.501,2.9333 0.243,0.0267 c 2.687,-0.8027 3.646,-2.6151 2.142,-4.048 -0.273,-0.2543 -0.584,-0.4736 -0.925,-0.6516"
       fill="#f8ac40"
       id="path5321" />
    <path
       d="m 138.409,95.2427 c -0.146,-0.0682 -0.302,-0.1179 -0.464,-0.1475 l -7.462,-1.4063 c -0.39,-0.0735 -0.796,-0.0498 -1.172,0.0685 l -6.665,2.2258 c -0.309,0.1031 -0.527,0.2702 -0.602,0.4613 -0.01,0.0227 -0.017,0.0463 -0.022,0.0702 l -0.85,4.1813 c -0.044,0.219 0.1,0.437 0.394,0.595 l 5.606,2.988 c 0.294,0.157 0.704,0.234 1.115,0.211 l 7.839,-0.455 c 0.411,-0.023 0.778,-0.146 0.997,-0.333 l 4.172,-3.555 c 0.218,-0.1869 0.265,-0.4172 0.127,-0.6252 l -2.639,-3.9795 c -0.092,-0.1278 -0.222,-0.2313 -0.374,-0.2996"
       fill="#326ce3"
       id="path5323" />
    <path
       d="m 129.713,99.9227 c 0.04,0.0187 0.074,0.0466 0.098,0.0813 0.013,0.018 0.02,0.039 0.022,0.061 0.001,0.021 -0.005,0.043 -0.016,0.062 l 0.005,0.004 -0.62,1.151 c -0.133,-0.035 -0.264,-0.074 -0.393,-0.118 -0.722,-0.242 -1.268,-0.576 -1.617,-0.957 l 2.154,-0.3297 h 0.001 c 0.124,-0.0211 0.253,-0.0052 0.366,0.0454 m -0.679,-1.0445 c 0.119,0.0649 0.144,0.1671 0.049,0.2471 -0.05,0.0405 -0.112,0.0681 -0.179,0.08 l -0.001,0.0054 -2.065,0.4569 c -0.202,-0.4952 -0.109,-1.0249 0.315,-1.5085 l 1.826,0.6907 -0.001,0.0035 c 0.02,0.0071 0.04,0.016 0.056,0.0249 m 2.651,1.4058 c 0.021,0.011 0.04,0.024 0.056,0.036 l 0.006,-10e-4 1.308,0.981 c -0.925,0.227 -1.892,0.286 -2.843,0.173 l 0.864,-1.113 h 0.005 c 0.074,-0.1 0.283,-0.151 0.475,-0.116 0.049,0.009 0.093,0.024 0.129,0.04 m -0.267,-1.5204 0.486,0.2595 -0.075,0.3627 -0.58,0.1938 -0.646,-0.1209 -0.228,-0.3458 0.363,-0.3093 z m 4.05,0.9404 c -0.109,0.2471 -0.295,0.489 -0.562,0.716 -0.281,0.233 -0.601,0.427 -0.948,0.575 l -1.088,-1.051 0.005,-0.0036 c -0.099,-0.0933 -0.045,-0.2124 0.127,-0.2702 0.073,-0.0232 0.15,-0.0332 0.227,-0.0293 l 0.002,-0.0027 z m -5.334,-2.8453 0.125,1.1991 -0.008,0.0035 c 0.015,0.1067 -0.132,0.2009 -0.333,0.2134 -0.077,0.0048 -0.155,-0.0036 -0.229,-0.0249 l -0.006,0.0018 -1.961,-0.5769 c 0.631,-0.4196 1.486,-0.6969 2.412,-0.816 m 4.515,0.8462 c 0.603,0.4115 0.927,0.9173 0.937,1.4311 l -2.207,-0.2 -0.002,-0.0036 c -0.198,-0.0168 -0.34,-0.1137 -0.316,-0.2213 0.008,-0.0444 0.044,-0.0835 0.095,-0.1129 v -0.0018 z m -0.757,-0.4045 -1.676,0.7983 -0.009,-0.0018 c -0.081,0.0356 -0.171,0.0536 -0.261,0.0526 -0.091,-0.0011 -0.18,-0.0213 -0.26,-0.0588 -0.05,-0.0234 -0.089,-0.0632 -0.107,-0.1111 h -0.004 l -0.378,-1.1849 c 0.791,-0.0011 1.575,0.1223 2.317,0.3644 0.132,0.0436 0.258,0.0916 0.378,0.1413 z m 2.721,-1.048 c -0.166,-0.0888 -0.452,-0.0808 -0.637,0.0178 l -0.008,0.0045 c -0.026,0.0142 -0.057,0.0293 -0.078,0.0417 -0.103,0.0587 -0.161,0.1147 -0.246,0.1752 -0.186,0.1262 -0.339,0.2302 -0.515,0.3102 -0.082,0.0237 -0.168,0.0342 -0.254,0.0311 l -0.135,0.064 c -0.205,-0.0917 -0.416,-0.1739 -0.631,-0.2462 -0.962,-0.3236 -2.042,-0.4685 -3.102,-0.4516 -0.011,-0.0329 -0.022,-0.0661 -0.031,-0.0995 -0.062,-0.0249 -0.133,-0.0454 -0.162,-0.1049 -0.045,-0.1209 -0.042,-0.2534 -0.04,-0.4134 0.003,-0.0755 0.023,-0.1386 0.012,-0.2186 l -0.013,-0.0649 c -0.009,-0.0323 -0.025,-0.0626 -0.048,-0.0891 -0.022,-0.0266 -0.05,-0.0489 -0.083,-0.0656 -0.105,-0.0554 -0.226,-0.0806 -0.348,-0.072 -0.234,0.0151 -0.4,0.1387 -0.371,0.2773 l 0.001,0.0045 c 0.004,0.0195 0.008,0.0435 0.013,0.0604 0.022,0.08 0.068,0.1387 0.103,0.2116 0.069,0.1564 0.126,0.2853 0.134,0.4089 -0.003,0.0506 -0.082,0.1013 -0.113,0.1244 l 0.009,0.0978 c -1.298,0.1396 -2.503,0.5262 -3.342,1.1253 l -0.163,-0.048 c -0.078,0.0054 -0.192,0.016 -0.262,9e-4 -0.217,-0.0664 -0.428,-0.1472 -0.631,-0.2418 -0.107,-0.048 -0.188,-0.096 -0.313,-0.1422 l -0.099,-0.0329 -0.003,-9e-4 c -0.002,0 -0.004,-6e-4 -0.006,-0.0017 -0.222,-0.072 -0.5,-0.0463 -0.624,0.0604 -0.125,0.1058 -0.049,0.2507 0.169,0.3253 0.002,9e-4 0.003,0.0015 0.005,0.0018 l 0.008,0.0027 c 0.031,0.0098 0.068,0.024 0.095,0.032 0.131,0.0409 0.247,0.0587 0.375,0.0889 0.273,0.0693 0.497,0.1253 0.683,0.1991 0.072,0.0329 0.097,0.0951 0.112,0.1253 l 0.155,0.0578 c -0.637,0.6631 -0.762,1.4071 -0.434,2.0907 l -0.186,0.0409 c -0.035,0.0472 -0.086,0.0834 -0.145,0.1044 -0.21,0.05 -0.472,0.082 -0.765,0.117 -0.138,0.015 -0.258,0.019 -0.403,0.043 -0.035,0.005 -0.085,0.016 -0.12,0.022 -0.244,0.048 -0.379,0.179 -0.302,0.298 0.078,0.119 0.341,0.177 0.588,0.131 h 0.002 c 0.035,-0.007 0.083,-0.014 0.114,-0.021 0.142,-0.03 0.239,-0.067 0.364,-0.101 0.282,-0.065 0.537,-0.153 0.778,-0.165 0.066,0.001 0.132,0.013 0.193,0.036 l 0.193,-0.03 c 0.432,0.518 1.144,0.974 2.107,1.298 0.219,0.074 0.444,0.138 0.675,0.194 -0.018,0.031 -0.035,0.063 -0.052,0.096 0.035,0.036 0.083,0.071 0.061,0.131 -0.059,0.12 -0.169,0.239 -0.301,0.383 -0.065,0.066 -0.134,0.119 -0.19,0.194 l -0.04,0.062 c -0.087,0.131 0.025,0.272 0.247,0.313 0.221,0.042 0.469,-0.03 0.558,-0.16 l 0.042,-0.065 c 0.045,-0.077 0.052,-0.141 0.079,-0.214 0.065,-0.157 0.118,-0.287 0.212,-0.399 0.054,-0.055 0.131,-0.066 0.201,-0.083 0.002,-0.013 0.051,-0.065 0.071,-0.092 1.331,0.183 2.735,0.092 3.935,-0.239 0.032,0.024 0.089,0.067 0.106,0.081 0.076,0.008 0.157,0.01 0.232,0.057 0.138,0.097 0.244,0.218 0.372,0.362 0.058,0.07 0.091,0.131 0.167,0.201 0.016,0.015 0.041,0.035 0.061,0.051 l 0.003,0.004 0.004,0.003 c 0.141,0.116 0.413,0.156 0.612,0.091 0.198,-0.067 0.247,-0.215 0.112,-0.334 -0.021,-0.017 -0.047,-0.041 -0.067,-0.057 -0.085,-0.067 -0.176,-0.11 -0.267,-0.168 -0.189,-0.124 -0.346,-0.227 -0.453,-0.336 -0.038,-0.047 -0.008,-0.111 0.001,-0.14 l -0.086,-0.084 c 0.496,-0.193 0.951,-0.459 1.348,-0.786 0.37,-0.316 0.615,-0.654 0.742,-1.0002 l 0.203,0.0062 c 0.059,-0.0258 0.112,-0.0587 0.228,-0.0613 0.231,0.0044 0.473,0.0346 0.765,0.072 0.137,0.0186 0.248,0.0435 0.398,0.056 l 0.121,0.0062 c 0.259,0.016 0.493,-0.0729 0.519,-0.1982 0.027,-0.1245 -0.163,-0.2391 -0.424,-0.2543 -0.037,-0.0026 -0.086,-0.0062 -0.121,-0.0071 -0.15,-0.0062 -0.269,0.0036 -0.41,0.0063 -0.301,8e-4 -0.55,0.0026 -0.776,-0.0214 -0.093,-0.0124 -0.167,-0.0649 -0.203,-0.0871 L 136.7,99.2373 c 0.033,-0.7155 -0.421,-1.4257 -1.297,-1.984 l 0.128,-0.0755 c -0.001,-0.0409 -0.016,-0.0836 0.053,-0.1334 0.15,-0.0942 0.346,-0.1751 0.582,-0.2737 0.113,-0.0454 0.218,-0.0765 0.329,-0.1316 0.026,-0.0124 0.059,-0.032 0.085,-0.0462 0.186,-0.0987 0.2,-0.2516 0.033,-0.3405 z"
       fill="#ffffff"
       id="path5325" />
    <path
       d="m 129.713,99.9227 c 0.04,0.0187 0.074,0.0466 0.098,0.0813 0.013,0.018 0.02,0.039 0.022,0.061 0.001,0.021 -0.005,0.043 -0.016,0.062 l 0.005,0.004 -0.62,1.151 c -0.133,-0.035 -0.264,-0.074 -0.393,-0.118 -0.722,-0.242 -1.268,-0.576 -1.617,-0.957 l 2.154,-0.3297 h 0.001 c 0.124,-0.0211 0.253,-0.0052 0.366,0.0454 z m -0.679,-1.0445 c 0.119,0.0649 0.144,0.1671 0.049,0.2471 -0.05,0.0405 -0.112,0.0681 -0.179,0.08 l -0.001,0.0054 -2.065,0.4569 c -0.202,-0.4952 -0.109,-1.0249 0.315,-1.5085 l 1.826,0.6907 -0.001,0.0035 c 0.02,0.0071 0.04,0.016 0.056,0.0249 z m 2.651,1.4058 c 0.021,0.011 0.04,0.024 0.056,0.036 l 0.006,-10e-4 1.308,0.981 c -0.925,0.227 -1.892,0.286 -2.843,0.173 l 0.864,-1.113 h 0.005 c 0.074,-0.1 0.283,-0.151 0.475,-0.116 0.049,0.009 0.093,0.024 0.129,0.04 z m -0.267,-1.5204 0.486,0.2595 -0.075,0.3627 -0.58,0.1938 -0.646,-0.1209 -0.228,-0.3458 0.363,-0.3093 z m 4.05,0.9404 c -0.109,0.2471 -0.295,0.489 -0.562,0.716 -0.281,0.233 -0.601,0.427 -0.948,0.575 l -1.088,-1.051 0.005,-0.0036 c -0.099,-0.0933 -0.045,-0.2124 0.127,-0.2702 0.073,-0.0232 0.15,-0.0332 0.227,-0.0293 l 0.002,-0.0027 z m -5.334,-2.8453 0.125,1.1991 -0.008,0.0035 c 0.015,0.1067 -0.132,0.2009 -0.333,0.2134 -0.077,0.0048 -0.155,-0.0036 -0.229,-0.0249 l -0.006,0.0018 -1.961,-0.5769 c 0.631,-0.4196 1.486,-0.6969 2.412,-0.816 z m 4.515,0.8462 c 0.603,0.4115 0.927,0.9173 0.937,1.4311 l -2.207,-0.2 -0.002,-0.0036 c -0.198,-0.0168 -0.34,-0.1137 -0.316,-0.2213 0.008,-0.0444 0.044,-0.0835 0.095,-0.1129 v -0.0018 z m -0.757,-0.4045 -1.676,0.7983 -0.009,-0.0018 c -0.081,0.0356 -0.171,0.0536 -0.261,0.0526 -0.091,-0.0011 -0.18,-0.0213 -0.26,-0.0588 -0.05,-0.0234 -0.089,-0.0632 -0.107,-0.1111 h -0.004 l -0.378,-1.1849 c 0.791,-0.0011 1.575,0.1223 2.317,0.3644 0.132,0.0436 0.258,0.0916 0.378,0.1413 z m 2.721,-1.048 c -0.166,-0.0888 -0.452,-0.0808 -0.637,0.0178 l -0.008,0.0045 c -0.026,0.0142 -0.057,0.0293 -0.078,0.0417 -0.103,0.0587 -0.161,0.1147 -0.246,0.1752 -0.186,0.1262 -0.339,0.2302 -0.515,0.3102 -0.082,0.0237 -0.168,0.0342 -0.254,0.0311 l -0.135,0.064 c -0.205,-0.0917 -0.416,-0.1739 -0.631,-0.2462 -0.962,-0.3236 -2.042,-0.4685 -3.102,-0.4516 -0.011,-0.0329 -0.022,-0.0661 -0.031,-0.0995 -0.062,-0.0249 -0.133,-0.0454 -0.162,-0.1049 -0.045,-0.1209 -0.042,-0.2534 -0.04,-0.4134 0.003,-0.0755 0.023,-0.1386 0.012,-0.2186 l -0.013,-0.0649 c -0.009,-0.0323 -0.025,-0.0626 -0.048,-0.0891 -0.022,-0.0266 -0.05,-0.0489 -0.083,-0.0656 -0.105,-0.0554 -0.226,-0.0806 -0.348,-0.072 -0.234,0.0151 -0.4,0.1387 -0.371,0.2773 l 0.001,0.0045 c 0.004,0.0195 0.008,0.0435 0.013,0.0604 0.022,0.08 0.068,0.1387 0.103,0.2116 0.069,0.1564 0.126,0.2853 0.134,0.4089 -0.003,0.0506 -0.082,0.1013 -0.113,0.1244 l 0.009,0.0978 c -1.298,0.1396 -2.503,0.5262 -3.342,1.1253 l -0.163,-0.048 c -0.078,0.0054 -0.192,0.016 -0.262,9e-4 -0.217,-0.0664 -0.428,-0.1472 -0.631,-0.2418 -0.107,-0.048 -0.188,-0.096 -0.313,-0.1422 l -0.099,-0.0329 -0.003,-9e-4 c -0.002,0 -0.004,-6e-4 -0.006,-0.0017 -0.222,-0.072 -0.5,-0.0463 -0.624,0.0604 -0.125,0.1058 -0.049,0.2507 0.169,0.3253 0.002,9e-4 0.003,0.0015 0.005,0.0018 l 0.008,0.0027 c 0.031,0.0098 0.068,0.024 0.095,0.032 0.131,0.0409 0.247,0.0587 0.375,0.0889 0.273,0.0693 0.497,0.1253 0.683,0.1991 0.072,0.0329 0.097,0.0951 0.112,0.1253 l 0.155,0.0578 c -0.637,0.6631 -0.762,1.4071 -0.434,2.0907 l -0.186,0.0409 c -0.035,0.0472 -0.086,0.0834 -0.145,0.1044 -0.21,0.05 -0.472,0.082 -0.765,0.117 -0.138,0.015 -0.258,0.019 -0.403,0.043 -0.035,0.005 -0.085,0.016 -0.12,0.022 -0.244,0.048 -0.379,0.179 -0.302,0.298 0.078,0.119 0.341,0.177 0.588,0.131 h 0.002 c 0.035,-0.007 0.083,-0.014 0.114,-0.021 0.142,-0.03 0.239,-0.067 0.364,-0.101 0.282,-0.065 0.537,-0.153 0.778,-0.165 0.066,0.001 0.132,0.013 0.193,0.036 l 0.193,-0.03 c 0.432,0.518 1.144,0.974 2.107,1.298 0.219,0.074 0.444,0.138 0.675,0.194 -0.018,0.031 -0.035,0.063 -0.052,0.096 0.035,0.036 0.083,0.071 0.061,0.131 -0.059,0.12 -0.169,0.239 -0.301,0.383 -0.065,0.066 -0.134,0.119 -0.19,0.194 l -0.04,0.062 c -0.087,0.131 0.025,0.272 0.247,0.313 0.221,0.042 0.469,-0.03 0.558,-0.16 l 0.042,-0.065 c 0.045,-0.077 0.052,-0.141 0.079,-0.214 0.065,-0.157 0.118,-0.287 0.212,-0.399 0.054,-0.055 0.131,-0.066 0.201,-0.083 0.002,-0.013 0.051,-0.065 0.071,-0.092 1.331,0.183 2.735,0.092 3.935,-0.239 0.032,0.024 0.089,0.067 0.106,0.081 0.076,0.008 0.157,0.01 0.232,0.057 0.138,0.097 0.244,0.218 0.372,0.362 0.058,0.07 0.091,0.131 0.167,0.201 0.016,0.015 0.041,0.035 0.061,0.051 l 0.003,0.004 0.004,0.003 c 0.141,0.116 0.413,0.156 0.612,0.091 0.198,-0.067 0.247,-0.215 0.112,-0.334 -0.021,-0.017 -0.047,-0.041 -0.067,-0.057 -0.085,-0.067 -0.176,-0.11 -0.267,-0.168 -0.189,-0.124 -0.346,-0.227 -0.453,-0.336 -0.038,-0.047 -0.008,-0.111 0.001,-0.14 l -0.086,-0.084 c 0.496,-0.193 0.951,-0.459 1.348,-0.786 0.37,-0.316 0.615,-0.654 0.742,-1.0002 l 0.203,0.0062 c 0.059,-0.0258 0.112,-0.0587 0.228,-0.0613 0.231,0.0044 0.473,0.0346 0.765,0.072 0.137,0.0186 0.248,0.0435 0.398,0.056 l 0.121,0.0062 c 0.259,0.016 0.493,-0.0729 0.519,-0.1982 0.027,-0.1245 -0.163,-0.2391 -0.424,-0.2543 -0.037,-0.0026 -0.086,-0.0062 -0.121,-0.0071 -0.15,-0.0062 -0.269,0.0036 -0.41,0.0063 -0.301,8e-4 -0.55,0.0026 -0.776,-0.0214 -0.093,-0.0124 -0.167,-0.0649 -0.203,-0.0871 L 136.7,99.2373 c 0.033,-0.7155 -0.421,-1.4257 -1.297,-1.984 l 0.128,-0.0755 c -0.001,-0.0409 -0.016,-0.0836 0.053,-0.1334 0.15,-0.0942 0.346,-0.1751 0.582,-0.2737 0.113,-0.0454 0.218,-0.0765 0.329,-0.1316 0.026,-0.0124 0.059,-0.032 0.085,-0.0462 0.186,-0.0987 0.2,-0.2516 0.033,-0.3405 z"
       stroke="#ffffff"
       stroke-width="0.25"
       id="path5327" />
    <path
       d="m 85.5439,115.019 c -0.727,-0.389 -0.727,-1.019 0,-1.407 0.728,-0.387 1.909,-0.387 2.637,0 0.727,0.388 0.727,1.018 0,1.407 -0.728,0.387 -1.909,0.387 -2.637,0 z m 3.949,-2.107 c -1.454,-0.775 -3.807,-0.775 -5.261,0 -1.455,0.776 -1.455,2.031 0,2.807 1.454,0.775 3.807,0.775 5.261,0 1.455,-0.776 1.455,-2.031 0,-2.807"
       fill="#007dbf"
       id="path5329" />
    <path
       d="m 90.602,117.253 c 0.209,-0.111 0.56,-0.03 0.56,0.127 -0.011,0.707 -0.074,1.902 -0.074,1.907 0,0.017 -0.01,0.039 0.032,0.084 0.0302,0.027 0.0653,0.05 0.104,0.067 l 1.188,0.633 c 0.214,0.115 0.523,0.017 0.549,-0.103 l 0.047,-2.123 v -0.112 c 0.042,-0.262 0.173,-0.304 0.701,-0.313 l 3.301,-0.096 c 0.225,-0.015 0.403,-0.176 0.183,-0.294 l -1.077,-0.574 c -0.0361,-0.021 -0.0751,-0.038 -0.116,-0.051 -0.084,-0.022 -0.13,-0.025 -0.168,-0.022 -0.009,0 -1.804,0.037 -2.908,0.056 -0.302,0.005 -0.46,-0.19 -0.245,-0.304 l 2.986,-1.593 c 0.152,-0.082 0.084,-0.178 -0.015,-0.232 l -0.879,-0.468 c -0.151,-0.081 -0.324,-0.068 -0.413,-0.02 l -6.622,3.532 c -0.153,0.081 -0.069,0.17 0.036,0.226 l 0.879,0.469 c 0.0641,0.033 0.1363,0.051 0.2102,0.053 0.0739,0.003 0.1473,-0.011 0.2138,-0.04 l 0.068,-0.035 1.454,-0.776 z"
       fill="#007dbf"
       id="path5331" />
    <path
       d="m 96.283,121.879 0.785,-0.519 c 0.11,-0.07 0.078,-0.176 -0.063,-0.228 -0.0753,-0.03 -0.1488,-0.064 -0.22,-0.101 -0.7,-0.374 -0.722,-0.971 -0.067,-1.364 l 0.073,-0.039 1.077,-0.576 c 0.0766,-0.037 0.1626,-0.058 0.2502,-0.058 0.0877,-0.001 0.1742,0.017 0.2518,0.053 l 1.178,0.629 c 0.083,0.044 0.282,0.072 0.433,-0.009 l 0.832,-0.444 c 0.162,-0.086 0.141,-0.187 0.047,-0.237 l -1.187,-0.633 c -0.136,-0.073 -0.147,-0.184 -0.016,-0.26 l 1.334,-0.712 c 0.084,-0.044 0.146,-0.145 -0.016,-0.231 l -0.874,-0.466 c -0.063,-0.033 -0.1348,-0.051 -0.2081,-0.052 -0.0733,-0.001 -0.1456,0.015 -0.2099,0.046 l -4.284,2.286 c -1.387,0.778 -1.354,2.006 0.073,2.767 0.121,0.065 0.247,0.12 0.377,0.173 0.141,0.059 0.33,0.048 0.434,-0.025"
       fill="#007dbf"
       id="path5333" />
    <path
       d="m 100.196,122.833 c -0.7278,-0.389 -0.7278,-1.019 0,-1.406 0.727,-0.388 1.909,-0.388 2.636,0 0.727,0.387 0.727,1.017 0,1.406 -0.733,0.385 -1.914,0.385 -2.636,0 z m 3.53,1.838 c -0.742,-0.395 -0.591,-0.599 0.408,-1.132 l 0.011,-0.006 2.401,-1.281 c 0.084,-0.044 0.162,-0.153 -0.005,-0.242 l -0.879,-0.469 c -0.07,-0.032 -0.148,-0.05 -0.227,-0.051 -0.079,0 -0.157,0.016 -0.228,0.048 l -0.11,0.058 c -0.162,-0.32 -0.481,-0.624 -0.952,-0.875 -1.454,-0.776 -3.808,-0.776 -5.2618,0 -1.455,0.776 -1.455,2.031 0,2.806 0.654,0.349 1.4908,0.539 2.3428,0.575 -0.131,0.332 0.016,0.678 0.633,1.013 0.105,0.056 0.649,0.368 0.915,0.225 l 0.937,-0.498 c 0.079,-0.043 0.104,-0.123 0.015,-0.171"
       fill="#007dbf"
       id="path5335" />
    <path
       fill-rule="evenodd"
       clip-rule="evenodd"
       d="m 246.409,114.724 c -3.718,-1.982 -9.721,-1.982 -13.438,0 -2.957,1.577 -3.539,3.943 -1.747,5.853 0.314,0.216 0.582,0.167 0.761,0.072 l 1.165,-0.621 c -2.284,-0.788 -1.388,-1.696 -1.388,-1.696 0.448,-0.574 0.223,-0.932 0.223,-0.932 -0.223,-0.549 0.448,-0.191 0.448,-0.191 0.627,0.382 0.359,0.907 0.359,0.907 -0.448,0.861 0.85,1.219 1.433,1.338 0.416,-0.185 0.88,-0.268 1.344,-0.238 -1.299,-0.884 -2.284,-2.031 0.269,-3.393 0.717,-0.381 1.612,-0.573 2.464,-0.597 0.088,-0.143 0.537,-0.621 1.836,-0.931 0,0 0.761,0.214 1.165,1.337 0.671,0.215 1.343,0.478 1.925,0.788 0.582,0.312 1.076,0.67 1.479,1.028 2.149,0.239 2.508,0.621 2.508,0.621 -0.582,0.693 -1.478,0.932 -1.747,0.98 0,0.477 -0.403,0.931 -1.12,1.314 -2.598,1.385 -4.703,0.835 -6.36,0.143 0,0.238 -0.18,0.573 -0.807,0.907 l -1.836,0.98 c -0.179,0.095 -0.269,0.287 0.134,0.406 3.583,0.956 7.973,0.621 10.93,-0.955 3.717,-1.936 3.717,-5.136 0,-7.12 z"
       fill="#181616"
       id="path5337" />
  </g>
  <defs
     id="defs5344">
    <clipPath
       id="clip0_1851_13379">
      <rect
         width="307"
         height="128"
         fill="#ffffff"
         id="rect5341"
         x="0"
         y="0" />
    </clipPath>
  </defs>
  <path
     d="m 156.88378,175.47454 -52.424,-28.178 c -5.566803,-2.99299 -5.566803,-7.84499 0,-10.83799 l 52.424,-28.176 c 5.567,-2.993 14.595,-2.993 20.162,0 l 52.424,28.176 c 5.567,2.993 5.567,7.845 0,10.83799 l -52.424,28.178 c -5.567,2.993 -14.595,2.993 -20.162,0 z"
     fill="#ffffff"
     id="path615-7" />
</svg>
