<svg width="307" height="128" viewBox="0 0 307 128" fill="none" xmlns="http://www.w3.org/2000/svg">
<g clip-path="url(#clip0_1851_13449)">
<path opacity="0.8" fill-rule="evenodd" clip-rule="evenodd" d="M234 9.72055H100.871V128.057H234V9.72055Z" fill="url(#paint0_linear_1851_13449)"/>
<path opacity="0.8" fill-rule="evenodd" clip-rule="evenodd" d="M334.058 62.1904H201.049V128.032H334.058V62.1904Z" fill="url(#paint1_linear_1851_13449)"/>
<path d="M157.433 43.3129L105.009 15.3538C99.4422 12.384 99.4422 7.56977 105.009 4.6L157.433 -23.3582C163 -26.328 172.028 -26.328 177.595 -23.3582L230.019 4.6C235.586 7.56977 235.586 12.384 230.019 15.3538L177.595 43.3129C172.028 46.2827 163 46.2827 157.433 43.3129Z" fill="white"/>
<path d="M257.238 96.5431L204.814 68.584C199.247 65.6142 199.247 60.8 204.814 57.8302L257.238 29.8711C262.805 26.9013 271.833 26.9013 277.401 29.8711L329.824 57.8302C335.391 60.8 335.391 65.6142 329.824 68.584L277.401 96.5431C271.833 99.5129 262.805 99.5129 257.238 96.5431Z" fill="white"/>
<path d="M57.5992 96.5289L5.17623 68.5698C-0.390773 65.6 -0.390773 60.7858 5.17623 57.816L57.5992 29.8569C63.1672 26.8871 72.1952 26.8871 77.7622 29.8569L130.186 57.816C135.753 60.7858 135.753 65.6 130.186 68.5698L77.7622 96.5289C72.1952 99.4987 63.1672 99.4987 57.5992 96.5289Z" fill="white"/>
<path d="M157.433 149.772L105.009 121.814C99.4422 118.844 99.4422 114.029 105.009 111.06L157.433 83.1014C163 80.1316 172.028 80.1316 177.595 83.1014L230.019 111.06C235.586 114.029 235.586 118.844 230.019 121.814L177.595 149.772C172.028 152.742 163 152.742 157.433 149.772Z" fill="white"/>
<path d="M250.101 65.7084C248.923 66.3369 246.888 66.3938 245.603 65.7084C244.318 65.0231 244.318 63.9955 245.603 63.3102L255.241 58.1706C256.419 57.5413 258.454 57.4844 259.739 58.1706C261.024 58.8551 261.024 59.8826 259.739 60.5689L250.101 65.7084Z" fill="#F9BA05"/>
<path d="M253.955 70.5058C252.777 71.1343 250.743 71.1911 249.458 70.5058C248.173 69.8205 248.28 68.8498 249.565 68.1645L264.235 60.3396C265.414 59.7111 267.448 59.6543 268.733 60.3396C270.018 61.0249 270.018 62.0534 268.733 62.7387L254.062 70.5627L253.955 70.5058Z" fill="#F9BA05"/>
<path d="M245.71 61.0826C244.532 61.7111 242.497 61.768 241.212 61.0826C239.927 60.3973 239.927 59.3689 241.212 58.6844L246.459 55.8853C247.638 55.2569 249.672 55.2 250.957 55.8853C252.242 56.5706 252.135 57.6569 250.957 58.2844L245.71 61.0826Z" fill="#F9BA05"/>
<path d="M258.024 75.1893C256.846 75.8178 254.812 75.8747 253.527 75.1893C252.349 74.5609 252.456 73.4756 253.633 72.848L273.124 62.4533C274.301 61.8249 276.336 61.768 277.621 62.4533C278.799 63.0818 278.906 64.1671 277.621 64.8525L258.131 75.2462L258.024 75.1893Z" fill="#F9BA05"/>
<path d="M266.057 78.4444C265.628 78.216 265.414 77.9876 265.093 77.7022L263.272 75.8178C262.952 75.5324 263.165 75.0756 263.808 74.9609C264.343 74.7902 265.2 74.904 265.414 75.2462L267.341 77.1884C267.662 77.5876 268.412 77.8729 269.376 77.9307C270.233 78.0453 271.089 77.8169 271.625 77.5316L289.508 67.9929C290.365 67.5369 290.579 66.8507 290.043 66.3369L271.732 48.1182C271.411 47.7182 270.661 47.432 269.805 47.3182C268.948 47.3182 268.091 47.432 267.449 47.7751L255.134 54.3431C254.598 54.6284 253.849 54.5724 253.42 54.3431C252.885 54.0578 252.993 53.6578 253.42 53.4293L265.736 46.8622C266.913 46.2338 268.52 45.9476 270.125 46.1191C271.839 46.2338 273.124 46.8044 273.873 47.5467L292.078 65.7084C293.15 66.7369 292.721 68.1076 291.115 68.9644L273.231 78.5013C272.053 79.1298 270.447 79.416 268.734 79.3013C267.877 79.0729 266.806 78.8444 266.057 78.4444Z" fill="#F9BA05"/>
<path d="M74.0705 75.3955L59.9015 67.8391C56.4755 66.0115 52.1575 66.2667 49.6055 67.6284C47.2515 68.8844 46.2835 71.1369 50.0015 73.1191L64.1695 80.6755L74.0705 75.3955Z" fill="#669BF1"/>
<path d="M74.0797 75.3938C76.7699 76.8294 76.7363 79.1745 74.0022 80.6335C71.2684 82.0914 66.8695 82.1101 64.1788 80.6737C61.4849 79.2378 61.519 76.8936 64.254 75.434C66.9886 73.9757 71.3872 73.9582 74.0797 75.3938Z" fill="#1A73E6"/>
<path d="M72.6407 60.552L58.4727 52.9956C55.0467 51.1689 50.7277 51.424 48.1747 52.7867C45.8197 54.0427 44.8517 56.2942 48.5697 58.2773L62.7377 65.8338L72.6407 60.552Z" fill="#669BF1"/>
<path d="M72.639 60.5579C75.3302 61.9929 75.297 64.3399 72.5625 65.7984C69.8278 67.2549 65.4297 67.2734 62.7377 65.8389C60.046 64.403 60.0797 62.0568 62.8142 60.5983C65.5474 59.1395 69.9473 59.1221 72.639 60.5579Z" fill="#1A73E6"/>
<path d="M100.462 61.3191L86.294 53.7627C82.868 51.936 78.55 52.1911 75.998 53.5529C73.643 54.8089 72.675 57.0614 76.393 59.0436L90.561 66.6L100.462 61.3191Z" fill="#669BF1"/>
<path d="M100.463 61.3234C103.154 62.7597 103.12 65.1059 100.387 66.5647C97.6522 68.0224 93.2541 68.0409 90.5619 66.6044C87.8702 65.1686 87.9045 62.8231 90.6381 61.365C93.3726 59.9066 97.7712 59.8888 100.463 61.3234Z" fill="#1A73E6"/>
<path d="M173.965 124.594C171.593 123.329 171.473 121.255 171.834 118.79C176.637 118.565 180.339 118.601 182.77 119.898C185.629 121.422 185.352 123.367 182.885 124.684C180.417 126 176.823 126.119 173.965 124.594ZM152.141 112.954C149.281 111.429 149.462 109.516 151.954 108.188C154.445 106.859 158.087 106.733 160.946 108.258C163.354 109.541 163.384 111.625 162.902 114.155C158.46 114.38 154.512 114.219 152.141 112.954ZM189.903 116.312C186.008 114.236 180.231 113.491 172.936 113.684C173.417 109.793 171.901 106.711 167.825 104.538C161.078 100.94 151.34 100.881 144.858 104.339C138.375 107.796 138.544 112.957 145.291 116.556C149.438 118.767 154.596 119.444 162.06 119.291C161.638 123.213 163.221 126.131 167.356 128.337C174.115 131.929 183.776 132.028 190.276 128.562C196.776 125.094 196.65 119.91 189.903 116.312Z" fill="#484848"/>
<path d="M162.877 124.188L172.832 123.72C171.569 122.467 171.527 120.711 171.815 118.715L162.011 119.232C161.779 120.898 162.073 122.574 162.877 124.188Z" fill="#20A5C7"/>
<path d="M172.94 113.68C173.206 112.006 172.955 110.32 172.2 108.689L162.178 109.186C163.304 110.428 163.28 112.071 162.924 113.995L162.979 114.158L172.94 113.68Z" fill="#20A5C7"/>
<path opacity="0.8" fill-rule="evenodd" clip-rule="evenodd" d="M134.036 63.0796H1.06831V128.031H134.036V63.0796Z" fill="url(#paint2_linear_1851_13449)"/>
<path d="M157.433 43.3129L105.009 15.3538C99.4422 12.384 99.4422 7.56977 105.009 4.6L157.433 -23.3582C163 -26.328 172.028 -26.328 177.595 -23.3582L230.019 4.6C235.586 7.56977 235.586 12.384 230.019 15.3538L177.595 43.3129C172.028 46.2827 163 46.2827 157.433 43.3129Z" fill="white"/>
<path d="M257.238 96.5431L204.814 68.584C199.247 65.6142 199.247 60.8 204.814 57.8302L257.238 29.8711C262.805 26.9013 271.833 26.9013 277.401 29.8711L329.824 57.8302C335.391 60.8 335.391 65.6142 329.824 68.584L277.401 96.5431C271.833 99.5129 262.805 99.5129 257.238 96.5431Z" fill="white"/>
<path d="M57.5992 96.5289L5.17623 68.5698C-0.390773 65.6 -0.390773 60.7858 5.17623 57.816L57.5992 29.8569C63.1672 26.8871 72.1952 26.8871 77.7622 29.8569L130.186 57.816C135.753 60.7858 135.753 65.6 130.186 68.5698L77.7622 96.5289C72.1952 99.4987 63.1672 99.4987 57.5992 96.5289Z" fill="white"/>
<path d="M157.433 149.772L105.009 121.814C99.4422 118.844 99.4422 114.029 105.009 111.06L157.433 83.1014C163 80.1316 172.028 80.1316 177.595 83.1014L230.019 111.06C235.586 114.029 235.586 118.844 230.019 121.814L177.595 149.772C172.028 152.742 163 152.742 157.433 149.772Z" fill="white"/>
<path d="M250.101 65.7084C248.923 66.3369 246.888 66.3938 245.603 65.7084C244.318 65.0231 244.318 63.9955 245.603 63.3102L255.241 58.1706C256.419 57.5413 258.454 57.4844 259.739 58.1706C261.024 58.8551 261.024 59.8826 259.739 60.5689L250.101 65.7084Z" fill="#F9BA05"/>
<path d="M253.955 70.5058C252.777 71.1343 250.743 71.1911 249.458 70.5058C248.173 69.8205 248.28 68.8498 249.565 68.1645L264.235 60.3396C265.414 59.7111 267.448 59.6543 268.733 60.3396C270.018 61.0249 270.018 62.0534 268.733 62.7387L254.062 70.5627L253.955 70.5058Z" fill="#F9BA05"/>
<path d="M245.71 61.0826C244.532 61.7111 242.497 61.768 241.212 61.0826C239.927 60.3973 239.927 59.3689 241.212 58.6844L246.459 55.8853C247.638 55.2569 249.672 55.2 250.957 55.8853C252.242 56.5706 252.135 57.6569 250.957 58.2844L245.71 61.0826Z" fill="#F9BA05"/>
<path d="M258.024 75.1893C256.846 75.8178 254.812 75.8747 253.527 75.1893C252.349 74.5609 252.456 73.4756 253.633 72.848L273.124 62.4533C274.301 61.8249 276.336 61.768 277.621 62.4533C278.799 63.0818 278.906 64.1671 277.621 64.8525L258.131 75.2462L258.024 75.1893Z" fill="#F9BA05"/>
<path d="M266.057 78.4444C265.628 78.216 265.414 77.9876 265.093 77.7022L263.272 75.8178C262.952 75.5324 263.165 75.0756 263.808 74.9609C264.343 74.7902 265.2 74.904 265.414 75.2462L267.341 77.1884C267.662 77.5876 268.412 77.8729 269.376 77.9307C270.233 78.0453 271.089 77.8169 271.625 77.5316L289.508 67.9929C290.365 67.5369 290.579 66.8507 290.043 66.3369L271.732 48.1182C271.411 47.7182 270.661 47.432 269.805 47.3182C268.948 47.3182 268.091 47.432 267.449 47.7751L255.134 54.3431C254.598 54.6284 253.849 54.5724 253.42 54.3431C252.885 54.0578 252.993 53.6578 253.42 53.4293L265.736 46.8622C266.913 46.2338 268.52 45.9476 270.125 46.1191C271.839 46.2338 273.124 46.8044 273.873 47.5467L292.078 65.7084C293.15 66.7369 292.721 68.1076 291.115 68.9644L273.231 78.5013C272.053 79.1298 270.447 79.416 268.734 79.3013C267.877 79.0729 266.806 78.8444 266.057 78.4444Z" fill="#F9BA05"/>
<path d="M74.0705 75.3955L59.9015 67.8391C56.4755 66.0115 52.1575 66.2667 49.6055 67.6284C47.2515 68.8844 46.2835 71.1369 50.0015 73.1191L64.1695 80.6755L74.0705 75.3955Z" fill="#669BF1"/>
<path d="M74.0797 75.3938C76.7699 76.8294 76.7363 79.1745 74.0022 80.6335C71.2684 82.0914 66.8695 82.1101 64.1788 80.6737C61.4849 79.2378 61.519 76.8936 64.254 75.434C66.9886 73.9757 71.3872 73.9582 74.0797 75.3938Z" fill="#1A73E6"/>
<path d="M72.6407 60.552L58.4727 52.9956C55.0467 51.1689 50.7277 51.424 48.1747 52.7867C45.8197 54.0427 44.8517 56.2942 48.5697 58.2773L62.7377 65.8338L72.6407 60.552Z" fill="#669BF1"/>
<path d="M72.639 60.5579C75.3302 61.9929 75.297 64.3399 72.5625 65.7984C69.8278 67.2549 65.4297 67.2734 62.7377 65.8389C60.046 64.403 60.0797 62.0568 62.8142 60.5983C65.5474 59.1395 69.9473 59.1221 72.639 60.5579Z" fill="#1A73E6"/>
<path d="M100.462 61.3191L86.294 53.7627C82.868 51.936 78.55 52.1911 75.998 53.5529C73.643 54.8089 72.675 57.0614 76.393 59.0436L90.561 66.6L100.462 61.3191Z" fill="#669BF1"/>
<path d="M100.463 61.3234C103.154 62.7597 103.12 65.1059 100.387 66.5647C97.6522 68.0224 93.2541 68.0409 90.5619 66.6044C87.8702 65.1686 87.9045 62.8231 90.6381 61.365C93.3726 59.9066 97.7712 59.8888 100.463 61.3234Z" fill="#1A73E6"/>
<path d="M173.965 124.594C171.593 123.329 171.473 121.255 171.834 118.79C176.637 118.565 180.339 118.601 182.77 119.898C185.629 121.422 185.352 123.367 182.885 124.684C180.417 126 176.823 126.119 173.965 124.594ZM152.141 112.954C149.281 111.429 149.462 109.516 151.954 108.188C154.445 106.859 158.087 106.733 160.946 108.258C163.354 109.541 163.384 111.625 162.902 114.155C158.46 114.38 154.512 114.219 152.141 112.954ZM189.903 116.312C186.008 114.236 180.231 113.491 172.936 113.684C173.417 109.793 171.901 106.711 167.825 104.538C161.078 100.94 151.34 100.881 144.858 104.339C138.375 107.796 138.544 112.957 145.291 116.556C149.438 118.767 154.596 119.444 162.06 119.291C161.638 123.213 163.221 126.131 167.356 128.337C174.115 131.929 183.776 132.028 190.276 128.562C196.776 125.094 196.65 119.91 189.903 116.312Z" fill="#484848"/>
<path d="M162.877 124.188L172.832 123.72C171.569 122.467 171.527 120.711 171.815 118.715L162.011 119.232C161.779 120.898 162.073 122.574 162.877 124.188Z" fill="#20A5C7"/>
<path d="M172.94 113.68C173.206 112.006 172.955 110.32 172.2 108.689L162.178 109.186C163.304 110.428 163.28 112.071 162.924 113.995L162.979 114.158L172.94 113.68Z" fill="#20A5C7"/>
<path d="M157.433 43.3129L105.009 15.3538C99.4422 12.384 99.4422 7.56977 105.009 4.6L157.433 -23.3582C163 -26.328 172.028 -26.328 177.595 -23.3582L230.019 4.6C235.586 7.56977 235.586 12.384 230.019 15.3538L177.595 43.3129C172.028 46.2827 163 46.2827 157.433 43.3129Z" fill="white"/>
<path d="M257.238 96.5431L204.814 68.584C199.247 65.6142 199.247 60.8 204.814 57.8302L257.238 29.8711C262.805 26.9013 271.833 26.9013 277.401 29.8711L329.824 57.8302C335.391 60.8 335.391 65.6142 329.824 68.584L277.401 96.5431C271.833 99.5129 262.805 99.5129 257.238 96.5431Z" fill="white"/>
<path d="M57.5992 96.5289L5.17623 68.5698C-0.390773 65.6 -0.390773 60.7858 5.17623 57.816L57.5992 29.8569C63.1672 26.8871 72.1952 26.8871 77.7622 29.8569L130.186 57.816C135.753 60.7858 135.753 65.6 130.186 68.5698L77.7622 96.5289C72.1952 99.4987 63.1672 99.4987 57.5992 96.5289Z" fill="white"/>
<path d="M157.433 149.772L105.009 121.814C99.4422 118.844 99.4422 114.029 105.009 111.06L157.433 83.1014C163 80.1316 172.028 80.1316 177.595 83.1014L230.019 111.06C235.586 114.029 235.586 118.844 230.019 121.814L177.595 149.772C172.028 152.742 163 152.742 157.433 149.772Z" fill="white"/>
<path d="M250.1 65.7084C248.922 66.3369 246.887 66.3938 245.602 65.7084C244.317 65.0231 244.317 63.9955 245.602 63.3102L255.24 58.1706C256.418 57.5413 258.453 57.4844 259.738 58.1706C261.023 58.8551 261.023 59.8826 259.738 60.5689L250.1 65.7084Z" fill="#F9BA05"/>
<path d="M253.955 70.5058C252.777 71.1342 250.743 71.1911 249.458 70.5058C248.173 69.8205 248.28 68.8498 249.565 68.1645L264.235 60.3396C265.414 59.7111 267.448 59.6542 268.733 60.3396C270.018 61.0249 270.018 62.0534 268.733 62.7387L254.062 70.5627L253.955 70.5058Z" fill="#F9BA05"/>
<path d="M245.71 61.0826C244.532 61.7111 242.497 61.768 241.212 61.0826C239.927 60.3973 239.927 59.3689 241.212 58.6844L246.459 55.8853C247.638 55.2569 249.672 55.2 250.957 55.8853C252.242 56.5706 252.135 57.6569 250.957 58.2844L245.71 61.0826Z" fill="#F9BA05"/>
<path d="M258.024 75.1893C256.846 75.8178 254.812 75.8747 253.527 75.1893C252.349 74.5609 252.456 73.4756 253.633 72.848L273.124 62.4533C274.301 61.8249 276.336 61.768 277.621 62.4533C278.799 63.0818 278.906 64.1671 277.621 64.8525L258.131 75.2462L258.024 75.1893Z" fill="#F9BA05"/>
<path d="M266.056 78.4444C265.627 78.216 265.413 77.9876 265.092 77.7022L263.271 75.8178C262.951 75.5324 263.164 75.0756 263.807 74.9609C264.342 74.7902 265.199 74.904 265.413 75.2462L267.34 77.1884C267.661 77.5876 268.411 77.8729 269.375 77.9307C270.232 78.0453 271.088 77.8169 271.624 77.5316L289.507 67.9929C290.364 67.5369 290.578 66.8507 290.042 66.3369L271.731 48.1182C271.41 47.7182 270.66 47.432 269.804 47.3182C268.947 47.3182 268.09 47.432 267.448 47.7751L255.133 54.3431C254.597 54.6284 253.848 54.5724 253.419 54.3431C252.884 54.0578 252.992 53.6578 253.419 53.4293L265.735 46.8622C266.912 46.2338 268.519 45.9476 270.124 46.1191C271.838 46.2338 273.123 46.8044 273.872 47.5467L292.077 65.7084C293.149 66.7369 292.72 68.1076 291.114 68.9644L273.23 78.5013C272.052 79.1298 270.446 79.416 268.733 79.3013C267.876 79.0729 266.805 78.8444 266.056 78.4444Z" fill="#F9BA05"/>
<path d="M74.0695 75.3955L59.9005 67.8391C56.4745 66.0115 52.1565 66.2667 49.6045 67.6284C47.2505 68.8844 46.2825 71.1369 50.0005 73.1191L64.1685 80.6755L74.0695 75.3955Z" fill="#669BF1"/>
<path d="M74.0787 75.3938C76.7689 76.8294 76.7353 79.1745 74.0012 80.6335C71.2675 82.0914 66.8685 82.1101 64.1778 80.6737C61.484 79.2378 61.518 76.8936 64.253 75.434C66.9876 73.9757 71.3862 73.9582 74.0787 75.3938Z" fill="#1A73E6"/>
<path d="M72.6407 60.552L58.4727 52.9956C55.0467 51.1689 50.7277 51.424 48.1747 52.7867C45.8197 54.0427 44.8517 56.2942 48.5697 58.2773L62.7377 65.8338L72.6407 60.552Z" fill="#669BF1"/>
<path d="M72.639 60.5579C75.3302 61.9929 75.297 64.3399 72.5625 65.7984C69.8278 67.2549 65.4297 67.2734 62.7377 65.8389C60.046 64.403 60.0797 62.0568 62.8142 60.5983C65.5474 59.1395 69.9473 59.1221 72.639 60.5579Z" fill="#1A73E6"/>
<path d="M100.462 61.3191L86.294 53.7627C82.868 51.936 78.55 52.1911 75.998 53.5529C73.643 54.8089 72.675 57.0614 76.393 59.0436L90.561 66.6L100.462 61.3191Z" fill="#669BF1"/>
<path d="M100.462 61.3234C103.153 62.7597 103.119 65.1059 100.386 66.5647C97.6512 68.0224 93.2532 68.0409 90.5609 66.6044C87.8692 65.1686 87.9035 62.8231 90.6371 61.365C93.3716 59.9066 97.7702 59.8888 100.462 61.3234Z" fill="#1A73E6"/>
<path d="M173.964 124.594C171.592 123.329 171.472 121.255 171.833 118.79C176.636 118.565 180.338 118.601 182.769 119.898C185.628 121.422 185.351 123.367 182.884 124.684C180.416 126 176.822 126.119 173.964 124.594ZM152.14 112.954C149.28 111.429 149.461 109.516 151.953 108.188C154.444 106.859 158.086 106.733 160.945 108.258C163.353 109.541 163.383 111.625 162.901 114.155C158.459 114.38 154.511 114.219 152.14 112.954ZM189.902 116.312C186.007 114.236 180.23 113.491 172.935 113.684C173.416 109.793 171.9 106.711 167.824 104.538C161.077 100.94 151.339 100.881 144.857 104.339C138.374 107.796 138.543 112.957 145.29 116.556C149.437 118.767 154.595 119.444 162.059 119.291C161.637 123.213 163.22 126.131 167.355 128.337C174.114 131.929 183.775 132.028 190.275 128.562C196.775 125.094 196.649 119.91 189.902 116.312Z" fill="#484848"/>
<path d="M162.877 124.188L172.832 123.72C171.569 122.467 171.527 120.711 171.815 118.715L162.011 119.232C161.779 120.898 162.073 122.574 162.877 124.188Z" fill="#20A5C7"/>
<path d="M172.94 113.68C173.206 112.006 172.955 110.32 172.2 108.689L162.178 109.186C163.304 110.428 163.28 112.071 162.924 113.995L162.979 114.158L172.94 113.68Z" fill="#20A5C7"/>
<path d="M131.224 19.1823L142.438 29.1496L141.976 29.1503L131.224 19.5927L131.224 19.1823Z" fill="#FCE204"/>
<path d="M131.224 18.7712L142.9 29.1496L142.438 29.1496L131.224 19.1822L131.224 18.7712Z" fill="#FCE104"/>
<path d="M131.223 18.3598L143.362 29.1493L142.899 29.1493L131.223 18.7709L131.223 18.3598Z" fill="#FCE004"/>
<path d="M131.223 17.9497L143.824 29.1503L143.362 29.1503L131.223 18.3607L131.223 17.9497Z" fill="#FBDF05"/>
<path d="M131.224 17.5392L144.286 29.1496L143.824 29.1503L131.224 17.9497L131.224 17.5392Z" fill="#FBDE05"/>
<path d="M131.222 17.1283L144.745 29.1491L144.285 29.1485L131.222 17.5388L131.222 17.1283Z" fill="#FBDD05"/>
<path d="M131.223 16.7178L145.207 29.1484L144.746 29.1484L131.223 17.1276L131.223 16.7178Z" fill="#FBDC05"/>
<path d="M131.223 16.3068L145.67 29.1485L145.208 29.1485L131.223 16.7178L131.223 16.3068Z" fill="#FBDB06"/>
<path d="M131.223 15.8963L146.132 29.1491L145.67 29.1484L131.223 16.3068L131.223 15.8963Z" fill="#FBDA06"/>
<path d="M131.223 15.4859L146.593 29.1485L146.132 29.1485L131.223 15.8957L131.223 15.4859Z" fill="#FBD906"/>
<path d="M131.223 15.0755L147.056 29.1491L146.594 29.1485L131.223 15.4859L131.223 15.0755Z" fill="#FBD807"/>
<path d="M131.222 14.6644L147.518 29.1491L147.055 29.1491L131.222 15.0755L131.222 14.6644Z" fill="#FBD707"/>
<path d="M131.223 14.2555L147.979 29.15L147.518 29.15L131.223 14.6653L131.223 14.2555Z" fill="#FBD607"/>
<path d="M131.222 13.8442L148.44 29.1498L147.979 29.1491L131.222 14.2546L131.222 13.8442Z" fill="#FAD507"/>
<path d="M131.223 13.4325L148.904 29.1491L148.442 29.1485L131.223 13.8429L131.223 13.4325Z" fill="#FAD408"/>
<path d="M131.225 13.0283L149.367 29.1559L148.907 29.1553L131.225 13.4387L131.225 13.0283Z" fill="#FAD308"/>
<path d="M131.222 12.6116L149.826 29.1485L149.364 29.1485L131.222 13.0227L131.222 12.6116Z" fill="#FAD208"/>
<path d="M131.22 12.1947L150.286 29.1423L149.825 29.1423L131.22 12.6058L131.22 12.1947Z" fill="#FAD108"/>
<path d="M131.22 11.7842L150.748 29.1429L150.286 29.1429L131.22 12.1953L131.22 11.7842Z" fill="#FAD009"/>
<path d="M131.221 11.3756L151.21 29.1441L150.749 29.1447L131.221 11.786L131.221 11.3756Z" fill="#FACF09"/>
<path d="M131.221 10.9636L151.673 29.1432L151.21 29.1432L131.221 11.3747L131.221 10.9636Z" fill="#FACE09"/>
<path d="M131.221 10.5541L152.135 29.1447L151.673 29.1447L131.221 10.9651L131.221 10.5541Z" fill="#FACD0A"/>
<path d="M131.222 10.1445L152.597 29.145L152.135 29.1456L131.222 10.5549L131.222 10.1445Z" fill="#FACC0A"/>
<path d="M131.221 9.73403L153.059 29.1455L152.596 29.1455L131.221 10.1451L131.221 9.73403Z" fill="#FACB0A"/>
<path d="M131.221 9.32294L153.521 29.1455L153.059 29.1455L131.221 9.73401L131.221 9.32294Z" fill="#F9CA0A"/>
<path d="M131.223 8.91704L153.984 29.1491L153.522 29.1485L131.223 9.32622L131.223 8.91704Z" fill="#F9C90B"/>
<path d="M131.222 8.50597L154.445 29.1491L153.983 29.1485L131.222 8.91641L131.222 8.50597Z" fill="#F9C80B"/>
<path d="M131.223 8.09707L154.907 29.15L154.446 29.15L131.223 8.50688L131.223 8.09707Z" fill="#F9C70B"/>
<path d="M131.222 7.68333L155.368 29.1471L154.907 29.1464L131.222 8.09377L131.222 7.68333Z" fill="#F9C60B"/>
<path d="M131.222 7.27349L155.83 29.1483L155.368 29.1477L131.222 7.68393L131.222 7.27349Z" fill="#F9C50C"/>
<path d="M131.222 6.86178L156.292 29.1477L155.831 29.147L131.222 7.27222L131.222 6.86178Z" fill="#F9C40C"/>
<path d="M131.222 6.4526L156.753 29.1483L156.292 29.1483L131.222 6.86241L131.222 6.4526Z" fill="#F9C30C"/>
<path d="M131.222 6.04175L157.217 29.1485L156.754 29.1485L131.222 6.45282L131.222 6.04175Z" fill="#F9C20C"/>
<path d="M131.222 5.63131L157.678 29.1491L157.217 29.1485L131.222 6.04175L131.222 5.63131Z" fill="#F9C10D"/>
<path d="M131.223 5.22214L158.142 29.1494L157.679 29.1494L131.223 5.63321L131.223 5.22214Z" fill="#F9C00D"/>
<path d="M131.223 4.81107L158.604 29.1494L158.142 29.1494L131.223 5.22213L131.223 4.81107Z" fill="#F8BF0D"/>
<path d="M131.223 4.40064L159.065 29.1487L158.603 29.1494L131.223 4.81107L131.223 4.40064Z" fill="#F8BE0E"/>
<path d="M131.223 3.99021L159.527 29.1494L159.065 29.1494L131.223 4.40127L131.223 3.99021Z" fill="#F8BD0E"/>
<path d="M131.223 3.57914L159.99 29.1494L159.527 29.1494L131.223 3.9902L131.223 3.57914Z" fill="#F8BC0E"/>
<path d="M131.224 3.16957L160.452 29.1496L159.99 29.1502L131.224 3.58001L131.224 3.16957Z" fill="#F8BB0E"/>
<path d="M131.223 2.75785L160.912 29.1488L160.451 29.1488L131.223 3.16891L131.223 2.75785Z" fill="#F8BA0F"/>
<path d="M131.223 2.34829L161.375 29.1503L160.912 29.1503L131.223 2.75935L131.223 2.34829Z" fill="#F8B90F"/>
<path d="M131.223 1.93742L161.837 29.1505L161.375 29.1505L131.223 2.34848L131.223 1.93742Z" fill="#F8B80F"/>
<path d="M131.223 1.52824L162.298 29.1511L161.836 29.1518L131.223 1.93867L131.223 1.52824Z" fill="#F8B70F"/>
<path d="M131.222 1.11626L162.759 29.1498L162.298 29.1491L131.222 1.52544L131.222 1.11626Z" fill="#F8B610"/>
<path d="M131.222 0.705814L163.221 29.1491L162.759 29.1497L131.222 1.11625L131.222 0.705814Z" fill="#F8B510"/>
<path d="M131.223 0.294132L163.685 29.1485L163.222 29.1485L131.223 0.705197L131.223 0.294132Z" fill="#F7B410"/>
<path d="M131.223 -0.114786L164.146 29.1506L163.685 29.15L131.223 0.295651L131.223 -0.114786Z" fill="#F7B311"/>
<path d="M131.222 -0.52549L164.606 29.1497L164.145 29.1497L131.222 -0.115683L131.222 -0.52549Z" fill="#F7B211"/>
<path d="M131.223 -0.937801L165.07 29.1485L164.608 29.1485L131.223 -0.526737L131.223 -0.937801Z" fill="#F7B111"/>
<path d="M131.223 -1.34672L165.532 29.1506L165.07 29.15L131.223 -0.936283L131.223 -1.34672Z" fill="#F7B011"/>
<path d="M131.223 -1.75715L165.993 29.15L165.532 29.15L131.223 -1.34734V-1.75715Z" fill="#F7AF12"/>
<path d="M131.223 -2.16821L166.456 29.1494L165.995 29.1494L131.223 -1.75714L131.223 -2.16821Z" fill="#F7AE12"/>
<path d="M131.223 -2.57869L166.917 29.1487L166.455 29.1494L131.223 -2.16825L131.223 -2.57869Z" fill="#F7AD12"/>
<path d="M131.223 -2.98912L167.379 29.1494L166.917 29.1494L131.223 -2.57805L131.223 -2.98912Z" fill="#F7AC12"/>
<path d="M131.223 -3.4002L167.842 29.1493L167.379 29.1493L131.223 -2.98914L131.223 -3.4002Z" fill="#F7AB13"/>
<path d="M131.223 -3.81121L168.304 29.1494L167.842 29.1494L131.223 -3.40015L131.223 -3.81121Z" fill="#F7AA13"/>
<path d="M131.224 -4.22079L168.766 29.1496L168.304 29.1503L131.224 -3.81035L131.224 -4.22079Z" fill="#F6A913"/>
<path d="M131.223 -4.63214L169.228 29.1493L168.765 29.1493L131.223 -4.22107V-4.63214Z" fill="#F6A814"/>
<path d="M131.223 -5.04229L169.69 29.1502L169.228 29.1502L131.223 -4.63123L131.223 -5.04229Z" fill="#F6A714"/>
<path d="M131.224 -5.45272L170.152 29.1496L169.69 29.1503L131.224 -5.04229L131.224 -5.45272Z" fill="#F6A614"/>
<path d="M131.223 -5.86407L170.614 29.1493L170.151 29.1493L131.223 -5.45301L131.223 -5.86407Z" fill="#F6A514"/>
<path d="M131.223 -6.27423L171.076 29.1503L170.613 29.1502L131.223 -5.86316V-6.27423Z" fill="#F6A315"/>
<path d="M131.223 -6.68579L171.536 29.1479L171.075 29.1479L131.223 -6.27472V-6.68579Z" fill="#F6A215"/>
<path d="M131.222 -7.09499L171.997 29.1497L171.535 29.1491L131.222 -6.68456L131.222 -7.09499Z" fill="#F6A115"/>
<path d="M131.223 -7.50607L172.459 29.1485L171.998 29.1485L131.223 -7.09626V-7.50607Z" fill="#F6A015"/>
<path d="M131.222 -7.91584L172.921 29.1498L172.459 29.1491L131.222 -7.50541L131.222 -7.91584Z" fill="#F69F16"/>
<path d="M131.223 -8.32758L173.384 29.1491L172.922 29.1485L131.223 -7.91715L131.223 -8.32758Z" fill="#F59E16"/>
<path d="M131.222 -8.7386L173.845 29.1491L173.384 29.1485L131.222 -8.32816L131.222 -8.7386Z" fill="#F59D16"/>
<path d="M131.222 -9.14778L174.306 29.1498L173.845 29.1498L131.222 -8.73797V-9.14778Z" fill="#F59C17"/>
<path d="M131.223 -9.56015L174.771 29.1485L174.308 29.1485L131.223 -9.14908L131.223 -9.56015Z" fill="#F59B17"/>
<path d="M131.223 -9.96902L175.232 29.1506L174.771 29.15L131.223 -9.55858L131.223 -9.96902Z" fill="#F59A17"/>
<path d="M131.223 -10.381L175.694 29.1485L175.232 29.1491L131.223 -9.97056L131.223 -10.381Z" fill="#F59917"/>
<path d="M131.223 -10.7915L176.156 29.1491L175.694 29.1485L131.223 -10.381L131.223 -10.7915Z" fill="#F59818"/>
<path d="M131.623 -10.8463L176.618 29.1493H176.156L131.224 -10.7911V-10.8463H131.623Z" fill="#F59718"/>
<path d="M132.085 -10.8469L177.079 29.1483L176.617 29.1483L131.622 -10.8469L132.085 -10.8469Z" fill="#F59618"/>
<path d="M132.547 -10.8468L177.542 29.1484L177.08 29.1484L132.085 -10.8468L132.547 -10.8468Z" fill="#F59518"/>
<path d="M133.009 -10.8467L178.004 29.1485L177.541 29.1485L132.547 -10.8467L133.009 -10.8467Z" fill="#F59419"/>
<path d="M133.47 -10.8469L178.465 29.1483L178.002 29.1483L133.008 -10.8469L133.47 -10.8469Z" fill="#F49319"/>
<path d="M133.932 -10.8464L178.927 29.1488L178.464 29.1488L133.47 -10.8464L133.932 -10.8464Z" fill="#F49219"/>
<path d="M134.394 -10.8472L179.389 29.148L178.926 29.148L133.932 -10.8472L134.394 -10.8472Z" fill="#F4911A"/>
<path d="M134.856 -10.8465L179.851 29.1487L179.388 29.1487L134.394 -10.8465L134.856 -10.8465Z" fill="#F4901A"/>
<path d="M135.317 -10.8467L180.312 29.1485L179.849 29.1485L134.854 -10.8467L135.317 -10.8467Z" fill="#F48F1A"/>
<path d="M135.78 -10.8466L180.774 29.1486L180.312 29.1486L135.317 -10.8466L135.78 -10.8466Z" fill="#F48E1A"/>
<path d="M136.242 -10.8465L181.236 29.1487L180.774 29.1487L135.779 -10.8465L136.242 -10.8465Z" fill="#F48D1B"/>
<path d="M136.704 -10.8465L181.698 29.1488L181.236 29.1488L136.241 -10.8465L136.704 -10.8465Z" fill="#F48C1B"/>
<path d="M137.167 -10.8464L182.161 29.1489L181.699 29.1489L136.704 -10.8464L137.167 -10.8464Z" fill="#F48B1B"/>
<path d="M137.628 -10.8463L182.623 29.1489L182.161 29.1489L137.166 -10.8463L137.628 -10.8463Z" fill="#F48A1B"/>
<path d="M138.089 -10.8465L183.084 29.1488L182.622 29.1488L137.627 -10.8465L138.089 -10.8465Z" fill="#F4891C"/>
<path d="M138.553 -10.8424L183.546 29.1535L183.085 29.1535L138.091 -10.8418L138.553 -10.8424Z" fill="#F3881C"/>
<path d="M139.014 -10.8423L184.008 29.1536L183.547 29.1543L138.553 -10.8416L139.014 -10.8423Z" fill="#F3871C"/>
<path d="M139.477 -10.8422L184.471 29.1537L184.009 29.1543L139.016 -10.8416L139.477 -10.8422Z" fill="#F3861D"/>
<path d="M139.939 -10.8421L184.933 29.1538L184.471 29.1544L139.478 -10.8415L139.939 -10.8421Z" fill="#F3851D"/>
<path d="M140.399 -10.8419L185.393 29.154L184.931 29.1546L139.938 -10.8413L140.399 -10.8419Z" fill="#F3841D"/>
<path d="M140.862 -10.8418L185.856 29.1541L185.394 29.1547L140.4 -10.8412L140.862 -10.8418Z" fill="#F3831D"/>
<path d="M141.323 -10.842L186.317 29.1539L185.855 29.1545L140.861 -10.8414L141.323 -10.842Z" fill="#F3821E"/>
<path d="M141.786 -10.8419L186.78 29.154L186.318 29.1546L141.324 -10.8413L141.786 -10.8419Z" fill="#F3811E"/>
<path d="M142.248 -10.8418L187.242 29.1541L186.78 29.1547L141.786 -10.8412L142.248 -10.8418Z" fill="#F3801E"/>
<path d="M142.707 -10.846L187.702 29.1492L187.241 29.1492L142.247 -10.8466L142.707 -10.846Z" fill="#F3801E"/>
<path d="M143.169 -10.8465L188.164 29.1487L187.702 29.1487L142.707 -10.8465L143.169 -10.8465Z" fill="#F3801F"/>
<path d="M143.632 -10.8464L188.627 29.1488L188.165 29.1488L143.17 -10.8464L143.632 -10.8464Z" fill="#F27F1F"/>
<path d="M144.094 -10.8472L189.089 29.148L188.626 29.148L143.632 -10.8472L144.094 -10.8472Z" fill="#F27E1F"/>
<path d="M144.556 -10.8465L189.551 29.1487L189.088 29.1487L144.094 -10.8465L144.556 -10.8465Z" fill="#F27D1F"/>
<path d="M145.016 -10.8463L190.011 29.1489L189.548 29.1489L144.554 -10.8463L145.016 -10.8463Z" fill="#F27C20"/>
<path d="M145.479 -10.8469L190.474 29.1483L190.011 29.1483L145.017 -10.8469L145.479 -10.8469Z" fill="#F27B20"/>
<path d="M145.941 -10.8468L190.936 29.1484L190.473 29.1484L145.479 -10.8468L145.941 -10.8468Z" fill="#F27A20"/>
<path d="M146.403 -10.8467L191.397 29.1485L190.935 29.1485L145.94 -10.8467L146.403 -10.8467Z" fill="#F27921"/>
<path d="M146.866 -10.8466L191.86 29.1486L191.398 29.1486L146.403 -10.8466L146.866 -10.8466Z" fill="#F27821"/>
<path d="M147.327 -10.8468L192.321 29.1484L191.859 29.1484L146.864 -10.8468L147.327 -10.8468Z" fill="#F27721"/>
<path d="M147.79 -10.8467L192.784 29.1485L192.322 29.1485L147.327 -10.8467L147.79 -10.8467Z" fill="#F27621"/>
<path d="M148.251 -10.8469L193.245 29.1483L192.783 29.1483L147.788 -10.8469L148.251 -10.8469Z" fill="#F27522"/>
<path d="M148.712 -10.8468L193.707 29.1484L193.245 29.1484L148.25 -10.8468L148.712 -10.8468Z" fill="#F17422"/>
<path d="M149.175 -10.8467L194.17 29.1485L193.708 29.1485L148.713 -10.8467L149.175 -10.8467Z" fill="#F17322"/>
<path d="M149.636 -10.8463L194.631 29.1489L194.168 29.1489L149.174 -10.8463L149.636 -10.8463Z" fill="#F17222"/>
<path d="M150.099 -10.8468L195.094 29.1484L194.631 29.1484L149.637 -10.8468L150.099 -10.8468Z" fill="#F17123"/>
<path d="M150.56 -10.8464L195.555 29.1489L195.092 29.1489L150.098 -10.8464L150.56 -10.8464Z" fill="#F17023"/>
<path d="M151.022 -10.8466L196.017 29.1486L195.554 29.1486L150.56 -10.8466L151.022 -10.8466Z" fill="#F16F23"/>
<path d="M151.484 -10.8465L196.479 29.1488L196.016 29.1488L151.021 -10.8465L151.484 -10.8465Z" fill="#F16E24"/>
<path d="M151.946 -10.8464L196.94 29.1488L196.478 29.1488L151.483 -10.8464L151.946 -10.8464Z" fill="#F16D24"/>
<path d="M152.408 -10.8466L197.402 29.1486L196.94 29.1486L151.945 -10.8466L152.408 -10.8466Z" fill="#F16C24"/>
<path d="M152.87 -10.8465L197.864 29.1488L197.402 29.1488L152.407 -10.8465L152.87 -10.8465Z" fill="#F16B24"/>
<path d="M153.332 -10.8464L198.326 29.1488L197.864 29.1488L152.869 -10.8464L153.332 -10.8464Z" fill="#F06A25"/>
<path d="M153.794 -10.8472L198.788 29.148L198.326 29.148L153.331 -10.8472L153.794 -10.8472Z" fill="#F06925"/>
<path d="M154.255 -10.8467L199.25 29.1485L198.788 29.1485L153.793 -10.8467L154.255 -10.8467Z" fill="#F06825"/>
<path d="M154.718 -10.8464L199.713 29.1488L199.25 29.1488L154.256 -10.8464L154.718 -10.8464Z" fill="#F06725"/>
<path d="M155.179 -10.8466L200.174 29.1486L199.711 29.1486L154.717 -10.8466L155.179 -10.8466Z" fill="#F06626"/>
<path d="M155.641 -10.8468L200.636 29.1484L200.173 29.1484L155.179 -10.8468L155.641 -10.8468Z" fill="#F06526"/>
<path d="M156.103 -10.847L201.098 29.1483L200.635 29.1483L155.641 -10.847L156.103 -10.847Z" fill="#F06426"/>
<path d="M156.565 -10.8468L201.56 29.1484L201.097 29.1484L156.103 -10.8468L156.565 -10.8468Z" fill="#F06327"/>
<path d="M157.027 -10.8468L202.022 29.1484L201.559 29.1484L156.564 -10.8468L157.027 -10.8468Z" fill="#F06227"/>
<path d="M157.489 -10.8467L202.483 29.1485L202.021 29.1485L157.026 -10.8467L157.489 -10.8467Z" fill="#F06127"/>
<path d="M157.951 -10.8469L202.945 29.1483L202.483 29.1483L157.488 -10.8469L157.951 -10.8469Z" fill="#F06027"/>
<path d="M158.413 -10.8468L203.407 29.1484L202.945 29.1484L157.95 -10.8468L158.413 -10.8468Z" fill="#EF5F28"/>
<path d="M158.876 -10.8467L203.87 29.1485L203.408 29.1485L158.413 -10.8467L158.876 -10.8467Z" fill="#EF5E28"/>
<path d="M159.336 -10.8463L204.331 29.149L203.869 29.149L158.874 -10.8463L159.336 -10.8463Z" fill="#EF5D28"/>
<path d="M159.799 -10.8468L204.794 29.1484L204.332 29.1484L159.337 -10.8468L159.799 -10.8468Z" fill="#EF5C28"/>
<path d="M160.261 -10.8467L205.256 29.1485L204.793 29.1485L159.799 -10.8467L160.261 -10.8467Z" fill="#EF5B29"/>
<path d="M160.722 -10.8469L205.717 29.1483L205.254 29.1483L160.26 -10.8469L160.722 -10.8469Z" fill="#EF5A29"/>
<path d="M205.717 29.1495L160.722 -10.8463H206.216L206.216 29.1489L205.717 29.1495Z" fill="#EF5A29"/>
</g>
<defs>
<linearGradient id="paint0_linear_1851_13449" x1="167.436" y1="9.72055" x2="167.436" y2="294.184" gradientUnits="userSpaceOnUse">
<stop stop-color="#00FFA7"/>
<stop offset="0.83" stop-color="#0D4DFF"/>
<stop offset="1" stop-color="#0D4DFF"/>
</linearGradient>
<linearGradient id="paint1_linear_1851_13449" x1="267.464" y1="62.1904" x2="267.464" y2="220.463" gradientUnits="userSpaceOnUse">
<stop stop-color="#00FFA7"/>
<stop offset="0.83" stop-color="#0D4DFF"/>
<stop offset="1" stop-color="#0D4DFF"/>
</linearGradient>
<linearGradient id="paint2_linear_1851_13449" x1="67.4644" y1="63.0796" x2="67.4644" y2="219.214" gradientUnits="userSpaceOnUse">
<stop stop-color="#00FFA7"/>
<stop offset="0.83" stop-color="#0D4DFF"/>
<stop offset="1" stop-color="#0D4DFF"/>
</linearGradient>
<clipPath id="clip0_1851_13449">
<rect width="307" height="128" fill="white"/>
</clipPath>
</defs>
</svg>
