<svg width="307" height="128" viewBox="0 0 307 128" fill="none" xmlns="http://www.w3.org/2000/svg">
<g clip-path="url(#clip0_1851_13410)">
<path opacity="0.3" fill-rule="evenodd" clip-rule="evenodd" d="M76.9688 90.6422H57.9118V170.72H76.9688V90.6422Z" fill="url(#paint0_linear_1851_13410)"/>
<path opacity="0.3" fill-rule="evenodd" clip-rule="evenodd" d="M278.969 90.6422H259.912V170.72H278.969V90.6422Z" fill="url(#paint1_linear_1851_13410)"/>
<path opacity="0.3" fill-rule="evenodd" clip-rule="evenodd" d="M178.01 39.993H159.027V83.591H178.01V39.993Z" fill="url(#paint2_linear_1851_13410)"/>
<path d="M158.368 41.3147L105.772 13.2631C100.185 10.2845 100.185 5.45337 105.772 2.4747L158.368 -25.5769C163.955 -28.5564 173.012 -28.5564 178.597 -25.5769L231.194 2.4747C236.78 5.45337 236.78 10.2845 231.194 13.2631L178.597 41.3147C173.012 44.2943 163.955 44.2943 158.368 41.3147Z" fill="white"/>
<path d="M258.503 94.72L205.906 66.6685C200.32 63.6889 200.32 58.8587 205.906 55.88L258.503 27.8285C264.089 24.8489 273.147 24.8489 278.732 27.8285L331.329 55.88C336.915 58.8587 336.915 63.6889 331.329 66.6685L278.732 94.72C273.147 97.6996 264.089 97.6996 258.503 94.72Z" fill="white"/>
<path d="M58.2335 94.72L5.63654 66.6685C0.0495391 63.6889 0.0495391 58.8587 5.63654 55.88L58.2335 27.8285C63.8195 24.8489 72.8765 24.8489 78.4625 27.8285L131.059 55.88C136.645 58.8587 136.645 63.6889 131.059 66.6685L78.4625 94.72C72.8765 97.6996 63.8195 97.6996 58.2335 94.72Z" fill="white"/>
<path d="M158.368 148.126L105.772 120.075C100.185 117.095 100.185 112.265 105.772 109.285L158.368 81.2347C163.955 78.2552 173.012 78.2552 178.597 81.2347L231.194 109.285C236.78 112.265 236.78 117.095 231.194 120.075L178.597 148.126C173.012 151.106 163.955 151.106 158.368 148.126Z" fill="white"/>
<path d="M82.8134 72.8356C83.2444 72.3796 83.1354 71.8445 82.5244 71.4036C82.2354 71.1956 81.8254 71 81.2714 70.8054C80.3044 70.4658 79.6484 70.1832 79.2024 69.9583C83.6024 69.3574 88.0854 68.3858 91.8194 67.2125C97.8554 65.3147 99.3784 63.7965 99.5934 62.856C100.162 60.3689 98.5804 58.0258 95.0184 56.08C93.1204 55.0418 91.0514 54.3449 89.8984 54.0205C89.1481 53.4576 88.3504 52.9464 87.5124 52.4916C85.8064 51.552 83.8964 50.9369 81.8114 50.6525C81.0797 49.8707 80.2697 49.1495 79.3914 48.4978C76.7514 46.536 73.8004 45.3938 70.6234 45.1023C66.7754 44.7485 62.9614 45.6676 59.2904 47.832C58.1244 48.5192 55.0774 50.8765 52.6164 53.3423C51.2024 54.7592 50.1744 56.0134 49.5614 57.072C48.6914 58.5725 48.6464 59.7049 49.4244 60.5352C49.8614 61.0009 50.8974 61.7156 53.1884 61.8276C53.1554 62.0143 53.1754 62.2285 53.2804 62.4729C53.4114 62.7823 53.6634 63.1129 53.9904 63.4036C55.1664 64.4489 56.7334 65.1805 58.5364 65.5556L57.9354 65.896C57.6454 66.0596 57.3614 66.2205 57.0984 66.3716C55.3234 67.3974 54.0104 68.232 53.3764 68.9672C53.3424 69.008 53.2854 69.0676 53.2254 69.1307C52.8414 69.5334 52.1994 70.208 52.2444 71.0285C52.2904 71.8774 53.0434 72.5334 53.9524 73.0169C54.4074 73.2596 54.9014 73.4596 55.3634 73.6196C57.0124 74.1885 58.9994 74.7743 61.7034 74.5218C64.2594 74.2836 67.0354 73.3512 70.6924 71.4996L71.0144 71.3636L71.2244 71.2747L71.4514 71.4187L71.5114 71.4552C72.8314 72.2267 74.8164 72.9725 76.3364 73.2694C77.5394 73.5032 81.5574 74.1663 82.8134 72.8356Z" fill="black"/>
<path d="M80.0844 71.7689C75.1224 70.0285 76.2324 69.1342 76.2324 69.1342C87.0194 68.0134 97.0134 64.6196 97.4484 62.7165C98.6354 57.5254 88.6544 54.9565 88.4644 54.9262L88.4174 54.9094C87.7724 54.3858 86.9644 53.8471 85.9594 53.2934C84.1284 52.2845 82.1984 51.808 80.3144 51.6702C80.3144 51.6702 72.5544 41.7316 60.8934 48.6054C58.4124 50.0676 44.8774 61.1396 54.3654 60.6756C57.8344 60.5049 60.9564 60.4622 60.9564 60.4622C61.2104 61.1334 61.8584 61.752 62.8994 62.2089L63.0354 62.2151C62.7821 62.3261 62.5444 62.4633 62.3274 62.624C59.9784 62.6934 60.0864 62.984 57.4104 62.0436C54.7024 61.0934 55.1974 62.2356 55.8444 62.8098C56.6264 63.5058 58.6724 64.9911 62.5884 64.6436L62.2634 64.7476C62.3494 65.1654 60.7374 66.3511 58.9474 67.2507C57.1584 68.1502 55.9314 68.7689 55.3424 69.4489C54.7524 70.128 52.9964 71.4294 56.5384 72.6516C59.4984 73.6729 62.1144 73.624 64.5484 72.5138C66.2774 71.7245 66.3224 72.0018 67.7754 71.2454L68.6814 71.0045C71.1174 69.9831 71.6004 69.4907 72.7754 70.4667L73.1084 70.6782C74.1634 71.2942 75.8384 71.944 77.0814 72.1867C79.7584 72.7094 82.2584 72.5316 80.0834 71.7689H80.0844Z" fill="#33678F"/>
<path d="M73.0813 56.3511C72.7633 56.1263 72.3793 55.9725 72.0813 55.9503C71.963 55.9381 71.8432 55.9531 71.7333 55.9938C71.6676 56.0227 71.6103 56.0646 71.5659 56.1165C71.5215 56.1683 71.4912 56.2285 71.4773 56.2925C71.4163 56.5227 71.5183 56.7583 71.7503 56.9218C71.7843 56.9465 71.8204 56.9687 71.8583 56.9885C72.3073 57.2276 73.0643 57.2587 73.3583 57.1405C73.7273 56.992 73.4733 56.6276 73.0813 56.3511Z" fill="white"/>
<path d="M85.35 62.9049C85.568 62.7512 85.19 62.4721 84.703 62.2756C84.216 62.0801 83.609 61.9618 83.39 62.1156C83.22 62.2356 83.24 62.6054 83.662 62.8303C83.6988 62.8505 83.7372 62.8684 83.777 62.8836C84.097 63.0134 84.483 63.0285 84.684 63.0249C84.991 63.0214 85.252 62.9743 85.35 62.9049Z" fill="white"/>
<path d="M77.3507 71.7831C76.4887 71.6151 75.2967 71.1982 74.3167 70.7227C73.2337 70.1965 72.8717 69.8276 72.8487 69.7085C73.9857 69.0391 74.5557 69.2098 75.1587 69.3911C75.2527 69.4187 75.3457 69.4471 75.4397 69.4711C75.4487 69.5129 75.4597 69.5574 75.4777 69.6027C75.7607 70.3387 77.1847 71.1618 79.7097 72.0471L79.7377 72.0578C78.9341 72.033 78.135 71.941 77.3507 71.7831ZM57.1537 72.5085C54.4137 71.5627 54.7667 70.5227 55.5557 69.5405C56.0657 68.9058 59.7307 66.7725 64.0797 64.5796C64.1324 64.5544 64.1797 64.5213 64.2197 64.4818C64.3057 64.4214 64.3847 64.3574 64.4557 64.288C64.8957 63.8658 64.9817 63.3618 64.6797 62.9734C64.5597 62.8196 64.3397 62.536 63.7727 62.3574C64.2657 62.1965 64.8807 62.0462 65.5457 61.8845L65.8267 61.816C66.1417 61.7396 66.4877 61.6694 66.8537 61.5956C68.8287 61.1956 71.5337 60.6489 74.8357 57.9147C76.0737 56.8916 75.7047 55.872 73.7977 55.0462C72.6547 54.5511 71.2887 54.2685 70.5767 54.144C70.4237 54.1174 70.2807 54.0942 70.1457 54.0738C71.8677 53.296 75.3387 51.9769 79.0827 51.968C81.4417 51.9627 83.5887 52.4854 85.4627 53.5174C89.1547 55.552 89.6357 57.8631 89.3887 59.4436C89.1757 60.8054 88.4157 61.8862 87.9177 62.4223C86.2087 61.3049 84.5397 60.8151 82.9467 60.9654C79.4807 61.2916 77.7287 64.5805 76.8867 66.1609C76.7337 66.4507 76.5997 66.7014 76.5247 66.7974C76.0327 67.4285 75.9207 67.9654 75.8397 68.3565C75.8147 68.4765 75.7897 68.5929 75.7577 68.6889C75.0157 68.4702 73.5977 68.1227 71.7737 69.1965C70.7357 69.6694 65.6877 71.784 63.8207 72.4871C61.3547 73.4151 59.7967 73.4205 57.1537 72.5085ZM56.4837 62.5698C56.2737 62.3822 56.1427 62.1831 56.0957 62.0507C56.2777 62.0854 56.5767 62.1609 57.0367 62.3218C59.2597 63.1031 59.8127 63.112 61.2247 63.0231C61.5487 63.0027 61.9147 62.9796 62.3897 62.9654C63.0967 62.944 63.1857 63.0596 63.3477 63.2676C63.4797 63.4365 63.4167 63.7031 63.1967 63.9147C63.0121 64.0899 62.7617 64.199 62.4927 64.2214C59.3727 64.4987 57.5027 63.4765 56.4837 62.5698ZM61.5777 59.6951C61.6167 58.712 62.5167 57.7947 64.0467 57.1787C66.1897 56.3165 67.7297 55.3911 68.5577 54.8942L68.8557 54.7165C69.6577 54.7423 72.6827 55.2294 73.7647 56.1511C74.2587 56.5707 74.2127 57.0116 73.6247 57.4987C70.5787 60.0196 68.2297 60.4951 66.3417 60.8765C65.9537 60.9547 65.5857 61.0294 65.2257 61.1174L64.9477 61.1858C64.2447 61.3574 63.5897 61.5165 63.0267 61.6987C62.0707 61.1858 61.5467 60.4685 61.5777 59.6951ZM54.3217 60.2498C52.5247 60.3378 52.1487 59.9369 52.0257 59.8054C51.2207 58.9467 52.3717 56.8382 55.1827 54.0214C57.6157 51.584 60.5117 49.3734 61.4497 48.8205C64.4157 47.072 67.3487 46.3147 70.1667 46.5707C74.7537 46.9867 78.0267 49.9476 79.2217 51.2009L79.0707 51.1991C73.2227 51.2151 68.2727 53.9289 67.9727 54.096C67.8547 54.1591 67.6967 54.2542 67.4797 54.384C66.6857 54.8605 65.2067 55.7485 63.1787 56.5654C61.2937 57.3236 60.1857 58.4587 60.1367 59.6791C60.1317 59.8054 60.1387 59.9307 60.1577 60.0542C59.1247 60.0729 56.8617 60.1245 54.3217 60.2498ZM81.7517 65.6196C80.6297 66.3822 79.4747 67.1662 77.5707 67.5316C77.6515 67.3783 77.7469 67.2314 77.8557 67.0925C77.9627 66.9547 78.0937 66.7094 78.2737 66.3707C78.9757 65.0525 80.6207 61.9654 83.1977 61.7218C83.9647 61.6498 85.2307 61.8302 86.9947 63.0374C86.4817 63.3014 85.9547 63.5085 85.4027 63.7245C84.8087 63.9565 84.1957 64.1956 83.5307 64.5289C82.8817 64.8534 82.3077 65.2436 81.7517 65.6196ZM93.0987 57.1787C95.9847 58.7867 97.2137 60.6196 96.7547 62.6276C96.4027 64.1671 87.6377 67.3529 77.2407 68.5894L77.2727 68.4418L77.2857 68.3796C80.0527 68.0169 81.5547 66.9982 82.8857 66.0951C83.4317 65.7245 83.9477 65.3742 84.5157 65.0898C85.1187 64.7885 85.6957 64.5627 86.2537 64.344C86.9427 64.0756 87.6537 63.7956 88.3557 63.3938C88.4507 63.3636 88.5487 63.32 88.6457 63.2569C89.2777 62.8498 90.5697 61.3111 90.8347 59.4374C90.9817 58.4125 90.8427 57.1049 89.8547 55.7458C90.7727 56.0667 91.9597 56.5431 93.0987 57.1787ZM81.5487 72.4471C81.8667 72.1111 81.5137 71.76 80.5017 71.4054C77.4977 70.3511 76.9617 69.6862 76.8847 69.4142C81.7697 68.8747 86.9257 67.8231 91.1097 66.5076C93.0917 65.8845 94.7797 65.224 95.9907 64.5982C97.3197 63.9111 98.0577 63.2791 98.1857 62.7209C98.7007 60.4685 97.2507 58.3405 93.9937 56.5654C91.7547 55.3449 89.2627 54.6338 88.7287 54.5227C88.1427 54.0027 87.4107 53.4854 86.4987 52.9831C84.8277 52.0614 82.9517 51.4951 80.9057 51.2889C80.1305 50.4066 79.2489 49.6024 78.2767 48.8907C75.8547 47.1031 73.2087 46.0676 70.4127 45.8134C67.0757 45.5094 63.7007 46.3476 60.3807 48.3049C59.2637 48.9636 56.3167 51.2489 53.9107 53.6605C50.7437 56.8338 49.6747 59.0169 50.7357 60.1494C50.8597 60.2818 51.0317 60.4187 51.2677 60.5449C51.8487 60.8551 52.8227 61.0951 54.4537 61.0151C57.1637 60.8818 59.5517 60.8329 60.4257 60.8187C60.7157 61.3316 61.2147 61.7983 61.8997 62.1831C61.8817 62.1929 61.8667 62.2045 61.8487 62.2151C61.5407 62.2285 61.2787 62.2454 61.0547 62.2596C59.9497 62.3298 59.7187 62.344 57.8287 61.68C57.2897 61.4916 55.8617 60.9894 55.0137 61.4231C54.0877 61.8969 55.1257 62.8569 55.2467 62.9654C55.6697 63.3405 56.1427 63.6676 56.6607 63.9431C57.9197 64.6151 59.4417 64.9849 61.1267 65.0303C57.8657 66.7405 54.8137 68.512 54.2317 69.2374C53.7537 69.8302 52.5887 71.2809 55.0427 72.5903C55.4037 72.7822 55.8407 72.9707 56.3717 73.1538C59.4817 74.2267 61.7257 74.216 64.6517 73.1147C66.2157 72.5262 69.7957 71.0382 71.6907 70.2267C71.9597 70.5005 72.4097 70.8 72.9547 71.0907C74.0937 71.6978 75.6497 72.2694 76.8557 72.5049C78.2097 72.7689 80.9357 73.0978 81.5487 72.4471Z" fill="white"/>
<path d="M170.246 14.1893H168.882C168.642 14.1893 168.446 14.2942 168.445 14.4222L168.446 17.1804C168.447 17.3084 168.642 17.4124 168.883 17.4124H170.246C170.486 17.4124 170.681 17.3084 170.682 17.1804V14.4213C170.681 14.2933 170.486 14.1893 170.246 14.1893ZM170.888 10.8436L168.459 12.1387C169.316 12.2402 170.185 12.224 171.035 12.0907L172.131 11.5067L170.888 10.8436ZM170.883 8.09422L165.376 11.032C165.548 11.1653 165.741 11.2933 165.963 11.4116C166.165 11.52 166.384 11.6142 166.61 11.6996L172.127 8.75822L170.883 8.09422ZM166.694 7.70044L164.648 8.79111C164.542 9.0012 164.484 9.22845 164.48 9.45894C164.475 9.68944 164.524 9.91831 164.622 10.1316L167.937 8.36266L166.694 7.70044Z" fill="white"/>
<path d="M270.977 73.7885L268.014 67.4756C267.812 67.0498 267.292 66.6862 266.576 66.4702C265.815 66.2509 265.005 66.2033 264.218 66.3316C263.581 66.4293 263.012 66.6276 262.589 66.9005L253.915 71.5271C252.671 72.1405 252.594 73.1742 253.743 73.8373C254.891 74.5005 256.831 74.5413 258.074 73.9289C258.133 73.8996 258.191 73.8693 258.246 73.8373L263.231 71.1778L264.89 74.7147C265.094 75.1405 265.611 75.504 266.325 75.7227C267.037 75.9413 267.894 75.9893 268.682 75.8613C270.365 75.6053 271.367 74.696 270.97 73.7911M259.375 62.5858C258.963 62.2613 258.34 62.0293 257.626 61.9351L245.79 60.3547C244.093 60.1431 242.385 60.6809 241.91 61.5751C241.67 61.9956 241.764 62.4498 242.169 62.832C242.575 63.2142 243.256 63.4916 244.055 63.6L250.777 64.4969L245.753 67.176C244.51 67.7885 244.433 68.8222 245.581 69.4853C246.73 70.1485 248.669 70.1902 249.913 69.5769C249.972 69.5476 250.03 69.5173 250.085 69.4853L258.985 64.7387C260.086 64.168 260.254 63.2569 259.381 62.5831M273.656 65.0702C272.837 65.4925 272.498 66.1138 272.765 66.7049L275.723 73.0151C275.925 73.4409 276.444 73.8036 277.161 74.0196C277.877 74.2356 278.729 74.2862 279.517 74.1591C281.197 73.9067 282.206 72.9938 281.806 72.088L280.133 68.5173L286.835 69.4116C288.532 69.6231 290.241 69.0862 290.715 68.192C290.956 67.7707 290.862 67.3165 290.456 66.9342C290.051 66.552 289.371 66.2738 288.568 66.1698L276.736 64.592C275.621 64.4489 274.446 64.6338 273.655 65.0765M253.994 51.896L255.67 55.4702L248.97 54.5742C247.273 54.3636 245.565 54.9013 245.089 55.7956C244.85 56.216 244.944 56.6702 245.349 57.0525C245.753 57.4356 246.435 57.7129 247.234 57.8205L259.071 59.4C260.187 59.5333 261.333 59.3467 262.137 58.9173C262.94 58.4898 263.281 57.8738 263.043 57.2818L260.081 50.9689C259.877 50.5431 259.36 50.1796 258.646 49.9609C257.934 49.7422 257.078 49.6951 256.289 49.8231C254.607 50.0782 253.605 50.9876 254 51.8925M264.3 59.6373L263.524 60.0507C263.338 60.16 263.227 60.2996 263.206 60.4462L263.094 63.6373C263.102 63.7805 263.205 63.9182 263.384 64.0258L264.13 64.4231C264.331 64.5191 264.589 64.5742 264.859 64.5778L270.841 64.5182C271.117 64.5076 271.377 64.448 271.582 64.3485L272.358 63.9351C272.543 63.8258 272.655 63.6871 272.675 63.5405L272.788 60.3493C272.78 60.2053 272.677 60.0676 272.498 59.9609L271.751 59.5627C271.525 59.4616 271.276 59.4087 271.023 59.408L265.035 59.4711C264.759 59.4827 264.499 59.5422 264.294 59.64M266.549 61.2311C266.716 61.1539 266.901 61.1116 267.09 61.1076L268.854 61.0889C269.051 61.0933 269.241 61.1333 269.389 61.2036L269.421 61.2205C269.552 61.2996 269.627 61.4 269.634 61.5058L269.6 62.4462C269.585 62.5529 269.503 62.6551 269.367 62.7351L269.332 62.7529C269.183 62.8258 268.992 62.8693 268.789 62.8782L267.026 62.896C266.84 62.8959 266.657 62.8573 266.492 62.7831L266.459 62.7662C266.328 62.6871 266.251 62.5849 266.247 62.48L266.281 61.5396C266.295 61.432 266.378 61.3298 266.514 61.2498L266.549 61.2311ZM278.188 62.0489L290.024 63.6293C291.721 63.8409 293.432 63.3031 293.906 62.4089C294.387 61.5582 293.485 60.6596 291.89 60.4027L291.762 60.384L285.124 59.4951L290.153 56.8133C291.392 56.1982 291.462 55.1645 290.31 54.5031C289.157 53.8427 287.217 53.8045 285.978 54.4196C285.923 54.4462 285.872 54.4738 285.821 54.5031L277.105 59.152C276.593 59.3778 276.221 59.68 276.039 60.0196C275.799 60.44 275.893 60.8951 276.298 61.2773C276.703 61.6605 277.387 61.9369 278.188 62.0427M264.831 50.1991L267.793 56.512C268.13 57.2329 269.354 57.7333 270.746 57.7218C271.627 57.7307 272.478 57.5467 273.098 57.2116L281.991 52.4693C282.814 52.0622 283.155 51.4471 282.877 50.8667C282.601 50.2871 281.751 49.8338 280.664 49.6862C279.575 49.5378 278.422 49.7191 277.659 50.1591L272.599 52.8578L270.916 49.272C270.713 48.8471 270.196 48.4836 269.482 48.2649C268.77 48.0462 267.914 47.9982 267.124 48.1262C265.443 48.3822 264.44 49.2916 264.836 50.1956" fill="#29B5E8"/>
<path d="M151.073 0.0276283C150.708 0.252536 150.41 0.552831 150.204 0.902723L144.761 11.7642C144.326 12.6136 144.79 13.5401 145.948 14.1579L160.831 22.0852C162.201 22.7484 163.784 22.9754 165.319 22.7287L185.675 19.8202C187.238 19.6143 188.483 18.9194 188.918 18.0701L194.39 7.2343C194.796 6.35921 194.332 5.48411 193.174 4.8664L184.111 0.0018904L151.073 0.0276283Z" fill="url(#paint3_linear_1851_13410)"/>
<path d="M164.57 12.1645C161.812 10.6933 161.812 8.30935 164.57 6.83824C167.328 5.36713 171.799 5.36801 174.557 6.83824C177.315 8.30935 177.315 10.6942 174.557 12.1645C171.799 13.6356 167.328 13.6356 164.57 12.1645ZM176.145 5.99113C172.51 4.05335 166.618 4.05335 162.982 5.99201C159.348 7.92979 159.348 11.0729 162.982 13.0116C166.617 14.9493 172.509 14.9493 176.144 13.0116C179.779 11.072 179.779 7.92979 176.145 5.99113Z" fill="white"/>
<path d="M166.025 122.981C164.756 122.305 164.757 121.204 166.026 120.526C167.295 119.85 169.359 119.85 170.628 120.526C171.897 121.204 171.897 122.304 170.628 122.981C169.359 123.658 167.294 123.658 166.025 122.981ZM160.361 113.683C158.589 112.739 158.591 111.204 160.361 110.26C162.129 109.316 165.008 109.316 166.778 110.26C168.547 111.204 168.547 112.74 166.778 113.683C165.008 114.627 162.129 114.627 160.361 113.683ZM152.328 120.422C151.059 121.099 148.995 121.099 147.726 120.422C146.458 119.746 146.457 118.644 147.725 117.967C148.994 117.291 151.058 117.291 152.328 117.968C153.598 118.645 153.597 119.746 152.328 120.422ZM174.647 103.611C175.916 102.933 177.98 102.933 179.25 103.611C180.52 104.288 180.518 105.388 179.25 106.065C177.981 106.741 175.917 106.741 174.648 106.065C173.379 105.388 173.379 104.287 174.647 103.611ZM184.175 113.302C185.445 113.979 185.443 115.08 184.174 115.757C182.906 116.434 180.841 116.434 179.573 115.757C178.304 115.08 178.304 113.98 179.573 113.303C180.841 112.627 182.907 112.626 184.175 113.302ZM173.077 119.222C171.712 118.495 169.826 118.117 167.901 118.185L167.251 116.153C168.139 115.932 168.975 115.631 169.709 115.241C170.406 114.867 170.977 114.432 171.398 113.955L175.186 114.308C175.062 115.332 175.77 116.335 177.129 117.061C179.754 118.456 184 118.456 186.625 117.061C189.239 115.661 189.239 113.397 186.625 111.997C184 110.603 179.754 110.603 177.129 111.997C176.702 112.221 176.315 112.499 175.979 112.822L172.189 112.468C172.412 111.356 171.879 110.212 170.6 109.267L173.286 107.834C175.946 108.756 179.454 108.562 181.701 107.368C184.312 105.967 184.309 103.704 181.695 102.306C179.07 100.911 174.825 100.911 172.201 102.306C169.947 103.508 169.64 105.355 171.264 106.738L168.533 108.194C165.165 106.923 160.461 107.091 157.443 108.7C154.411 110.317 154.105 112.844 156.515 114.648L153.644 116.18C151.061 115.287 147.55 115.453 145.283 116.663C142.669 118.062 142.669 120.326 145.282 121.725C147.907 123.12 152.152 123.12 154.777 121.725C157.045 120.516 157.342 118.652 155.682 117.267L158.553 115.735C160.3 116.4 162.407 116.678 164.456 116.569L165.111 118.613C164.577 118.765 164.065 118.97 163.582 119.222C160.967 120.621 160.967 122.886 163.582 124.285C166.207 125.68 170.452 125.68 173.077 124.285C175.691 122.886 175.691 120.621 173.077 119.222Z" fill="black"/>
</g>
<defs>
<linearGradient id="paint0_linear_1851_13410" x1="67.4403" y1="90.6422" x2="67.4403" y2="283.136" gradientUnits="userSpaceOnUse">
<stop stop-color="#00FFA7"/>
<stop offset="0.83" stop-color="#0D4DFF"/>
<stop offset="1" stop-color="#0D4DFF"/>
</linearGradient>
<linearGradient id="paint1_linear_1851_13410" x1="269.44" y1="90.6422" x2="269.44" y2="283.136" gradientUnits="userSpaceOnUse">
<stop stop-color="#00FFA7"/>
<stop offset="0.83" stop-color="#0D4DFF"/>
<stop offset="1" stop-color="#0D4DFF"/>
</linearGradient>
<linearGradient id="paint2_linear_1851_13410" x1="168.46" y1="39.993" x2="168.46" y2="144.796" gradientUnits="userSpaceOnUse">
<stop stop-color="#00FFA7"/>
<stop offset="0.83" stop-color="#0D4DFF"/>
<stop offset="1" stop-color="#0D4DFF"/>
</linearGradient>
<linearGradient id="paint3_linear_1851_13410" x1="184.053" y1="-3.39554" x2="158.493" y2="25.3602" gradientUnits="userSpaceOnUse">
<stop stop-color="#4387FD"/>
<stop offset="1" stop-color="#4683EA"/>
</linearGradient>
<clipPath id="clip0_1851_13410">
<rect width="307" height="128" fill="white"/>
</clipPath>
</defs>
</svg>
