<svg width="307" height="129" viewBox="0 0 307 129" fill="none" xmlns="http://www.w3.org/2000/svg">
<g clip-path="url(#clip0_1851_13432)">
<path opacity="0.8" fill-rule="evenodd" clip-rule="evenodd" d="M133.997 66.2614H0.935791V129.03H133.997V66.2614Z" fill="url(#paint0_linear_1851_13432)"/>
<path opacity="0.8" fill-rule="evenodd" clip-rule="evenodd" d="M333.997 66.2614H200.936V129.03H333.997V66.2614Z" fill="url(#paint1_linear_1851_13432)"/>
<path opacity="0.3" fill-rule="evenodd" clip-rule="evenodd" d="M176.971 11.5938H157.914V119.198H176.971V11.5938Z" fill="url(#paint2_linear_1851_13432)"/>
<path opacity="0.3" fill-rule="evenodd" clip-rule="evenodd" d="M75.9707 -72.6146H56.9138V34.9896H75.9707V-72.6146Z" fill="url(#paint3_linear_1851_13432)"/>
<path opacity="0.3" fill-rule="evenodd" clip-rule="evenodd" d="M277.971 -72.6146H258.914V34.9896H277.971V-72.6146Z" fill="url(#paint4_linear_1851_13432)"/>
<path d="M157.433 180.714L105.009 152.536C99.4422 149.543 99.4422 144.691 105.009 141.698L157.433 113.522C163 110.529 172.028 110.529 177.595 113.522L230.019 141.698C235.586 144.691 235.586 149.543 230.019 152.536L177.595 180.714C172.028 183.707 163 183.707 157.433 180.714Z" fill="white"/>
<path d="M257.52 100.071L204.923 71.8002C199.337 68.7973 199.337 63.9294 204.923 60.9274L257.52 32.6567C263.106 29.6539 272.164 29.6539 277.749 32.6567L330.346 60.9274C335.932 63.9294 335.932 68.7973 330.346 71.8002L277.749 100.071C272.164 103.074 263.106 103.074 257.52 100.071Z" fill="white"/>
<path d="M57.2501 100.071L4.65314 71.8002C-0.933859 68.7973 -0.933859 63.9294 4.65314 60.9274L57.2501 32.6567C62.8361 29.6539 71.8931 29.6539 77.4791 32.6567L130.075 60.9274C135.661 63.9294 135.661 68.7973 130.075 71.8002L77.4791 100.071C71.8931 103.074 62.8361 103.074 57.2501 100.071Z" fill="white"/>
<path d="M65.4869 67.8675H69.2409C69.7669 67.8675 70.1629 67.6552 70.1629 67.3721V65.3547C70.1629 65.0716 69.7669 64.8593 69.2409 64.8593H65.4869C64.9609 64.8593 64.5649 65.0716 64.5649 65.3547V67.3721C64.5649 67.6202 64.9939 67.8496 65.4869 67.8675ZM100.715 66.3454C100.748 67.2484 100.221 68.1326 99.1679 68.8412C98.6739 69.1064 98.2129 69.2121 97.2909 69.3895C96.3689 69.566 86.3929 71.0002 83.5619 71.3541C81.9159 71.5664 80.3689 72.0438 79.1829 72.6808C77.9659 73.3356 77.1089 74.1499 76.7149 75.0341C76.0549 76.5562 73.3559 81.9365 73.0269 82.4319C72.6969 82.9273 72.5329 83.1567 72.0389 83.4227C70.7219 83.9889 69.1089 84.2899 67.4629 84.2541C65.7839 84.272 64.1369 83.9889 62.8859 83.4227C62.3919 83.1567 62.1949 82.9094 61.8989 82.4319C61.6019 81.9536 58.7049 76.5741 58.0469 75.0529C57.9809 74.9463 57.9479 74.8227 57.8489 74.6982L54.3269 67.3192C52.8779 68.31 52.0219 69.5489 52.0539 70.8049C52.0539 71.0531 52.0879 71.2833 52.1529 71.5305C51.8569 71.4777 51.5279 71.4069 51.1989 71.372C48.3669 71.0181 38.3589 69.566 37.4369 69.3895C36.5149 69.2121 36.0869 69.1243 35.5599 68.8412C34.5069 68.1326 33.9469 67.2664 34.0119 66.3813C33.9799 65.4783 34.5069 64.5941 35.5599 63.8864C36.1365 63.6168 36.76 63.4371 37.4039 63.3552C38.3259 63.1787 48.3349 61.7274 51.1659 61.3727C52.8119 61.1613 54.3269 60.7008 55.5449 60.0459C56.7619 59.3911 57.6189 58.5768 58.0129 57.6926C58.7379 56.1347 61.4049 50.7373 61.7669 50.2599C61.9309 49.8881 62.2939 49.5522 62.7549 49.2691C64.0719 48.7029 65.6849 48.4019 67.3639 48.4198C69.0429 48.4019 70.6559 48.7029 71.9729 49.2691C72.4339 49.5522 72.7969 49.8881 72.9939 50.2778C73.2899 50.6845 75.2319 54.6306 76.2539 56.7367L76.4839 57.2142C76.5499 57.3916 76.6149 57.5331 76.6809 57.6397L76.7799 57.8691L80.3689 65.3905C82.1459 64.2223 82.9359 62.7003 82.5739 61.1962C82.8709 61.2491 83.1999 61.3198 83.5289 61.3557C86.3609 61.7095 96.4019 63.1428 97.2909 63.3372C97.9474 63.4214 98.5825 63.6072 99.1679 63.8864C100.188 64.5762 100.748 65.4433 100.715 66.3454Z" fill="#FF694A"/>
<path d="M244.578 59.8901C243.741 59.1618 243.19 58.4908 242.924 57.8762L247.867 56.8478C248.144 57.4122 248.58 57.9775 249.171 58.5463C249.765 59.1156 250.445 59.6075 251.192 60.0074C251.843 60.3568 252.372 60.5736 252.777 60.6551C253.182 60.7375 253.51 60.7116 253.763 60.5754C254.055 60.4186 254.092 60.2036 253.873 59.9268C253.654 59.6518 253.212 59.2433 252.549 58.7004C251.698 58.0017 251.044 57.3889 250.586 56.8649C250.127 56.339 249.928 55.7755 249.988 55.1708C250.048 54.5688 250.583 53.9955 251.592 53.4535C252.469 52.9823 253.51 52.6858 254.722 52.564C255.93 52.443 257.226 52.5344 258.614 52.8372C260.004 53.1418 261.395 53.6676 262.79 54.4174C263.693 54.895 264.535 55.4588 265.302 56.0989C266.018 56.7054 266.529 57.3056 266.836 57.8977L262.012 58.9692C261.347 57.8727 260.362 56.9585 259.163 56.3238C257.955 55.6743 257.057 55.5059 256.474 55.8203C256.195 55.9699 256.166 56.1786 256.385 56.4465C256.603 56.7144 257.043 57.1121 257.708 57.6406C258.572 58.3197 259.24 58.9244 259.711 59.4565C260.182 59.9886 260.395 60.5566 260.349 61.1595C260.303 61.7633 259.774 62.3348 258.764 62.8777C257.889 63.3489 256.849 63.6436 255.647 63.7619C254.445 63.8792 253.146 63.7879 251.751 63.4895C250.356 63.1894 248.962 62.6645 247.566 61.9147C246.411 61.293 245.415 60.6184 244.578 59.8901Z" fill="black"/>
<path d="M271.537 63.6705C270.759 63.5708 269.967 63.5875 269.195 63.7197C268.396 63.8499 267.63 64.1092 266.934 64.4848C266.229 64.8637 265.756 65.2686 265.51 65.7004C265.263 66.1331 265.234 66.5515 265.421 66.9582C265.605 67.3658 265.991 67.7268 266.575 68.0403C267.159 68.3548 267.83 68.5617 268.589 68.6612C269.367 68.7614 270.157 68.7454 270.929 68.6137C271.728 68.4824 272.495 68.2229 273.191 67.8477C273.894 67.4688 274.37 67.0639 274.615 66.6321C274.861 66.2003 274.892 65.7802 274.706 65.3735C274.519 64.9667 274.133 64.6057 273.55 64.2922C272.966 63.9777 272.294 63.7708 271.537 63.6705ZM269.964 75.4946C268.924 75.5474 267.88 75.4663 266.865 75.2536C265.9 75.0521 264.976 74.7179 264.125 74.2628C263.288 73.8131 262.641 73.3544 262.183 72.8877C261.725 72.4202 261.397 71.8625 261.225 71.26C261.047 70.641 260.977 69.8643 261.016 68.9299C260.087 68.172 259.512 67.3747 259.293 66.5353C259.073 65.696 259.207 64.879 259.691 64.0826C260.177 63.2871 261.01 62.5704 262.191 61.9352C263.587 61.1854 265.177 60.6945 266.964 60.4625C268.762 60.2311 270.591 60.2693 272.375 60.5754C274.194 60.8826 275.853 61.439 277.355 62.2461C278.856 63.0532 279.892 63.9455 280.466 64.9237C281.036 65.902 281.104 66.8713 280.673 67.8316C280.241 68.792 279.329 69.6466 277.934 70.3964C276.406 71.2179 274.648 71.7267 272.662 71.9229C270.678 72.12 268.716 71.9955 266.776 71.5529C266.762 71.7751 266.815 71.9632 266.934 72.1218C267.054 72.2776 267.24 72.4246 267.493 72.5607C268.182 72.9307 269.127 73.117 270.321 73.117L269.964 75.4946Z" fill="black"/>
<path d="M286.621 67.5682L291.323 70.0963L281.021 75.6325L287.318 79.0179L283.671 80.978L272.672 75.0655L286.621 67.5682Z" fill="black"/>
<path d="M157.385 12.2066L104.789 -16.0641C99.2019 -19.0669 99.2019 -23.9349 104.789 -26.9377L157.385 -55.2075C162.972 -58.2103 172.029 -58.2103 177.614 -55.2075L230.211 -26.9377C235.797 -23.9349 235.797 -19.0669 230.211 -16.0641L177.614 12.2066C172.029 15.2095 162.972 15.2095 157.385 12.2066Z" fill="white"/>
</g>
<defs>
<linearGradient id="paint0_linear_1851_13432" x1="67.4664" y1="66.2614" x2="67.4664" y2="217.148" gradientUnits="userSpaceOnUse">
<stop stop-color="#00FFA7"/>
<stop offset="0.83" stop-color="#0D4DFF"/>
<stop offset="1" stop-color="#0D4DFF"/>
</linearGradient>
<linearGradient id="paint1_linear_1851_13432" x1="267.466" y1="66.2614" x2="267.466" y2="217.148" gradientUnits="userSpaceOnUse">
<stop stop-color="#00FFA7"/>
<stop offset="0.83" stop-color="#0D4DFF"/>
<stop offset="1" stop-color="#0D4DFF"/>
</linearGradient>
<linearGradient id="paint2_linear_1851_13432" x1="167.442" y1="11.5938" x2="167.442" y2="270.258" gradientUnits="userSpaceOnUse">
<stop stop-color="#00FFA7"/>
<stop offset="0.83" stop-color="#0D4DFF"/>
<stop offset="1" stop-color="#0D4DFF"/>
</linearGradient>
<linearGradient id="paint3_linear_1851_13432" x1="66.4423" y1="-72.6146" x2="66.4423" y2="186.049" gradientUnits="userSpaceOnUse">
<stop stop-color="#00FFA7"/>
<stop offset="0.83" stop-color="#0D4DFF"/>
<stop offset="1" stop-color="#0D4DFF"/>
</linearGradient>
<linearGradient id="paint4_linear_1851_13432" x1="268.442" y1="-72.6146" x2="268.442" y2="186.049" gradientUnits="userSpaceOnUse">
<stop stop-color="#00FFA7"/>
<stop offset="0.83" stop-color="#0D4DFF"/>
<stop offset="1" stop-color="#0D4DFF"/>
</linearGradient>
<clipPath id="clip0_1851_13432">
<rect width="307" height="129" fill="white"/>
</clipPath>
</defs>
</svg>
