<?xml version="1.0" encoding="utf-8"?>
<!-- Generator: Adobe Illustrator 24.3.0, SVG Export Plug-In . SVG Version: 6.00 Build 0)  -->
<svg version="1.1" id="Layer_1" xmlns="http://www.w3.org/2000/svg" xmlns:xlink="http://www.w3.org/1999/xlink" x="0px" y="0px"
	 viewBox="0 0 512 512" style="enable-background:new 0 0 512 512;" xml:space="preserve">
<style type="text/css">
	.st0{fill:url(#SVGID_1_);}
	.st1{fill:url(#SVGID_2_);}
	.st2{fill:url(#SVGID_3_);}
	.st3{fill:url(#SVGID_4_);}
	.st4{fill:#404041;}
</style>
<g>
	<g>
		<g>
			<linearGradient id="SVGID_1_" gradientUnits="userSpaceOnUse" x1="184.32" y1="170.9534" x2="355.2964" y2="286.6595">
				<stop  offset="0" style="stop-color:#5DCBDD"/>
				<stop  offset="0.4944" style="stop-color:#73CC93"/>
				<stop  offset="1" style="stop-color:#F4E736"/>
			</linearGradient>
			<path class="st0" d="M220,215.8c11.4,0,20.7-9.2,20.7-20.7c0-11.4-9.2-20.7-20.7-20.7c-11.4,0-20.7,9.2-20.7,20.7
				C199.3,206.5,208.6,215.8,220,215.8z"/>
			<linearGradient id="SVGID_2_" gradientUnits="userSpaceOnUse" x1="205.0725" y1="140.2879" x2="376.0489" y2="255.994">
				<stop  offset="0" style="stop-color:#5DCBDD"/>
				<stop  offset="0.4944" style="stop-color:#73CC93"/>
				<stop  offset="1" style="stop-color:#F4E736"/>
			</linearGradient>
			<path class="st1" d="M286,215.8c11.4,0,20.7-9.2,20.7-20.7c0-11.4-9.2-20.7-20.7-20.7s-20.7,9.2-20.7,20.7
				C265.4,206.5,274.6,215.8,286,215.8z"/>
			<linearGradient id="SVGID_3_" gradientUnits="userSpaceOnUse" x1="159.1541" y1="208.1405" x2="330.1305" y2="323.8466">
				<stop  offset="0" style="stop-color:#5DCBDD"/>
				<stop  offset="0.4944" style="stop-color:#73CC93"/>
				<stop  offset="1" style="stop-color:#F4E736"/>
			</linearGradient>
			<path class="st2" d="M359.7,277.4l-5.7-5.7l-30.1-30.1c-7.1,12-17.2,22.1-29.2,29.2c-12.3,7.2-26.6,11.4-41.8,11.4
				c-15.5,0-30-4.3-42.4-11.7c-12-7.2-22-17.3-29-29.4l-30.1,30.1c8,11.3,17.8,21.3,29.1,29.3c20.4,14.7,45.4,23.3,72.5,23.3
				c26.8,0,51.6-8.5,72-23l5.7,5.7c8.1,8.1,21.1,8.1,29.2,0C367.8,298.5,367.8,285.4,359.7,277.4z"/>
		</g>
	</g>
	<linearGradient id="SVGID_4_" gradientUnits="userSpaceOnUse" x1="387.2973" y1="147.0428" x2="123.8593" y2="150.1421">
		<stop  offset="0" style="stop-color:#355AAD"/>
		<stop  offset="0.4832" style="stop-color:#119ED8"/>
		<stop  offset="1" style="stop-color:#53C29D"/>
	</linearGradient>
	<path class="st3" d="M375.3,179c-3.2-19.1-10.7-36.7-21.6-51.8c-8.1-11.3-18-21.1-29.3-29.1c-20.2-14.2-44.8-22.6-71.5-22.6
		c-26.8,0-51.6,8.5-72,23c-11.3,8-21.2,17.9-29.2,29.2c-10.7,15-18.1,32.4-21.2,51.3c-1.1,6.7-1.7,13.6-1.7,20.7s0.6,13.9,1.7,20.7
		h42.4c-1.7-6.6-2.6-13.5-2.6-20.7c0-7.1,0.9-14.1,2.6-20.7c1.9-7.5,4.9-14.6,8.8-21.2c7.1-12,17.2-22.1,29.2-29.2
		c12.3-7.2,26.6-11.4,41.8-11.4c15,0,29.1,4,41.3,11.1c12.1,7,22.2,17,29.4,29c4,6.7,7.1,14,9.1,21.7c1.7,6.6,2.6,13.5,2.6,20.7
		c0,7.1-0.9,14.1-2.6,20.7h42.6c1.1-6.7,1.7-13.6,1.7-20.7S376.4,185.7,375.3,179z"/>
</g>
<g>
	<path class="st4" d="M55.5,395c0-17.4,11.5-27.4,24.7-27.4c6.8,0,12.2,3.2,15.7,6.8l-6.2,7.6c-2.6-2.4-5.5-4.2-9.2-4.2
		c-7.2,0-12.8,6.3-12.8,16.8c0,10.8,5,17,12.7,17c4.3,0,7.7-2.1,10.2-4.9l6.2,7.4c-4.3,5.1-10.1,7.7-16.9,7.7
		C66.6,421.8,55.5,412.6,55.5,395z"/>
	<path class="st4" d="M101,408.5v-43.9h11.8V409c0,2.5,1.2,3.3,2.1,3.3c0.5,0,0.8,0,1.4-0.2l1.4,8.7c-1.3,0.6-3.2,1-5.9,1
		C103.8,421.8,101,416.5,101,408.5z"/>
	<path class="st4" d="M118.4,400.9c0-13.2,9.3-20.9,19.4-20.9s19.4,7.7,19.4,20.9c0,13.2-9.3,20.9-19.4,20.9
		S118.4,414.1,118.4,400.9z M145.1,400.9c0-6.9-2.4-11.4-7.3-11.4c-4.9,0-7.3,4.5-7.3,11.4s2.4,11.3,7.3,11.3
		C142.7,412.3,145.1,407.8,145.1,400.9z"/>
	<path class="st4" d="M162.7,405.7V381h11.8v23.2c0,5.7,1.5,7.5,4.9,7.5c3,0,4.8-1.2,7.1-4.4V381h11.8v39.9h-9.6l-0.9-5.5h-0.3
		c-3.3,4-7.1,6.5-12.5,6.5C166.4,421.8,162.7,415.7,162.7,405.7z"/>
	<path class="st4" d="M204.3,400.9c0-13,8.1-20.9,16.5-20.9c4.4,0,7.1,1.6,9.8,4.2l-0.4-6v-13.6H242v56.3h-9.6l-0.9-3.9h-0.3
		c-2.8,2.8-6.8,4.9-10.6,4.9C210.7,421.8,204.3,413.9,204.3,400.9z M230.1,408.6v-16.4c-2.1-1.9-4.4-2.5-6.6-2.5
		c-3.8,0-7.2,3.5-7.2,11.1c0,7.8,2.7,11.3,7.3,11.3C226.1,412.1,228.2,411.2,230.1,408.6z"/>
	<path class="st4" d="M248.7,394.4c0-17.1,9.7-26.9,23.8-26.9s23.8,9.9,23.8,26.9c0,17.1-9.7,27.4-23.8,27.4
		S248.7,411.5,248.7,394.4z M284.2,394.4c0-10.5-4.5-16.7-11.6-16.7s-11.6,6.2-11.6,16.7c0,11.2,4.5,17.7,11.6,17.7
		S284.2,405.6,284.2,394.4z M266.7,420.4l12-1.2c2,4.9,7.4,6.7,12.3,6.7c2.3,0,4.3-0.4,5.8-0.9l2.1,8.6c-1.9,1-5.2,1.7-9.3,1.7
		C278.2,435.4,270.3,429.1,266.7,420.4z"/>
	<path class="st4" d="M303,405.7V381h11.8v23.2c0,5.7,1.5,7.5,4.9,7.5c3,0,4.8-1.2,7.1-4.4V381h11.8v39.9H329l-0.9-5.5h-0.3
		c-3.3,4-7.1,6.5-12.5,6.5C306.6,421.8,303,415.7,303,405.7z"/>
	<path class="st4" d="M344.2,400.9c0-12.9,9.2-20.9,18.8-20.9c11.4,0,17,8.3,17,19.1c0,2.1-0.3,4.3-0.5,5.2h-23.8
		c1.1,5.8,5,8.4,10.3,8.4c3,0,5.7-0.9,8.6-2.6l3.9,7.1c-4.1,2.8-9.4,4.5-14.1,4.5C352.9,421.8,344.2,414.1,344.2,400.9z
		 M369.8,396.6c0-4.4-1.9-7.5-6.6-7.5c-3.7,0-7,2.5-7.8,7.5H369.8z"/>
	<path class="st4" d="M386,381h9.6l0.9,7h0.3c2.9-5.3,7.3-7.9,11.3-7.9c2.3,0,3.6,0.3,4.8,0.8l-2,10.2c-1.4-0.3-2.6-0.6-4.3-0.6
		c-3,0-6.7,1.9-8.8,7.4V421H386V381z"/>
	<path class="st4" d="M419.6,435.6l2.1-9c0.7,0.2,1.8,0.5,2.7,0.5c3.9,0,5.9-2.1,7-5.2l0.6-2.1L416.5,381h11.9l5.7,17.1
		c1.2,3.6,2.1,7.4,3.1,11.3h0.3c0.9-3.8,1.8-7.6,2.8-11.3l4.8-17.1h11.3l-13.8,40.3c-3.8,10-8,15.1-17.4,15.1
		C422.8,436.4,421.2,436.1,419.6,435.6z"/>
</g>
</svg>
