<?xml version="1.0" encoding="utf-8"?>
<!-- Generator: Adobe Illustrator 24.3.0, SVG Export Plug-In . SVG Version: 6.00 Build 0)  -->
<svg version="1.1" id="Layer_1" xmlns="http://www.w3.org/2000/svg" xmlns:xlink="http://www.w3.org/1999/xlink" x="0px" y="0px"
	 viewBox="0 0 376 76.8" style="enable-background:new 0 0 376 76.8;" xml:space="preserve">
<style type="text/css">
	.st0{fill:url(#SVGID_1_);}
	.st1{fill:url(#SVGID_2_);}
	.st2{fill:url(#SVGID_3_);}
	.st3{fill:url(#SVGID_4_);}
	.st4{fill:#161C24;}
</style>
<g>
	<g>
		<g>
			
				<linearGradient id="SVGID_1_" gradientUnits="userSpaceOnUse" x1="17.1763" y1="48.5357" x2="69.9442" y2="12.8257" gradientTransform="matrix(1 0 0 -1 0 78.0756)">
				<stop  offset="0" style="stop-color:#5DCBDD"/>
				<stop  offset="0.4944" style="stop-color:#73CC93"/>
				<stop  offset="1" style="stop-color:#F4E736"/>
			</linearGradient>
			<path class="st0" d="M28.2,43.4c3.5,0,6.4-2.8,6.4-6.4c0-3.5-2.8-6.4-6.4-6.4c-3.5,0-6.4,2.8-6.4,6.4
				C21.8,40.5,24.6,43.4,28.2,43.4z"/>
			
				<linearGradient id="SVGID_2_" gradientUnits="userSpaceOnUse" x1="23.5843" y1="58.0046" x2="76.3522" y2="22.2946" gradientTransform="matrix(1 0 0 -1 0 78.0756)">
				<stop  offset="0" style="stop-color:#5DCBDD"/>
				<stop  offset="0.4944" style="stop-color:#73CC93"/>
				<stop  offset="1" style="stop-color:#F4E736"/>
			</linearGradient>
			<path class="st1" d="M48.6,43.4c3.5,0,6.4-2.8,6.4-6.4c0-3.5-2.8-6.4-6.4-6.4s-6.4,2.8-6.4,6.4C42.2,40.5,45,43.4,48.6,43.4z"/>
			
				<linearGradient id="SVGID_3_" gradientUnits="userSpaceOnUse" x1="9.4054" y1="37.0529" x2="62.1734" y2="1.3428" gradientTransform="matrix(1 0 0 -1 0 78.0756)">
				<stop  offset="0" style="stop-color:#5DCBDD"/>
				<stop  offset="0.4944" style="stop-color:#73CC93"/>
				<stop  offset="1" style="stop-color:#F4E736"/>
			</linearGradient>
			<path class="st2" d="M71.3,62.4l-1.8-1.8l-9.3-9.3c-2.2,3.7-5.3,6.8-9,9c-3.8,2.2-8.2,3.5-12.9,3.5c-4.8,0-9.3-1.3-13.1-3.6
				c-3.7-2.2-6.8-5.3-9-9.1l-9.3,9.3c2.5,3.5,5.5,6.6,9,9.1c6.3,4.5,14,7.2,22.4,7.2c8.3,0,15.9-2.6,22.2-7.1l1.8,1.8
				c2.5,2.5,6.5,2.5,9,0S73.8,64.9,71.3,62.4z"/>
		</g>
	</g>
	
		<linearGradient id="SVGID_4_" gradientUnits="userSpaceOnUse" x1="79.8071" y1="55.9435" x2="-1.497" y2="54.9869" gradientTransform="matrix(1 0 0 -1 0 78.0756)">
		<stop  offset="0" style="stop-color:#355AAD"/>
		<stop  offset="0.4832" style="stop-color:#119ED8"/>
		<stop  offset="1" style="stop-color:#53C29D"/>
	</linearGradient>
	<path class="st3" d="M76.1,32c-1-5.9-3.3-11.3-6.7-16c-2.5-3.5-5.6-6.5-9.1-9c-6.2-4.4-13.8-7-22.1-7S22.3,2.6,16,7.1
		c-3.5,2.5-6.5,5.5-9,9c-3.3,4.6-5.6,10-6.5,15.8C0.2,34,0,36.1,0,38.3s0.2,4.3,0.5,6.4h13.1c-0.5-2-0.8-4.2-0.8-6.4
		c0-2.2,0.3-4.4,0.8-6.4c0.6-2.3,1.5-4.5,2.7-6.5c2.2-3.7,5.3-6.8,9-9c3.8-2.2,8.2-3.5,12.9-3.5c4.6,0,9,1.2,12.8,3.4
		c3.7,2.2,6.9,5.3,9.1,9c1.2,2.1,2.2,4.3,2.8,6.7c0.5,2,0.8,4.2,0.8,6.4c0,2.2-0.3,4.4-0.8,6.4h13.2c0.3-2.1,0.5-4.2,0.5-6.4
		S76.4,34.1,76.1,32z"/>
</g>
<g>
	<g>
		<path class="st4" d="M88.7,38.4c0-12.4,8.2-19.6,17.7-19.6c4.8,0,8.7,2.3,11.2,4.9l-4.5,5.4c-1.9-1.7-3.9-3-6.6-3
			c-5.1,0-9.2,4.5-9.2,12c0,7.7,3.6,12.2,9,12.2c3.1,0,5.5-1.5,7.3-3.5l4.5,5.3c-3.1,3.6-7.2,5.5-12.1,5.5
			C96.7,57.6,88.7,51,88.7,38.4z"/>
		<path class="st4" d="M121.2,48V16.7h8.4v31.7c0,1.8,0.8,2.4,1.5,2.4c0.3,0,0.6,0,1-0.1l1,6.2c-0.9,0.4-2.3,0.7-4.2,0.7
			C123.2,57.6,121.2,53.8,121.2,48z"/>
		<path class="st4" d="M133.7,42.6c0-9.5,6.7-14.9,13.9-14.9s13.9,5.5,13.9,14.9s-6.7,14.9-13.9,14.9S133.7,52.1,133.7,42.6z
			 M152.8,42.6c0-4.9-1.7-8.1-5.2-8.1s-5.2,3.2-5.2,8.1s1.7,8.1,5.2,8.1C151,50.8,152.8,47.6,152.8,42.6z"/>
		<path class="st4" d="M165.3,46.1V28.4h8.4V45c0,4.1,1.1,5.4,3.5,5.4c2.1,0,3.4-0.9,5.1-3.1V28.4h8.4v28.5h-6.9l-0.6-3.9H183
			c-2.4,2.8-5.1,4.6-8.9,4.6C167.9,57.6,165.3,53.2,165.3,46.1z"/>
		<path class="st4" d="M195,42.6c0-9.3,5.8-14.9,11.8-14.9c3.1,0,5.1,1.2,7,3l-0.3-4.3v-9.7h8.4v40.2H215l-0.6-2.8h-0.2
			c-2,2-4.8,3.5-7.6,3.5C199.6,57.6,195,51.9,195,42.6z M213.5,48.1V36.4c-1.5-1.3-3.2-1.8-4.7-1.8c-2.7,0-5.1,2.5-5.1,7.9
			c0,5.6,1.9,8.1,5.2,8.1C210.6,50.7,212.1,50,213.5,48.1z"/>
		<path class="st4" d="M226.8,38c0-12.2,6.9-19.2,17-19.2s17,7.1,17,19.2c0,12.2-6.9,19.5-17,19.5C233.7,57.6,226.8,50.2,226.8,38z
			 M252.1,38c0-7.5-3.2-11.9-8.3-11.9c-5.1,0-8.3,4.4-8.3,11.9c0,8,3.2,12.6,8.3,12.6C248.8,50.7,252.1,46,252.1,38z M239.6,56.6
			l8.6-0.9c1.4,3.5,5.3,4.8,8.8,4.8c1.6,0,3.1-0.3,4.2-0.6l1.5,6.2c-1.4,0.7-3.7,1.2-6.6,1.2C247.8,67.3,242.2,62.8,239.6,56.6z"/>
		<path class="st4" d="M265.5,46.1V28.4h8.4V45c0,4.1,1.1,5.4,3.5,5.4c2.1,0,3.4-0.9,5.1-3.1V28.4h8.4v28.5H284l-0.6-3.9h-0.2
			c-2.4,2.8-5.1,4.6-8.9,4.6C268.1,57.6,265.5,53.2,265.5,46.1z"/>
		<path class="st4" d="M294.9,42.6c0-9.2,6.6-14.9,13.4-14.9c8.1,0,12.1,5.9,12.1,13.7c0,1.5-0.2,3-0.4,3.7h-17c0.8,4.1,3.6,6,7.4,6
			c2.2,0,4.1-0.7,6.2-1.9l2.8,5.1c-2.9,2-6.7,3.2-10.1,3.2C301.2,57.6,294.9,52.1,294.9,42.6z M313.3,39.5c0-3.1-1.4-5.4-4.7-5.4
			c-2.7,0-5,1.8-5.5,5.4H313.3z"/>
		<path class="st4" d="M324.8,28.4h6.9l0.6,5h0.2c2.1-3.8,5.2-5.7,8.1-5.7c1.6,0,2.6,0.2,3.4,0.6l-1.4,7.3c-1-0.2-1.8-0.5-3.1-0.5
			c-2.1,0-4.8,1.4-6.3,5.3v16.5h-8.4L324.8,28.4L324.8,28.4z"/>
		<path class="st4" d="M348.8,67.4l1.5-6.4c0.5,0.1,1.3,0.4,1.9,0.4c2.8,0,4.2-1.5,5-3.7l0.4-1.5l-11-27.7h8.5l4.1,12.2
			c0.8,2.6,1.5,5.3,2.2,8.1h0.2c0.6-2.7,1.3-5.4,2-8.1l3.5-12.2h8.1l-9.9,28.8c-2.7,7.1-5.7,10.8-12.4,10.8
			C351.1,68,349.9,67.8,348.8,67.4z"/>
	</g>
</g>
</svg>
