<?xml version="1.0" encoding="utf-8"?><!--Generator: Adobe Illustrator 24.3.0, SVG Export Plug-In . SVG Version: 6.00 Build 0)--><svg xmlns="http://www.w3.org/2000/svg" viewBox="0 0 375.2 76.8" style="enable-background:new 0 0 375.2 76.8" xml:space="preserve"><path d="M88.3 38.4c0-12.4 8.2-19.6 17.7-19.6 4.8 0 8.7 2.3 11.2 4.9l-4.5 5.4c-1.9-1.7-3.9-3-6.6-3-5.1 0-9.2 4.5-9.2 12 0 7.7 3.6 12.2 9 12.2 3.1 0 5.5-1.5 7.3-3.5l4.5 5.3c-3.1 3.6-7.2 5.5-12.1 5.5-9.3 0-17.3-6.6-17.3-19.2zm32.5 9.6V16.7h8.4v31.7c0 1.8.8 2.4 1.5 2.4.3 0 .6 0 1-.1l1 6.2c-.9.4-2.3.7-4.2.7-5.7 0-7.7-3.8-7.7-9.6zm12.5-5.4c0-9.5 6.7-14.9 13.9-14.9s13.9 5.5 13.9 14.9-6.7 14.9-13.9 14.9-13.9-5.4-13.9-14.9zm19.1 0c0-4.9-1.7-8.1-5.2-8.1s-5.2 3.2-5.2 8.1 1.7 8.1 5.2 8.1c3.4.1 5.2-3.1 5.2-8.1zm12.5 3.5V28.4h8.4V45c0 4.1 1.1 5.4 3.5 5.4 2.1 0 3.4-.9 5.1-3.1V28.4h8.4v28.5h-6.9l-.6-3.9h-.2c-2.4 2.8-5.1 4.6-8.9 4.6-6.2 0-8.8-4.4-8.8-11.5zm29.7-3.5c0-9.3 5.8-14.9 11.8-14.9 3.1 0 5.1 1.2 7 3l-.3-4.3v-9.7h8.4v40.2h-6.9l-.6-2.8h-.2c-2 2-4.8 3.5-7.6 3.5-7 0-11.6-5.7-11.6-15zm18.5 5.5V36.4c-1.5-1.3-3.2-1.8-4.7-1.8-2.7 0-5.1 2.5-5.1 7.9 0 5.6 1.9 8.1 5.2 8.1 1.7.1 3.2-.6 4.6-2.5zM226.4 38c0-12.2 6.9-19.2 17-19.2s17 7.1 17 19.2c0 12.2-6.9 19.5-17 19.5-10.1.1-17-7.3-17-19.5zm25.3 0c0-7.5-3.2-11.9-8.3-11.9-5.1 0-8.3 4.4-8.3 11.9 0 8 3.2 12.6 8.3 12.6 5 .1 8.3-4.6 8.3-12.6zm-12.5 18.6 8.6-.9c1.4 3.5 5.3 4.8 8.8 4.8 1.6 0 3.1-.3 4.2-.6l1.5 6.2c-1.4.7-3.7 1.2-6.6 1.2-8.3 0-13.9-4.5-16.5-10.7zm25.9-10.5V28.4h8.4V45c0 4.1 1.1 5.4 3.5 5.4 2.1 0 3.4-.9 5.1-3.1V28.4h8.4v28.5h-6.9L283 53h-.2c-2.4 2.8-5.1 4.6-8.9 4.6-6.2 0-8.8-4.4-8.8-11.5zm29.4-3.5c0-9.2 6.6-14.9 13.4-14.9 8.1 0 12.1 5.9 12.1 13.7 0 1.5-.2 3-.4 3.7h-17c.8 4.1 3.6 6 7.4 6 2.2 0 4.1-.7 6.2-1.9l2.8 5.1c-2.9 2-6.7 3.2-10.1 3.2-8.1.1-14.4-5.4-14.4-14.9zm18.4-3.1c0-3.1-1.4-5.4-4.7-5.4-2.7 0-5 1.8-5.5 5.4h10.2zm11.5-11.1h6.9l.6 5h.2c2.1-3.8 5.2-5.7 8.1-5.7 1.6 0 2.6.2 3.4.6l-1.4 7.3c-1-.2-1.8-.5-3.1-.5-2.1 0-4.8 1.4-6.3 5.3v16.5h-8.4V28.4zm24 39 1.5-6.4c.5.1 1.3.4 1.9.4 2.8 0 4.2-1.5 5-3.7l.4-1.5-11-27.7h8.5l4.1 12.2c.8 2.6 1.5 5.3 2.2 8.1h.2c.6-2.7 1.3-5.4 2-8.1l3.5-12.2h8.1l-9.9 28.8c-2.7 7.1-5.7 10.8-12.4 10.8-1.8-.1-3-.3-4.1-.7z" style="fill:#fff"/><linearGradient id="a" gradientUnits="userSpaceOnUse" x1="-9.446" y1="429.94" x2="73.752" y2="430.69" gradientTransform="translate(0 -393.276)"><stop offset="0" style="stop-color:#ffe53b"/><stop offset="1" style="stop-color:#0ff"/></linearGradient><path d="M27.8 43.4c3.5 0 6.4-2.9 6.4-6.4s-2.9-6.4-6.4-6.4-6.4 2.9-6.4 6.4c0 3.5 2.8 6.4 6.4 6.4z" style="fill:url(#a)"/><linearGradient id="b" gradientUnits="userSpaceOnUse" x1="-9.444" y1="429.756" x2="73.754" y2="430.506" gradientTransform="translate(0 -393.276)"><stop offset="0" style="stop-color:#ffe53b"/><stop offset="1" style="stop-color:#0ff"/></linearGradient><path d="M48.2 43.4c3.5 0 6.4-2.9 6.4-6.4s-2.9-6.4-6.4-6.4-6.4 2.9-6.4 6.4 2.8 6.4 6.4 6.4z" style="fill:url(#b)"/><linearGradient id="c" gradientUnits="userSpaceOnUse" x1="-9.688" y1="456.798" x2="73.51" y2="457.548" gradientTransform="translate(0 -393.276)"><stop offset="0" style="stop-color:#ffe53b"/><stop offset="1" style="stop-color:#0ff"/></linearGradient><path d="m70.9 62.4-1.7-1.7-9.3-9.3c-2.2 3.7-5.3 6.8-9 9-3.8 2.2-8.2 3.5-12.9 3.5-4.8 0-9.3-1.3-13.1-3.6-3.7-2.2-6.8-5.4-8.9-9.1l-9.4 9.2c2.5 3.5 5.5 6.6 9 9.1 6.3 4.5 14 7.2 22.4 7.2 8.3 0 15.9-2.6 22.2-7.1l1.7 1.7c2.5 2.5 6.5 2.5 9 0 2.5-2.4 2.5-6.5 0-8.9z" style="fill:url(#c)"/><linearGradient id="d" gradientUnits="userSpaceOnUse" x1="-.402" y1="415.676" x2="76.198" y2="415.676" gradientTransform="translate(0 -393.276)"><stop offset="0" style="stop-color:#00ffa9"/><stop offset="1" style="stop-color:#0d4dff"/></linearGradient><path d="M12.5 38.4c0-2.2.3-4.3.8-6.4.6-2.3 1.5-4.5 2.7-6.5 2.2-3.7 5.3-6.8 9-9 3.8-2.2 8.2-3.5 12.9-3.5 4.6 0 9 1.2 12.7 3.4 3.7 2.2 6.9 5.2 9.1 8.9 1.2 2.1 2.2 4.3 2.8 6.7.5 2 .8 4.2.8 6.4s-.3 4.3-.8 6.4h13.1c.3-2.1.5-4.2.5-6.4s-.2-4.3-.5-6.4c-1-5.9-3.3-11.3-6.7-16-2.5-3.5-5.6-6.5-9.1-9-6.2-4.4-13.8-7-22-7-8.3 0-15.9 2.6-22.2 7.1-3.5 2.5-6.5 5.5-9 9C3.3 20.7 1 26.1 0 31.9c-.3 2.1-.5 4.2-.5 6.4s.2 4.3.5 6.4h13.1c-.4-2-.6-4.1-.6-6.3z" style="fill:url(#d)"/></svg>