<?xml version="1.0" encoding="utf-8"?>
<!-- Generator: Adobe Illustrator 19.0.0, SVG Export Plug-In . SVG Version: 6.00 Build 0)  -->
<svg version="1.1" id="layer" xmlns="http://www.w3.org/2000/svg" xmlns:xlink="http://www.w3.org/1999/xlink" 
     width="171" height="45" 
   viewBox="-0.504 0.5 1000.01 166.086"
    xml:space="preserve">
<path d="M60.7,304.1v20.1h-72.3v-85.1H60v20H12.4v11.7h44v20.5h-44v12.8H60.7 M184.1,239.1v85.1h-23.4v-45.5L144,324.2h-26
	l-16.8-45.5v45.5H77.8v-85.1h31.6l21.6,57.5l21.7-57.5H184.1 M261.7,268.6c0,7.1-3.2,9.5-10.7,9.5h-17.2v-19.1h17
	C258.3,259.1,261.7,261.5,261.7,268.6z M250.3,298.3c23.1,0,36-10.5,36-29.7c0-19.1-12.8-29.5-35.9-29.5h-40.7v85.1h24.1v-26
	L250.3,298.3z M299,239.1h24.3v47.7c0,4.6,1.4,8.6,4.2,12.1c2.7,3.6,7.5,5.3,14,5.3c6.6,0,11.4-1.7,14.1-5.3
	c2.8-3.5,4.2-7.5,4.2-12.1v-47.6h24.3v45.9c0,13.4-3.9,23.3-11.8,29.7c-7.7,6.4-18.1,9.5-30.8,9.5c-12.8,0-23.1-3.2-30.9-9.5
	c-7.7-6.4-11.7-16.3-11.7-29.7L299,239.1 M405,296.6c9.2,4.5,19.3,6.9,29.5,7c9.7,0,14.4-1.6,14.4-4.7c0-3.5-5.1-5.2-14.5-7.2
	c-1.3-0.1-2.8-0.5-4.6-0.9c-19.7-4.6-30.8-10.2-31.1-28.9c0-9.1,3.6-15.8,10.8-20.3c7.2-4.5,16.7-6.8,28.2-6.8c12,0,25.4,3,35.1,8.3
	l-7.7,18c-8.9-3.5-18.4-5.3-28-5.5c-8.9,0-13.9,1.9-13.9,5.3c0,3.5,4.8,4.9,13.4,6.5l3.4,0.8c10.6,2.3,18.8,5.4,24.7,9.7
	c5.8,4.1,8.8,10.3,8.8,18.6c0,9.3-3.7,16.3-11.1,20.9c-7.4,4.6-17,6.9-28.9,6.9c-6.4,0-12.9-0.9-19.6-2.7c-6.7-1.8-12.4-4.1-17-7
	L405,296.6 M-126.5,260.4h8.5v-21.3h-8.5V260.4z M-109.5,260.4h21.3v-21.3h-21.3V260.4z M-83.9,258.9v65.2h24.3v-65.2h14v-19.9
	h-38.3V258.9 M-37.1,260.4h8.5v-21.3h-8.5V260.4z"/>
</svg>
